<svg width="174" height="112" fill="none" xmlns="http://www.w3.org/2000/svg"><path d="M155.949 100.149c0 .223-.045.497-.074.808-.246 2.179-1.011 6.321-4.384 8.084-3.656 1.905-7.884-.281-9.021-.948l-.267-.163c-3.455-2.223-4.547-5.698-6.687-12.597a67.595 67.595 0 0 1-2.601-12.968 73.29 73.29 0 0 1-.372-10.004c1.523.38 3.013.875 4.459 1.482 10.863 4.587 15.603 14.198 16.718 16.673 1.293 2.846 2.6 5.758 2.229 9.633ZM136.632 59.393c-2.281-11.923 0-19.866 1.486-23.712 2.489-6.395 5.149-7.41 6.138-7.632a7.247 7.247 0 0 1 6.494 1.704c2.637 2.408 2.377 6.098 2.229 8.151-.089 1.274-.498 4.839-4.459 10.374a42.032 42.032 0 0 1-11.888 11.115ZM171.696 62.542a7.92 7.92 0 0 1-.914.964 8.919 8.919 0 0 1-1.486 1.074c-6.078 3.639-15.604 3.705-15.604 3.705a47.816 47.816 0 0 1-16.346-2.964 64.48 64.48 0 0 1 12.631-9.633c4.302-2.504 9.028-5.254 13.375-5.928a9.772 9.772 0 0 1 5.944.741c.542.267 3.715 1.912 4.458 5.187.743 3.276-1.523 6.188-2.058 6.854Z" fill="#73A9FF"/><path d="M128.458 70.509a4.452 4.452 0 0 0 4.458-4.446 4.452 4.452 0 0 0-4.458-4.446A4.452 4.452 0 0 0 124 66.063a4.452 4.452 0 0 0 4.458 4.446Z" fill="#E3ED62"/><path d="M71.57 27.714c1.256-3.097 3.3-9.314 2.23-16.302a20.867 20.867 0 0 0-3.716-8.818A6.395 6.395 0 0 0 67.112.297a5.96 5.96 0 0 0-3.715 0 6.313 6.313 0 0 0-3.277 2.668 8.607 8.607 0 0 0-1.181 5.483c.237 3.705 2.229 6.462 4.458 9.633.743 1.015 1.486 1.912 2.972 3.705a155.06 155.06 0 0 0 5.201 5.928ZM121.77 60.875a31.893 31.893 0 0 0-6.687-14.82c-2.229-2.645-5.893-7.106-10.403-6.67a7.057 7.057 0 0 0-4.458 2.224c-2.066 2.349-1.568 5.417-1.486 5.928.438 2.697 2.229 4.342 4.064 6.017 3.166 2.86 6.39 4.053 9.311 5.098a42.594 42.594 0 0 0 9.659 2.223ZM124.87 74.199c-.498.97-1.322 2.541-2.355 4.446-6.383 11.856-8.174 13.338-9.66 18.525-.787 2.831-2.823 10.108.743 13.338a6.386 6.386 0 0 0 4.459 1.482c5.684-.481 8.738-9.803 9.659-12.597A30.513 30.513 0 0 0 124.87 74.2ZM115.827 67.544a50.802 50.802 0 0 0-11.264-8.596c-4.161-2.32-6.524-2.83-8.798-2.52-.973.134-3.715.512-5.134 2.742a5.487 5.487 0 0 0-.81 3.187 6.9 6.9 0 0 0 2.229 4.446c4.124 4.12 12.119 2.964 17.09 2.223a47.33 47.33 0 0 0 6.687-1.482ZM26.367 77.025c-3.04-.467-12.765-1.579-20.396 4.446C4.076 82.953.502 85.769.026 90.363c0 .385-.512 5.647 2.973 8.151 3.715 2.675 9.102.126 10.922-.74 6.019-2.861 8.59-8.53 9.882-11.116 1.486-2.964 2.564-9.633 2.564-9.633ZM142.011 70.509c3.716 0 22.165.074 28.8 6.669 1.189 1.178 3.671 3.646 3.106 6.224-.446 2.06-2.615 3.142-2.972 3.342-2.407 1.305-5.558.816-9.043-.674-5.201-2.223-12.631-7.41-15.603-9.633a59.834 59.834 0 0 1-6.42-5.928h2.132Z" fill="#73A9FF"/></svg>