<svg width="134" height="162" viewBox="0 0 134 162" fill="none" xmlns="http://www.w3.org/2000/svg">
<path d="M23.2663 130.6C23.3118 130.767 23.4 130.963 23.4852 131.19C24.1077 132.773 25.5062 135.718 28.2893 136.325C31.3039 136.978 33.8908 134.441 34.5702 133.699L34.7288 133.52C36.7533 131.119 36.825 128.28 36.947 122.65C37.0055 119.204 36.7405 115.761 36.1557 112.369C35.7271 109.802 35.1311 107.268 34.3719 104.785C33.3569 105.392 32.3885 106.08 31.4753 106.843C24.6175 112.59 23.1845 120.807 22.8918 122.9C22.547 125.309 22.2052 127.772 23.2663 130.6Z" fill="#73A9FF"/>
<path d="M28.7877 95.9277C27.9812 86.4985 24.7154 81.023 22.8603 78.4531C19.7626 74.1837 17.645 73.9867 16.89 74.0297C16.0182 74.0758 15.1704 74.3417 14.4193 74.8045C13.6681 75.2673 13.0362 75.9132 12.5776 76.6867C11.1777 79.0534 12.1209 81.7668 12.6483 83.2752C12.9735 84.2125 13.9975 86.7998 17.9751 90.112C21.182 92.7656 24.8551 94.7412 28.7877 95.9277Z" fill="#73A9FF"/>
<path d="M4.25577 105.735C4.52565 105.936 4.8112 106.113 5.10943 106.264C5.52121 106.473 5.95258 106.638 6.39667 106.755C11.5065 108.195 18.3593 106.223 18.3593 106.223C22.3607 105.018 26.1274 103.09 29.4881 100.528C26.0004 98.5438 22.2908 97.0166 18.444 95.9811C14.8417 95.015 10.8852 93.9554 7.62608 94.3722C6.10456 94.5128 4.66459 95.1488 3.51018 96.1901C3.17543 96.5055 1.23474 98.4135 1.37276 101.029C1.51077 103.644 3.73494 105.348 4.25577 105.735Z" fill="#73A9FF"/>
<path d="M36.9328 102.527C35.1651 103.05 33.3241 101.98 32.8207 100.138C32.3173 98.2954 33.3422 96.3782 35.1099 95.8555C36.8776 95.3329 38.7186 96.4027 39.222 98.2451C39.7254 100.087 38.7005 102.005 36.9328 102.527Z" fill="#E3ED62"/>
<path d="M33.1355 92.8382C31.5992 90.7809 28.858 86.5503 28.1937 81.0807C27.9269 78.5761 28.221 76.0416 29.0531 73.6765C29.3683 72.7357 29.9475 71.9155 30.7157 71.3222C31.5007 70.7692 32.4354 70.4928 33.3827 70.5337C34.464 70.609 35.4878 71.0701 36.2817 71.8395C37.3335 72.8628 38.0276 74.2225 38.2538 75.7027C38.8426 78.5329 37.9782 81.0236 37.0281 83.8762C36.7028 84.7955 36.3533 85.6259 35.6541 87.2867C34.6587 89.6359 33.7651 91.5345 33.1355 92.8382Z" fill="#73A9FF"/>
<path d="M39.7626 93.8797C39.3023 89.6103 39.9096 85.2906 41.5254 81.3403C42.5835 78.8822 44.2989 74.7575 47.6266 74.1282C48.8886 73.8969 50.1887 74.1535 51.283 74.8498C53.2476 76.1738 53.5191 78.5812 53.5652 78.9822C53.8034 81.0991 52.8551 82.7135 51.8808 84.3596C50.1947 87.1777 48.124 88.7574 46.2418 90.1612C44.2289 91.6599 42.0544 92.9078 39.7626 93.8797Z" fill="#73A9FF"/>
<path d="M40.2636 104.53C40.8199 105.153 41.7339 106.156 42.8656 107.366C49.8773 114.905 51.4664 115.637 53.5963 119.213C54.7419 121.17 57.6948 126.197 55.7969 129.377C55.1186 130.423 54.0827 131.159 52.9006 131.435C48.7217 132.281 44.6189 125.935 43.385 124.035C41.5573 121.204 40.3329 117.998 39.7945 114.633C39.256 111.269 39.416 107.823 40.2636 104.53Z" fill="#73A9FF"/>
<path d="M45.3968 97.6182C47.098 94.3769 49.2272 91.4007 51.7223 88.7765C54.2343 86.1526 55.8259 85.2673 57.5222 85.0181C58.2485 84.9116 60.2945 84.6131 61.7708 85.9855C62.3898 86.5769 62.8206 87.3512 63.0056 88.2046C63.2378 89.52 62.9922 90.8779 62.3166 92.0142C60.2005 95.9814 54.2231 96.8113 50.5021 97.3106C48.8099 97.5417 47.1036 97.6445 45.3968 97.6182Z" fill="#73A9FF"/>
<path d="M45.4915 102.093C47.5777 101.098 54.3327 98.1989 61.0464 101.099C62.7105 101.809 65.8537 103.163 67.137 106.509C67.216 106.798 68.6627 110.637 66.6743 113.256C64.5554 116.052 60.1653 115.283 58.6806 115.019C53.7732 114.15 50.7652 110.443 49.3068 108.777C47.6323 106.868 45.4915 102.093 45.4915 102.093Z" fill="#73A9FF"/>
<path d="M27.1974 105.406C24.53 106.195 11.2989 110.167 7.88707 116.524C7.27506 117.661 5.99911 120.039 6.93324 121.855C7.67567 123.306 9.45522 123.657 9.75231 123.731C11.7482 124.199 13.9099 123.163 16.1065 121.306C19.3851 118.533 23.6565 113.064 25.3346 110.764C26.6004 108.916 27.7347 106.974 28.7285 104.953L27.1974 105.406Z" fill="#73A9FF"/>
<path d="M24.4125 161.2C22.9394 161.635 21.4053 160.744 20.9858 159.209C20.5663 157.673 21.4204 156.076 22.8934 155.64C24.3664 155.205 25.9006 156.096 26.3201 157.631C26.7396 159.167 25.8855 160.764 24.4125 161.2Z" fill="#92BEFC"/>
<path d="M45.8001 147.664C43.2958 148.404 40.6876 146.889 39.9744 144.279C39.2612 141.668 40.7132 138.952 43.2175 138.212C45.7218 137.471 48.3301 138.987 49.0432 141.597C49.7564 144.207 48.3044 146.923 45.8001 147.664Z" fill="#92BEFC"/>
<path d="M36.0328 158.363C34.1179 158.93 32.1234 157.771 31.578 155.775C31.0327 153.779 32.143 151.702 34.058 151.136C35.973 150.569 37.9675 151.728 38.5128 153.724C39.0582 155.72 37.9478 157.797 36.0328 158.363Z" fill="#92BEFC"/>
<path d="M4.98908 27.1054C9.26791 27.2651 13.532 27.7228 17.7526 28.4755C19.2011 28.7362 20.7051 29.0547 22.2535 29.3906C26.1989 30.3143 30.0903 31.4737 33.9082 32.863C44.8031 37.0109 69.1113 55.3431 73.8873 86.612C78.1123 114.287 64.477 135.234 60.8226 140.397L60.4955 140.853C63.3907 137.845 83.4016 116.341 80.5451 84.3046C78.7934 64.6611 68.4554 41.3792 50.0003 32.2936C34.6646 24.7232 13.3682 27.0751 4.98908 27.1054Z" fill="#73A9FF"/>
<path d="M3.45016 27.0706C3.9051 27.0938 4.42658 27.1055 5.01466 27.1058L4.00495 27.0708L3.45016 27.0706Z" fill="#73A9FF"/>
<path d="M48.3727 34.0237C38.9363 29.3969 27.3153 28.4781 17.7868 28.4731C19.2353 28.7339 20.7394 29.0524 22.2878 29.3883C26.2336 30.312 30.1252 31.4714 33.9434 32.8608C44.8391 37.0088 69.1491 55.3416 73.9255 86.6115C78.1507 114.287 64.5145 135.235 60.8599 140.398C66.7169 133.624 81.3803 113.781 78.9198 86.0363C77.1678 66.3922 66.8291 43.1096 48.3727 34.0237Z" fill="#6398E5"/>
<path d="M70.5976 133.969C73.4453 133.337 76.2436 132.485 78.9695 131.42C90.264 126.999 99.9438 119.008 106.653 108.568C115.929 93.836 110.338 87.1606 119.398 72.1795C124.997 62.9102 131.304 58.5806 133.317 55.8433C133.916 55.0175 134.132 54.3359 133.816 53.7061C132.149 50.3372 117.724 53.3454 106.629 60.0468C102.619 62.4654 94.2814 67.6316 88.6043 77.8887C82.5059 88.9429 85.2834 95.3684 80.5746 111.449C78.2302 119.387 74.8747 126.961 70.5976 133.969Z" fill="#6398E5"/>
<path d="M78.9682 131.42C90.263 126.999 99.943 119.009 106.652 108.569C115.928 93.8359 110.338 87.1604 119.397 72.1792C124.997 62.9097 131.304 58.5801 133.317 55.8428C127.724 56.2732 118.969 59.0879 111.625 63.5094C107.614 65.928 99.2763 71.0942 93.5991 81.3515C87.5005 92.4058 90.2781 98.8315 85.5692 114.913C83.8854 120.624 81.6748 126.153 78.9682 131.42Z" fill="#73A9FF"/>
<path d="M0.119189 18.2787C0.67483 20.0635 2.93899 21.4334 5.77445 22.4455C10.663 24.1805 17.3201 23.4448 19.5393 23.5268C19.729 23.5582 19.9233 23.5259 20.0941 23.4347C20.7707 22.9499 17.3188 20.7189 17.3188 20.7189L13.4728 18.0488C11.1867 16.439 8.6274 15.297 5.93166 14.6838C3.0409 14.0355 1.15475 14.2886 0.32897 16.09C-0.0110317 16.7634 -0.0862519 17.5482 0.119189 18.2787Z" fill="#73A9FF"/>
<path d="M0.118988 18.2797C0.674606 20.064 2.9387 21.4336 5.77406 22.4455C10.6624 24.1801 17.3194 23.4445 19.5385 23.5264C19.7282 23.5578 19.9225 23.5256 20.0932 23.4344C20.6866 22.8573 16.9577 21.2156 16.9577 21.2156L12.7516 19.2273C10.2461 18.0231 7.54441 17.3242 4.78967 17.1677C2.56498 17.0569 0.99508 17.339 0.118988 18.2797Z" fill="#6398E5"/>
<path d="M10.1675 10.2087C10.636 15.2114 16.7461 18.1374 20.9249 20.1382C25.2293 22.1798 29.8642 23.3581 34.5865 23.6112C34.6143 23.6112 34.6253 23.5823 34.5865 23.565C34.3423 23.4147 33.5986 22.9348 32.5496 22.1834C29.6141 20.1031 26.9222 17.6725 24.5288 14.9413C20.0877 9.74017 18.4204 3.96283 13.9821 4.53818C13.0897 4.61877 12.223 4.88967 11.4358 5.33402C10.5135 6.77086 10.0681 8.48276 10.1675 10.2087Z" fill="#6398E5"/>
<path d="M11.2768 9.05317C12.0391 13.4611 16.1017 15.9125 19.2596 17.8261C23.3426 20.2695 27.8878 21.7563 32.5778 22.1828C29.6326 20.1042 26.9313 17.6736 24.5292 14.9406C20.088 9.73936 18.4207 3.96192 13.9823 4.53728C13.0899 4.61787 12.2232 4.88877 11.436 5.33313C11.1291 6.54693 11.0748 7.81524 11.2768 9.05317Z" fill="#73A9FF"/>
<path d="M22.3025 6.84952C22.7323 12.1586 27.3005 15.7889 31.2858 18.9855C33.8665 20.9824 36.6202 22.7245 39.5112 24.1889C42.5677 25.8587 45.7183 27.3342 48.9458 28.6073C48.9727 28.6197 49.003 28.6215 49.0311 28.6125C49.0592 28.6035 49.0832 28.5842 49.0987 28.5582C49.1142 28.5322 49.1202 28.5012 49.1156 28.471C49.1109 28.4407 49.0959 28.4133 49.0733 28.3936C47.9631 27.2377 46.9527 26.0818 46.0422 24.9722C43.7786 22.223 41.7759 19.2523 40.0622 16.1016C35.7472 8.18515 35.012 2.26352 30.0674 0.499028C28.9594 0.116286 27.7922 -0.0450438 26.6271 0.0235438C25.656 0.0767119 24.7252 0.44374 23.9643 1.07355C21.9732 2.80557 22.2411 6.06962 22.3025 6.84952Z" fill="#C6C620"/>
<path d="M33.217 51.4813C33.1966 51.9769 33.2861 52.471 33.4784 52.9251C33.6265 53.2987 33.8566 53.631 34.1502 53.8956C36.5534 56.0623 40.5236 51.8027 46.3156 51.8981C48.7567 51.934 51.9526 52.6921 55.6987 55.5467C55.706 55.5553 55.715 55.5622 55.725 55.5669C55.735 55.5716 55.746 55.5741 55.757 55.5741C55.768 55.5741 55.7789 55.5717 55.7889 55.5669C55.799 55.5622 55.8079 55.5553 55.8152 55.5467C55.8251 55.5336 55.8304 55.5173 55.8304 55.5005C55.8304 55.4838 55.8251 55.4675 55.8152 55.4543C54.7683 53.7601 53.4827 52.2391 52.0017 50.9424C50.8195 49.9139 47.2786 46.8977 42.2354 46.6064C40.6342 46.4774 39.0258 46.7191 37.5257 47.3142C36.8212 47.5853 33.3434 49.0329 33.217 51.4813Z" fill="#73A9FF"/>
<path d="M33.4775 52.9275C33.6256 53.3011 33.8556 53.6334 34.1492 53.8979C36.5524 56.0642 40.5226 51.8053 46.3144 51.9007C48.7554 51.9366 51.9513 52.6946 55.6974 55.5487C55.7047 55.5573 55.7136 55.5642 55.7236 55.5689C55.7337 55.5736 55.7446 55.5761 55.7556 55.5761C55.7666 55.5761 55.7775 55.5736 55.7876 55.5689C55.7976 55.5642 55.8066 55.5573 55.8138 55.5487C54.6121 54.0725 53.2119 52.7845 51.6568 51.7245C50.3638 50.852 46.5069 48.3096 41.4642 48.6361C39.8608 48.708 38.2926 49.1468 36.8713 49.9213C36.3666 50.1924 34.3589 51.346 33.4775 52.9275Z" fill="#6398E5"/>
<path d="M72.2339 44.9967C73.2192 52.6724 76.1967 59.9249 80.8458 65.9733C80.8458 65.9733 80.4891 62.8187 80.1319 58.5143C79.5736 51.4251 78.9694 41.2275 80.0106 36.9181C81.6722 29.986 82.7824 30.5643 82.7824 30.5643C82.7824 30.5643 83.5768 32.2691 84.5324 34.5748C85.8456 30.1442 86.6671 30.5664 86.6671 30.5664C86.6671 30.5664 89.6892 37.0156 91.1123 42.1236C91.6682 44.1517 93.7752 52.0275 91.7095 60.9641C91.0602 63.5374 90.2646 66.0681 89.3268 68.5429C96.0611 62.4049 97.7684 58.2981 97.7684 58.2981C99.9421 53.0806 100.618 47.318 99.714 41.7062C98.8568 36.5061 97.4898 32.6923 94.1914 28.6348C90.0712 23.5485 85.4628 18.7739 82.8479 16.5425C81.793 15.6349 81.0602 15.1492 80.8216 15.2242C79.3401 15.6914 78.3529 17.0313 77.0778 19.798C74.6829 24.9849 70.8133 33.366 72.2339 44.9967Z" fill="#6398E5"/>
<path d="M76.1176 44.9976C76.7001 49.7086 78.0577 54.2808 80.1311 58.5134C79.5727 51.424 78.9685 41.2263 80.0098 36.9168C81.6715 29.9846 82.7817 30.563 82.7817 30.563C82.7817 30.563 83.5762 32.2678 84.5319 34.5735C85.8451 30.1428 86.6667 30.565 86.6667 30.565C86.6667 30.565 89.6889 37.0143 91.1121 42.1224C91.6681 44.1506 93.7752 52.0264 91.7093 60.9632C91.06 63.5366 90.2644 66.0673 89.3265 68.5421C96.0612 62.4041 97.7686 58.2971 97.7686 58.2971C99.9425 53.0796 100.618 47.3169 99.7143 41.705C98.8571 36.5048 97.49 32.6909 94.1914 28.6334C90.0709 23.547 85.4623 18.7724 82.8472 16.5409C82.0846 17.5362 81.4508 18.6314 80.9618 19.7985C78.5667 24.9855 74.6969 33.3667 76.1176 44.9976Z" fill="#73A9FF"/>
<path d="M47.0814 13.5417C47.4105 17.0659 47.9403 22.7566 52.2377 28.3972C55.1004 32.105 58.8791 34.9312 63.1673 36.5716C63.0951 36.4734 62.3733 35.5024 61.3572 34.075C58.8974 30.6075 54.694 24.4932 53.8548 21.5753C52.6209 17.3805 53.3644 17.3174 53.3644 17.3174C53.3644 17.3174 53.7641 17.5891 54.3691 18.0227C56.0725 19.2079 57.6971 20.5116 59.2317 21.9247C62.0113 24.5745 64.0997 27.9151 65.3012 31.6333C66.3071 34.9268 66.5531 38.7282 67.0524 38.7053C67.119 38.7054 67.1856 38.6188 67.2521 38.4513C67.4571 37.9199 67.6455 37.4116 67.8062 36.9206C70.1391 30.2609 69.6992 26.9389 69.6992 26.9389C69.2477 23.4737 67.841 20.2181 65.6496 17.5664C63.6065 15.1101 61.7247 13.5666 58.7556 12.5194C54.4046 10.9863 49.8319 9.90359 48.2116 9.82188C47.8842 9.82171 47.6567 9.82159 47.6235 9.89668C47.019 10.6358 46.9085 11.6641 47.0814 13.5417Z" fill="#6398E5"/>
<path d="M48.1917 12.3871C48.5208 15.9113 49.0506 21.6019 53.348 27.2425C55.5256 30.0826 58.2555 32.4111 61.3582 34.0752C58.8984 30.6077 54.6951 24.4934 53.8558 21.5755C52.622 17.3808 53.3655 17.3176 53.3655 17.3176C53.3655 17.3176 53.7651 17.5893 54.3702 18.0229C54.053 16.1972 54.4747 16.1628 54.4747 16.1628C56.5319 17.5595 58.4925 19.1049 60.342 20.7874C63.1215 23.4372 65.2099 26.7778 66.4114 30.496C67.1616 32.9632 67.4903 35.7248 67.8239 36.9381C70.1567 30.2784 69.7167 26.9564 69.7167 26.9564C69.2652 23.4912 67.8587 20.2356 65.6672 17.5839C63.6241 15.1276 61.7423 13.5842 58.7732 12.537C54.4223 11.0038 49.8496 9.92117 48.2293 9.83945C48.0838 10.6808 48.0711 11.5413 48.1917 12.3871Z" fill="#73A9FF"/>
<path d="M26.9893 8.00704C27.4191 13.3165 31.9876 16.9469 35.9732 20.1437C38.5539 22.1407 41.3078 23.8828 44.199 25.3474C45.52 26.0702 46.7854 26.7121 47.9787 27.2847C45.7073 24.5364 43.697 21.5655 41.9761 18.4136C37.6609 10.4967 36.9256 4.57479 31.9808 2.8102C30.8728 2.42744 29.7055 2.2661 28.5403 2.33469C26.6712 4.0842 26.9279 7.24443 26.9893 8.00704Z" fill="#E3ED62"/>
</svg>
