<svg width="174" height="171" viewBox="0 0 174 171" fill="none" xmlns="http://www.w3.org/2000/svg">
<path d="M168.452 57.0722C164.371 55.1548 160.172 53.524 155.882 52.1909C154.409 51.7357 152.858 51.3078 151.258 50.8748C147.15 49.8351 142.988 49.0426 138.792 48.5013C126.739 47.1286 95.8091 52.5811 77.4314 79.6055C61.1679 103.525 64.6325 129.762 65.7616 136.371L65.8653 136.957C64.4898 132.736 55.2983 102.896 72.2183 74.2244C82.5933 56.6441 102.632 39.7991 123.966 40.1926C141.702 40.5004 160.614 52.9956 168.452 57.0722Z" fill="#73A9FF"/>
<path d="M124.718 42.6043C135.617 42.8229 146.915 47.5751 155.846 52.1737C154.372 51.7185 152.821 51.2907 151.221 50.8577C147.113 49.818 142.951 49.0255 138.756 48.4841C126.702 47.1114 95.7724 52.5639 77.3947 79.5884C61.1312 103.508 64.5957 129.745 65.7248 136.354C63.2482 127.17 58.3303 101.472 72.9707 76.6361C83.3457 59.0558 103.384 42.2108 124.718 42.6043Z" fill="#6398E5"/>
<path d="M59.432 125.622C57.0445 123.653 54.8009 121.502 52.7197 119.186C44.1008 109.581 38.582 97.4091 36.9365 84.374C34.7936 66.0719 43.001 62.5111 41.1716 44.0804C40.0449 32.6795 36.0594 25.5708 35.39 22.0304C35.196 20.9664 35.2965 20.2226 35.8732 19.7847C38.9326 17.4295 51.1139 27.2211 58.5314 38.868C61.2146 43.0745 66.731 51.9491 67.4909 64.314C68.2912 77.6302 62.8314 82.316 60.0945 99.6763C58.7624 108.255 58.5396 116.981 59.432 125.622Z" fill="#6398E5"/>
<path d="M52.7203 119.187C44.1014 109.582 38.5826 97.4099 36.9371 84.3749C34.7942 66.0728 43.0016 62.5119 41.1722 44.0813C40.0455 32.6803 36.06 25.5716 35.3906 22.0312C40.4407 25.1373 47.3936 32.0076 52.3107 39.7038C54.9939 43.9103 60.5103 52.7849 61.2702 65.1499C62.0705 78.4661 56.6107 83.1518 53.8738 100.512C52.9122 106.684 52.5259 112.938 52.7203 119.187Z" fill="#73A9FF"/>
<path d="M171.132 38.7395C168.469 43.2066 161.441 42.9993 156.635 42.8572C151.693 42.6927 146.825 41.5585 142.287 39.5142C142.261 39.5008 142.263 39.4683 142.307 39.4708C142.603 39.4478 143.513 39.357 144.831 39.1588C148.507 38.6256 152.11 37.646 155.568 36.2401C162.043 33.5065 166.175 28.892 170.079 31.5764C170.879 32.0832 171.571 32.7561 172.111 33.5534C172.337 35.347 171.993 37.1683 171.132 38.7395Z" fill="#6398E5"/>
<path d="M170.606 37.1201C167.932 40.8871 163.034 41.2238 159.224 41.4933C154.31 41.8127 149.39 41.0113 144.804 39.1452C148.489 38.6183 152.101 37.6432 155.568 36.2399C162.043 33.5063 166.174 28.8917 170.078 31.5762C170.879 32.083 171.571 32.7559 172.111 33.5532C171.859 34.8402 171.346 36.0563 170.606 37.1201Z" fill="#73A9FF"/>
<path d="M161.249 29.7273C158.485 34.5002 152.59 35.6985 147.434 36.7717C144.127 37.3981 140.772 37.7018 137.411 37.6787C133.804 37.7684 130.196 37.6303 126.605 37.2651C126.574 37.2637 126.545 37.2508 126.523 37.2288C126.5 37.2067 126.486 37.177 126.483 37.1451C126.48 37.1133 126.489 37.0813 126.506 37.0552C126.524 37.0291 126.55 37.0106 126.58 37.003C128.135 36.4551 129.596 35.8589 130.942 35.2579C134.286 33.7726 137.484 31.9534 140.491 29.8257C148.055 24.484 151.377 19.284 156.795 20.0179C158.004 20.1942 159.169 20.6068 160.231 21.2341C161.117 21.7532 161.826 22.5473 162.26 23.5058C163.356 26.0927 161.653 29.0253 161.249 29.7273Z" fill="#C6C620"/>
<path d="M159.163 27.3035C156.399 32.0764 150.504 33.2747 145.348 34.3479C142.041 34.9744 138.686 35.2781 135.325 35.255C133.766 35.2948 132.295 35.2856 130.922 35.2461C134.272 33.7655 137.477 31.9499 140.491 29.8247C148.055 24.483 151.377 19.283 156.796 20.0168C158.004 20.1931 159.17 20.6058 160.231 21.2331C161.205 23.7773 159.559 26.6178 159.163 27.3035Z" fill="#E3ED62"/>
<path d="M113.961 74.8189C110.972 80.9389 100.133 75.9845 89.0772 80.8833C84.6545 82.8913 80.7544 85.9673 77.6993 89.8568C76.2487 91.6488 74.9315 93.5535 73.7593 95.5543C73.7368 95.5873 73.7044 95.6115 73.6672 95.6231C73.6299 95.6347 73.5901 95.633 73.554 95.6182C73.5178 95.6035 73.4874 95.5766 73.4676 95.5417C73.4479 95.5069 73.4398 95.4662 73.4448 95.4261C74.1907 91.3124 75.5284 87.3394 77.4126 83.6415C78.9048 80.7017 83.4545 72.0416 92.9103 67.3505C95.8926 65.7987 99.1673 64.9525 102.5 64.8724C104.073 64.8595 111.841 64.7876 113.937 69.4131C114.212 70.0383 114.391 70.7039 114.47 71.3864C114.633 72.5579 114.456 73.7534 113.961 74.8189Z" fill="#C6C620"/>
<path d="M112.389 71.3138C109.401 77.4338 98.5612 72.4794 87.5053 77.3782C83.0827 79.3862 79.1825 82.4622 76.1274 86.3518C76.5615 85.328 76.9883 84.4286 77.413 83.6427C78.9051 80.703 83.4549 72.0429 92.9106 67.3517C95.893 65.7999 99.1677 64.9537 102.501 64.8736C103.878 64.8617 109.984 64.803 112.898 67.8814C113.061 69.0528 112.884 70.2483 112.389 71.3138Z" fill="#E3ED62"/>
<path d="M131.169 66.3125C130.968 66.7875 130.664 67.2079 130.282 67.5411C129.977 67.8202 129.613 68.0209 129.22 68.1273C126.004 68.9994 124.177 63.0832 118.706 60.3738C116.402 59.2279 113.069 58.395 108.288 59.2637C108.278 59.2682 108.266 59.2704 108.255 59.2699C108.243 59.2695 108.232 59.2665 108.222 59.2612C108.211 59.2559 108.202 59.2484 108.195 59.2391C108.187 59.2298 108.182 59.219 108.179 59.2074C108.176 59.1903 108.178 59.1724 108.185 59.1567C108.193 59.141 108.205 59.1283 108.22 59.1207C109.955 58.0366 111.837 57.2305 113.802 56.7292C115.367 56.3353 120.028 55.2158 124.884 57.3794C126.442 58.0321 127.843 59.0363 128.984 60.3197C129.524 60.9145 132.14 63.9537 131.169 66.3125Z" fill="#73A9FF"/>
<path d="M130.281 67.5413C129.976 67.8203 129.613 68.0211 129.22 68.1275C126.004 68.9996 124.177 63.0834 118.706 60.374C116.402 59.2281 113.069 58.3952 108.288 59.2638C108.277 59.2684 108.266 59.2705 108.254 59.2701C108.243 59.2697 108.231 59.2667 108.221 59.2614C108.211 59.2561 108.201 59.2485 108.194 59.2392C108.187 59.23 108.182 59.2192 108.179 59.2076C109.962 58.4027 111.847 57.8703 113.776 57.6269C115.377 57.4328 120.123 56.9102 124.704 59.6536C126.175 60.496 127.45 61.6657 128.438 63.0794C128.79 63.5778 130.159 65.6309 130.281 67.5413Z" fill="#6398E5"/>
<path d="M97.4677 41.3814C93.1321 48.1054 87.1178 53.47 80.0724 56.8976C80.0724 56.8976 81.8092 54.1108 84.0575 50.2457C87.7324 43.8656 92.8322 34.592 93.7724 30.0467C95.2974 22.7416 94 22.7477 94 22.7477C94 22.7477 92.4977 23.963 90.5772 25.6642C91.3166 20.8738 90.3591 20.8729 90.3591 20.8729C90.3591 20.8729 84.6602 25.4625 81.0558 29.5664C79.6332 31.2003 74.1575 37.57 72.12 46.9507C71.5844 49.6782 71.2048 52.4364 70.9832 55.2108C67.402 46.2 67.628 41.5229 67.628 41.5229C67.9108 35.5787 69.8396 29.8468 73.1815 25.0196C76.2965 20.5558 79.273 17.6388 84.1675 15.4262C90.2895 12.6456 96.7303 10.3932 100.173 9.56333C101.564 9.22157 102.467 9.11999 102.657 9.30559C103.838 10.4595 104.167 12.1933 104.132 15.4045C104.07 21.4269 103.97 31.1579 97.4677 41.3814Z" fill="#6398E5"/>
<path d="M93.8275 39.5066C91.1874 43.6443 87.8826 47.2771 84.0583 50.2457C87.7332 43.8656 92.8329 34.592 93.7732 30.0467C95.2981 22.7416 94.0007 22.7477 94.0007 22.7477C94.0007 22.7477 92.4985 23.963 90.578 25.6642C91.3173 20.8738 90.3598 20.8729 90.3598 20.8729C90.3598 20.8729 84.6609 25.4625 81.0565 29.5664C79.6339 31.2003 74.1582 37.57 72.1208 46.9507C71.5851 49.6782 71.2055 52.4364 70.984 55.2108C67.4027 46.2 67.6288 41.5229 67.6288 41.5229C67.9116 35.5787 69.8403 29.8468 73.1822 25.0196C76.2972 20.5558 79.2737 17.6388 84.1682 15.4262C90.2902 12.6456 96.731 10.3932 100.173 9.56333C100.445 10.8653 100.552 12.1988 100.492 13.5297C100.43 19.5521 100.329 29.2831 93.8275 39.5066Z" fill="#73A9FF"/>
<path d="M135.039 24.0314C133.164 27.1784 130.137 32.2608 123.602 35.4758C119.27 37.5709 114.473 38.3964 109.725 37.8634C109.836 37.8061 110.944 37.244 112.531 36.3959C116.378 34.3315 123.036 30.6267 125.119 28.295C128.141 24.9561 127.472 24.5376 127.472 24.5376C127.472 24.5376 126.977 24.5994 126.217 24.7138C124.094 25.0027 121.992 25.4407 119.925 26.0249C116.142 27.1676 112.7 29.2924 109.921 32.1998C107.514 34.8033 105.593 38.2505 105.135 37.9878C105.073 37.9557 105.049 37.8423 105.061 37.653C105.105 37.0555 105.154 36.4876 105.222 35.9494C105.997 28.5749 107.886 25.6711 107.886 25.6711C109.85 22.6386 112.616 20.2642 115.848 18.8355C118.855 17.5184 121.305 16.9798 124.553 17.432C129.312 18.096 134.079 19.2897 135.634 19.9959C135.941 20.1539 136.154 20.2637 136.152 20.3502C136.389 21.3356 136.036 22.3536 135.039 24.0314Z" fill="#6398E5"/>
<path d="M134.513 22.4125C132.637 25.5595 129.611 30.6418 123.076 33.8568C119.772 35.4689 116.178 36.3343 112.531 36.3962C116.378 34.3318 123.035 30.627 125.119 28.2953C128.141 24.9564 127.472 24.5379 127.472 24.5379C127.472 24.5379 126.977 24.5997 126.217 24.7142C127.326 23.1547 126.946 22.9187 126.946 22.9187C124.397 23.235 121.872 23.7374 119.391 24.4222C115.608 25.5649 112.166 27.6897 109.387 30.5971C107.587 32.5491 106.051 34.9808 105.199 35.9579C105.973 28.5834 107.863 25.6796 107.863 25.6796C109.827 22.6472 112.592 20.2728 115.825 18.844C118.832 17.527 121.281 16.9883 124.53 17.4405C129.289 18.1045 134.055 19.2982 135.61 20.0044C135.372 20.8639 135.002 21.6773 134.513 22.4125Z" fill="#73A9FF"/>
<path d="M88.4954 108.191C85.5108 112.114 86.1443 117.815 89.9104 120.924C93.6766 124.033 99.1492 123.373 102.134 119.45C105.119 115.527 104.485 109.826 100.719 106.717C96.9527 103.608 91.4801 104.268 88.4954 108.191Z" fill="#73A9FF"/>
<path d="M103.797 120.823C102.269 122.832 102.593 125.752 104.522 127.344C106.451 128.937 109.254 128.599 110.783 126.589C112.311 124.58 111.987 121.66 110.058 120.068C108.129 118.475 105.326 118.813 103.797 120.823Z" fill="#73A9FF"/>
<path d="M88.4867 108.629C86.958 110.639 87.2824 113.559 89.2114 115.151C91.1404 116.743 93.9435 116.405 95.4722 114.396C97.0009 112.387 96.6765 109.467 94.7475 107.874C92.8185 106.282 90.0154 106.62 88.4867 108.629Z" fill="#6398E5"/>
<path d="M113.243 128.338C112.224 129.677 112.44 131.624 113.726 132.685C115.012 133.747 116.881 133.522 117.9 132.182C118.919 130.843 118.703 128.896 117.417 127.834C116.131 126.773 114.262 126.998 113.243 128.338Z" fill="#73A9FF"/>
<path d="M113.366 128.604C112.711 129.466 112.85 130.717 113.676 131.399C114.503 132.082 115.704 131.937 116.36 131.076C117.015 130.215 116.876 128.963 116.049 128.281C115.222 127.598 114.021 127.743 113.366 128.604Z" fill="#6398E5"/>
<path d="M103.92 121.089C102.9 122.428 103.117 124.375 104.403 125.437C105.689 126.498 107.557 126.273 108.577 124.933C109.596 123.594 109.379 121.647 108.093 120.586C106.807 119.524 104.939 119.749 103.92 121.089Z" fill="#6398E5"/>
<path d="M117.44 86.5542C118.109 87.5453 118.469 88.727 118.472 89.9388C118.452 90.1219 118.424 90.3039 118.387 90.484C118.224 91.3673 117.834 92.1878 117.258 92.8578C116.611 93.5709 115.781 94.0761 114.867 94.3137C111.756 95.249 108.713 94.2596 104.512 93.951C101.289 93.7165 99.0635 93.56 96.428 94.6111C93.9942 95.5749 92.3557 97.1163 91.0473 98.3378C89.9441 99.3744 88.9361 100.516 88.0363 101.747C87.5091 102.44 87.099 103.1 86.747 103.684C86.7325 103.706 86.7113 103.723 86.6868 103.731C86.6623 103.739 86.6358 103.738 86.6118 103.729C86.5877 103.719 86.5674 103.702 86.5541 103.679C86.5408 103.656 86.5353 103.629 86.5385 103.602C87.0406 99.9416 88.4254 96.4732 90.5634 93.5212C92.3144 91.1915 94.4829 89.2381 96.9487 87.7693C103.671 83.6889 114.211 81.9364 117.44 86.5542Z" fill="#73A9FF"/>
<path d="M117.785 89.3385C118.034 89.6907 118.236 90.0759 118.387 90.4839C118.224 91.3671 117.834 92.1877 117.258 92.8577C116.611 93.5707 115.781 94.0759 114.867 94.3136C111.756 95.2489 108.712 94.2595 104.512 93.9509C101.289 93.7163 99.0633 93.5599 96.4278 94.611C93.994 95.5748 92.3555 97.1162 91.0471 98.3377C89.9439 99.3743 88.9359 100.516 88.0361 101.747C88.7383 99.8064 89.7069 97.9818 90.9117 96.3304C92.659 93.9976 94.8269 92.0428 97.2936 90.5757C104.016 86.5015 114.548 84.7311 117.785 89.3385Z" fill="#6398E5"/>
<path d="M118.503 102.021C118.715 102.197 118.814 102.323 118.914 102.434C119.979 103.539 122.282 106.343 122.369 110.2C122.391 111.318 122.441 114.05 120.555 115.624C119.731 116.279 118.725 116.636 117.689 116.643C116.817 116.663 115.947 116.534 115.115 116.261C113.491 115.733 112.507 114.706 110.615 112.687C109.649 111.607 108.736 110.477 107.879 109.301C105.977 106.918 103.467 103.774 99.4797 102.367C97.4341 101.676 95.2663 101.468 93.1341 101.76C90.8225 101.995 88.58 102.713 86.5405 103.87C86.5322 103.872 86.5237 103.872 86.5155 103.869C86.5074 103.867 86.4997 103.863 86.4931 103.858C86.4865 103.852 86.4811 103.846 86.4772 103.838C86.4733 103.83 86.4711 103.821 86.4707 103.813C86.4727 103.805 86.476 103.799 86.4805 103.793C86.4851 103.787 86.4907 103.782 86.497 103.778C90.7174 97.7395 97.2918 95.946 97.2918 95.946C104.01 94.1131 110.175 95.9251 112.876 97.5287C114.904 98.8064 116.791 100.313 118.503 102.021Z" fill="#E3ED62"/>
<path d="M115 106.096C116.718 108.671 117.673 111.713 117.749 114.847C117.76 115.45 117.737 116.053 117.681 116.653C116.808 116.672 115.939 116.543 115.107 116.271C113.483 115.743 112.499 114.716 110.607 112.697C109.641 111.616 108.727 110.486 107.871 109.31C105.968 106.927 103.459 103.784 99.4713 102.376C97.4257 101.685 95.2578 101.478 93.1256 101.769C90.814 102.004 88.5716 102.722 86.5321 103.88C86.5238 103.881 86.5153 103.881 86.5071 103.879C86.4989 103.877 86.4912 103.873 86.4846 103.867C86.478 103.862 86.4726 103.855 86.4688 103.847C86.4649 103.839 86.4626 103.831 86.4622 103.822C86.8646 103.528 87.2915 103.237 87.747 102.959C89.1817 102.084 90.7129 101.393 92.3071 100.902C93.9714 100.418 95.6818 100.127 97.4074 100.035C99.4103 99.8022 101.43 99.7694 103.439 99.937C105.128 100.13 111.321 100.831 115 106.096Z" fill="#C6C620"/>
<path d="M127.527 103.678C128.776 105.189 129.741 106.933 130.37 108.817C130.913 110.495 132.081 114.1 130.372 116.345C130.078 116.752 129.708 117.093 129.284 117.348C128.86 117.603 128.392 117.767 127.906 117.829C127.6 117.847 127.293 117.813 126.997 117.727C126.542 117.595 126.115 117.374 125.738 117.077C123.188 115.125 124.992 110.12 123.389 105.706C122.741 103.924 121.283 101.541 117.567 99.371C117.259 99.1879 116.931 99.0072 116.582 98.8289C116.558 98.8156 116.538 98.7948 116.526 98.7692C116.514 98.7437 116.509 98.7148 116.513 98.6866C116.518 98.6583 116.53 98.6321 116.549 98.6117C116.569 98.5912 116.593 98.5775 116.62 98.5725C118.988 98.313 121.377 98.7893 123.486 99.9414C125.06 100.891 126.435 102.162 127.527 103.678Z" fill="#73A9FF"/>
<path d="M124.878 104.311C126.128 105.823 127.093 107.566 127.721 109.451C128.264 111.129 129.432 114.733 127.724 116.978C127.51 117.256 127.266 117.507 126.997 117.727C126.542 117.594 126.115 117.373 125.738 117.076C123.188 115.124 124.992 110.12 123.389 105.705C122.741 103.924 121.283 101.541 117.567 99.3705C118.711 99.5923 119.814 99.9986 120.837 100.575C122.412 101.524 123.786 102.795 124.878 104.311Z" fill="#6398E5"/>
<path d="M136.855 102.797C137.879 104.207 140.039 107.282 139.078 109.963C138.917 110.445 138.665 110.888 138.336 111.266C138.008 111.645 137.609 111.95 137.165 112.164L137.06 112.202C136.347 112.431 135.581 112.41 134.881 112.14C131.883 111.098 132.123 105.757 129.297 102.069C128.181 100.618 126.164 98.8686 122.182 97.9672C121.728 97.852 121.273 97.781 120.773 97.6839C120.746 97.6789 120.721 97.6653 120.701 97.6447C120.682 97.6242 120.67 97.598 120.666 97.5696C120.661 97.5413 120.666 97.5123 120.678 97.4868C120.691 97.4613 120.711 97.4404 120.735 97.4273C122.912 96.4232 125.325 96.1146 127.67 96.5407C129.449 96.936 131.133 97.7054 132.616 98.8018C134.258 99.8441 135.696 101.2 136.855 102.797Z" fill="#E3ED62"/>
<path d="M135.205 104.255C136.228 105.664 138.389 108.74 137.427 111.421C137.328 111.692 137.206 111.954 137.061 112.201C136.348 112.431 135.582 112.409 134.882 112.14C131.883 111.098 132.124 105.757 129.297 102.069C128.181 100.617 126.165 98.8684 122.182 97.967C123.46 97.7505 124.764 97.7657 126.036 98.0121C127.816 98.4074 129.499 99.1768 130.983 100.273C132.617 101.313 134.049 102.664 135.205 104.255Z" fill="#C6C620"/>
<path d="M141.518 94.8892C141.654 95.3786 141.693 95.8916 141.634 96.3972C141.575 96.9029 141.419 97.391 141.174 97.8323C140.855 98.3233 140.41 98.7124 139.891 98.9564C139.699 99.0486 139.501 99.1262 139.298 99.1884C136.267 100.139 133.506 95.6318 129.155 94.3186C127.723 93.887 125.646 93.678 122.824 94.5753C121.779 94.9137 120.763 95.3436 119.788 95.8603C119.763 95.8759 119.734 95.8822 119.705 95.8783C119.677 95.8743 119.65 95.8603 119.63 95.8385C119.61 95.8167 119.598 95.7885 119.595 95.7585C119.593 95.7285 119.6 95.6984 119.616 95.6733C120.838 93.5463 122.637 91.8434 124.786 90.7793C126.46 90.036 128.261 89.6539 130.081 89.6561C131.991 89.5215 133.908 89.7644 135.732 90.3721C137.35 90.9292 140.82 92.1188 141.518 94.8892Z" fill="#73A9FF"/>
<path d="M139.81 98.5573C139.836 98.658 139.863 98.7932 139.891 98.9567C139.699 99.049 139.5 99.1265 139.297 99.1888C136.267 100.14 133.506 95.6322 129.154 94.3189C127.723 93.8873 125.645 93.6784 122.823 94.5757L123.078 94.4474C124.752 93.7041 126.553 93.322 128.373 93.3242C130.283 93.1896 132.2 93.4325 134.024 94.0402C135.642 94.5973 139.112 95.787 139.81 98.5573Z" fill="#6398E5"/>
<path d="M74.0713 142.847C75.1506 143.299 76.3373 143.394 77.4704 143.12C77.6371 143.058 77.8008 142.988 77.9607 142.91C78.749 142.543 79.4267 141.959 79.9213 141.222C80.4398 140.403 80.7225 139.446 80.7357 138.465C80.8992 135.096 79.2792 132.236 78.0311 128.046C77.0783 124.828 76.4209 122.61 76.8011 119.697C77.1459 117.009 78.2149 114.992 79.0549 113.389C79.7717 112.034 80.6083 110.751 81.5536 109.557C82.0809 108.864 82.604 108.297 83.0692 107.807C83.0866 107.787 83.0972 107.762 83.0991 107.735C83.1011 107.708 83.0943 107.682 83.08 107.66C83.0657 107.637 83.0446 107.621 83.0201 107.613C82.9956 107.604 82.9692 107.605 82.9451 107.614C79.6378 108.959 76.7123 111.155 74.4427 113.999C72.6654 116.307 71.3351 118.952 70.5257 121.788C68.2583 129.524 69.0283 140.613 74.0713 142.847Z" fill="#73A9FF"/>
<path d="M76.7628 142.547C77.1488 142.719 77.555 142.836 77.9708 142.896C78.7591 142.529 79.4368 141.946 79.9314 141.208C80.4499 140.389 80.7326 139.432 80.7458 138.451C80.9093 135.083 79.2893 132.222 78.0412 128.033C77.0884 124.815 76.431 122.596 76.8112 119.684C77.156 116.995 78.2249 114.978 79.065 113.375C79.7818 112.02 80.6184 110.737 81.5637 109.543C79.9102 110.699 78.4262 112.098 77.1581 113.697C75.3773 116.002 74.0456 118.647 73.2377 121.483C70.9657 129.232 71.7198 140.313 76.7628 142.547Z" fill="#6398E5"/>
<path d="M88.7786 140.378C89.0047 140.537 89.1323 140.625 89.2586 140.701C90.535 141.529 93.6811 143.224 97.3062 142.431C98.369 142.18 100.921 141.624 101.961 139.352C102.385 138.367 102.489 137.265 102.259 136.213C102.078 135.324 101.759 134.471 101.314 133.69C100.449 132.164 99.2647 131.4 96.9456 129.943C95.7151 129.21 94.45 128.542 93.1551 127.942C90.4935 126.557 86.9822 124.73 84.7558 121.008C83.6425 119.091 82.9535 116.94 82.7388 114.711C82.4306 112.313 82.5891 109.875 83.2051 107.542C83.2046 107.534 83.2024 107.525 83.1985 107.517C83.1947 107.51 83.1892 107.503 83.1826 107.497C83.176 107.492 83.1684 107.488 83.1602 107.486C83.152 107.484 83.1435 107.483 83.1352 107.485C83.1288 107.488 83.1232 107.493 83.1187 107.499C83.1142 107.505 83.1108 107.512 83.1088 107.519C78.4294 113.179 78.2551 120.256 78.2551 120.256C78.0768 127.488 81.1789 133.326 83.2946 135.699C84.9521 137.464 86.7912 139.033 88.7786 140.378Z" fill="#E3ED62"/>
<path d="M91.7885 135.895C94.5872 137.048 97.649 137.322 100.596 136.683C101.161 136.557 101.719 136.396 102.267 136.202C102.086 135.312 101.767 134.46 101.322 133.678C100.458 132.152 99.273 131.389 96.9539 129.931C95.7234 129.198 94.4583 128.53 93.1634 127.93C90.5018 126.545 86.9905 124.719 84.7641 120.996C83.6508 119.08 82.9617 116.929 82.7471 114.7C82.4389 112.302 82.5974 109.864 83.2133 107.531C83.2129 107.522 83.2107 107.514 83.2068 107.506C83.2029 107.498 83.1975 107.491 83.1909 107.486C83.1843 107.48 83.1767 107.476 83.1685 107.474C83.1603 107.472 83.1518 107.472 83.1435 107.473C82.9606 107.949 82.7865 108.448 82.6304 108.973C82.1412 110.629 81.8454 112.339 81.7494 114.068C81.6789 115.866 81.798 117.667 82.1044 119.438C82.3446 121.523 82.7754 123.578 83.3909 125.577C83.9571 127.246 86.0296 133.363 91.7885 135.895Z" fill="#C6C620"/>
<path d="M92.3886 149.15C94.092 150.068 95.9466 150.642 97.8548 150.842C99.5471 151.009 103.183 151.37 104.891 149.125C105.204 148.733 105.439 148.28 105.58 147.792C105.722 147.304 105.767 146.791 105.714 146.284C105.661 145.97 105.559 145.666 105.412 145.386C105.184 144.955 104.88 144.572 104.516 144.257C102.091 142.142 97.8308 145.108 93.3313 144.501C91.5179 144.251 88.9577 143.317 86.0804 140.044C85.8406 139.771 85.5967 139.48 85.3487 139.17C85.3308 139.148 85.3068 139.133 85.2801 139.126C85.2534 139.119 85.2254 139.121 85.1999 139.132C85.1745 139.143 85.1529 139.162 85.1381 139.186C85.1234 139.21 85.1163 139.238 85.1178 139.267C85.4162 141.727 86.4071 144.041 87.9656 145.916C89.2159 147.293 90.7203 148.393 92.3886 149.15Z" fill="#73A9FF"/>
<path d="M92.3765 146.32C94.0799 147.238 95.9346 147.812 97.8427 148.012C99.5351 148.179 103.171 148.54 104.879 146.295C105.089 146.014 105.268 145.71 105.412 145.387C105.184 144.956 104.88 144.573 104.516 144.258C102.091 142.143 97.8312 145.108 93.3317 144.502C91.5183 144.252 88.9581 143.317 86.0808 140.045C86.5493 141.154 87.1812 142.18 87.9535 143.086C89.2038 144.463 90.7082 145.563 92.3765 146.32Z" fill="#6398E5"/>
<path d="M93.6969 158.812C95.261 159.511 98.6158 161.016 100.902 159.428C101.315 159.156 101.672 158.799 101.951 158.379C102.229 157.959 102.423 157.486 102.522 156.986L102.533 156.871C102.585 156.096 102.39 155.324 101.978 154.675C100.319 151.873 95.3817 153.337 91.2895 151.313C89.6778 150.513 87.5826 148.867 85.8303 145.035C85.6189 144.601 85.4486 144.155 85.2436 143.67C85.2327 143.644 85.2142 143.622 85.1907 143.607C85.1671 143.592 85.1397 143.585 85.1123 143.588C85.0849 143.59 85.0588 143.601 85.0378 143.62C85.0168 143.638 85.0018 143.663 84.9951 143.691C84.5539 146.127 84.817 148.645 85.7508 150.926C86.5268 152.64 87.6304 154.171 88.9942 155.426C90.3433 156.853 91.9388 158.001 93.6969 158.812Z" fill="#E3ED62"/>
<path d="M94.6828 156.806C96.2469 157.505 99.6017 159.011 101.888 157.423C102.119 157.26 102.335 157.076 102.533 156.873C102.585 156.097 102.39 155.325 101.978 154.677C100.319 151.874 95.3821 153.338 91.2899 151.314C89.6782 150.514 87.583 148.869 85.8307 145.036C85.9202 146.381 86.2324 147.7 86.7533 148.934C87.5293 150.648 88.6329 152.179 89.9967 153.434C91.342 154.854 92.9317 155.998 94.6828 156.806Z" fill="#C6C620"/>
<path d="M87.3718 165.347C87.8602 165.372 88.3486 165.295 88.8077 165.12C89.2668 164.944 89.6873 164.674 90.0439 164.326C90.4298 163.889 90.692 163.35 90.8014 162.768C90.8437 162.552 90.8708 162.333 90.8827 162.113C91.079 158.822 86.2355 157.052 84.014 152.939C83.2836 151.586 82.6136 149.527 82.8076 146.46C82.8852 145.323 83.0549 144.195 83.3151 143.088C83.324 143.059 83.3232 143.028 83.313 143C83.3027 142.972 83.2836 142.948 83.2586 142.933C83.2337 142.918 83.2045 142.912 83.1759 142.916C83.1473 142.92 83.1209 142.935 83.1011 142.957C81.3922 144.681 80.2116 146.894 79.708 149.317C79.3957 151.185 79.4501 153.099 79.868 154.944C80.1786 156.912 80.8436 158.8 81.8281 160.511C82.7184 162.024 84.6232 165.272 87.3718 165.347Z" fill="#73A9FF"/>
<path d="M90.4102 162.777C90.5103 162.781 90.6429 162.778 90.8019 162.768C90.8442 162.552 90.8714 162.333 90.8832 162.113C91.0795 158.823 86.2361 157.053 84.0146 152.94C83.2841 151.586 82.6142 149.527 82.8082 146.46L82.7465 146.748C82.4342 148.615 82.4886 150.53 82.9065 152.375C83.217 154.342 83.8821 156.231 84.8666 157.942C85.7568 159.455 87.6617 162.703 90.4102 162.777Z" fill="#6398E5"/>
</svg>
