<svg  fill="none" xmlns="http://www.w3.org/2000/svg"><path d="M151.611 117.085c0 .223-.043.497-.072.808-.238 2.179-.982 6.322-4.262 8.086-3.554 1.905-7.664-.282-8.769-.949l-.26-.163c-3.359-2.223-4.421-5.699-6.502-12.599a69.422 69.422 0 0 1-2.528-12.97 75.45 75.45 0 0 1-.361-10.005 29.07 29.07 0 0 1 4.334 1.482c10.561 4.588 15.17 14.2 16.253 16.676 1.257 2.846 2.529 5.758 2.167 9.634ZM132.834 76.322c-2.218-11.925 0-19.87 1.444-23.717 2.42-6.395 5.006-7.41 5.967-7.633a6.855 6.855 0 0 1 3.361.054c1.1.297 2.113.864 2.953 1.65 2.564 2.41 2.311 6.1 2.167 8.153-.087 1.275-.484 4.84-4.334 10.376a41.377 41.377 0 0 1-11.558 11.117ZM166.92 79.473a7.796 7.796 0 0 1-.888.964 8.69 8.69 0 0 1-1.445 1.074c-5.909 3.64-15.17 3.706-15.17 3.706a45.334 45.334 0 0 1-15.892-2.965 62.94 62.94 0 0 1 12.281-9.634c4.182-2.505 8.776-5.255 13.002-5.93a9.26 9.26 0 0 1 5.779.742c.527.267 3.612 1.912 4.334 5.188.723 3.276-1.481 6.188-2.001 6.855Z" fill="#73A9FF"/><path d="M124.887 87.44c2.394 0 4.334-1.99 4.334-4.446 0-2.456-1.94-4.447-4.334-4.447-2.394 0-4.334 1.99-4.334 4.447 0 2.456 1.94 4.446 4.334 4.446Z" fill="#E3ED62"/><path d="M69.579 44.639c1.22-3.098 3.207-9.316 2.167-16.305a21.192 21.192 0 0 0-3.612-8.82 6.243 6.243 0 0 0-2.89-2.297 5.64 5.64 0 0 0-3.612 0 6.176 6.176 0 0 0-3.185 2.668 8.81 8.81 0 0 0-1.149 5.484c.231 3.706 2.167 6.463 4.334 9.635.723 1.015 1.445 1.912 2.89 3.706a153.743 153.743 0 0 0 5.056 5.929ZM118.384 77.804a32.335 32.335 0 0 0-6.501-14.823c-2.167-2.645-5.729-7.107-10.113-6.67a6.794 6.794 0 0 0-4.334 2.224c-2.009 2.349-1.525 5.417-1.445 5.929.426 2.697 2.167 4.343 3.951 6.017 3.077 2.861 6.212 4.055 9.051 5.1a40.456 40.456 0 0 0 9.391 2.223ZM121.397 91.129c-.484.97-1.286 2.542-2.29 4.447-6.205 11.858-7.946 13.34-9.391 18.528-.766 2.831-2.745 10.109.722 13.34a6.09 6.09 0 0 0 4.334 1.482c5.527-.481 8.495-9.805 9.391-12.599a31.359 31.359 0 0 0 1.281-12.907 31.165 31.165 0 0 0-4.047-12.291ZM112.605 84.475a49.558 49.558 0 0 0-10.951-8.597c-4.045-2.32-6.342-2.831-8.552-2.52-.947.133-3.612.511-4.992 2.742a5.61 5.61 0 0 0-.787 3.187 6.973 6.973 0 0 0 2.167 4.447c4.009 4.12 11.782 2.964 16.614 2.223a44.92 44.92 0 0 0 6.501-1.482ZM25.634 93.957c-2.955-.467-12.41-1.58-19.83 4.446-1.841 1.482-5.316 4.299-5.778 8.894 0 .385-.499 5.647 2.89 8.152 3.611 2.676 8.848.126 10.618-.741 5.851-2.861 8.35-8.53 9.607-11.117 1.445-2.964 2.493-9.634 2.493-9.634ZM138.063 87.441c3.612 0 21.549.075 27.999 6.67 1.156 1.179 3.569 3.647 3.02 6.226-.434 2.06-2.543 3.142-2.89 3.343-2.34 1.304-5.403.815-8.791-.675-5.056-2.223-12.28-7.411-15.17-9.635a58.907 58.907 0 0 1-6.241-5.929h2.073ZM321.664 72.927c-7.318.539-16.977-.604-24.443-7.082-7.919-6.84-10.921-17.504-10.614-24.193a35.486 35.486 0 0 1 1.179-7.258c.213-.732.407-1.385.59-1.972a39.954 39.954 0 0 0 2.035 14.37 39.995 39.995 0 0 0 7.665 13.307c8.545 9.756 19.631 12.17 23.588 12.828Z" fill="#73A9FF"/><path d="M322.49 73.614c-6.717 3.024-16.205 5.231-25.356 1.711-9.671-3.732-15.987-12.75-17.879-19.16a35.473 35.473 0 0 1-1.256-7.259 76.262 76.262 0 0 1-.077-2.062 39.221 39.221 0 0 0 6.622 12.84 39.104 39.104 0 0 0 11.564 9.907c11.233 6.279 22.466 4.748 26.382 4.023Z" fill="#6398E5"/><path d="M316.728 70.703c-6.622-3.23-14.471-9.127-17.862-18.52-3.608-9.95-1.096-20.746 2.389-26.413a34.443 34.443 0 0 1 4.511-5.722c.536-.526 1.02-.998 1.468-1.415a39.668 39.668 0 0 0-5.118 13.548c-.89 5.12-.796 10.37.277 15.454 2.759 12.81 11.233 20.51 14.335 23.068Z" fill="#73A9FF"/><path d="M385.107 115.406h-.036c-.129-.079 9.258-11.746 15.332-32.661 3.314-11.407 5.578-19.21 4.423-28.73-2.56-21.102-21.187-44.757-43.047-44.757-.672 0-15.107.23-24.572 10.554a27.562 27.562 0 0 0-4.027 4.839c-4.057 6.23-7.389 16.687-3.538 24.798 2.288 4.839 6.604 7.754 8.845 9.43a23.932 23.932 0 0 1-5.307-2.777c-.39-.272-5.537-3.943-8.091-10.052-4.717-11.298 1.734-25.403 8.94-33.46l.477-.52a38.882 38.882 0 0 1 15.462-10.034c17.248-5.921 36.495 1.815 48.035 13.627 10.915 11.165 13.563 24.593 14.152 27.822 6.393 36.127-25.627 70.802-27.048 71.921Z" fill="#6398E5"/><path d="M385.107 115.405h-.036c-.129-.078 9.258-11.746 15.332-32.66 3.314-11.408 5.578-19.21 4.423-28.73-2.56-21.103-21.187-44.758-43.047-44.758-.672 0-15.107.23-24.572 10.555a27.563 27.563 0 0 0-4.027 4.838c-4.057 6.23-7.389 16.688-3.538 24.798 2.288 4.839 6.604 7.754 8.845 9.43a23.937 23.937 0 0 1-5.307-2.776c-.39-.273-5.537-3.944-8.091-10.053-4.717-11.298 1.734-25.403 8.94-33.46l.477-.52a38.902 38.902 0 0 1 14.282-8.824c17.249-5.921 36.496 1.815 48.036 13.627 10.915 11.165 13.562 24.593 14.152 27.822 5.791 32.734-19.978 64.282-25.869 70.711Z" fill="#73A9FF"/><path d="M398.616 38.628c-.448.363-3.639-5.903-10.526-10.197a25.235 25.235 0 0 0-3.627-1.9c-2.441-1.034-5.949-1.91-12.972-3.628-3.786-.926-8.616-1.99-11.204-5.444-.502-.665-1.551-2.105-1.18-3.629.07-.29.188-.567.348-.816a4.453 4.453 0 0 1 1.675-1.494c2.777-1.555 6.245-.236 9.771 1.1a31.967 31.967 0 0 1 4.34 2.069c1.15.653 2.26 1.376 3.326 2.165 5.926 4.397 9.093 6.744 12.383 10.282 5.012 5.36 8.102 11.141 7.666 11.492Z" fill="#73A9FF"/><path d="M388.09 28.433a25.235 25.235 0 0 0-3.627-1.9c-2.441-1.034-5.949-1.91-12.972-3.629-3.786-.925-8.616-1.99-11.204-5.443-.502-.665-1.551-2.105-1.18-3.63.07-.29.188-.566.348-.816 2.654-1.022 5.844.194 9.087 1.422a31.897 31.897 0 0 1 4.34 2.068 32.653 32.653 0 0 1 3.326 2.166c5.631 4.179 8.768 6.502 11.882 9.762Z" fill="#6398E5"/><path d="M401.572 48.911c-.412.339-3.632-6.103-10.726-9.605a17.218 17.218 0 0 0-1.12-.52c-2.046-.87-4.983-1.603-10.868-3.024-3.167-.774-7.212-1.663-9.376-4.554-.4-.5-.713-1.067-.926-1.676a2.611 2.611 0 0 1-.065-1.367c.143-.422.366-.812.658-1.144a3.267 3.267 0 0 1 1.041-.791c2.323-1.3 5.224-.194 8.179.925 2.271.884 4.42 2.07 6.392 3.526 4.965 3.678 7.612 5.65 10.372 8.613 4.193 4.476 6.805 9.315 6.439 9.617Z" fill="#C6C620"/><path d="M390.845 39.308a17.494 17.494 0 0 0-1.121-.52c-2.046-.871-4.983-1.603-10.868-3.025-3.166-.774-7.211-1.663-9.376-4.554a5.684 5.684 0 0 1-.925-1.675c.146-.102.297-.195.454-.279 2.323-1.3 5.224-.193 8.179.926 2.271.883 4.42 2.069 6.392 3.526 3.155 2.322 5.366 3.962 7.265 5.6Z" fill="#E3ED62"/><path d="M401.366 59.086c-.336.223-2.412-5.142-7.848-8.081l-.307-.163a70.493 70.493 0 0 0-7.271-2.758c-2.229-.775-5.071-1.694-6.439-3.914a4.188 4.188 0 0 1-.495-1.04 1.925 1.925 0 0 1 0-1.21c.129-.294.315-.558.546-.777.231-.22.502-.389.798-.499 1.769-.774 3.762.218 5.808 1.21a20.07 20.07 0 0 1 2.501 1.494c.653.46 1.281.956 1.881 1.488 3.32 2.982 5.1 4.578 6.881 6.889 2.672 3.538 4.228 7.167 3.945 7.36Z" fill="#73A9FF"/><path d="M393.211 50.84a70.493 70.493 0 0 0-7.271-2.758c-2.228-.774-5.071-1.693-6.439-3.913a4.225 4.225 0 0 1-.495-1.04l.147-.067c1.769-.774 3.762.218 5.809 1.21a20.13 20.13 0 0 1 2.5 1.494c.653.46 1.281.956 1.881 1.488 1.568 1.445 2.819 2.564 3.868 3.586Z" fill="#6398E5"/><path d="M401.35 69.38c.219-.11-.589-2.892-2.282-5.662-1.102-1.814-2.258-3.133-4.422-5.582-.388-.43-.802-.834-1.239-1.21a13.546 13.546 0 0 0-1.686-1.294c-1.398-.908-2.772-1.815-4.128-1.386a1.7 1.7 0 0 0-.62.293c-.185.14-.341.316-.459.518a2.02 2.02 0 0 0 .189 1.67c.808 1.73 2.789 2.636 4.34 3.386a43.796 43.796 0 0 1 5.266 2.77c3.72 2.571 4.782 6.63 5.041 6.496Z" fill="#E3ED62"/><path d="M363.825 64.032a6.774 6.774 0 0 1-1.094 3.696 6.517 6.517 0 0 1-2.911 2.45 6.334 6.334 0 0 1-3.747.38 6.442 6.442 0 0 1-3.322-1.821 6.707 6.707 0 0 1-1.775-3.407 6.814 6.814 0 0 1 .369-3.844 6.624 6.624 0 0 1 2.389-2.986 6.373 6.373 0 0 1 3.604-1.121c1.72 0 3.37.7 4.587 1.949a6.743 6.743 0 0 1 1.9 4.704Z" fill="#C6C620"/><path d="M362.352 66.15a6.781 6.781 0 0 1-1.093 3.696 6.527 6.527 0 0 1-2.911 2.45 6.337 6.337 0 0 1-3.748.379 6.437 6.437 0 0 1-3.321-1.821 6.706 6.706 0 0 1-1.775-3.407 6.805 6.805 0 0 1 .369-3.844 6.618 6.618 0 0 1 2.389-2.986 6.368 6.368 0 0 1 3.603-1.12c.854-.007 1.7.16 2.49.493.79.332 1.507.822 2.111 1.44a6.617 6.617 0 0 1 1.405 2.166c.324.81.487 1.678.481 2.553Z" fill="#E3ED62"/><path d="M345.543 116.652c-1.438 0-3.113 0-4.994.084a64.73 64.73 0 0 0-19.772 4.15c-17.295 6.653-20.179 16.566-35.971 19.354a55.154 55.154 0 0 1-10.16.75c-7.925-.084-14.695-1.554-14.742-2.558 0-.278.49-.502.72-.605 1.851-.865 4.381-3.629 9.435-9.073 4.64-5.02 6.333-8.552 10.614-13.911 5.307-6.653 10.054-12.592 17.726-16.094 9.434-4.313 18.574-2.764 21.782-2.05 16.329 3.61 24.13 17.654 25.362 19.953Z" fill="#73A9FF"/><path d="M340.533 116.736a64.704 64.704 0 0 0-19.772 4.149c-17.295 6.653-20.178 16.566-35.97 19.354a55.16 55.16 0 0 1-10.16.75l.135-.145c4.641-5.02 6.334-8.552 10.615-13.911 5.307-6.653 10.054-12.592 17.725-16.094 9.435-4.313 18.575-2.764 21.783-2.051a35.84 35.84 0 0 1 15.644 7.948Z" fill="#6398E5"/><path d="M314.293 91.248a41.881 41.881 0 0 0-10.355.55 32.48 32.48 0 0 0-9.105 3.079c-7.035 3.629-13.002 10.089-17.101 14.516-4.098 4.427-9.594 11.111-14.742 11.492a9.4 9.4 0 0 1-1.574 0 5.434 5.434 0 0 1-3.143-1.21 6.012 6.012 0 0 1-1.769-3.024c-1.339-4.524 1.315-9.073 2.359-10.887a22.833 22.833 0 0 1 2.653-3.629c3.072-3.629 9.193-8.728 22.703-12.097 19.459-4.838 30.074 1.21 30.074 1.21Z" fill="#E3ED62"/><path d="M303.939 91.8a32.483 32.483 0 0 0-9.105 3.078c-7.034 3.629-13.002 10.089-17.1 14.516-4.099 4.427-9.594 11.111-14.742 11.492a9.413 9.413 0 0 1-1.575 0c-.076-.224-.141-.43-.194-.605-1.339-4.524 1.315-9.073 2.358-10.887a22.84 22.84 0 0 1 2.654-3.629c3.072-3.629 9.193-8.728 22.703-12.097a59.199 59.199 0 0 1 15.001-1.869Z" fill="#C6C620"/><path d="M279.684 78.286c-10.231 3.532-11.387 3.89-11.387 3.89-8.303 2.558-12.448 3.834-18.103 3.628-1.297-.048-2.571-.103-3.833-.242a17.43 17.43 0 0 1-8.138-2.794c-5.667-3.78-7.966-10.234-8.845-12.702a59.029 59.029 0 0 1-1.769-6.653c-.318-1.39-.59-3.35-1.114-7.258v-.163c-.171-1.294-.189-1.47-.042-1.675 1.451-2.063 11.794 2.867 18.28 6.653 3.568 2.08 3.12 2.153 5.897 3.629a61.89 61.89 0 0 0 14.742 5.443c5.679 1.343 8.061 1.137 8.073 1.645 0 .914-7.819 2.54-16.653 1.815a48.94 48.94 0 0 1-3.803-.454c-6.605-1.058-9.765-3.066-10.614-3.629-2.666-1.772-4.476-3.865-4.718-3.629-.242.236 1.392 2.746 3.597 4.839a18.358 18.358 0 0 0 3.361 2.486l-.471-.073c-6.605-1.058-9.765-3.066-10.615-3.629-2.665-1.772-4.475-3.865-4.717-3.629-.242.236 1.392 2.746 3.597 4.839 2.04 1.941 4.057 2.8 5.248 3.629 3.32 2.298 6.988 2.661 10.614 3.024.313 0 1.486.042 3.197.127 1.291.06 7.542.042 8.845 0 1.769-.055 3.119-.333 5.065-.526a39.747 39.747 0 0 1 3.538-.206 50.253 50.253 0 0 1 10.768.998c.079 0 .156.033.212.09a.31.31 0 0 1 .088.219.31.31 0 0 1-.088.218.296.296 0 0 1-.212.09Z" fill="#6398E5"/><path d="M270.84 78.287c-10.231 3.532-11.387 3.889-11.387 3.889-5.72 1.76-9.464 2.915-13.091 3.399a17.428 17.428 0 0 1-8.137-2.794c-5.667-3.78-7.967-10.234-8.845-12.702a59.023 59.023 0 0 1-1.769-6.653c-.319-1.391-.59-3.35-1.115-7.258a98.232 98.232 0 0 1 9.37 4.839c3.568 2.08 3.119 2.153 5.897 3.629a61.875 61.875 0 0 0 14.742 5.443c5.678 1.343 8.061 1.137 8.073 1.645.011.508-3.185 1.458-7.808 1.815a48.882 48.882 0 0 1-3.803-.454c-6.605-1.058-9.765-3.066-10.614-3.629-2.666-1.772-4.476-3.865-4.718-3.629-.242.236 1.392 2.746 3.597 4.839a18.359 18.359 0 0 0 3.361 2.486l-.471-.073c-6.605-1.058-9.765-3.066-10.615-3.629-2.665-1.772-4.475-3.865-4.717-3.629-.242.236 1.392 2.746 3.597 4.839 2.04 1.941 4.057 2.8 5.248 3.629 3.32 2.298 6.988 2.661 10.614 3.024 3.061.302 14.153-.103 17.101-.4a49.78 49.78 0 0 1 5.443.793.28.28 0 0 1 .207.068c.057.05.093.121.099.198a.291.291 0 0 1-.259.315ZM350.375 109.569c.071.049.165-.036.106-.109a89.13 89.13 0 0 0-16.139-15.187 83.988 83.988 0 0 0-14.247-8.468 74.628 74.628 0 0 0-32.338-6.653c-2.134.073-21.818.974-39.508 13.307-3.438 2.419-6.316 4.893-13.563 9.677-9.842 6.502-15.296 9.012-18.28 10.282-.749.321-7.961 3.351-14.152 4.234a54.325 54.325 0 0 1-6.593.55h-3.538s6.003 4.893 20.155 1.264c14.153-3.629 36.413-22.015 43.855-25.826 2.577-1.319 23.092-11.147 44.597-8.649a59.545 59.545 0 0 1 18.28 4.839c2.512 1.13 5.089 2.516 14.742 9.072a672.176 672.176 0 0 1 16.623 11.667Z" fill="#73A9FF"/><path d="M200.19 121.079a.126.126 0 0 0 .054-.06.133.133 0 0 0-.101-.188c-1.769-.26-6.793-.853-9.659.66-.4.161-.764.406-1.069.718a3.23 3.23 0 0 0-.7 1.096 2.574 2.574 0 0 0-.019 1.29c.104.424.313.814.609 1.129 1.179 1.137 3.373.291 4.127 0 1.28-.496 1.769-1.094 3.538-2.419a36.053 36.053 0 0 1 3.22-2.226Z" fill="#6398E5"/><path d="M279.45 88.273c-7.736 1.978-12.731 4.754-16.015 7.627a20.53 20.53 0 0 0-4.57 5.631c-1.587 2.915-1.988 5.443-5.308 10.887 0 0-6.12 10.058-11.203 10.282a5.258 5.258 0 0 1-1.056-.061 4.745 4.745 0 0 1-1.769-.604 5.196 5.196 0 0 1-1.698-2.208c-.737-1.815-.755-6.653 3.337-12.835 5.366-8.135 13.268-11.715 18.28-13.91a59.716 59.716 0 0 1 19.99-4.84c.048-.054.059.019.012.03Z" fill="#73A9FF"/><path d="M263.434 95.898a20.536 20.536 0 0 0-4.57 5.631c-1.587 2.916-1.987 5.444-5.307 10.887 0 0-6.121 10.059-11.204 10.283a5.332 5.332 0 0 1-1.056-.061c-.654-1.923-.536-6.653 3.414-12.641 5.367-8.135 13.268-11.716 18.28-13.911l.443-.188ZM239.316 107.083a25.855 25.855 0 0 0-4.629 8.963c-.589 2.111-.589 3.266-1.48 6.315-.442 1.512-1.409 4.838-2.648 6.992-3.597 6.278-12.784 8.534-19.459 7.862-4.688-.471-8.875-2.455-8.786-2.86 0-.103.224-.103.59-.085.967.083 1.939.057 2.901-.079 4.346-.695 7.359-4.233 9.435-6.653 1.179-1.379.984-1.421 2.901-3.762 0 0 2.199-2.419 4.175-4.705 1.834-2.099 4.983-4.906 10.791-8.468 1.769-1.113 3.845-2.292 6.186-3.544l.023.024Z" fill="#6398E5"/><path d="M233.092 110.586a22.421 22.421 0 0 0-1.356 3.629c-.59 2.111-.59 3.266-1.48 6.314-.443 1.512-1.41 4.839-2.648 6.992-3.597 6.278-12.784 8.534-19.459 7.863a25.342 25.342 0 0 1-5.26-1.131c.967.083 1.94.057 2.901-.079 4.346-.695 7.359-4.233 9.435-6.653 1.179-1.379.985-1.421 2.901-3.762 0 0 2.199-2.419 4.175-4.705 1.834-2.099 5.012-4.887 10.791-8.468Z" fill="#73A9FF"/><path d="M219.167 118.241a.145.145 0 0 0-.106-.198.137.137 0 0 0-.082.011 60.41 60.41 0 0 1-12.006 4.645c-4.623 1.209-8.662 1.687-9.435 4.234a3.43 3.43 0 0 0-.067 1.586c.103.526.328 1.02.657 1.438 2.282 2.74 9.328-.303 10.024-.605 5.838-2.522 9.223-7.603 11.015-11.111ZM369.425 119.022a11.629 11.629 0 0 0-.189-1.766 8.072 8.072 0 0 0-2.187-3.883c-.443-.478-.914-.913-1.363-1.337-5.696-5.304-6.374-6.126-7.052-7.179-2.058-3.157-1.84-4.839-1.657-5.582.069-.277.164-.547.283-.805a5.276 5.276 0 0 1 1.138-1.566 5.029 5.029 0 0 1 1.728-1.07 4.93 4.93 0 0 1 1.999-.291c.82.095 1.602.405 2.27.9 2.825 1.99 3.833 6.727 4.175 8.469 1.445 7.53.961 14.104.855 14.11Z" fill="#73A9FF"/><path d="M367.031 113.373c-.442-.478-.914-.913-1.362-1.337-5.679-5.304-6.357-6.127-7.035-7.179-2.058-3.157-1.84-4.839-1.657-5.583a4.56 4.56 0 0 1 .283-.804 4.554 4.554 0 0 1 2.506-.508 4.72 4.72 0 0 1 2.27.901c2.825 1.99 3.833 6.726 4.175 8.468.382 1.997.656 4.014.82 6.042Z" fill="#6398E5"/><path d="M379.668 111.318c.353-.471.669-.97.943-1.493a8.222 8.222 0 0 0 .69-4.428c-.053-.653-.147-1.3-.235-1.917-1.144-7.784-1.18-8.867-1.05-10.119.342-3.78 1.551-4.948 2.146-5.401.224-.17.463-.318.714-.442a5.05 5.05 0 0 1 1.846-.484 4.976 4.976 0 0 1 1.999.29 5.068 5.068 0 0 1 1.733 1.065 4.985 4.985 0 0 1 1.18 2.172c.973 3.368-1.18 7.7-1.97 9.278-3.497 6.768-7.896 11.558-7.996 11.479Z" fill="#73A9FF"/><path d="M381.306 105.396c-.053-.653-.147-1.3-.236-1.917-1.144-7.784-1.179-8.867-1.049-10.119.342-3.78 1.55-4.947 2.146-5.4.224-.171.462-.32.714-.442.847.18 1.629.599 2.258 1.21a4.95 4.95 0 0 1 1.209 2.165c.967 3.368-1.179 7.699-1.97 9.278a56.054 56.054 0 0 1-3.072 5.225Z" fill="#6398E5"/><path d="M373.655 115.256a.06.06 0 0 1-.024.028.06.06 0 0 1-.07 0 .066.066 0 0 1-.024-.028 77.768 77.768 0 0 0-.424-4.113c-.112-.756-.236-1.488-.378-2.068-.519-2.166-.884-3.799-.985-4.15a27.77 27.77 0 0 0-2.311-5.691 12.008 12.008 0 0 1-1.486-4.325c-.254-1.566-.619-3.822.295-5.746.222-.495.52-.95.884-1.348.257-.27.548-.502.867-.69a3.997 3.997 0 0 1 2.949-.38c.421.135.82.34 1.179.604 2.978 2.25 3.833 7.56 3.833 7.56 1.527 9.345-3.385 18.647-4.305 20.347Z" fill="#73A9FF"/><path d="M373.113 111.112a24.114 24.114 0 0 0-.378-2.069c-.519-2.165-.884-3.798-.985-4.149a27.766 27.766 0 0 0-2.311-5.692 12.007 12.007 0 0 1-1.486-4.324c-.254-1.567-.619-3.823.295-5.746.222-.496.52-.951.884-1.349.3.007.597.054.885.14.422.135.82.34 1.179.604 2.978 2.25 3.833 7.56 3.833 7.56.885 5.547-.466 11.081-1.916 15.025Z" fill="#6398E5"/></svg>