
<svg width="413" height="141" viewBox="0 0 413 141" fill="none"
  xmlns="http://www.w3.org/2000/svg">
  <path d="M151.765 117.086C151.765 117.309 151.722 117.583 151.693 117.894C151.454 120.073 150.709 124.216 147.427 125.98C143.869 127.885 139.755 125.698 138.648 125.031L138.388 124.868C135.026 122.645 133.963 119.169 131.88 112.269C130.626 108.041 129.779 103.697 129.349 99.2992C129.007 95.9764 128.886 92.6336 128.988 89.2939C130.469 89.6728 131.92 90.1684 133.326 90.7762C143.898 95.3638 148.511 104.976 149.596 107.452C150.854 110.298 152.127 113.21 151.765 117.086Z" fill="#73A9FF"/>
  <path d="M132.965 76.3236C130.746 64.3988 132.965 56.4539 134.412 52.6075C136.834 46.2115 139.423 45.1962 140.384 44.9738C141.494 44.7128 142.648 44.7315 143.749 45.0284C144.85 45.3253 145.864 45.8915 146.704 46.6784C149.271 49.0871 149.018 52.7779 148.873 54.8309C148.787 56.1056 148.389 59.6704 144.535 65.2067C141.422 69.6494 137.492 73.4258 132.965 76.3236Z" fill="#73A9FF"/>
  <path d="M167.087 79.4733C166.817 79.8194 166.519 80.1417 166.197 80.4368C165.752 80.845 165.268 81.2051 164.751 81.5114C158.836 85.1504 149.566 85.2171 149.566 85.2171C144.135 85.1903 138.751 84.1869 133.658 82.2525C137.352 78.5337 141.481 75.2975 145.951 72.6179C150.137 70.1128 154.736 67.3632 158.966 66.6888C160.923 66.3075 162.946 66.5667 164.751 67.43C165.279 67.6968 168.366 69.3421 169.09 72.6179C169.813 75.8937 167.607 78.8063 167.087 79.4733Z" fill="#73A9FF"/>
  <path d="M125.01 87.4409C127.407 87.4409 129.349 85.45 129.349 82.9941C129.349 80.5383 127.407 78.5474 125.01 78.5474C122.614 78.5474 120.672 80.5383 120.672 82.9941C120.672 85.45 122.614 87.4409 125.01 87.4409Z" fill="#E3ED62"/>
  <path d="M69.6494 44.6396C70.8714 41.5417 72.8599 35.3236 71.8187 28.3348C71.295 25.148 70.0574 22.1291 68.2032 19.5153C67.4854 18.4698 66.4778 17.6694 65.3109 17.2178C64.1367 16.8219 62.8696 16.8219 61.6954 17.2178C60.3649 17.7051 59.2387 18.6473 58.5066 19.8859C57.538 21.5317 57.1334 23.4619 57.3569 25.3703C57.5883 29.0759 59.5262 31.8329 61.6954 35.0049C62.4185 36.0203 63.1416 36.9171 64.5878 38.7106C66.6414 41.2453 68.4129 43.2611 69.6494 44.6396Z" fill="#73A9FF"/>
  <path d="M118.502 77.8054C117.617 72.3719 115.375 67.2656 111.995 62.9828C109.825 60.3369 106.26 55.8753 101.871 56.3126C100.209 56.4877 98.6666 57.2782 97.5328 58.536C95.5226 60.8854 96.0071 63.9537 96.0866 64.465C96.5132 67.1627 98.2558 68.8081 100.042 70.483C103.122 73.3438 106.26 74.537 109.102 75.582C112.14 76.6963 115.295 77.4425 118.502 77.8054Z" fill="#73A9FF"/>
  <path d="M121.519 91.1313C121.034 92.1022 120.232 93.6734 119.227 95.5781C113.015 107.436 111.273 108.918 109.827 114.106C109.06 116.937 107.079 124.215 110.55 127.447C111.759 128.489 113.311 129.019 114.888 128.929C120.42 128.447 123.392 119.124 124.288 116.33C125.611 112.171 126.048 107.77 125.57 103.423C125.092 99.0759 123.711 94.8846 121.519 91.1313Z" fill="#73A9FF"/>
  <path d="M112.719 84.4764C109.475 81.0996 105.785 78.2058 101.757 75.8793C97.7073 73.5596 95.4079 73.0482 93.1953 73.3594C92.248 73.4928 89.5798 73.8708 88.1987 76.1016C87.6251 77.0567 87.3501 78.1687 87.4105 79.2885C87.5701 80.9953 88.3433 82.5803 89.5798 83.7353C93.593 87.8559 101.373 86.6998 106.211 85.9586C108.412 85.6267 110.587 85.1313 112.719 84.4764Z" fill="#73A9FF"/>
  <path d="M25.6592 93.958C22.7018 93.4911 13.2366 92.3794 5.81049 98.4048C3.96662 99.887 0.488565 102.703 0.0257882 107.298C0.0257882 107.684 -0.473143 112.946 2.91814 115.451C6.53358 118.126 11.7759 115.577 13.5475 114.71C19.4045 111.849 21.9064 106.179 23.1646 103.593C24.6108 100.628 25.6592 93.958 25.6592 93.958Z" fill="#73A9FF"/>
  <path d="M138.202 87.4414C141.818 87.4414 159.772 87.5155 166.229 94.1116C167.386 95.29 169.801 97.7579 169.252 100.337C168.818 102.397 166.706 103.479 166.359 103.68C164.017 104.984 160.951 104.495 157.559 103.005C152.498 100.782 145.267 95.5938 142.374 93.3704C140.154 91.5528 138.066 89.5712 136.127 87.4414H138.202Z" fill="#73A9FF"/>
  <path d="M321.576 72.929C314.25 73.4673 304.582 72.3241 297.109 65.8464C289.182 59.0057 286.177 48.3425 286.484 41.6531C286.625 39.1977 287.021 36.7646 287.665 34.3951C287.877 33.6633 288.072 33.01 288.255 32.4233C288.051 37.302 288.741 42.1766 290.291 46.7942C291.975 51.7011 294.582 56.2218 297.965 60.1005C306.518 69.8564 317.615 72.2697 321.576 72.929Z" fill="#73A9FF"/>
  <path d="M322.402 73.6122C315.678 76.6363 306.181 78.8439 297.02 75.3238C287.34 71.592 281.018 62.5739 279.123 56.1627C278.454 53.796 278.032 51.3629 277.866 48.9047C277.83 48.1427 277.801 47.4592 277.789 46.8423C279.192 51.5113 281.44 55.8675 284.418 59.6829C287.608 63.7274 291.541 67.093 295.993 69.59C307.238 75.8682 318.482 74.338 322.402 73.6122Z" fill="#6398E5"/>
  <path d="M316.634 70.7018C310.005 67.472 302.149 61.5749 298.755 52.1819C295.142 42.2324 297.657 31.4361 301.145 25.7688C302.448 23.7027 303.962 21.7847 305.661 20.0472C306.198 19.521 306.682 19.0492 307.131 18.6318C304.611 22.7798 302.873 27.3754 302.007 32.1801C301.116 37.3006 301.211 42.5501 302.285 47.6335C305.047 60.4439 313.529 68.1434 316.634 70.7018Z" fill="#73A9FF"/>
  <path d="M385.081 115.406H385.045C384.915 115.327 394.312 103.66 400.392 82.7451C403.71 71.3379 405.976 63.5356 404.819 54.0155C402.258 32.913 383.611 9.25797 361.73 9.25797C361.057 9.25797 346.607 9.48782 337.133 19.8123C335.613 21.2615 334.26 22.8851 333.101 24.651C329.04 30.8807 325.705 41.3383 329.56 49.4491C331.85 54.2877 336.171 57.203 338.414 58.8784C336.538 58.1809 334.754 57.2485 333.101 56.1022C332.712 55.83 327.559 52.1587 325.003 46.0499C320.281 34.7517 326.738 20.647 333.951 12.5906L334.43 12.0704C338.739 7.51537 344.044 4.07599 349.906 2.03628C367.172 -3.88503 386.438 3.85079 397.99 15.6632C408.916 26.8284 411.566 40.2556 412.156 43.4854C418.555 79.612 386.503 114.287 385.081 115.406Z" fill="#6398E5"/>
  <path d="M385.081 115.406H385.045C384.915 115.328 394.312 103.66 400.392 82.7454C403.71 71.3382 405.976 63.5359 404.819 54.0158C402.258 32.9133 383.611 9.25827 361.73 9.25827C361.057 9.25827 346.607 9.48811 337.133 19.8126C335.613 21.2618 334.26 22.8854 333.101 24.6513C329.04 30.881 325.705 41.3386 329.56 49.4494C331.85 54.288 336.171 57.2033 338.414 58.8787C336.538 58.1812 334.754 57.2488 333.101 56.1025C332.712 55.8303 327.559 52.159 325.003 46.0502C320.281 34.752 326.738 20.6473 333.951 12.5909L334.43 12.0707C338.52 8.10935 343.396 5.09931 348.726 3.24624C365.991 -2.67507 385.258 5.06075 396.809 16.8731C407.735 28.0383 410.386 41.4656 410.976 44.6954C416.772 77.4289 390.977 108.977 385.081 115.406Z" fill="#73A9FF"/>
  <path d="M398.605 38.6292C398.156 38.9921 394.963 32.726 388.068 28.4317C386.91 27.7004 385.696 27.0653 384.438 26.5326C381.994 25.4983 378.482 24.6213 371.452 22.9036C367.663 21.9782 362.828 20.9137 360.237 17.4601C359.735 16.7948 358.685 15.3553 359.057 13.8311C359.126 13.5405 359.244 13.2644 359.405 13.0146C359.83 12.3785 360.407 11.8643 361.081 11.5206C363.861 9.96621 367.332 11.2847 370.862 12.6214C372.358 13.1999 373.81 13.8913 375.206 14.69C376.357 15.3427 377.469 16.0658 378.535 16.8552C384.468 21.2524 387.637 23.5991 390.931 27.1374C395.948 32.4962 399.041 38.2784 398.605 38.6292Z" fill="#73A9FF"/>
  <path d="M388.068 28.4311C386.91 27.6998 385.696 27.0647 384.438 26.5319C381.994 25.4977 378.482 24.6207 371.452 22.903C367.663 21.9776 362.828 20.9131 360.237 17.4595C359.735 16.7942 358.685 15.3547 359.057 13.8305C359.126 13.5399 359.244 13.2637 359.405 13.014C362.061 11.9918 365.254 13.2075 368.501 14.4353C369.997 15.0138 371.449 15.7052 372.845 16.5038C373.996 17.1566 375.108 17.8797 376.174 18.6691C381.811 22.8485 384.952 25.1711 388.068 28.4311Z" fill="#6398E5"/>
  <path d="M401.565 48.9116C401.151 49.2503 397.929 42.8089 390.828 39.3069C390.462 39.1194 390.09 38.9501 389.706 38.7867C387.658 37.9158 384.718 37.1839 378.827 35.7626C375.658 34.9884 371.608 34.0993 369.442 31.2082C369.042 30.7083 368.728 30.1416 368.515 29.5328C368.372 29.0918 368.35 28.6191 368.45 28.1659C368.593 27.7431 368.817 27.3538 369.109 27.0214C369.401 26.6889 369.755 26.4199 370.15 26.2304C372.476 24.93 375.38 26.0369 378.337 27.1558C380.612 28.0395 382.763 29.225 384.736 30.682C389.706 34.3594 392.356 36.3311 395.119 39.2948C399.316 43.7705 401.931 48.6092 401.565 48.9116Z" fill="#C6C620"/>
  <path d="M390.826 39.3071C390.46 39.1196 390.088 38.9503 389.704 38.787C387.656 37.916 384.717 37.1842 378.826 35.7628C375.656 34.9887 371.607 34.0995 369.44 31.2084C369.04 30.7085 368.727 30.1418 368.514 29.5331C368.66 29.4312 368.811 29.3382 368.968 29.2548C371.294 27.9545 374.198 29.0613 377.155 30.1803C379.429 31.0639 381.581 32.2494 383.554 33.7064C386.712 36.029 388.925 37.6681 390.826 39.3071Z" fill="#E3ED62"/>
  <path d="M401.357 59.0841C401.021 59.3079 398.943 53.9431 393.501 51.0036L393.194 50.8403C390.818 49.7871 388.389 48.8665 385.916 48.0822C383.685 47.3081 380.84 46.3887 379.47 44.169C379.258 43.8476 379.092 43.4974 378.974 43.1287C378.844 42.7364 378.844 42.3112 378.974 41.919C379.104 41.6251 379.29 41.3607 379.522 41.1415C379.753 40.9224 380.024 40.7528 380.32 40.6428C382.091 39.8686 384.086 40.8606 386.134 41.8525C387.002 42.2885 387.839 42.7877 388.637 43.3464C389.291 43.806 389.92 44.3027 390.52 44.8343C393.843 47.8161 395.626 49.4129 397.409 51.7233C400.082 55.2616 401.641 58.8906 401.357 59.0841Z" fill="#73A9FF"/>
  <path d="M393.192 50.8409C390.817 49.7877 388.387 48.867 385.914 48.0828C383.683 47.3086 380.838 46.3893 379.468 44.1696C379.257 43.8481 379.09 43.498 378.973 43.1293L379.12 43.0627C380.891 42.2885 382.886 43.2805 384.934 44.2724C385.802 44.7084 386.639 45.2077 387.437 45.7663C388.091 46.2259 388.72 46.7226 389.32 47.2542C390.89 48.6998 392.142 49.8187 393.192 50.8409Z" fill="#6398E5"/>
  <path d="M401.34 69.379C401.558 69.2701 400.75 66.4878 399.056 63.7177C397.952 61.9032 396.795 60.5847 394.629 58.1351C394.24 57.706 393.826 57.302 393.389 56.9254C392.86 56.4498 392.295 56.017 391.701 55.6311C390.302 54.7238 388.927 53.8166 387.569 54.246C387.345 54.3002 387.134 54.3998 386.949 54.539C386.763 54.6782 386.607 54.8542 386.489 55.0565C386.399 55.3319 386.369 55.6243 386.402 55.9128C386.434 56.2013 386.528 56.4789 386.678 56.7258C387.486 58.4557 389.47 59.3629 391.022 60.1129C392.838 60.9144 394.599 61.8398 396.293 62.883C400.018 65.4536 401.08 69.512 401.34 69.379Z" fill="#E3ED62"/>
  <path d="M363.777 64.0321C363.777 65.3479 363.396 66.6342 362.683 67.7283C361.969 68.8225 360.955 69.6752 359.769 70.1788C358.582 70.6823 357.277 70.8141 356.017 70.5574C354.758 70.3007 353.601 69.667 352.693 68.7366C351.785 67.8061 351.166 66.6206 350.916 65.33C350.665 64.0394 350.794 62.7017 351.285 61.486C351.777 60.2703 352.609 59.2312 353.677 58.5002C354.744 57.7691 356 57.3789 357.284 57.3789C359.006 57.3789 360.658 58.0798 361.875 59.3276C363.093 60.5753 363.777 62.2675 363.777 64.0321Z" fill="#C6C620"/>
  <path d="M362.304 66.1489C362.304 67.4648 361.924 68.7511 361.21 69.8452C360.497 70.9393 359.483 71.7921 358.296 72.2956C357.11 72.7992 355.804 72.931 354.545 72.6742C353.285 72.4175 352.128 71.7839 351.22 70.8534C350.312 69.923 349.694 68.7375 349.443 67.4469C349.193 66.1563 349.321 64.8186 349.813 63.6029C350.304 62.3872 351.136 61.3481 352.204 60.617C353.272 59.886 354.527 59.4958 355.811 59.4958C356.666 59.4893 357.513 59.6571 358.303 59.9891C359.094 60.3212 359.812 60.811 360.417 61.4301C361.021 62.0492 361.499 62.7852 361.823 63.5953C362.147 64.4054 362.311 65.2734 362.304 66.1489Z" fill="#E3ED62"/>
  <path d="M345.479 116.652C344.039 116.652 342.362 116.652 340.479 116.736C333.714 117.074 327.039 118.474 320.687 120.886C303.375 127.539 300.488 137.452 284.681 140.24C281.32 140.803 277.916 141.054 274.511 140.99C266.577 140.906 259.801 139.436 259.754 138.432C259.754 138.154 260.244 137.93 260.474 137.827C262.327 136.962 264.86 134.198 269.918 128.755C274.564 123.734 276.258 120.202 280.543 114.843C285.856 108.19 290.607 102.251 298.287 98.7488C307.731 94.4363 316.88 95.9847 320.091 96.6984C336.436 100.309 344.245 114.353 345.479 116.652Z" fill="#73A9FF"/>
  <path d="M340.463 116.737C333.697 117.074 327.022 118.474 320.671 120.886C303.358 127.539 300.472 137.452 284.664 140.24C281.303 140.803 277.899 141.054 274.494 140.99L274.63 140.845C279.275 135.825 280.969 132.293 285.255 126.934C290.567 120.281 295.319 114.342 302.998 110.84C312.443 106.527 321.592 108.076 324.803 108.789C330.577 110.089 335.954 112.818 340.463 116.737Z" fill="#6398E5"/>
  <path d="M314.196 91.2485C310.732 91.0023 307.252 91.1871 303.831 91.7989C300.664 92.3658 297.593 93.403 294.718 94.8775C287.676 98.5065 281.702 104.966 277.6 109.393C273.497 113.821 267.996 120.504 262.843 120.885C262.319 120.929 261.791 120.929 261.267 120.885C260.121 120.827 259.021 120.404 258.121 119.676C257.247 118.873 256.63 117.819 256.35 116.651C255.01 112.127 257.666 107.579 258.711 105.764C259.477 104.468 260.367 103.252 261.367 102.135C264.443 98.5065 270.57 93.4077 284.093 90.0388C303.572 85.2002 314.196 91.2485 314.196 91.2485Z" fill="#E3ED62"/>
  <path d="M303.832 91.7993C300.664 92.3663 297.594 93.4034 294.718 94.8779C287.676 98.5069 281.703 104.967 277.6 109.394C273.498 113.821 267.997 120.505 262.844 120.886C262.319 120.93 261.792 120.93 261.267 120.886C261.191 120.662 261.126 120.456 261.073 120.281C259.733 115.757 262.389 111.208 263.434 109.394C264.2 108.097 265.089 106.881 266.09 105.765C269.165 102.136 275.292 97.0372 288.815 93.6683C293.725 92.4062 298.77 91.7783 303.832 91.7993Z" fill="#C6C620"/>
  <path d="M279.553 78.287C269.312 81.8193 268.155 82.1761 268.155 82.1761C259.844 84.7345 255.695 86.0107 250.034 85.8051C248.735 85.7567 247.461 85.7023 246.197 85.5631C243.3 85.3294 240.503 84.3698 238.052 82.7688C232.379 78.9886 230.077 72.5351 229.198 70.0674C228.479 67.8877 227.887 65.666 227.427 63.4142C227.108 62.0231 226.836 60.0634 226.311 56.1562C226.311 56.1018 226.311 56.0474 226.311 55.9929C226.14 54.6986 226.122 54.5232 226.27 54.3175C227.722 52.2551 238.075 57.1844 244.568 60.9707C248.139 63.0513 247.691 63.1239 250.471 64.5997C255.149 67.0373 260.107 68.866 265.228 70.0432C270.912 71.3859 273.297 71.1802 273.308 71.6883C273.308 72.6016 265.481 74.2286 256.639 73.5028C255.382 73.4 254.107 73.2548 252.832 73.0492C246.221 71.9907 243.057 69.9827 242.207 69.4202C239.539 67.648 237.727 65.5553 237.485 65.7912C237.243 66.0271 238.878 68.5371 241.086 70.6298C242.112 71.5861 243.241 72.4201 244.45 73.1157L243.978 73.0432C237.367 71.9847 234.203 69.9767 233.353 69.4142C230.685 67.642 228.873 65.5493 228.631 65.7852C228.389 66.0211 230.024 68.5311 232.232 70.6238C234.274 72.5653 236.293 73.4242 237.485 74.2528C240.808 76.5512 244.48 76.9141 248.11 77.277C248.423 77.277 249.597 77.3193 251.309 77.404C252.602 77.4645 258.859 77.4463 260.163 77.404C261.934 77.3495 263.286 77.0713 265.234 76.8778C266.213 76.7749 267.347 76.6963 268.775 76.6721C272.392 76.6164 276.005 76.9509 279.553 77.6701C279.633 77.6701 279.71 77.7026 279.766 77.7605C279.823 77.8183 279.855 77.8968 279.855 77.9786C279.855 78.0604 279.823 78.1389 279.766 78.1967C279.71 78.2546 279.633 78.287 279.553 78.287Z" fill="#6398E5"/>
  <path d="M270.701 78.2872C260.46 81.8194 259.303 82.1762 259.303 82.1762C253.577 83.9363 249.829 85.0915 246.199 85.5754C243.301 85.3416 240.504 84.3821 238.053 82.7811C232.38 79.0009 230.078 72.5473 229.199 70.0796C228.48 67.8999 227.889 65.6783 227.428 63.4264C227.109 62.0353 226.838 60.0757 226.312 56.1685C229.52 57.6106 232.651 59.2257 235.692 61.0071C239.263 63.0877 238.814 63.1603 241.595 64.6361C246.273 67.0737 251.23 68.9024 256.351 70.0796C262.036 71.4223 264.42 71.2167 264.432 71.7247C264.444 72.2328 261.245 73.1824 256.617 73.5392C255.36 73.4364 254.085 73.2912 252.81 73.0856C246.199 72.0271 243.035 70.0191 242.185 69.4566C239.517 67.6844 237.705 65.5917 237.463 65.8276C237.221 66.0635 238.856 68.5735 241.063 70.6663C242.09 71.6225 243.218 72.4565 244.428 73.1521L243.956 73.0796C237.345 72.0211 234.181 70.0131 233.331 69.4506C230.663 67.6784 228.851 65.5857 228.609 65.8216C228.367 66.0575 230.002 68.5675 232.209 70.6602C234.252 72.6018 236.27 73.4606 237.463 74.2892C240.786 76.5876 244.457 76.9505 248.088 77.3134C251.151 77.6158 262.254 77.2106 265.205 76.9142C267.034 77.0777 268.853 77.3422 270.654 77.7065C270.729 77.7001 270.803 77.7245 270.861 77.7744C270.918 77.8243 270.954 77.8956 270.961 77.9726C270.967 78.0496 270.943 78.126 270.894 78.185C270.846 78.244 270.776 78.2807 270.701 78.2872Z" fill="#73A9FF"/>
  <path d="M350.315 109.569C350.386 109.618 350.48 109.533 350.421 109.46C345.672 103.73 340.245 98.6287 334.266 94.2731C329.792 90.9816 325.016 88.1456 320.005 85.8055C309.817 81.1952 298.769 78.9245 287.634 79.1523C285.497 79.2249 265.794 80.1261 248.086 92.4586C244.645 94.878 241.764 97.3517 234.51 102.136C224.658 108.638 219.198 111.148 216.212 112.418C215.462 112.739 208.243 115.769 202.045 116.652C199.858 116.969 197.654 117.153 195.446 117.202C194.265 117.202 191.904 117.202 191.904 117.202C191.904 117.202 197.913 122.095 212.08 118.466C226.246 114.837 248.529 96.4505 255.978 92.6401C258.558 91.3215 279.093 81.493 300.62 83.991C306.928 84.6172 313.102 86.2498 318.919 88.8296C321.433 89.9607 324.013 91.3457 333.675 97.9021C337.866 100.745 343.568 104.688 350.315 109.569Z" fill="#73A9FF"/>
  <path d="M199.979 121.079C200.003 121.066 200.022 121.044 200.033 121.019C200.045 120.994 200.048 120.965 200.043 120.938C200.038 120.91 200.024 120.885 200.004 120.866C199.984 120.847 199.959 120.835 199.932 120.831C198.161 120.571 193.132 119.978 190.263 121.491C189.862 121.652 189.498 121.897 189.194 122.209C188.889 122.521 188.65 122.894 188.492 123.305C188.376 123.726 188.37 124.171 188.474 124.595C188.577 125.019 188.787 125.409 189.083 125.724C190.263 126.861 192.459 126.015 193.215 125.724C194.495 125.228 194.985 124.63 196.756 123.305C197.807 122.489 198.887 121.751 199.979 121.079Z" fill="#6398E5"/>
  <path d="M279.319 88.2734C271.574 90.2512 266.575 93.0274 263.287 95.9003C261.447 97.483 259.897 99.39 258.712 101.531C257.124 104.447 256.723 106.975 253.4 112.418C253.4 112.418 247.273 122.477 242.185 122.7C241.831 122.715 241.478 122.695 241.128 122.64C240.505 122.558 239.904 122.353 239.357 122.035C238.604 121.473 238.016 120.709 237.657 119.827C236.919 118.013 236.902 113.174 240.998 106.993C246.37 98.858 254.279 95.2773 259.297 93.0818C265.652 90.3212 272.418 88.6851 279.307 88.2432C279.354 88.1887 279.366 88.2613 279.319 88.2734Z" fill="#73A9FF"/>
  <path d="M263.286 95.8999C261.446 97.4826 259.897 99.3896 258.712 101.531C257.124 104.446 256.722 106.974 253.399 112.418C253.399 112.418 247.272 122.476 242.184 122.7C241.831 122.715 241.477 122.695 241.128 122.64C240.472 120.716 240.59 115.986 244.545 109.999C249.917 101.864 257.826 98.2829 262.844 96.0874L263.286 95.8999Z" fill="#6398E5"/>
  <path d="M239.142 107.083C237.03 109.724 235.455 112.772 234.509 116.046C233.918 118.157 233.918 119.312 233.027 122.361C232.584 123.873 231.616 127.199 230.377 129.353C226.776 135.631 217.58 137.887 210.898 137.216C206.205 136.744 202.014 134.76 202.103 134.355C202.103 134.252 202.327 134.252 202.693 134.27C203.661 134.353 204.635 134.327 205.597 134.191C209.948 133.496 212.964 129.958 215.042 127.538C216.222 126.159 216.027 126.117 217.946 123.776C217.946 123.776 220.147 121.357 222.125 119.071C223.961 116.972 227.113 114.165 232.927 110.603C234.698 109.49 236.775 108.311 239.119 107.059L239.142 107.083Z" fill="#6398E5"/>
  <path d="M232.913 110.586C232.357 111.752 231.903 112.967 231.556 114.215C230.965 116.326 230.965 117.481 230.074 120.529C229.631 122.041 228.663 125.368 227.424 127.521C223.823 133.799 214.627 136.055 207.945 135.384C206.156 135.195 204.392 134.816 202.68 134.253C203.648 134.336 204.622 134.31 205.584 134.174C209.934 133.479 212.95 129.941 215.028 127.521C216.209 126.142 216.014 126.1 217.932 123.759C217.932 123.759 220.134 121.34 222.111 119.054C223.947 116.955 227.129 114.167 232.913 110.586Z" fill="#73A9FF"/>
  <path d="M218.974 118.242C218.985 118.215 218.988 118.186 218.982 118.157C218.976 118.129 218.962 118.103 218.942 118.083C218.922 118.063 218.896 118.049 218.868 118.044C218.84 118.039 218.811 118.043 218.786 118.055C214.949 120.03 210.921 121.586 206.768 122.7C202.14 123.909 198.097 124.387 197.323 126.934C197.177 127.449 197.154 127.993 197.257 128.52C197.359 129.046 197.585 129.54 197.914 129.958C200.198 132.698 207.252 129.655 207.948 129.353C213.792 126.831 217.18 121.75 218.974 118.242Z" fill="#73A9FF"/>
  <path d="M369.385 119.022C369.366 118.429 369.303 117.839 369.196 117.256C368.842 115.775 368.082 114.428 367.006 113.373C366.563 112.895 366.091 112.46 365.643 112.036C359.941 106.732 359.262 105.91 358.583 104.857C356.523 101.7 356.741 100.018 356.924 99.2746C356.994 98.9978 357.088 98.7284 357.208 98.4701C357.489 97.88 357.876 97.3488 358.347 96.9036C358.847 96.431 359.436 96.0669 360.077 95.8331C360.718 95.5992 361.398 95.5005 362.077 95.5427C362.898 95.6378 363.681 95.9482 364.35 96.4439C367.177 98.4338 368.187 103.17 368.529 104.912C369.975 112.442 369.491 119.016 369.385 119.022Z" fill="#73A9FF"/>
  <path d="M366.988 113.373C366.546 112.895 366.073 112.46 365.625 112.036C359.941 106.732 359.262 105.909 358.583 104.857C356.523 101.7 356.741 100.018 356.924 99.2742C356.994 98.9975 357.088 98.7281 357.208 98.4698C357.981 98.0639 358.85 97.8879 359.716 97.9617C360.537 98.0568 361.32 98.3672 361.989 98.863C364.816 100.853 365.826 105.589 366.168 107.331C366.55 109.328 366.824 111.345 366.988 113.373Z" fill="#6398E5"/>
  <path d="M379.637 111.317C379.99 110.846 380.306 110.347 380.581 109.824C381.217 108.445 381.456 106.909 381.272 105.396C381.219 104.743 381.124 104.096 381.036 103.479C379.891 95.6947 379.855 94.612 379.985 93.36C380.327 89.5798 381.537 88.4125 382.134 87.9589C382.357 87.7885 382.596 87.6407 382.848 87.5174C383.429 87.24 384.056 87.0759 384.695 87.0335C385.375 86.9924 386.056 87.0911 386.697 87.3238C387.339 87.5565 387.929 87.9184 388.432 88.3883C389 88.997 389.406 89.7445 389.612 90.5596C390.586 93.9286 388.432 98.2592 387.641 99.8378C384.14 106.606 379.737 111.396 379.637 111.317Z" fill="#73A9FF"/>
  <path d="M381.276 105.396C381.223 104.743 381.129 104.096 381.04 103.479C379.895 95.6949 379.86 94.6122 379.989 93.3602C380.332 89.58 381.542 88.4127 382.138 87.9591C382.362 87.7888 382.601 87.6409 382.852 87.5176C383.701 87.6977 384.484 88.1166 385.113 88.7272C385.691 89.3304 386.108 90.0761 386.323 90.8925C387.291 94.2614 385.142 98.592 384.352 100.171C383.42 101.969 382.394 103.713 381.276 105.396Z" fill="#6398E5"/>
  <path d="M373.618 115.255C373.613 115.266 373.605 115.276 373.594 115.283C373.584 115.29 373.572 115.293 373.559 115.293C373.547 115.293 373.535 115.29 373.524 115.283C373.514 115.276 373.505 115.266 373.5 115.255C373.453 114.65 373.305 112.835 373.075 111.142C372.963 110.386 372.839 109.654 372.697 109.073C372.178 106.908 371.812 105.275 371.712 104.924C371.152 102.944 370.376 101.034 369.398 99.2325C368.631 97.9045 368.125 96.4352 367.91 94.908C367.656 93.3414 367.29 91.0854 368.205 89.1621C368.427 88.6664 368.726 88.2109 369.091 87.8133C369.348 87.5435 369.64 87.3114 369.958 87.1238C370.861 86.6217 371.914 86.4857 372.91 86.7427C373.332 86.8789 373.731 87.0831 374.09 87.3476C377.071 89.5975 377.927 94.908 377.927 94.908C379.456 104.253 374.539 113.555 373.618 115.255Z" fill="#73A9FF"/>
  <path d="M373.075 111.112C372.963 110.356 372.839 109.624 372.697 109.043C372.178 106.878 371.812 105.245 371.712 104.894C371.152 102.914 370.376 101.004 369.398 99.2024C368.631 97.8744 368.125 96.4051 367.91 94.8779C367.656 93.3114 367.29 91.0553 368.205 89.132C368.427 88.6363 368.726 88.1808 369.091 87.7832C369.391 87.7903 369.688 87.837 369.976 87.9223C370.399 88.0585 370.797 88.2626 371.157 88.5271C374.138 90.7771 374.993 96.0875 374.993 96.0875C375.879 101.634 374.527 107.168 373.075 111.112Z" fill="#6398E5"/>
</svg>
