<svg width="424" height="141" viewBox="0 0 424 141" fill="none" xmlns="http://www.w3.org/2000/svg">
<path d="M155.65 117.085C155.65 117.308 155.606 117.582 155.576 117.893C155.331 120.072 154.567 124.215 151.2 125.979C147.552 127.884 143.332 125.697 142.197 125.03L141.93 124.867C138.482 122.644 137.392 119.168 135.256 112.268C133.97 108.04 133.1 103.696 132.66 99.2982C132.309 95.9754 132.186 92.6326 132.29 89.293C133.809 89.6718 135.296 90.1674 136.739 90.7752C147.581 95.3628 152.313 104.975 153.425 107.451C154.716 110.297 156.021 113.209 155.65 117.085Z" fill="#73A9FF"/>
<path d="M136.37 76.3216C134.094 64.3969 136.37 56.452 137.854 52.6055C140.338 46.2096 142.993 45.1942 143.979 44.9719C145.117 44.7109 146.301 44.7296 147.43 45.0265C148.559 45.3234 149.599 45.8896 150.461 46.6765C153.094 49.0851 152.834 52.776 152.686 54.8289C152.597 56.1036 152.189 59.6685 148.236 65.2047C145.043 69.6474 141.013 73.4238 136.37 76.3216Z" fill="#73A9FF"/>
<path d="M171.366 79.4733C171.09 79.8194 170.785 80.1417 170.454 80.4368C169.998 80.845 169.501 81.2051 168.971 81.5114C162.905 85.1503 153.397 85.217 153.397 85.217C147.827 85.1903 142.305 84.1869 137.082 82.2525C140.871 78.5337 145.105 75.2975 149.689 72.6179C153.983 70.1128 158.7 67.3632 163.038 66.6888C165.045 66.3075 167.12 66.5667 168.971 67.43C169.512 67.6968 172.679 69.3421 173.421 72.6179C174.162 75.8936 171.9 78.8063 171.366 79.4733Z" fill="#73A9FF"/>
<path d="M128.213 87.4404C130.671 87.4404 132.663 85.4495 132.663 82.9936C132.663 80.5378 130.671 78.5469 128.213 78.5469C125.756 78.5469 123.764 80.5378 123.764 82.9936C123.764 85.4495 125.756 87.4404 128.213 87.4404Z" fill="#E3ED62"/>
<path d="M71.4326 44.6386C72.6859 41.5407 74.7253 35.3226 73.6574 28.3338C73.1203 25.147 71.851 22.1281 69.9493 19.5143C69.2131 18.4688 68.1797 17.6684 66.9829 17.2169C65.7786 16.8209 64.4791 16.8209 63.2749 17.2169C61.9103 17.7041 60.7553 18.6463 60.0044 19.8849C59.0109 21.5307 58.596 23.4609 58.8252 25.3693C59.0626 29.0749 61.0501 31.8319 63.2749 35.004C64.0165 36.0193 64.7581 36.9161 66.2413 38.7096C68.3475 41.2443 70.1644 43.2601 71.4326 44.6386Z" fill="#73A9FF"/>
<path d="M121.538 77.8039C120.63 72.3704 118.331 67.2642 114.864 62.9813C112.639 60.3355 108.983 55.8739 104.481 56.3111C102.777 56.4862 101.194 57.2768 100.032 58.5345C97.9699 60.8839 98.4668 63.9522 98.5484 64.4636C98.9859 67.1613 100.773 68.8066 102.605 70.4815C105.764 73.3423 108.983 74.5355 111.897 75.5805C115.013 76.6948 118.249 77.441 121.538 77.8039Z" fill="#73A9FF"/>
<path d="M124.63 91.1289C124.133 92.0998 123.31 93.671 122.279 95.5757C115.909 107.434 114.121 108.916 112.638 114.104C111.852 116.935 109.82 124.213 113.38 127.444C114.62 128.487 116.211 129.017 117.829 128.926C123.503 128.445 126.551 119.121 127.47 116.327C128.826 112.168 129.275 107.767 128.785 103.42C128.295 99.0735 126.878 94.8822 124.63 91.1289Z" fill="#73A9FF"/>
<path d="M115.605 84.4749C112.278 81.0981 108.494 78.2043 104.362 75.8778C100.209 73.5581 97.8512 73.0467 95.5819 73.358C94.6104 73.4914 91.8738 73.8694 90.4574 76.1002C89.869 77.0552 89.587 78.1672 89.649 79.287C89.8127 80.9939 90.6057 82.5789 91.8739 83.7338C95.9898 87.8545 103.969 86.6983 108.931 85.9572C111.189 85.6252 113.419 85.1298 115.605 84.4749Z" fill="#73A9FF"/>
<path d="M26.3164 93.9565C23.2832 93.4896 13.5756 92.3779 5.9593 98.4033C4.0682 99.8855 0.501077 102.702 0.0264486 107.297C0.0264486 107.682 -0.48526 112.944 2.99287 115.449C6.7009 118.125 12.0775 115.575 13.8944 114.708C19.9015 111.847 22.4675 106.178 23.7578 103.591C25.2411 100.627 26.3164 93.9565 26.3164 93.9565Z" fill="#73A9FF"/>
<path d="M141.742 87.4414C145.45 87.4414 163.864 87.5155 170.486 94.1116C171.673 95.29 174.15 97.7579 173.586 100.337C173.141 102.397 170.976 103.479 170.62 103.68C168.217 104.984 165.073 104.495 161.595 103.005C156.403 100.782 148.987 95.5938 146.021 93.3704C143.743 91.5528 141.602 89.5712 139.613 87.4414H141.742Z" fill="#73A9FF"/>
<path d="M330.233 72.9275C322.72 73.4658 312.804 72.3226 305.139 65.8449C297.009 59.0042 293.928 48.3411 294.242 41.6516C294.387 39.1962 294.793 36.7632 295.453 34.3936C295.671 33.6618 295.871 33.0086 296.059 32.4219C295.849 37.3005 296.557 42.1751 298.147 46.7927C299.874 51.6996 302.548 56.2204 306.017 60.099C314.789 69.8549 326.171 72.2682 330.233 72.9275Z" fill="#73A9FF"/>
<path d="M331.081 73.6136C324.186 76.6378 314.445 78.8454 305.05 75.3253C295.121 71.5934 288.638 62.5754 286.694 56.1642C286.008 53.7974 285.576 51.3644 285.405 48.9062C285.369 48.1441 285.338 47.4607 285.326 46.8438C286.765 51.5127 289.071 55.8689 292.125 59.6843C295.397 63.7289 299.43 67.0945 303.996 69.5915C315.529 75.8696 327.061 74.3394 331.081 73.6136Z" fill="#6398E5"/>
<path d="M325.166 70.7028C318.368 67.473 310.31 61.5758 306.829 52.1828C303.124 42.2333 305.703 31.4371 309.281 25.7698C310.617 23.7037 312.17 21.7856 313.912 20.0481C314.463 19.5219 314.96 19.0501 315.42 18.6328C312.835 22.7808 311.053 27.3764 310.165 32.1811C309.251 37.3015 309.348 42.5511 310.45 47.6345C313.283 60.4448 321.982 68.1444 325.166 70.7028Z" fill="#73A9FF"/>
<path d="M395.366 115.406H395.329C395.196 115.327 404.834 103.66 411.069 82.745C414.472 71.3379 416.796 63.5356 415.61 54.0155C412.982 32.9129 393.858 9.25797 371.416 9.25797C370.726 9.25797 355.906 9.48781 346.19 19.8123C344.631 21.2615 343.243 22.885 342.055 24.6509C337.89 30.8807 334.47 41.3382 338.423 49.449C340.772 54.2877 345.203 57.203 347.504 58.8783C345.58 58.1809 343.75 57.2485 342.055 56.1022C341.656 55.83 336.371 52.1587 333.749 46.0499C328.906 34.7516 335.529 20.647 342.927 12.5906L343.417 12.0704C347.837 7.51537 353.278 4.07599 359.291 2.03628C376.998 -3.88503 396.758 3.85079 408.605 15.6632C419.811 26.8283 422.529 40.2556 423.135 43.4854C429.697 79.612 396.825 114.287 395.366 115.406Z" fill="#6398E5"/>
<path d="M395.366 115.405H395.329C395.196 115.327 404.834 103.659 411.069 82.7443C414.472 71.3372 416.796 63.5349 415.61 54.0148C412.982 32.9123 393.858 9.25729 371.416 9.25729C370.726 9.25729 355.906 9.48713 346.19 19.8116C344.631 21.2608 343.243 22.8844 342.055 24.6503C337.89 30.88 334.47 41.3376 338.423 49.4484C340.772 54.287 345.203 57.2023 347.504 58.8777C345.58 58.1802 343.75 57.2478 342.055 56.1015C341.656 55.8293 336.371 52.158 333.749 46.0492C328.906 34.751 335.529 20.6463 342.927 12.5899L343.417 12.0698C347.612 8.10837 352.614 5.09833 358.08 3.24526C375.787 -2.67604 395.547 5.05977 407.395 16.8721C418.6 28.0373 421.318 41.4646 421.924 44.6944C427.869 77.4279 401.413 108.976 395.366 115.405Z" fill="#73A9FF"/>
<path d="M409.235 38.6282C408.775 38.9911 405.499 32.7251 398.429 28.4308C397.24 27.6995 395.995 27.0644 394.705 26.5316C392.199 25.4973 388.597 24.6203 381.387 22.9026C377.5 21.9772 372.542 20.9127 369.885 17.4591C369.37 16.7938 368.292 15.3543 368.674 13.8301C368.745 13.5395 368.866 13.2634 369.031 13.0136C369.467 12.3775 370.059 11.8633 370.75 11.5196C373.602 9.96523 377.161 11.2838 380.782 12.6204C382.316 13.1989 383.805 13.8903 385.237 14.689C386.418 15.3418 387.558 16.0648 388.652 16.8543C394.736 21.2514 397.987 23.5981 401.365 27.1364C406.51 32.4952 409.683 38.2774 409.235 38.6282Z" fill="#73A9FF"/>
<path d="M398.429 28.4326C397.24 27.7013 395.995 27.0662 394.705 26.5334C392.199 25.4991 388.597 24.6221 381.387 22.9044C377.5 21.979 372.542 20.9145 369.885 17.4609C369.37 16.7956 368.292 15.3561 368.674 13.8319C368.745 13.5414 368.866 13.2652 369.031 13.0154C371.755 11.9933 375.03 13.209 378.36 14.4368C379.894 15.0152 381.384 15.7066 382.816 16.5053C383.996 17.1581 385.136 17.8811 386.23 18.6706C392.011 22.85 395.232 25.1725 398.429 28.4326Z" fill="#6398E5"/>
<path d="M412.27 48.9111C411.846 49.2498 408.54 42.8084 401.258 39.3064C400.882 39.1189 400.501 38.9496 400.107 38.7863C398.007 37.9153 394.992 37.1834 388.95 35.7621C385.699 34.9879 381.546 34.0988 379.325 31.2077C378.914 30.7078 378.592 30.1411 378.374 29.5323C378.227 29.0913 378.204 28.6186 378.307 28.1654C378.454 27.7426 378.683 27.3533 378.983 27.0209C379.282 26.6884 379.645 26.4194 380.051 26.2299C382.436 24.9296 385.415 26.0364 388.448 27.1554C390.78 28.039 392.986 29.2245 395.01 30.6815C400.107 34.3589 402.826 36.3306 405.659 39.2943C409.963 43.77 412.645 48.6087 412.27 48.9111Z" fill="#C6C620"/>
<path d="M401.257 39.3076C400.881 39.1201 400.5 38.9508 400.106 38.7875C398.006 37.9165 394.991 37.1847 388.949 35.7633C385.698 34.9891 381.545 34.1 379.324 31.2089C378.913 30.709 378.591 30.1423 378.373 29.5336C378.523 29.4317 378.678 29.3387 378.839 29.2553C381.224 27.9549 384.203 29.0618 387.236 30.1807C389.568 31.0644 391.775 32.2499 393.798 33.7069C397.037 36.0294 399.307 37.6685 401.257 39.3076Z" fill="#E3ED62"/>
<path d="M412.058 59.0856C411.713 59.3094 409.582 53.9445 404.001 51.005L403.686 50.8417C401.249 49.7886 398.757 48.8679 396.221 48.0837C393.933 47.3095 391.015 46.3902 389.61 44.1704C389.393 43.849 389.222 43.4989 389.102 43.1301C388.969 42.7379 388.969 42.3127 389.102 41.9205C389.235 41.6265 389.426 41.3622 389.663 41.143C389.9 40.9238 390.179 40.7543 390.482 40.6443C392.298 39.8701 394.345 40.862 396.445 41.8539C397.336 42.29 398.193 42.7892 399.012 43.3479C399.683 43.8074 400.328 44.3042 400.943 44.8358C404.352 47.8176 406.18 49.4143 408.008 51.7248C410.751 55.2631 412.349 58.892 412.058 59.0856Z" fill="#73A9FF"/>
<path d="M403.685 50.8404C401.249 49.7872 398.757 48.8666 396.221 48.0823C393.933 47.3082 391.015 46.3888 389.61 44.1691C389.393 43.8477 389.222 43.4975 389.102 43.1288L389.253 43.0622C391.069 42.2881 393.115 43.28 395.216 44.2719C396.106 44.7079 396.964 45.2072 397.783 45.7658C398.454 46.2254 399.099 46.7221 399.714 47.2537C401.324 48.6993 402.608 49.8182 403.685 50.8404Z" fill="#6398E5"/>
<path d="M412.041 69.3794C412.265 69.2706 411.436 66.4883 409.698 63.7182C408.566 61.9037 407.38 60.5852 405.158 58.1356C404.76 57.7065 404.335 57.3025 403.887 56.9259C403.344 56.4503 402.765 56.0175 402.155 55.6316C400.72 54.7243 399.31 53.8171 397.917 54.2465C397.688 54.3006 397.472 54.4003 397.281 54.5395C397.091 54.6787 396.931 54.8547 396.81 55.057C396.717 55.3324 396.687 55.6247 396.72 55.9133C396.754 56.2018 396.85 56.4794 397.003 56.7263C397.833 58.4561 399.867 59.3634 401.459 60.1134C403.321 60.9149 405.127 61.8403 406.865 62.8835C410.685 65.454 411.775 69.5125 412.041 69.3794Z" fill="#E3ED62"/>
<path d="M373.518 64.0321C373.518 65.3479 373.127 66.6342 372.395 67.7283C371.664 68.8224 370.624 69.6752 369.407 70.1788C368.19 70.6823 366.851 70.8141 365.559 70.5574C364.268 70.3006 363.081 69.667 362.15 68.7366C361.218 67.8061 360.584 66.6206 360.327 65.33C360.07 64.0394 360.202 62.7017 360.706 61.486C361.21 60.2703 362.064 59.2312 363.159 58.5002C364.254 57.7691 365.541 57.3789 366.858 57.3789C368.625 57.3789 370.318 58.0798 371.567 59.3276C372.816 60.5753 373.518 62.2675 373.518 64.0321Z" fill="#C6C620"/>
<path d="M372.004 66.1494C372.004 67.4653 371.613 68.7516 370.882 69.8457C370.15 70.9398 369.11 71.7926 367.893 72.2961C366.676 72.7997 365.337 72.9314 364.046 72.6747C362.754 72.418 361.567 71.7844 360.636 70.8539C359.705 69.9235 359.07 68.738 358.814 67.4474C358.557 66.1568 358.688 64.8191 359.192 63.6034C359.696 62.3877 360.55 61.3486 361.645 60.6175C362.74 59.8865 364.028 59.4963 365.345 59.4963C366.221 59.4898 367.09 59.6575 367.901 59.9896C368.712 60.3217 369.448 60.8115 370.068 61.4306C370.688 62.0497 371.178 62.7857 371.51 63.5958C371.843 64.4059 372.01 65.2739 372.004 66.1494Z" fill="#E3ED62"/>
<path d="M354.748 116.652C353.271 116.652 351.552 116.652 349.621 116.736C342.682 117.074 335.836 118.474 329.322 120.886C311.566 127.539 308.606 137.452 292.394 140.24C288.946 140.803 285.455 141.054 281.963 140.99C273.826 140.906 266.877 139.436 266.828 138.432C266.828 138.154 267.331 137.93 267.567 137.827C269.468 136.962 272.065 134.198 277.253 128.754C282.017 123.734 283.755 120.202 288.15 114.843C293.598 108.19 298.472 102.251 306.348 98.7488C316.034 94.4363 325.417 95.9847 328.711 96.6984C345.474 100.309 353.483 114.353 354.748 116.652Z" fill="#73A9FF"/>
<path d="M349.605 116.736C342.666 117.073 335.821 118.473 329.307 120.885C311.551 127.538 308.59 137.451 292.378 140.239C288.931 140.802 285.44 141.053 281.947 140.989L282.087 140.844C286.851 135.824 288.588 132.292 292.983 126.933C298.432 120.28 303.305 114.341 311.181 110.839C320.868 106.526 330.251 108.075 333.544 108.788C339.467 110.088 344.981 112.817 349.605 116.736Z" fill="#6398E5"/>
<path d="M322.666 91.248C319.113 91.0018 315.544 91.1866 312.035 91.7984C308.786 92.3653 305.638 93.4025 302.688 94.877C295.466 98.506 289.339 104.966 285.132 109.393C280.924 113.82 275.282 120.504 269.997 120.885C269.459 120.929 268.919 120.929 268.381 120.885C267.206 120.826 266.078 120.404 265.154 119.675C264.258 118.872 263.625 117.818 263.338 116.651C261.964 112.127 264.688 107.578 265.76 105.764C266.545 104.467 267.458 103.251 268.484 102.135C271.638 98.506 277.922 93.4072 291.791 90.0383C311.769 85.1997 322.666 91.248 322.666 91.248Z" fill="#E3ED62"/>
<path d="M312.036 91.7993C308.787 92.3663 305.638 93.4034 302.689 94.8779C295.467 98.5069 289.34 104.967 285.133 109.394C280.925 113.821 275.283 120.505 269.998 120.886C269.46 120.93 268.919 120.93 268.382 120.886C268.303 120.662 268.236 120.456 268.182 120.281C266.808 115.757 269.532 111.208 270.603 109.394C271.389 108.097 272.301 106.881 273.328 105.765C276.482 102.136 282.766 97.0372 296.635 93.6683C301.671 92.4062 306.844 91.7783 312.036 91.7993Z" fill="#C6C620"/>
<path d="M287.135 78.286C276.632 81.8183 275.445 82.1751 275.445 82.1751C266.922 84.7335 262.666 86.0097 256.86 85.8041C255.528 85.7557 254.221 85.7013 252.925 85.5622C249.953 85.3284 247.084 84.3689 244.571 82.7678C238.753 78.9876 236.392 72.5341 235.49 70.0664C234.753 67.8867 234.146 65.665 233.674 63.4132C233.347 62.0221 233.068 60.0624 232.53 56.1552C232.53 56.1008 232.53 56.0464 232.53 55.992C232.354 54.6976 232.336 54.5222 232.487 54.3166C233.976 52.2541 244.595 57.1835 251.254 60.9697C254.917 63.0503 254.457 63.1229 257.308 64.5987C262.106 67.0363 267.19 68.865 272.443 70.0422C278.273 71.3849 280.718 71.1793 280.73 71.6873C280.73 72.6006 272.703 74.2276 263.634 73.5018C262.345 73.399 261.037 73.2538 259.73 73.0482C252.949 71.9897 249.704 69.9817 248.833 69.4192C246.096 67.647 244.238 65.5543 243.99 65.7902C243.741 66.0261 245.418 68.5361 247.682 70.6289C248.735 71.5851 249.893 72.4191 251.133 73.1147L250.649 73.0422C243.868 71.9837 240.624 69.9757 239.752 69.4132C237.016 67.641 235.157 65.5483 234.909 65.7842C234.661 66.0201 236.337 68.5301 238.602 70.6228C240.696 72.5643 242.767 73.4232 243.99 74.2518C247.398 76.5502 251.163 76.9131 254.887 77.276C255.207 77.276 256.412 77.3183 258.168 77.403C259.494 77.4635 265.911 77.4453 267.249 77.403C269.065 77.3485 270.451 77.0703 272.449 76.8768C273.454 76.774 274.616 76.6954 276.081 76.6712C279.791 76.6154 283.496 76.9499 287.135 77.6691C287.217 77.6691 287.296 77.7016 287.354 77.7595C287.412 77.8173 287.444 77.8958 287.444 77.9776C287.444 78.0594 287.412 78.1379 287.354 78.1957C287.296 78.2536 287.217 78.286 287.135 78.286Z" fill="#6398E5"/>
<path d="M278.056 78.2867C267.553 81.8189 266.366 82.1757 266.366 82.1757C260.494 83.9358 256.65 85.091 252.927 85.5749C249.955 85.3411 247.086 84.3816 244.572 82.7806C238.755 79.0004 236.394 72.5468 235.492 70.0791C234.754 67.8994 234.148 65.6778 233.675 63.4259C233.349 62.0348 233.07 60.0752 232.531 56.168C235.821 57.6101 239.032 59.2252 242.151 61.0066C245.813 63.0872 245.353 63.1598 248.205 64.6356C253.003 67.0732 258.087 68.9019 263.339 70.0791C269.169 71.4218 271.615 71.2162 271.627 71.7242C271.639 72.2323 268.358 73.1819 263.612 73.5387C262.322 73.4359 261.015 73.2907 259.707 73.0851C252.927 72.0266 249.682 70.0186 248.81 69.4561C246.074 67.6839 244.215 65.5912 243.967 65.8271C243.719 66.063 245.396 68.573 247.66 70.6658C248.712 71.6221 249.87 72.456 251.111 73.1517L250.626 73.0791C243.846 72.0206 240.601 70.0126 239.729 69.4501C236.993 67.6779 235.134 65.5852 234.886 65.8211C234.638 66.057 236.315 68.567 238.579 70.6597C240.674 72.6013 242.744 73.4601 243.967 74.2887C247.375 76.5871 251.141 76.95 254.864 77.3129C258.006 77.6153 269.393 77.2101 272.42 76.9137C274.296 77.0772 276.161 77.3417 278.008 77.706C278.085 77.6996 278.161 77.724 278.22 77.7739C278.279 77.8238 278.316 77.8951 278.323 77.9721C278.329 78.0491 278.305 78.1255 278.255 78.1845C278.205 78.2435 278.133 78.2803 278.056 78.2867Z" fill="#73A9FF"/>
<path d="M359.71 109.569C359.782 109.618 359.879 109.533 359.819 109.46C354.948 103.73 349.382 98.6287 343.249 94.2731C338.661 90.9816 333.763 88.1455 328.623 85.8055C318.175 81.1952 306.843 78.9245 295.424 79.1523C293.232 79.2249 273.024 80.1261 254.863 92.4586C251.333 94.8779 248.379 97.3517 240.939 102.136C230.835 108.638 225.235 111.148 222.172 112.418C221.403 112.739 213.999 115.769 207.643 116.652C205.4 116.969 203.139 117.153 200.875 117.202C199.664 117.202 197.242 117.202 197.242 117.202C197.242 117.202 203.405 122.095 217.934 118.466C232.464 114.837 255.317 96.4505 262.957 92.6401C265.602 91.3215 286.664 81.493 308.742 83.991C315.212 84.6172 321.544 86.2498 327.509 88.8296C330.088 89.9607 332.734 91.3457 342.644 97.9021C346.942 100.745 352.79 104.688 359.71 109.569Z" fill="#73A9FF"/>
<path d="M205.524 121.079C205.548 121.066 205.567 121.044 205.579 121.019C205.591 120.994 205.594 120.965 205.589 120.938C205.584 120.91 205.57 120.885 205.549 120.866C205.529 120.847 205.503 120.835 205.475 120.831C203.659 120.571 198.501 119.978 195.559 121.491C195.148 121.652 194.774 121.897 194.462 122.209C194.15 122.521 193.905 122.894 193.743 123.305C193.624 123.726 193.617 124.171 193.723 124.595C193.83 125.019 194.045 125.409 194.348 125.724C195.559 126.861 197.811 126.015 198.586 125.724C199.9 125.228 200.402 124.63 202.218 123.305C203.296 122.489 204.404 121.751 205.524 121.079Z" fill="#6398E5"/>
<path d="M286.895 88.2729C278.952 90.2507 273.825 93.0269 270.453 95.8998C268.566 97.4825 266.977 99.3895 265.761 101.531C264.133 104.446 263.721 106.974 260.313 112.418C260.313 112.418 254.029 122.476 248.81 122.7C248.448 122.715 248.085 122.695 247.727 122.639C247.088 122.558 246.471 122.352 245.91 122.035C245.138 121.472 244.535 120.708 244.167 119.827C243.41 118.012 243.392 113.174 247.593 106.992C253.102 98.8575 261.215 95.2769 266.36 93.0813C272.878 90.3207 279.818 88.6846 286.883 88.2427C286.931 88.1882 286.944 88.2608 286.895 88.2729Z" fill="#73A9FF"/>
<path d="M270.451 95.8984C268.564 97.4811 266.975 99.3881 265.76 101.529C264.131 104.445 263.719 106.973 260.311 112.416C260.311 112.416 254.027 122.475 248.809 122.699C248.446 122.714 248.084 122.693 247.725 122.638C247.053 120.715 247.174 115.985 251.23 109.997C256.739 101.862 264.852 98.2815 269.997 96.0859L270.451 95.8984Z" fill="#6398E5"/>
<path d="M245.691 107.083C243.525 109.724 241.909 112.772 240.938 116.046C240.333 118.157 240.333 119.312 239.419 122.361C238.965 123.873 237.972 127.199 236.701 129.353C233.008 135.631 223.576 137.887 216.723 137.215C211.91 136.744 207.612 134.76 207.703 134.355C207.703 134.252 207.933 134.252 208.308 134.27C209.301 134.353 210.3 134.327 211.286 134.191C215.748 133.496 218.842 129.958 220.973 127.538C222.183 126.159 221.984 126.117 223.951 123.776C223.951 123.776 226.209 121.357 228.237 119.071C230.12 116.972 233.353 114.165 239.316 110.603C241.132 109.49 243.263 108.311 245.666 107.059L245.691 107.083Z" fill="#6398E5"/>
<path d="M239.301 110.586C238.731 111.752 238.265 112.967 237.908 114.215C237.303 116.326 237.303 117.481 236.389 120.529C235.935 122.041 234.942 125.368 233.671 127.521C229.978 133.799 220.546 136.055 213.693 135.384C211.859 135.195 210.049 134.816 208.293 134.253C209.286 134.336 210.285 134.31 211.271 134.174C215.733 133.479 218.827 129.941 220.958 127.521C222.168 126.142 221.969 126.1 223.936 123.759C223.936 123.759 226.194 121.34 228.222 119.054C230.105 116.955 233.368 114.167 239.301 110.586Z" fill="#73A9FF"/>
<path d="M225.005 118.241C225.016 118.214 225.019 118.185 225.013 118.156C225.007 118.128 224.992 118.102 224.971 118.082C224.951 118.062 224.924 118.048 224.896 118.043C224.867 118.038 224.838 118.042 224.811 118.054C220.877 120.029 216.745 121.585 212.485 122.699C207.739 123.908 203.592 124.386 202.799 126.933C202.649 127.448 202.625 127.992 202.731 128.519C202.836 129.045 203.067 129.539 203.405 129.957C205.748 132.697 212.982 129.654 213.696 129.352C219.69 126.83 223.164 121.749 225.005 118.241Z" fill="#73A9FF"/>
<path d="M379.269 119.022C379.25 118.429 379.186 117.839 379.076 117.256C378.712 115.775 377.933 114.428 376.83 113.373C376.376 112.895 375.891 112.46 375.431 112.036C369.583 106.732 368.887 105.91 368.191 104.857C366.078 101.7 366.302 100.018 366.49 99.2746C366.561 98.9978 366.658 98.7284 366.78 98.4701C367.069 97.88 367.465 97.3488 367.949 96.9036C368.462 96.431 369.065 96.0669 369.723 95.8331C370.38 95.5992 371.078 95.5005 371.775 95.5427C372.616 95.6378 373.419 95.9482 374.105 96.4439C377.005 98.4338 378.04 103.17 378.392 104.912C379.875 112.442 379.378 119.016 379.269 119.022Z" fill="#73A9FF"/>
<path d="M376.811 113.373C376.357 112.895 375.873 112.46 375.413 112.036C369.583 106.732 368.887 105.909 368.191 104.857C366.078 101.7 366.302 100.018 366.49 99.2742C366.561 98.9975 366.658 98.7281 366.78 98.4698C367.574 98.0639 368.465 97.8879 369.353 97.9617C370.195 98.0568 370.998 98.3672 371.684 98.863C374.584 100.853 375.619 105.589 375.97 107.331C376.362 109.328 376.643 111.345 376.811 113.373Z" fill="#6398E5"/>
<path d="M389.783 111.318C390.146 110.847 390.47 110.348 390.752 109.825C391.403 108.446 391.649 106.91 391.46 105.397C391.406 104.744 391.309 104.097 391.218 103.48C390.044 95.6956 390.007 94.613 390.14 93.361C390.492 89.5808 391.733 88.4135 392.344 87.9598C392.573 87.7895 392.819 87.6417 393.077 87.5183C393.673 87.2409 394.315 87.0769 394.971 87.0345C395.668 86.9934 396.366 87.0921 397.025 87.3247C397.683 87.5574 398.288 87.9194 398.803 88.3893C399.386 88.998 399.803 89.7455 400.014 90.5606C401.013 93.9295 398.803 98.2601 397.992 99.8388C394.402 106.607 389.886 111.397 389.783 111.318Z" fill="#73A9FF"/>
<path d="M391.463 105.396C391.408 104.743 391.311 104.096 391.221 103.479C390.046 95.6949 390.01 94.6122 390.143 93.3602C390.494 89.58 391.735 88.4127 392.347 87.9591C392.576 87.7888 392.821 87.6409 393.079 87.5176C393.95 87.6977 394.753 88.1166 395.398 88.7272C395.991 89.3304 396.418 90.0761 396.639 90.8925C397.632 94.2614 395.428 98.592 394.617 100.171C393.662 101.969 392.609 103.713 391.463 105.396Z" fill="#6398E5"/>
<path d="M383.61 115.256C383.604 115.268 383.596 115.277 383.585 115.284C383.574 115.291 383.562 115.295 383.549 115.295C383.536 115.295 383.524 115.291 383.513 115.284C383.502 115.277 383.494 115.268 383.489 115.256C383.44 114.651 383.289 112.837 383.053 111.143C382.938 110.387 382.811 109.655 382.665 109.075C382.133 106.909 381.757 105.276 381.654 104.925C381.08 102.945 380.284 101.036 379.281 99.234C378.495 97.9059 377.976 96.4367 377.756 94.9094C377.495 93.3429 377.12 91.0869 378.058 89.1635C378.286 88.6678 378.593 88.2123 378.966 87.8148C379.23 87.5449 379.529 87.3129 379.856 87.1252C380.782 86.6232 381.862 86.4872 382.883 86.7442C383.316 86.8804 383.725 87.0845 384.094 87.349C387.151 89.599 388.029 94.9094 388.029 94.9094C389.597 104.254 384.554 113.556 383.61 115.256Z" fill="#73A9FF"/>
<path d="M383.053 111.112C382.938 110.356 382.811 109.624 382.665 109.043C382.133 106.878 381.757 105.245 381.654 104.894C381.08 102.914 380.284 101.004 379.281 99.2024C378.495 97.8744 377.976 96.4051 377.756 94.8779C377.495 93.3114 377.12 91.0553 378.058 89.132C378.286 88.6363 378.593 88.1808 378.966 87.7832C379.274 87.7903 379.579 87.837 379.874 87.9223C380.308 88.0585 380.716 88.2626 381.085 88.5271C384.142 90.7771 385.02 96.0875 385.02 96.0875C385.928 101.634 384.542 107.168 383.053 111.112Z" fill="#6398E5"/>
</svg>
