<svg width="479" height="176" viewBox="0 0 479 176" fill="none" xmlns="http://www.w3.org/2000/svg">
<path d="M55.2827 6.27558C53.4257 10.3871 51.8464 14.6182 50.5553 18.9404C50.1144 20.4248 49.7 21.9876 49.2807 23.5999C48.2738 27.739 47.5063 31.9325 46.982 36.1596C45.6526 48.3044 50.9332 79.4679 77.1056 97.9845C100.271 114.371 125.681 110.88 132.081 109.743L132.649 109.638C128.561 111.024 99.662 120.285 71.8942 103.237C54.8681 92.7835 38.5541 72.5933 38.9352 51.0984C39.2333 33.2275 51.3346 14.1734 55.2827 6.27558Z" fill="#73A9FF"/>
<path d="M41.268 50.3402C41.4797 39.3586 46.0822 27.9754 50.5358 18.9773C50.0949 20.4617 49.6806 22.0243 49.2612 23.6367C48.2543 27.7758 47.4868 31.9693 46.9625 36.1964C45.6331 48.3412 50.9137 79.5047 77.0862 98.0213C100.252 114.408 125.662 110.917 132.062 109.779C123.168 112.275 98.2803 117.23 74.227 102.479C57.2009 92.0253 40.8869 71.8351 41.268 50.3402Z" fill="#6398E5"/>
<path d="M121.672 116.12C119.765 118.526 117.681 120.786 115.439 122.883C106.137 131.567 94.3484 137.128 81.7243 138.786C63.9992 140.945 60.5506 132.675 42.701 134.519C31.6594 135.654 24.7748 139.669 21.3461 140.344C20.3156 140.539 19.5953 140.438 19.1712 139.857C16.8902 136.774 26.3732 124.501 37.6529 117.027C41.7268 114.324 50.3216 108.766 62.2967 108C75.1931 107.194 79.7312 112.695 96.5442 115.453C104.853 116.795 113.304 117.019 121.672 116.12Z" fill="#6398E5"/>
<path d="M115.436 122.882C106.135 131.566 94.3461 137.127 81.722 138.785C63.9969 140.944 60.5483 132.674 42.6987 134.518C31.6571 135.653 24.7725 139.668 21.3438 140.343C24.3519 135.255 31.0056 128.249 38.4592 123.295C42.5331 120.591 51.1279 115.033 63.1031 114.268C75.9995 113.461 80.5375 118.962 97.3505 121.72C103.327 122.689 109.384 123.078 115.436 122.882Z" fill="#73A9FF"/>
<path d="M37.5278 3.57507C41.854 6.25872 41.6533 13.3395 41.5157 18.182C41.3563 23.1614 40.2579 28.0661 38.2781 32.6388C38.2651 32.665 38.2337 32.6625 38.2361 32.6181C38.2138 32.3201 38.1258 31.4029 37.9339 30.0756C37.4175 26.3716 36.4688 22.7407 35.1072 19.2569C32.4598 12.7329 27.9907 8.57014 30.5905 4.63669C31.0813 3.8301 31.7331 3.13302 32.5052 2.58875C34.2423 2.36156 36.0062 2.70792 37.5278 3.57507Z" fill="#6398E5"/>
<path d="M35.962 4.10406C39.6103 6.79863 39.9364 11.7332 40.1974 15.5726C40.5067 20.5229 39.7306 25.481 37.9234 30.1008C37.4131 26.3884 36.4687 22.7486 35.1096 19.2559C32.4622 12.7319 27.9931 8.56911 30.5929 4.63566C31.0837 3.82908 31.7355 3.13199 32.5076 2.58773C33.754 2.84173 34.9318 3.35869 35.962 4.10406Z" fill="#73A9FF"/>
<path d="M28.7938 13.5334C33.4163 16.3177 34.5768 22.2576 35.6161 27.453C36.2228 30.7844 36.5169 34.1651 36.4946 37.5511C36.5814 41.1853 36.4476 44.8214 36.094 48.4394C36.0926 48.4704 36.0801 48.4998 36.0588 48.5223C36.0375 48.5447 36.0087 48.5588 35.9778 48.5618C35.9469 48.5648 35.916 48.5566 35.8907 48.5386C35.8654 48.5207 35.8475 48.4942 35.8402 48.4641C35.3095 46.8978 34.7321 45.4259 34.15 44.0691C32.7116 40.7 30.9497 37.4781 28.8891 34.4484C23.7158 26.8273 18.6798 23.4802 19.3905 18.0207C19.5612 16.803 19.9608 15.6285 20.5684 14.5591C21.0711 13.6659 21.8401 12.9514 22.7684 12.5151C25.2738 11.4108 28.1139 13.1261 28.7938 13.5334Z" fill="#C6C620"/>
<path d="M26.4508 15.6355C31.0733 18.4198 32.2338 24.3597 33.2732 29.5551C33.8799 32.8865 34.174 36.2672 34.1517 39.6532C34.1902 41.2243 34.1813 42.7067 34.1431 44.0899C32.7091 40.714 30.9507 37.485 28.8925 34.4482C23.7192 26.8272 18.6832 23.4801 19.3939 18.0206C19.5646 16.8029 19.9643 15.6284 20.5718 14.559C23.0358 13.5778 25.7867 15.2359 26.4508 15.6355Z" fill="#E3ED62"/>
<path d="M72.4697 61.1785C78.3969 64.1896 73.5986 75.1109 78.3429 86.2503C80.2877 90.7064 83.2667 94.636 87.0336 97.7142C88.7691 99.1758 90.6137 100.503 92.5515 101.684C92.5835 101.707 92.6069 101.739 92.6181 101.777C92.6293 101.814 92.6276 101.854 92.6134 101.891C92.5991 101.927 92.573 101.958 92.5393 101.978C92.5056 101.998 92.4662 102.006 92.4273 102.001C88.4433 101.249 84.5956 99.9015 81.0142 98.0031C78.1671 96.4996 69.7801 91.9155 65.2368 82.3882C63.7339 79.3833 62.9144 76.0838 62.8368 72.7258C62.8244 71.1415 62.7547 63.3142 67.2344 61.2023C67.8398 60.9258 68.4845 60.7447 69.1455 60.6655C70.28 60.5009 71.4379 60.6796 72.4697 61.1785Z" fill="#C6C620"/>
<path d="M69.071 62.7631C74.9981 65.7741 70.1999 76.6955 74.9442 87.8349C76.889 92.291 79.868 96.2206 83.6349 99.2988C82.6434 98.8615 81.7724 98.4315 81.0113 98.0035C78.1642 96.5001 69.7771 91.916 65.2338 82.3887C63.731 79.3838 62.9114 76.0843 62.8339 72.7263C62.8223 71.3381 62.7655 65.1866 65.7468 62.2501C66.8813 62.0855 68.0391 62.2642 69.071 62.7631Z" fill="#E3ED62"/>
<path d="M64.2313 43.8406C64.6913 44.0434 65.0985 44.3493 65.4212 44.7345C65.6914 45.0418 65.8858 45.408 65.9889 45.8038C66.8335 49.0445 61.1038 50.885 58.4798 56.3976C57.37 58.7191 56.5633 62.0771 57.4046 66.8942C57.409 66.905 57.4111 66.9165 57.4107 66.9281C57.4103 66.9397 57.4074 66.9511 57.4023 66.9615C57.3971 66.9719 57.3898 66.9811 57.3808 66.9885C57.3718 66.9959 57.3614 67.0012 57.3502 67.0043C57.3336 67.0077 57.3163 67.0054 57.3011 66.9979C57.2859 66.9904 57.2736 66.9781 57.2662 66.9628C56.2163 65.2148 55.4355 63.3191 54.9501 61.3393C54.5686 59.7619 53.4844 55.0661 55.5798 50.1728C56.212 48.6028 57.1844 47.1922 58.4274 46.0422C59.0034 45.4984 61.9468 42.8627 64.2313 43.8406Z" fill="#73A9FF"/>
<path d="M65.4201 44.7343C65.6904 45.0416 65.8848 45.4078 65.9878 45.8036C66.8324 49.0442 61.1028 50.8847 58.4788 56.3974C57.369 58.7188 56.5623 62.0768 57.4036 66.894C57.408 66.9047 57.4101 66.9163 57.4097 66.9279C57.4093 66.9395 57.4064 66.9509 57.4012 66.9613C57.3961 66.9717 57.3888 66.9809 57.3798 66.9883C57.3708 66.9956 57.3604 67.001 57.3491 67.004C56.5696 65.2074 56.054 63.3077 55.8182 61.3638C55.6303 59.7516 55.1242 54.9695 57.7811 50.3534C58.5969 48.8713 59.7297 47.587 61.0989 46.5918C61.5816 46.2367 63.57 44.8577 65.4201 44.7343Z" fill="#6398E5"/>
<path d="M40.0847 77.7964C46.5967 82.1648 51.7921 88.2245 55.1117 95.3231C55.1117 95.3231 52.4127 93.5733 48.6695 91.3079C42.4906 87.6052 33.5093 82.4669 29.1073 81.5196C22.0325 79.9831 22.0384 81.2903 22.0384 81.2903C22.0384 81.2903 23.2154 82.8039 24.8629 84.7389C20.2236 83.994 20.2227 84.9587 20.2227 84.9587C20.2227 84.9587 24.6676 90.7007 28.6421 94.3324C30.2245 95.7657 36.3934 101.283 45.4784 103.336C48.1199 103.875 50.7912 104.258 53.4781 104.481C44.7514 108.089 40.2217 107.862 40.2217 107.862C34.4649 107.577 28.9137 105.633 24.2386 102.266C19.9156 99.1277 17.0905 96.1287 14.9477 91.1971C12.2548 85.0289 10.0734 78.5394 9.26966 75.0711C8.93867 73.6686 8.8403 72.7592 9.02005 72.5676C10.1376 71.3782 11.8167 71.0463 14.9267 71.0819C20.7592 71.1443 30.1835 71.2452 40.0847 77.7964Z" fill="#6398E5"/>
<path d="M38.2689 81.4645C42.276 84.1246 45.7944 87.4543 48.6694 91.3076C42.4905 87.6049 33.5092 82.4666 29.1071 81.5193C22.0323 79.9828 22.0383 81.29 22.0383 81.29C22.0383 81.29 23.2153 82.8036 24.8628 84.7386C20.2234 83.9937 20.2226 84.9584 20.2226 84.9584C20.2226 84.9584 24.6675 90.7004 28.642 94.3321C30.2244 95.7654 36.3933 101.283 45.4783 103.335C48.1198 103.875 50.791 104.258 53.478 104.481C44.7512 108.089 40.2216 107.861 40.2216 107.861C34.4647 107.576 28.9136 105.633 24.2385 102.266C19.9154 99.1274 17.0904 96.1283 14.9476 91.1968C12.2546 85.0286 10.0733 78.5391 9.26952 75.0708C10.5304 74.7967 11.8219 74.6889 13.1109 74.75C18.9434 74.8124 28.3676 74.9134 38.2689 81.4645Z" fill="#73A9FF"/>
<path d="M23.2846 39.9401C26.3324 41.8296 31.2545 44.8791 34.3682 51.4637C36.3973 55.8278 37.1967 60.6617 36.6805 65.4456C36.625 65.3335 36.0807 64.217 35.2593 62.6181C33.26 58.7421 29.672 52.0341 27.4138 49.9346C24.1802 46.8904 23.7749 47.5641 23.7749 47.5641C23.7749 47.5641 23.8347 48.0632 23.9455 48.8288C24.2253 50.9681 24.6495 53.086 25.2152 55.1682C26.322 58.9798 28.3797 62.4482 31.1955 65.2483C33.717 67.6735 37.0555 69.6087 36.8011 70.07C36.7699 70.1329 36.6601 70.1569 36.4768 70.1447C35.8981 70.1003 35.3481 70.0505 34.8269 69.9822C27.6849 69.2016 24.8726 67.2981 24.8726 67.2981C21.9357 65.3194 19.6362 62.5328 18.2525 59.2757C16.977 56.2462 16.4553 53.7779 16.8932 50.5052C17.5363 45.7101 18.6924 40.9074 19.3763 39.3408C19.5293 39.0316 19.6357 38.8168 19.7194 38.819C20.6738 38.5794 21.6597 38.9357 23.2846 39.9401Z" fill="#6398E5"/>
<path d="M21.7124 40.4701C24.7601 42.3596 29.6823 45.4091 32.7959 51.9937C34.3572 55.3222 35.1953 58.943 35.2552 62.618C33.256 58.7421 29.6679 52.0341 27.4097 49.9345C24.1761 46.8904 23.7708 47.5641 23.7708 47.5641C23.7708 47.5641 23.8307 48.0632 23.9415 48.8287C22.4312 47.7114 22.2026 48.0941 22.2026 48.0941C22.5089 50.6623 22.9955 53.2059 23.6587 55.706C24.7654 59.5175 26.8232 62.9859 29.639 65.7861C31.5294 67.5998 33.8845 69.1473 34.8308 70.0057C27.6887 69.2251 24.8765 67.3215 24.8765 67.3215C21.9396 65.3429 19.6401 62.5563 18.2564 59.2992C16.9808 56.2696 16.4592 53.8014 16.8971 50.5287C17.5402 45.7336 18.6962 40.9309 19.3802 39.3643C20.2126 39.6038 21.0003 39.9773 21.7124 40.4701Z" fill="#73A9FF"/>
<path d="M104.792 86.836C108.591 89.8433 114.112 89.205 117.123 85.4104C120.134 81.6157 119.495 76.1017 115.696 73.0945C111.896 70.0873 106.375 70.7256 103.364 74.5202C100.353 78.3148 100.993 83.8288 104.792 86.836Z" fill="#73A9FF"/>
<path d="M117.025 71.4181C118.971 72.9584 121.798 72.6315 123.341 70.6879C124.883 68.7443 124.556 65.9201 122.61 64.3798C120.664 62.8395 117.836 63.1664 116.293 65.11C114.751 67.0536 115.079 69.8778 117.025 71.4181Z" fill="#73A9FF"/>
<path d="M105.216 86.8439C107.162 88.3842 109.99 88.0573 111.532 86.1137C113.074 84.1701 112.747 81.3458 110.801 79.8056C108.855 78.2653 106.027 78.5922 104.485 80.5358C102.943 82.4794 103.27 85.3036 105.216 86.8439Z" fill="#6398E5"/>
<path d="M124.302 61.9011C125.599 62.928 127.484 62.71 128.512 61.4143C129.54 60.1186 129.322 58.2358 128.025 57.2089C126.727 56.182 124.842 56.4 123.814 57.6957C122.786 58.9914 123.004 60.8743 124.302 61.9011Z" fill="#73A9FF"/>
<path d="M124.562 61.7771C125.396 62.4373 126.608 62.2971 127.269 61.4642C127.93 60.6312 127.789 59.4208 126.955 58.7607C126.121 58.1006 124.91 58.2407 124.249 59.0736C123.588 59.9066 123.728 61.117 124.562 61.7771Z" fill="#6398E5"/>
<path d="M117.282 71.2937C118.579 72.3206 120.465 72.1026 121.493 70.8069C122.521 69.5112 122.303 67.6284 121.005 66.6015C119.708 65.5746 117.823 65.7926 116.795 67.0883C115.766 68.384 115.985 70.2669 117.282 71.2937Z" fill="#6398E5"/>
<path d="M83.8386 57.6733C84.7985 56.9989 85.943 56.6359 87.1166 56.6337C87.2939 56.6531 87.4701 56.6815 87.6446 56.7188C88.5 56.8828 89.2946 57.276 89.9435 57.8563C90.6341 58.5086 91.1234 59.3446 91.3536 60.2656C92.2594 63.3998 91.3011 66.4665 91.0023 70.6988C90.7751 73.9458 90.6236 76.1886 91.6415 78.8441C92.575 81.2962 94.0678 82.9471 95.2508 84.2654C96.2547 85.3769 97.3602 86.3925 98.5528 87.2991C99.224 87.8304 99.8632 88.2435 100.429 88.5983C100.45 88.6128 100.466 88.6342 100.474 88.6589C100.482 88.6836 100.481 88.7102 100.472 88.7345C100.463 88.7587 100.446 88.7792 100.423 88.7926C100.401 88.806 100.375 88.8115 100.349 88.8083C96.804 88.3024 93.4449 86.9071 90.586 84.753C88.3297 82.9887 86.4379 80.8038 85.0154 78.3194C81.0636 71.5465 79.3664 60.927 83.8386 57.6733Z" fill="#73A9FF"/>
<path d="M86.5345 57.3241C86.8756 57.0736 87.2487 56.8698 87.6438 56.718C88.4992 56.882 89.2939 57.2752 89.9428 57.8555C90.6334 58.5077 91.1226 59.3437 91.3528 60.2648C92.2586 63.399 91.3004 66.4656 91.0015 70.698C90.7744 73.9449 90.6228 76.1877 91.6408 78.8432C92.5742 81.2954 94.067 82.9462 95.25 84.2646C96.254 85.3761 97.3594 86.3917 98.5521 87.2983C96.6724 86.5908 94.9053 85.6149 93.306 84.401C91.0468 82.6405 89.1536 80.4562 87.7328 77.9708C83.787 71.1972 82.0724 60.5858 86.5345 57.3241Z" fill="#6398E5"/>
<path d="M98.8193 56.6013C98.9895 56.3868 99.1121 56.2874 99.2193 56.1867C100.29 55.1132 103.005 52.7932 106.74 52.7053C107.823 52.6836 110.469 52.6334 111.994 54.5332C112.628 55.3633 112.974 56.3767 112.981 57.4206C113 58.2996 112.875 59.1758 112.611 60.0144C112.099 61.6504 111.105 62.6421 109.149 64.5485C108.103 65.5218 107.008 66.4418 105.869 67.3051C103.562 69.2219 100.517 71.7504 99.1541 75.7679C98.4847 77.829 98.2839 80.0132 98.5663 82.1616C98.7941 84.4906 99.4893 86.75 100.61 88.8049C100.612 88.8133 100.612 88.8219 100.609 88.8301C100.607 88.8384 100.604 88.8461 100.598 88.8527C100.593 88.8594 100.586 88.8648 100.579 88.8687C100.571 88.8726 100.563 88.8749 100.554 88.8753C100.547 88.8733 100.541 88.87 100.535 88.8654C100.529 88.8608 100.524 88.8552 100.521 88.8488C94.6728 84.5965 92.9358 77.9724 92.9358 77.9724C91.1607 71.2035 92.9156 64.9915 94.4686 62.2702C95.706 60.2267 97.1651 58.3256 98.8193 56.6013Z" fill="#E3ED62"/>
<path d="M102.76 60.13C105.254 58.3995 108.2 57.4366 111.236 57.3602C111.819 57.3491 112.403 57.372 112.984 57.429C113.003 58.3079 112.878 59.1841 112.614 60.0227C112.103 61.6587 111.108 62.6504 109.153 64.5568C108.106 65.5301 107.012 66.4501 105.873 67.3135C103.565 69.2302 100.521 71.7587 99.1575 75.7762C98.4881 77.8373 98.2873 80.0215 98.5696 82.1699C98.7974 84.4989 99.4926 86.7583 100.614 88.8132C100.615 88.8216 100.615 88.8302 100.613 88.8384C100.611 88.8467 100.607 88.8544 100.602 88.861C100.596 88.8677 100.59 88.8731 100.582 88.877C100.575 88.8809 100.566 88.8832 100.558 88.8836C100.273 88.4782 99.9916 88.048 99.722 87.5891C98.8744 86.1436 98.2054 84.6008 97.7295 82.9945C97.2611 81.3177 96.9796 79.5943 96.89 77.8557C96.6647 75.8376 96.633 73.8026 96.7953 71.7784C96.982 70.0765 97.6609 63.8367 102.76 60.13Z" fill="#C6C620"/>
<path d="M100.42 47.5091C101.883 46.2498 103.572 45.2779 105.397 44.6444C107.022 44.0973 110.513 42.9206 112.687 44.6418C113.082 44.9383 113.412 45.3112 113.659 45.7382C113.906 46.1652 114.064 46.6376 114.125 47.127C114.142 47.4355 114.109 47.7448 114.026 48.0425C113.898 48.5012 113.684 48.9317 113.396 49.3117C111.506 51.8803 106.659 50.0632 102.384 51.6777C100.658 52.3307 98.3506 53.8 96.2487 57.5437C96.0713 57.8544 95.8963 58.1852 95.7236 58.5359C95.7107 58.5604 95.6905 58.5803 95.6658 58.5928C95.6411 58.6052 95.6131 58.6097 95.5858 58.6055C95.5584 58.6012 95.533 58.5886 95.5132 58.5692C95.4934 58.5499 95.4802 58.5249 95.4753 58.4977C95.224 56.1118 95.6852 53.7049 96.801 51.5804C97.7205 49.9938 98.9513 48.6091 100.42 47.5091Z" fill="#73A9FF"/>
<path d="M101.033 50.1781C102.497 48.9188 104.186 47.9469 106.011 47.3135C107.636 46.7664 111.127 45.5896 113.301 47.3108C113.57 47.5263 113.813 47.7719 114.026 48.0428C113.898 48.5015 113.684 48.932 113.396 49.312C111.505 51.8806 106.659 50.0635 102.384 51.678C100.658 52.3311 98.3505 53.8003 96.2485 57.5441C96.4633 56.3919 96.8569 55.2803 97.415 54.2494C98.3345 52.6629 99.5652 51.2781 101.033 50.1781Z" fill="#6398E5"/>
<path d="M99.568 38.1107C100.933 37.0793 103.911 34.9023 106.508 35.8716C106.974 36.0332 107.404 36.2871 107.77 36.6182C108.136 36.9493 108.432 37.3508 108.639 37.7986L108.676 37.904C108.898 38.6225 108.877 39.3941 108.616 40.0996C107.607 43.1204 102.434 42.8783 98.8627 45.7264C97.4569 46.8509 95.763 48.8823 94.89 52.895C94.7784 53.3523 94.7096 53.8108 94.6156 54.3148C94.6108 54.3421 94.5975 54.3672 94.5777 54.3866C94.5578 54.406 94.5324 54.4186 94.505 54.4228C94.4775 54.427 94.4495 54.4225 94.4247 54.4099C94.4 54.3973 94.3798 54.3773 94.3671 54.3527C93.3947 52.1598 93.0958 49.7279 93.5084 47.3652C93.8913 45.5725 94.6364 43.8766 95.6983 42.3815C96.7077 40.7274 98.0206 39.2785 99.568 38.1107Z" fill="#E3ED62"/>
<path d="M100.981 39.7727C102.346 38.7413 105.325 36.5644 107.921 37.5336C108.184 37.633 108.437 37.7566 108.677 37.9028C108.899 38.6213 108.878 39.3929 108.618 40.0984C107.608 43.1192 102.435 42.8771 98.864 45.7252C97.4582 46.8497 95.7643 48.8811 94.8913 52.8938C94.6816 51.6065 94.6964 50.2927 94.935 49.0105C95.3178 47.2178 96.063 45.5219 97.1249 44.0268C98.132 42.3799 99.4402 40.9368 100.981 39.7727Z" fill="#C6C620"/>
<path d="M91.9103 33.4118C92.3843 33.2751 92.8811 33.2354 93.3708 33.2949C93.8606 33.3544 94.3333 33.5119 94.7607 33.758C95.2362 34.0802 95.613 34.5276 95.8493 35.0507C95.9386 35.2444 96.0137 35.4442 96.074 35.6488C96.9948 38.7021 92.6295 41.4838 91.3577 45.8683C90.9397 47.3108 90.7373 49.4042 91.6064 52.2474C91.9341 53.3001 92.3504 54.3233 92.8508 55.3059C92.8659 55.3309 92.8721 55.3602 92.8682 55.3891C92.8644 55.418 92.8508 55.4447 92.8297 55.4649C92.8086 55.4851 92.7813 55.4974 92.7522 55.5C92.7231 55.5026 92.694 55.4952 92.6697 55.4791C90.6097 54.2482 88.9605 52.4359 87.93 50.2706C87.2101 48.5838 86.84 46.7688 86.8422 44.9352C86.7119 43.0107 86.9471 41.0789 87.5356 39.2417C88.0751 37.6116 89.2273 34.1146 91.9103 33.4118Z" fill="#73A9FF"/>
<path d="M95.4623 35.1321C95.5598 35.1056 95.6908 35.0783 95.8491 35.0508C95.9385 35.2445 96.0136 35.4444 96.0739 35.6489C96.9947 38.7022 92.6294 41.4839 91.3576 45.8684C90.9395 47.3109 90.7372 49.4043 91.6062 52.2475L91.482 51.9909C90.7621 50.3042 90.392 48.4892 90.3942 46.6556C90.2638 44.731 90.4991 42.7992 91.0876 40.962C91.6271 39.3319 92.7793 35.835 95.4623 35.1321Z" fill="#6398E5"/>
<path d="M138.354 101.369C138.792 100.282 138.885 99.0862 138.619 97.9446C138.559 97.7766 138.491 97.6117 138.415 97.4506C138.06 96.6563 137.495 95.9735 136.781 95.4752C135.987 94.9527 135.061 94.6679 134.11 94.6545C130.848 94.4898 128.078 96.1221 124.02 97.3796C120.904 98.3396 118.756 99.002 115.935 98.6189C113.331 98.2715 111.377 97.1945 109.825 96.348C108.513 95.6258 107.27 94.783 106.114 93.8304C105.443 93.2992 104.894 92.7721 104.419 92.3034C104.4 92.2859 104.375 92.2753 104.35 92.2733C104.324 92.2713 104.298 92.2781 104.276 92.2925C104.255 92.307 104.239 92.3283 104.231 92.3529C104.223 92.3776 104.223 92.4042 104.232 92.4285C105.534 95.7608 107.662 98.7083 110.416 100.995C112.651 102.786 115.213 104.126 117.96 104.942C125.451 107.226 136.191 106.45 138.354 101.369Z" fill="#73A9FF"/>
<path d="M138.066 98.6572C138.232 98.2683 138.346 97.859 138.404 97.4401C138.048 96.6458 137.483 95.963 136.77 95.4646C135.976 94.9421 135.049 94.6574 134.099 94.644C130.837 94.4793 128.066 96.1116 124.009 97.3691C120.893 98.3291 118.744 98.9915 115.923 98.6083C113.32 98.261 111.366 97.1839 109.814 96.3375C108.501 95.6153 107.259 94.7724 106.102 93.8199C107.222 95.4859 108.577 96.9812 110.125 98.2589C112.358 100.053 114.919 101.395 117.666 102.209C125.171 104.498 135.903 103.738 138.066 98.6572Z" fill="#6398E5"/>
<path d="M135.964 86.5494C136.117 86.3216 136.203 86.193 136.277 86.0657C137.079 84.7797 138.72 81.6098 137.952 77.9574C137.709 76.8865 137.17 74.3156 134.97 73.2671C134.016 72.8404 132.949 72.7351 131.93 72.9672C131.069 73.1493 130.243 73.471 129.486 73.9194C128.008 74.7904 127.269 75.984 125.857 78.3207C125.148 79.5604 124.501 80.8351 123.919 82.1398C122.578 84.8215 120.809 88.3594 117.204 90.6026C115.348 91.7243 113.265 92.4186 111.106 92.6348C108.784 92.9454 106.423 92.7857 104.163 92.1651C104.155 92.1655 104.147 92.1678 104.139 92.1717C104.131 92.1756 104.125 92.181 104.12 92.1877C104.114 92.1943 104.11 92.202 104.108 92.2103C104.106 92.2185 104.106 92.2271 104.108 92.2355C104.111 92.2419 104.116 92.2475 104.122 92.2521C104.127 92.2567 104.134 92.26 104.141 92.262C109.622 96.9769 116.476 97.1525 116.476 97.1525C123.48 97.3321 129.134 94.2066 131.432 92.0748C133.141 90.4048 134.661 88.5518 135.964 86.5494Z" fill="#E3ED62"/>
<path d="M131.624 83.5172C132.741 80.6974 133.007 77.6124 132.388 74.6436C132.265 74.0735 132.109 73.5112 131.921 72.9593C131.06 73.1414 130.234 73.4631 129.477 73.9115C127.999 74.7825 127.26 75.9761 125.848 78.3128C125.139 79.5526 124.492 80.8272 123.911 82.1319C122.569 84.8136 120.8 88.3515 117.195 90.5947C115.339 91.7164 113.256 92.4107 111.097 92.627C108.775 92.9375 106.414 92.7778 104.154 92.1572C104.146 92.1577 104.138 92.1599 104.13 92.1638C104.123 92.1677 104.116 92.1732 104.111 92.1798C104.105 92.1865 104.102 92.1942 104.099 92.2024C104.097 92.2106 104.097 92.2192 104.099 92.2276C104.559 92.4118 105.043 92.5873 105.551 92.7446C107.154 93.2375 108.811 93.5355 110.485 93.6323C112.227 93.7032 113.971 93.5832 115.686 93.2745C117.705 93.0325 119.696 92.5985 121.632 91.9783C123.248 91.4078 129.172 89.3196 131.624 83.5172Z" fill="#C6C620"/>
<path d="M144.463 82.9135C145.352 81.1972 145.907 79.3285 146.101 77.406C146.263 75.7008 146.613 72.0379 144.438 70.3167C144.059 70.0009 143.62 69.7647 143.147 69.6221C142.675 69.4796 142.178 69.4336 141.687 69.4871C141.383 69.5403 141.089 69.6432 140.817 69.7916C140.4 70.0216 140.029 70.3278 139.724 70.6943C137.676 73.1381 140.548 77.4301 139.96 81.9637C139.718 83.7908 138.813 86.3703 135.644 89.2694C135.379 89.511 135.097 89.7567 134.797 90.0066C134.776 90.0247 134.761 90.0488 134.755 90.0757C134.748 90.1026 134.75 90.1308 134.761 90.1565C134.771 90.1821 134.789 90.2039 134.812 90.2187C134.836 90.2336 134.863 90.2407 134.891 90.2392C137.274 89.9385 139.515 88.9402 141.331 87.3699C142.664 86.1101 143.73 84.5944 144.463 82.9135Z" fill="#73A9FF"/>
<path d="M141.715 82.9263C142.604 81.21 143.16 79.3414 143.354 77.4188C143.516 75.7136 143.865 72.0507 141.691 70.3295C141.419 70.1174 141.124 69.937 140.812 69.7919C140.394 70.0219 140.023 70.3281 139.718 70.6945C137.67 73.1384 140.542 77.4303 139.955 81.9639C139.712 83.791 138.807 86.3705 135.638 89.2696C136.712 88.7976 137.706 88.1609 138.583 87.3827C139.917 86.123 140.982 84.6072 141.715 82.9263Z" fill="#6398E5"/>
<path d="M153.817 81.5944C154.494 80.0184 155.952 76.6383 154.414 74.3351C154.15 73.9182 153.805 73.5588 153.398 73.2784C152.992 72.9979 152.533 72.8022 152.049 72.703L151.938 72.6915C151.187 72.6394 150.439 72.836 149.811 73.2509C147.097 74.9223 148.515 79.8969 146.555 84.02C145.78 85.6438 144.186 87.755 140.474 89.5205C140.054 89.7335 139.623 89.9051 139.153 90.1116C139.128 90.1225 139.106 90.1412 139.092 90.1649C139.077 90.1887 139.071 90.2163 139.073 90.2439C139.075 90.2715 139.086 90.2978 139.104 90.319C139.122 90.3402 139.146 90.3552 139.173 90.362C141.533 90.8065 143.972 90.5415 146.18 89.6005C147.84 88.8187 149.323 87.7067 150.538 86.3327C151.92 84.9733 153.032 83.3658 153.817 81.5944Z" fill="#E3ED62"/>
<path d="M151.874 80.6013C152.551 79.0254 154.009 75.6452 152.471 73.3421C152.315 73.1091 152.136 72.8913 151.939 72.6913C151.188 72.6393 150.44 72.8359 149.812 73.2507C147.098 74.9222 148.516 79.8967 146.556 84.0199C145.781 85.6437 144.187 87.7548 140.475 89.5203C141.778 89.4302 143.055 89.1156 144.251 88.5907C145.911 87.8089 147.394 86.6969 148.608 85.3229C149.984 83.9673 151.092 82.3657 151.874 80.6013Z" fill="#C6C620"/>
<path d="M160.148 87.967C160.172 87.4749 160.098 86.9828 159.928 86.5202C159.758 86.0576 159.496 85.634 159.159 85.2746C158.736 84.8858 158.214 84.6217 157.65 84.5115C157.441 84.4688 157.229 84.4415 157.016 84.4295C153.829 84.2317 152.115 89.1118 148.131 91.3501C146.821 92.0861 144.826 92.7611 141.856 92.5657C140.755 92.4875 139.663 92.3165 138.591 92.0544C138.563 92.0454 138.533 92.0461 138.506 92.0565C138.478 92.0668 138.455 92.0861 138.441 92.1112C138.426 92.1363 138.42 92.1657 138.424 92.1946C138.428 92.2234 138.442 92.25 138.463 92.27C140.134 93.9918 142.277 95.1813 144.623 95.6887C146.432 96.0033 148.286 95.9485 150.073 95.5275C151.978 95.2146 153.808 94.5445 155.464 93.5526C156.93 92.6556 160.075 90.7363 160.148 87.967Z" fill="#73A9FF"/>
<path d="M157.656 84.9073C157.659 84.8064 157.656 84.6729 157.646 84.5126C157.437 84.47 157.225 84.4426 157.012 84.4307C153.825 84.2329 152.111 89.113 148.128 91.3513C146.817 92.0873 144.823 92.7623 141.853 92.5668L142.131 92.629C143.94 92.9437 145.794 92.8888 147.581 92.4678C149.486 92.1549 151.316 91.4848 152.972 90.4929C154.438 89.5959 157.583 87.6767 157.656 84.9073Z" fill="#6398E5"/>
<path d="M422.733 5.27558C424.59 9.38711 426.169 13.6182 427.46 17.9404C427.901 19.4248 428.316 20.9876 428.735 22.5999C429.742 26.739 430.509 30.9325 431.034 35.1596C432.363 47.3044 427.082 78.4679 400.91 96.9845C377.744 113.371 352.335 109.88 345.934 108.743L345.367 108.638C349.454 110.024 378.354 119.285 406.121 102.237C423.148 91.7835 439.462 71.5933 439.08 50.0984C438.782 32.2275 426.681 13.1734 422.733 5.27558Z" fill="#73A9FF"/>
<path d="M436.748 49.3402C436.536 38.3586 431.933 26.9754 427.48 17.9773C427.921 19.4617 428.335 21.0243 428.754 22.6367C429.761 26.7758 430.529 30.9693 431.053 35.1964C432.383 47.3412 427.102 78.5047 400.929 97.0213C377.764 113.408 352.354 109.917 345.954 108.779C354.848 111.275 379.735 116.23 403.789 101.479C420.815 91.0253 437.129 70.8351 436.748 49.3402Z" fill="#6398E5"/>
<path d="M356.344 115.12C358.251 117.526 360.334 119.786 362.577 121.883C371.879 130.567 383.667 136.128 396.291 137.786C414.016 139.945 417.465 131.675 435.315 133.519C446.356 134.654 453.241 138.669 456.67 139.344C457.7 139.539 458.42 139.438 458.844 138.857C461.125 135.774 451.642 123.501 440.363 116.027C436.289 113.324 427.694 107.766 415.719 107C402.822 106.194 398.284 111.695 381.471 114.453C373.163 115.795 364.712 116.019 356.344 115.12Z" fill="#6398E5"/>
<path d="M362.579 121.882C371.881 130.566 383.67 136.127 396.294 137.785C414.019 139.944 417.467 131.674 435.317 133.518C446.359 134.653 453.243 138.668 456.672 139.343C453.664 134.255 447.01 127.249 439.556 122.295C435.483 119.591 426.888 114.033 414.913 113.268C402.016 112.461 397.478 117.962 380.665 120.72C374.688 121.689 368.631 122.078 362.579 121.882Z" fill="#73A9FF"/>
<path d="M440.488 2.57507C436.162 5.25872 436.362 12.3395 436.5 17.182C436.659 22.1614 437.758 27.0661 439.738 31.6388C439.751 31.665 439.782 31.6625 439.78 31.6181C439.802 31.3201 439.89 30.4029 440.082 29.0756C440.598 25.3716 441.547 21.7407 442.908 18.2569C445.556 11.7329 450.025 7.57014 447.425 3.63669C446.934 2.8301 446.283 2.13302 445.51 1.58875C443.773 1.36156 442.009 1.70792 440.488 2.57507Z" fill="#6398E5"/>
<path d="M442.054 3.10406C438.405 5.79863 438.079 10.7332 437.818 14.5726C437.509 19.5229 438.285 24.481 440.092 29.1008C440.603 25.3884 441.547 21.7486 442.906 18.2559C445.553 11.7319 450.023 7.56911 447.423 3.63566C446.932 2.82908 446.28 2.13199 445.508 1.58773C444.262 1.84173 443.084 2.35869 442.054 3.10406Z" fill="#73A9FF"/>
<path d="M449.222 12.5334C444.599 15.3177 443.439 21.2576 442.399 26.453C441.793 29.7844 441.499 33.1651 441.521 36.5511C441.434 40.1853 441.568 43.8214 441.922 47.4394C441.923 47.4704 441.935 47.4998 441.957 47.5223C441.978 47.5447 442.007 47.5588 442.038 47.5618C442.069 47.5648 442.1 47.5566 442.125 47.5386C442.15 47.5207 442.168 47.4942 442.175 47.4641C442.706 45.8978 443.284 44.4259 443.866 43.0691C445.304 39.7 447.066 36.4781 449.127 33.4484C454.3 25.8273 459.336 22.4802 458.625 17.0207C458.454 15.803 458.055 14.6285 457.447 13.5591C456.945 12.6659 456.175 11.9514 455.247 11.5151C452.742 10.4108 449.902 12.1261 449.222 12.5334Z" fill="#C6C620"/>
<path d="M451.565 14.6355C446.942 17.4198 445.782 23.3597 444.742 28.5551C444.136 31.8865 443.842 35.2672 443.864 38.6532C443.825 40.2243 443.834 41.7067 443.873 43.0899C445.306 39.714 447.065 36.485 449.123 33.4482C454.296 25.8272 459.332 22.4801 458.622 17.0206C458.451 15.8029 458.051 14.6284 457.444 13.559C454.98 12.5778 452.229 14.2359 451.565 14.6355Z" fill="#E3ED62"/>
<path d="M405.546 60.1785C399.619 63.1896 404.417 74.1109 399.673 85.2503C397.728 89.7064 394.749 93.636 390.982 96.7142C389.247 98.1758 387.402 99.5029 385.464 100.684C385.432 100.707 385.409 100.739 385.398 100.777C385.386 100.814 385.388 100.854 385.402 100.891C385.417 100.927 385.443 100.958 385.476 100.978C385.51 100.998 385.549 101.006 385.588 101.001C389.572 100.249 393.42 98.9015 397.001 97.0031C399.848 95.4996 408.236 90.9155 412.779 81.3882C414.282 78.3833 415.101 75.0838 415.179 71.7258C415.191 70.1415 415.261 62.3142 410.781 60.2023C410.176 59.9258 409.531 59.7447 408.87 59.6655C407.736 59.5009 406.578 59.6796 405.546 60.1785Z" fill="#C6C620"/>
<path d="M408.945 61.7631C403.018 64.7741 407.816 75.6955 403.071 86.8349C401.127 91.291 398.148 95.2206 394.381 98.2988C395.372 97.8615 396.243 97.4315 397.004 97.0035C399.851 95.5001 408.239 90.916 412.782 81.3887C414.285 78.3838 415.104 75.0843 415.182 71.7263C415.193 70.3381 415.25 64.1866 412.269 61.2501C411.134 61.0855 409.976 61.2642 408.945 61.7631Z" fill="#E3ED62"/>
<path d="M413.784 42.8406C413.324 43.0434 412.917 43.3493 412.594 43.7345C412.324 44.0418 412.13 44.408 412.027 44.8038C411.182 48.0445 416.912 49.885 419.536 55.3976C420.646 57.7191 421.452 61.0771 420.611 65.8942C420.607 65.905 420.604 65.9165 420.605 65.9281C420.605 65.9397 420.608 65.9511 420.613 65.9615C420.618 65.9719 420.626 65.9811 420.635 65.9885C420.644 65.9959 420.654 66.0012 420.665 66.0043C420.682 66.0077 420.699 66.0054 420.715 65.9979C420.73 65.9904 420.742 65.9781 420.749 65.9628C421.799 64.2148 422.58 62.3191 423.066 60.3393C423.447 58.7619 424.531 54.0661 422.436 49.1728C421.804 47.6028 420.831 46.1922 419.588 45.0422C419.012 44.4984 416.069 41.8627 413.784 42.8406Z" fill="#73A9FF"/>
<path d="M412.595 43.7343C412.325 44.0416 412.131 44.4078 412.028 44.8036C411.183 48.0442 416.913 49.8847 419.537 55.3974C420.647 57.7188 421.453 61.0768 420.612 65.894C420.608 65.9047 420.606 65.9163 420.606 65.9279C420.606 65.9395 420.609 65.9509 420.614 65.9613C420.62 65.9717 420.627 65.9809 420.636 65.9883C420.645 65.9956 420.655 66.001 420.666 66.004C421.446 64.2074 421.962 62.3077 422.197 60.3638C422.385 58.7516 422.891 53.9695 420.235 49.3534C419.419 47.8713 418.286 46.587 416.917 45.5918C416.434 45.2367 414.446 43.8577 412.595 43.7343Z" fill="#6398E5"/>
<path d="M437.931 76.7964C431.419 81.1648 426.223 87.2245 422.904 94.3231C422.904 94.3231 425.603 92.5733 429.346 90.3079C435.525 86.6052 444.506 81.4669 448.908 80.5196C455.983 78.9831 455.977 80.2903 455.977 80.2903C455.977 80.2903 454.8 81.8039 453.153 83.7389C457.792 82.994 457.793 83.9587 457.793 83.9587C457.793 83.9587 453.348 89.7007 449.373 93.3324C447.791 94.7657 441.622 100.283 432.537 102.336C429.896 102.875 427.224 103.258 424.538 103.481C433.264 107.089 437.794 106.862 437.794 106.862C443.551 106.577 449.102 104.633 453.777 101.266C458.1 98.1277 460.925 95.1287 463.068 90.1971C465.761 84.0289 467.942 77.5394 468.746 74.0711C469.077 72.6686 469.175 71.7592 468.996 71.5676C467.878 70.3782 466.199 70.0463 463.089 70.0819C457.256 70.1443 447.832 70.2452 437.931 76.7964Z" fill="#6398E5"/>
<path d="M439.747 80.4645C435.74 83.1246 432.221 86.4543 429.346 90.3076C435.525 86.6049 444.506 81.4666 448.908 80.5193C455.983 78.9828 455.977 80.29 455.977 80.29C455.977 80.29 454.8 81.8036 453.153 83.7386C457.792 82.9937 457.793 83.9584 457.793 83.9584C457.793 83.9584 453.348 89.7004 449.374 93.3321C447.791 94.7654 441.622 100.283 432.537 102.335C429.896 102.875 427.225 103.258 424.538 103.481C433.264 107.089 437.794 106.861 437.794 106.861C443.551 106.576 449.102 104.633 453.777 101.266C458.1 98.1274 460.925 95.1283 463.068 90.1968C465.761 84.0286 467.942 77.5391 468.746 74.0708C467.485 73.7967 466.194 73.6889 464.905 73.75C459.072 73.8124 449.648 73.9134 439.747 80.4645Z" fill="#73A9FF"/>
<path d="M454.731 38.9401C451.683 40.8296 446.761 43.8791 443.647 50.4637C441.618 54.8278 440.819 59.6617 441.335 64.4456C441.391 64.3335 441.935 63.217 442.756 61.6181C444.756 57.7421 448.344 51.0341 450.602 48.9346C453.835 45.8904 454.241 46.5641 454.241 46.5641C454.241 46.5641 454.181 47.0632 454.07 47.8288C453.79 49.9681 453.366 52.086 452.8 54.1682C451.694 57.9798 449.636 61.4482 446.82 64.2483C444.299 66.6735 440.96 68.6087 441.215 69.07C441.246 69.1329 441.356 69.1569 441.539 69.1447C442.118 69.1003 442.667 69.0505 443.189 68.9822C450.331 68.2016 453.143 66.2981 453.143 66.2981C456.08 64.3194 458.379 61.5328 459.763 58.2757C461.039 55.2462 461.56 52.7779 461.122 49.5052C460.479 44.7101 459.323 39.9074 458.639 38.3408C458.486 38.0316 458.38 37.8168 458.296 37.819C457.342 37.5794 456.356 37.9357 454.731 38.9401Z" fill="#6398E5"/>
<path d="M456.303 39.4701C453.256 41.3596 448.333 44.4091 445.22 50.9937C443.658 54.3222 442.82 57.943 442.76 61.618C444.76 57.7421 448.348 51.0341 450.606 48.9345C453.84 45.8904 454.245 46.5641 454.245 46.5641C454.245 46.5641 454.185 47.0632 454.074 47.8287C455.584 46.7114 455.813 47.0941 455.813 47.0941C455.507 49.6623 455.02 52.2059 454.357 54.706C453.25 58.5175 451.192 61.9859 448.377 64.7861C446.486 66.5998 444.131 68.1473 443.185 69.0057C450.327 68.2251 453.139 66.3215 453.139 66.3215C456.076 64.3429 458.376 61.5563 459.759 58.2992C461.035 55.2696 461.556 52.8014 461.119 49.5287C460.475 44.7336 459.319 39.9309 458.635 38.3643C457.803 38.6038 457.015 38.9773 456.303 39.4701Z" fill="#73A9FF"/>
<path d="M373.224 85.836C369.424 88.8433 363.903 88.205 360.892 84.4104C357.881 80.6157 358.52 75.1017 362.32 72.0945C366.119 69.0873 371.64 69.7256 374.651 73.5202C377.662 77.3148 377.023 82.8288 373.224 85.836Z" fill="#73A9FF"/>
<path d="M360.991 70.4181C359.045 71.9584 356.217 71.6315 354.675 69.6879C353.133 67.7443 353.46 64.9201 355.406 63.3798C357.352 61.8395 360.18 62.1664 361.722 64.11C363.264 66.0536 362.937 68.8778 360.991 70.4181Z" fill="#73A9FF"/>
<path d="M372.8 85.8439C370.854 87.3842 368.026 87.0573 366.484 85.1137C364.941 83.1701 365.269 80.3458 367.215 78.8056C369.161 77.2653 371.989 77.5922 373.531 79.5358C375.073 81.4794 374.746 84.3036 372.8 85.8439Z" fill="#6398E5"/>
<path d="M353.714 60.9011C352.417 61.928 350.532 61.71 349.503 60.4143C348.475 59.1186 348.693 57.2358 349.991 56.2089C351.288 55.182 353.173 55.4 354.201 56.6957C355.23 57.9914 355.011 59.8743 353.714 60.9011Z" fill="#73A9FF"/>
<path d="M353.454 60.7771C352.62 61.4373 351.408 61.2971 350.747 60.4642C350.086 59.6312 350.226 58.4208 351.06 57.7607C351.894 57.1006 353.106 57.2407 353.767 58.0736C354.428 58.9066 354.288 60.117 353.454 60.7771Z" fill="#6398E5"/>
<path d="M360.734 70.2937C359.436 71.3206 357.551 71.1026 356.523 69.8069C355.495 68.5112 355.713 66.6284 357.01 65.6015C358.308 64.5746 360.193 64.7926 361.221 66.0883C362.249 67.384 362.031 69.2669 360.734 70.2937Z" fill="#6398E5"/>
<path d="M394.177 56.6733C393.217 55.9989 392.073 55.6359 390.899 55.6337C390.722 55.6531 390.545 55.6815 390.371 55.7188C389.516 55.8828 388.721 56.276 388.072 56.8563C387.382 57.5086 386.892 58.3446 386.662 59.2656C385.756 62.3998 386.714 65.4665 387.013 69.6988C387.241 72.9458 387.392 75.1886 386.374 77.8441C385.441 80.2962 383.948 81.9471 382.765 83.2654C381.761 84.3769 380.655 85.3925 379.463 86.2991C378.792 86.8304 378.152 87.2435 377.587 87.5983C377.566 87.6128 377.55 87.6342 377.542 87.6589C377.534 87.6836 377.535 87.7102 377.544 87.7345C377.553 87.7587 377.57 87.7792 377.592 87.7926C377.615 87.806 377.641 87.8115 377.666 87.8083C381.212 87.3024 384.571 85.9071 387.43 83.753C389.686 81.9887 391.578 79.8038 393 77.3194C396.952 70.5465 398.649 59.927 394.177 56.6733Z" fill="#73A9FF"/>
<path d="M391.481 56.3241C391.14 56.0736 390.767 55.8698 390.372 55.718C389.516 55.882 388.722 56.2752 388.073 56.8555C387.382 57.5077 386.893 58.3437 386.663 59.2648C385.757 62.399 386.715 65.4656 387.014 69.698C387.241 72.9449 387.393 75.1877 386.375 77.8432C385.441 80.2954 383.949 81.9462 382.766 83.2646C381.762 84.3761 380.656 85.3917 379.464 86.2983C381.343 85.5908 383.11 84.6149 384.71 83.401C386.969 81.6405 388.862 79.4562 390.283 76.9708C394.229 70.1972 395.943 59.5858 391.481 56.3241Z" fill="#6398E5"/>
<path d="M379.196 55.6013C379.026 55.3868 378.904 55.2874 378.796 55.1867C377.726 54.1132 375.011 51.7932 371.275 51.7053C370.193 51.6836 367.547 51.6334 366.022 53.5332C365.388 54.3633 365.042 55.3767 365.035 56.4206C365.016 57.2996 365.141 58.1758 365.405 59.0144C365.916 60.6504 366.911 61.6421 368.866 63.5485C369.913 64.5218 371.007 65.4418 372.146 66.3051C374.454 68.2219 377.498 70.7504 378.861 74.7679C379.531 76.829 379.732 79.0132 379.449 81.1616C379.222 83.4906 378.526 85.75 377.405 87.8049C377.404 87.8133 377.404 87.8219 377.406 87.8301C377.408 87.8384 377.412 87.8461 377.417 87.8527C377.423 87.8594 377.429 87.8648 377.437 87.8687C377.444 87.8726 377.453 87.8749 377.461 87.8753C377.468 87.8733 377.475 87.87 377.481 87.8654C377.486 87.8608 377.491 87.8552 377.495 87.8488C383.343 83.5965 385.08 76.9724 385.08 76.9724C386.855 70.2035 385.1 63.9915 383.547 61.2702C382.31 59.2267 380.851 57.3256 379.196 55.6013Z" fill="#E3ED62"/>
<path d="M375.255 59.13C372.762 57.3995 369.815 56.4366 366.78 56.3602C366.196 56.3491 365.613 56.372 365.032 56.429C365.013 57.3079 365.137 58.1841 365.402 59.0227C365.913 60.6587 366.908 61.6504 368.863 63.5568C369.909 64.5301 371.004 65.4501 372.143 66.3135C374.451 68.2302 377.495 70.7587 378.858 74.7762C379.528 76.8373 379.728 79.0215 379.446 81.1699C379.218 83.4989 378.523 85.7583 377.402 87.8132C377.4 87.8216 377.401 87.8302 377.403 87.8384C377.405 87.8467 377.409 87.8544 377.414 87.861C377.419 87.8677 377.426 87.8731 377.433 87.877C377.441 87.8809 377.449 87.8832 377.458 87.8836C377.743 87.4782 378.024 87.048 378.294 86.5891C379.141 85.1436 379.81 83.6008 380.286 81.9945C380.755 80.3177 381.036 78.5943 381.126 76.8557C381.351 74.8376 381.383 72.8026 381.22 70.7784C381.034 69.0765 380.355 62.8367 375.255 59.13Z" fill="#C6C620"/>
<path d="M377.596 46.5091C376.132 45.2498 374.444 44.2779 372.619 43.6444C370.993 43.0973 367.503 41.9206 365.328 43.6418C364.934 43.9383 364.603 44.3112 364.356 44.7382C364.109 45.1652 363.951 45.6376 363.891 46.127C363.873 46.4355 363.906 46.7448 363.989 47.0425C364.118 47.5012 364.332 47.9317 364.619 48.3117C366.51 50.8803 371.357 49.0632 375.632 50.6777C377.357 51.3307 379.665 52.8 381.767 56.5437C381.944 56.8544 382.119 57.1852 382.292 57.5359C382.305 57.5604 382.325 57.5803 382.35 57.5928C382.375 57.6052 382.403 57.6097 382.43 57.6055C382.457 57.6012 382.483 57.5886 382.502 57.5692C382.522 57.5499 382.535 57.5249 382.54 57.4977C382.792 55.1118 382.33 52.7049 381.215 50.5804C380.295 48.9938 379.064 47.6091 377.596 46.5091Z" fill="#73A9FF"/>
<path d="M376.982 49.1781C375.518 47.9188 373.83 46.9469 372.005 46.3135C370.379 45.7664 366.889 44.5896 364.714 46.3108C364.445 46.5263 364.202 46.7719 363.989 47.0428C364.118 47.5015 364.332 47.932 364.619 48.312C366.51 50.8806 371.357 49.0635 375.632 50.678C377.357 51.3311 379.665 52.8003 381.767 56.5441C381.552 55.3919 381.159 54.2803 380.601 53.2494C379.681 51.6629 378.45 50.2781 376.982 49.1781Z" fill="#6398E5"/>
<path d="M378.448 37.1107C377.083 36.0793 374.104 33.9023 371.508 34.8716C371.041 35.0332 370.612 35.2871 370.246 35.6182C369.879 35.9493 369.584 36.3508 369.377 36.7986L369.34 36.904C369.118 37.6225 369.139 38.3941 369.399 39.0996C370.409 42.1204 375.582 41.8783 379.153 44.7264C380.559 45.8509 382.253 47.8823 383.126 51.895C383.237 52.3523 383.306 52.8108 383.4 53.3148C383.405 53.3421 383.418 53.3672 383.438 53.3866C383.458 53.406 383.483 53.4186 383.511 53.4228C383.538 53.427 383.566 53.4225 383.591 53.4099C383.616 53.3973 383.636 53.3773 383.649 53.3527C384.621 51.1598 384.92 48.7279 384.507 46.3652C384.124 44.5725 383.379 42.8766 382.317 41.3815C381.308 39.7274 379.995 38.2785 378.448 37.1107Z" fill="#E3ED62"/>
<path d="M377.034 38.7727C375.67 37.7413 372.691 35.5644 370.095 36.5336C369.832 36.633 369.579 36.7566 369.339 36.9028C369.116 37.6213 369.137 38.3929 369.398 39.0984C370.407 42.1192 375.58 41.8771 379.152 44.7252C380.557 45.8497 382.251 47.8811 383.124 51.8938C383.334 50.6065 383.319 49.2927 383.081 48.0105C382.698 46.2178 381.953 44.5219 380.891 43.0268C379.884 41.3799 378.575 39.9368 377.034 38.7727Z" fill="#C6C620"/>
<path d="M386.105 32.4118C385.631 32.2751 385.135 32.2354 384.645 32.2949C384.155 32.3544 383.682 32.5119 383.255 32.758C382.779 33.0802 382.403 33.5276 382.166 34.0507C382.077 34.2444 382.002 34.4442 381.942 34.6488C381.021 37.7021 385.386 40.4838 386.658 44.8683C387.076 46.3108 387.278 48.4042 386.409 51.2474C386.082 52.3001 385.665 53.3233 385.165 54.3059C385.15 54.3309 385.144 54.3602 385.147 54.3891C385.151 54.418 385.165 54.4447 385.186 54.4649C385.207 54.4851 385.234 54.4974 385.263 54.5C385.292 54.5026 385.322 54.4952 385.346 54.4791C387.406 53.2482 389.055 51.4359 390.086 49.2706C390.806 47.5838 391.176 45.7688 391.173 43.9352C391.304 42.0107 391.069 40.0789 390.48 38.2417C389.941 36.6116 388.788 33.1146 386.105 32.4118Z" fill="#73A9FF"/>
<path d="M382.553 34.1321C382.456 34.1056 382.325 34.0783 382.166 34.0508C382.077 34.2445 382.002 34.4444 381.942 34.6489C381.021 37.7022 385.386 40.4839 386.658 44.8684C387.076 46.3109 387.278 48.4043 386.409 51.2475L386.534 50.9909C387.254 49.3042 387.624 47.4892 387.621 45.6556C387.752 43.731 387.517 41.7992 386.928 39.962C386.389 38.3319 385.236 34.835 382.553 34.1321Z" fill="#6398E5"/>
<path d="M339.662 100.369C339.223 99.2819 339.131 98.0862 339.397 96.9446C339.456 96.7766 339.524 96.6117 339.601 96.4506C339.956 95.6563 340.521 94.9735 341.235 94.4752C342.028 93.9527 342.955 93.6679 343.905 93.6545C347.167 93.4898 349.938 95.1221 353.995 96.3796C357.112 97.3396 359.26 98.002 362.081 97.6189C364.685 97.2715 366.638 96.1945 368.19 95.348C369.503 94.6258 370.746 93.783 371.902 92.8304C372.573 92.2992 373.122 91.7721 373.597 91.3034C373.616 91.2859 373.64 91.2753 373.666 91.2733C373.692 91.2713 373.718 91.2781 373.739 91.2925C373.761 91.307 373.777 91.3283 373.785 91.3529C373.793 91.3776 373.792 91.4042 373.783 91.4285C372.481 94.7608 370.354 97.7083 367.6 99.9951C365.365 101.786 362.802 103.126 360.056 103.942C352.564 106.226 341.825 105.45 339.662 100.369Z" fill="#73A9FF"/>
<path d="M339.95 97.6572C339.783 97.2683 339.67 96.859 339.612 96.4401C339.967 95.6458 340.532 94.963 341.246 94.4646C342.04 93.9421 342.966 93.6574 343.917 93.644C347.179 93.4793 349.949 95.1116 354.007 96.3691C357.123 97.3291 359.271 97.9915 362.092 97.6083C364.696 97.261 366.65 96.1839 368.202 95.3375C369.514 94.6153 370.757 93.7724 371.913 92.8199C370.794 94.4859 369.439 95.9812 367.89 97.2589C365.658 99.0532 363.096 100.395 360.349 101.209C352.845 103.498 342.113 102.738 339.95 97.6572Z" fill="#6398E5"/>
<path d="M342.052 85.5494C341.898 85.3216 341.813 85.193 341.739 85.0657C340.937 83.7797 339.296 80.6098 340.064 76.9574C340.307 75.8865 340.845 73.3156 343.046 72.2671C343.999 71.8404 345.066 71.7351 346.086 71.9672C346.947 72.1493 347.772 72.471 348.529 72.9194C350.007 73.7904 350.747 74.984 352.158 77.3207C352.868 78.5604 353.515 79.8351 354.096 81.1398C355.437 83.8215 357.207 87.3594 360.811 89.6026C362.668 90.7243 364.751 91.4186 366.909 91.6348C369.232 91.9454 371.593 91.7857 373.852 91.1651C373.861 91.1655 373.869 91.1678 373.877 91.1717C373.884 91.1756 373.891 91.181 373.896 91.1877C373.901 91.1943 373.905 91.202 373.907 91.2103C373.909 91.2185 373.91 91.2271 373.908 91.2355C373.905 91.2419 373.9 91.2475 373.894 91.2521C373.888 91.2567 373.882 91.26 373.875 91.262C368.393 95.9769 361.54 96.1525 361.54 96.1525C354.536 96.3321 348.882 93.2066 346.584 91.0748C344.874 89.4048 343.355 87.5518 342.052 85.5494Z" fill="#E3ED62"/>
<path d="M346.392 82.5172C345.275 79.6974 345.009 76.6124 345.628 73.6436C345.75 73.0735 345.906 72.5112 346.094 71.9593C346.956 72.1414 347.781 72.4631 348.538 72.9115C350.016 73.7825 350.756 74.9761 352.167 77.3128C352.877 78.5526 353.524 79.8272 354.105 81.1319C355.446 83.8136 357.215 87.3515 360.82 89.5947C362.676 90.7164 364.76 91.4107 366.918 91.627C369.241 91.9375 371.602 91.7778 373.861 91.1572C373.87 91.1577 373.878 91.1599 373.885 91.1638C373.893 91.1677 373.9 91.1732 373.905 91.1798C373.91 91.1865 373.914 91.1942 373.916 91.2024C373.918 91.2106 373.918 91.2192 373.917 91.2276C373.457 91.4118 372.973 91.5873 372.464 91.7446C370.861 92.2375 369.205 92.5355 367.53 92.6323C365.789 92.7032 364.045 92.5832 362.329 92.2745C360.311 92.0325 358.32 91.5985 356.384 90.9783C354.767 90.4078 348.843 88.3196 346.392 82.5172Z" fill="#C6C620"/>
<path d="M333.553 81.9135C332.664 80.1972 332.108 78.3285 331.915 76.406C331.752 74.7008 331.403 71.0379 333.577 69.3167C333.957 69.0009 334.396 68.7647 334.868 68.6221C335.341 68.4796 335.838 68.4336 336.328 68.4871C336.633 68.5403 336.927 68.6432 337.198 68.7916C337.616 69.0216 337.987 69.3278 338.291 69.6943C340.34 72.1381 337.468 76.4301 338.055 80.9637C338.298 82.7908 339.202 85.3703 342.372 88.2694C342.636 88.511 342.919 88.7567 343.219 89.0066C343.24 89.0247 343.255 89.0488 343.261 89.0757C343.268 89.1026 343.265 89.1308 343.255 89.1565C343.245 89.1821 343.227 89.2039 343.203 89.2187C343.18 89.2336 343.152 89.2407 343.125 89.2392C340.742 88.9385 338.501 87.9402 336.685 86.3699C335.351 85.1101 334.286 83.5944 333.553 81.9135Z" fill="#73A9FF"/>
<path d="M336.3 81.9263C335.412 80.21 334.856 78.3414 334.662 76.4188C334.5 74.7136 334.15 71.0507 336.325 69.3295C336.596 69.1174 336.891 68.937 337.204 68.7919C337.622 69.0219 337.993 69.3281 338.297 69.6945C340.346 72.1384 337.474 76.4303 338.061 80.9639C338.303 82.791 339.208 85.3705 342.377 88.2696C341.303 87.7976 340.31 87.1609 339.432 86.3827C338.099 85.123 337.033 83.6072 336.3 81.9263Z" fill="#6398E5"/>
<path d="M324.198 80.5944C323.522 79.0184 322.063 75.6383 323.601 73.3351C323.865 72.9182 324.211 72.5588 324.617 72.2784C325.024 71.9979 325.483 71.8022 325.967 71.703L326.078 71.6915C326.829 71.6394 327.576 71.836 328.204 72.2509C330.918 73.9223 329.501 78.8969 331.461 83.02C332.236 84.6438 333.829 86.755 337.541 88.5205C337.961 88.7335 338.393 88.9051 338.863 89.1116C338.888 89.1225 338.909 89.1412 338.924 89.1649C338.938 89.1887 338.945 89.2163 338.942 89.2439C338.94 89.2715 338.929 89.2978 338.912 89.319C338.894 89.3402 338.87 89.3552 338.843 89.362C336.483 89.8065 334.044 89.5415 331.835 88.6005C330.175 87.8187 328.692 86.7067 327.478 85.3327C326.096 83.9733 324.983 82.3658 324.198 80.5944Z" fill="#E3ED62"/>
<path d="M326.141 79.6013C325.465 78.0254 324.006 74.6452 325.544 72.3421C325.701 72.1091 325.879 71.8913 326.077 71.6913C326.828 71.6393 327.575 71.8359 328.203 72.2507C330.917 73.9222 329.5 78.8967 331.46 83.0199C332.235 84.6437 333.828 86.7548 337.54 88.5203C336.238 88.4302 334.96 88.1156 333.765 87.5907C332.105 86.8089 330.622 85.6969 329.407 84.3229C328.032 82.9673 326.924 81.3657 326.141 79.6013Z" fill="#C6C620"/>
<path d="M317.868 86.967C317.843 86.4749 317.918 85.9828 318.088 85.5202C318.258 85.0576 318.519 84.634 318.857 84.2746C319.279 83.8858 319.802 83.6217 320.366 83.5115C320.575 83.4688 320.787 83.4415 321 83.4295C324.187 83.2317 325.901 88.1118 329.884 90.3501C331.195 91.0861 333.189 91.7611 336.159 91.5657C337.26 91.4875 338.353 91.3165 339.425 91.0544C339.453 91.0454 339.483 91.0461 339.51 91.0565C339.537 91.0668 339.56 91.0861 339.575 91.1112C339.59 91.1363 339.596 91.1657 339.592 91.1946C339.587 91.2234 339.574 91.25 339.552 91.27C337.882 92.9918 335.739 94.1813 333.392 94.6887C331.584 95.0033 329.73 94.9485 327.943 94.5275C326.037 94.2146 324.208 93.5445 322.552 92.5526C321.086 91.6556 317.94 89.7363 317.868 86.967Z" fill="#73A9FF"/>
<path d="M320.36 83.9073C320.356 83.8064 320.36 83.6729 320.369 83.5126C320.578 83.47 320.79 83.4426 321.004 83.4307C324.19 83.2329 325.904 88.113 329.888 90.3513C331.198 91.0873 333.193 91.7623 336.163 91.5668L335.884 91.629C334.076 91.9437 332.222 91.8888 330.435 91.4678C328.529 91.1549 326.7 90.4848 325.043 89.4929C323.578 88.5959 320.432 86.6767 320.36 83.9073Z" fill="#6398E5"/>
<path d="M240.231 100.356C235.634 100.339 231.921 96.5925 231.938 91.987C231.954 87.3815 235.694 83.6614 240.291 83.678C244.887 83.6946 248.6 87.4415 248.583 92.047C248.567 96.6525 244.827 100.373 240.231 100.356Z" fill="#73A9FF"/>
<path d="M240.3 81.6432C237.946 81.6347 236.044 79.7156 236.053 77.3567C236.061 74.9977 237.977 73.0923 240.331 73.1008C242.685 73.1093 244.587 75.0285 244.578 77.3874C244.57 79.7463 242.655 81.6517 240.3 81.6432Z" fill="#73A9FF"/>
<path d="M239.913 100.111C237.559 100.103 235.657 98.1834 235.666 95.8244C235.674 93.4655 237.59 91.5601 239.944 91.5686C242.298 91.5771 244.2 93.4963 244.192 95.8552C244.183 98.2141 242.268 100.12 239.913 100.111Z" fill="#6398E5"/>
<path d="M240.544 70.255C238.974 70.2493 237.707 68.9699 237.712 67.3973C237.718 65.8247 238.995 64.5544 240.564 64.5601C242.134 64.5657 243.402 65.8452 243.396 67.4178C243.39 68.9904 242.113 70.2607 240.544 70.255Z" fill="#73A9FF"/>
<path d="M240.426 70.0099C239.417 70.0063 238.602 69.1838 238.605 68.1728C238.609 67.1618 239.43 66.3452 240.439 66.3489C241.448 66.3525 242.263 67.175 242.259 68.186C242.255 69.197 241.435 70.0136 240.426 70.0099Z" fill="#6398E5"/>
<path d="M240.181 81.3995C238.611 81.3939 237.343 80.1144 237.349 78.5418C237.355 76.9692 238.632 75.6989 240.201 75.7046C241.771 75.7103 243.038 76.9897 243.033 78.5623C243.027 80.1349 241.75 81.4052 240.181 81.3995Z" fill="#6398E5"/>
<path d="M273.032 91.0984C272.72 90.0281 272.087 89.08 271.218 88.3827C271.076 88.292 270.928 88.2086 270.777 88.1329C270.046 87.7479 269.224 87.5691 268.4 87.6159C267.502 87.6914 266.644 88.0228 265.928 88.571C263.4 90.364 262.294 93.2116 260.008 96.5349C258.253 99.0832 257.037 100.84 254.71 102.211C252.566 103.48 250.482 103.823 248.824 104.101C247.422 104.333 246.001 104.432 244.581 104.399C243.769 104.396 243.05 104.325 242.421 104.253C242.397 104.251 242.372 104.258 242.352 104.272C242.331 104.285 242.316 104.306 242.309 104.329C242.301 104.352 242.301 104.378 242.31 104.401C242.319 104.424 242.335 104.444 242.356 104.456C245.282 106.182 248.598 107.136 251.992 107.229C254.709 107.255 257.405 106.752 259.93 105.748C266.87 103.056 274.418 96.1679 273.032 91.0984Z" fill="#73A9FF"/>
<path d="M271.24 89.2407C271.136 88.8523 270.98 88.4797 270.777 88.1326C270.047 87.7475 269.225 87.5688 268.4 87.6155C267.502 87.691 266.644 88.0225 265.928 88.5707C263.401 90.3637 262.294 93.2112 260.009 96.5346C258.254 99.0829 257.038 100.84 254.71 102.21C252.566 103.48 250.482 103.822 248.825 104.101C247.423 104.332 246.002 104.432 244.581 104.399C246.393 104.987 248.28 105.309 250.185 105.355C252.901 105.385 255.598 104.884 258.123 103.878C265.059 101.182 272.615 94.3102 271.24 89.2407Z" fill="#6398E5"/>
<path d="M262.569 81.4227C262.569 81.1624 262.538 81.0158 262.518 80.8775C262.36 79.445 261.723 76.1111 259.007 73.8315C258.217 73.1737 256.287 71.568 254.032 72.0765C253.07 72.3178 252.213 72.8658 251.59 73.6379C251.055 74.2799 250.629 75.0053 250.328 75.7853C249.738 77.3045 249.887 78.6312 250.207 81.2073C250.406 82.551 250.672 83.8839 251.004 85.2007C251.579 87.9934 252.337 91.6775 250.968 95.472C250.243 97.4009 249.098 99.1436 247.616 100.573C246.068 102.17 244.214 103.437 242.166 104.3C242.16 104.305 242.155 104.312 242.152 104.319C242.149 104.327 242.147 104.335 242.147 104.343C242.147 104.351 242.149 104.359 242.152 104.366C242.155 104.374 242.16 104.38 242.166 104.385C242.173 104.388 242.179 104.39 242.186 104.39C242.193 104.39 242.2 104.388 242.207 104.386C249.059 104.691 254.269 100.797 254.269 100.797C259.594 96.817 261.973 91.1591 262.434 88.2156C262.728 85.9631 262.773 83.6851 262.569 81.4227Z" fill="#E3ED62"/>
<path d="M257.553 81.7066C256.73 78.9423 255.117 76.48 252.913 74.624C252.488 74.2698 252.041 73.9409 251.577 73.6388C251.042 74.2808 250.616 75.0062 250.315 75.7862C249.725 77.3054 249.874 78.6321 250.194 81.2082C250.393 82.5519 250.659 83.8848 250.992 85.2017C251.566 87.9943 252.324 91.6784 250.955 95.4729C250.23 97.4018 249.085 99.1445 247.603 100.574C246.055 102.17 244.201 103.438 242.154 104.301C242.147 104.306 242.143 104.313 242.139 104.32C242.136 104.328 242.134 104.336 242.134 104.344C242.134 104.352 242.136 104.36 242.139 104.367C242.142 104.374 242.147 104.381 242.153 104.386C242.604 104.254 243.068 104.101 243.539 103.92C245.024 103.347 246.433 102.597 247.737 101.685C249.078 100.716 250.307 99.602 251.403 98.3627C252.765 96.9961 253.994 95.5022 255.073 93.9013C255.943 92.5254 259.136 87.4846 257.553 81.7066Z" fill="#C6C620"/>
<path d="M266.764 73.7137C266.425 71.91 265.75 70.1865 264.773 68.6339C263.893 67.264 262.003 64.3201 259.372 64.3107C258.904 64.2973 258.439 64.3786 258.003 64.5496C257.567 64.7207 257.17 64.978 256.835 65.3063C256.64 65.525 256.481 65.7746 256.366 66.0449C256.19 66.4622 256.093 66.9089 256.081 67.3619C255.96 70.392 260.628 71.914 262.839 75.6481C263.731 77.1564 264.571 79.6164 263.911 83.6453C263.858 83.9814 263.792 84.331 263.712 84.6941C263.707 84.7199 263.71 84.7467 263.721 84.7706C263.732 84.7945 263.75 84.8144 263.773 84.8275C263.796 84.8406 263.822 84.8462 263.848 84.8436C263.875 84.8409 263.899 84.8302 263.919 84.8128C265.518 83.1882 266.602 81.1257 267.034 78.885C267.292 77.1606 267.201 75.4017 266.764 73.7137Z" fill="#73A9FF"/>
<path d="M264.729 75.3338C264.39 73.53 263.715 71.8065 262.738 70.2539C261.858 68.884 259.968 65.9402 257.337 65.9307C257.01 65.9315 256.685 65.9699 256.366 66.0451C256.19 66.4624 256.094 66.9091 256.082 67.3621C255.961 70.3922 260.629 71.9142 262.84 75.6483C263.732 77.1566 264.572 79.6167 263.912 83.6455C264.435 82.6617 264.802 81.6021 264.999 80.505C265.257 78.7806 265.165 77.0217 264.729 75.3338Z" fill="#6398E5"/>
<path d="M272.964 67.2315C272.564 65.6558 271.646 62.2721 269.149 61.4536C268.707 61.2971 268.238 61.2314 267.771 61.2604C267.303 61.2895 266.847 61.4127 266.428 61.6228L266.338 61.6794C265.748 62.0817 265.306 62.6677 265.082 63.3468C264.04 66.1905 268.017 69.0768 268.976 73.3108C269.352 74.98 269.404 77.4941 267.674 80.9944C267.485 81.4005 267.265 81.7821 267.036 82.2124C267.023 82.2356 267.018 82.2621 267.021 82.2883C267.025 82.3144 267.036 82.3389 267.054 82.3583C267.072 82.3777 267.095 82.391 267.121 82.3963C267.147 82.4016 267.174 82.3987 267.198 82.3879C269.217 81.3342 270.879 79.7036 271.973 77.7027C272.751 76.1431 273.203 74.4408 273.302 72.7C273.534 70.8721 273.419 69.0168 272.964 67.2315Z" fill="#E3ED62"/>
<path d="M270.935 67.6296C270.535 66.0538 269.617 62.6701 267.119 61.8516C266.865 61.7696 266.605 61.7115 266.34 61.678C265.75 62.0803 265.308 62.6663 265.084 63.3453C264.042 66.1891 268.019 69.0753 268.978 73.3094C269.354 74.9785 269.405 77.4927 267.676 80.9929C268.593 80.1603 269.361 79.175 269.943 78.0804C270.722 76.5208 271.174 74.8185 271.273 73.0776C271.502 71.2565 271.387 69.4083 270.935 67.6296Z" fill="#C6C620"/>
<path d="M281.423 68.2786C281.152 67.8961 280.808 67.5721 280.41 67.3261C280.012 67.08 279.568 66.9169 279.106 66.8465C278.562 66.8041 278.018 66.9134 277.533 67.1622C277.352 67.2532 277.178 67.3573 277.013 67.4736C274.522 69.1975 276.109 73.8528 274.454 77.8659C273.909 79.1859 272.819 80.862 270.491 82.4605C269.625 83.0488 268.71 83.5626 267.757 83.9964C267.731 84.006 267.71 84.0242 267.695 84.0479C267.681 84.0717 267.675 84.0996 267.679 84.1271C267.683 84.1546 267.695 84.18 267.716 84.1991C267.736 84.2183 267.761 84.23 267.789 84.2324C270.045 84.5385 272.34 84.1689 274.386 83.1701C275.919 82.343 277.268 81.2131 278.352 79.8488C279.589 78.4954 280.559 76.92 281.211 75.2054C281.777 73.6739 282.994 70.3915 281.423 68.2786Z" fill="#73A9FF"/>
<path d="M277.771 67.452C277.714 67.3745 277.633 67.2766 277.532 67.1623C277.351 67.2533 277.177 67.3574 277.011 67.4737C274.52 69.1976 276.107 73.8529 274.453 77.866C273.908 79.1861 272.818 80.8622 270.49 82.4606L270.734 82.3435C272.267 81.5163 273.616 80.3865 274.7 79.0221C275.937 77.6688 276.907 76.0933 277.559 74.3788C278.125 72.8473 279.342 69.5648 277.771 67.452Z" fill="#6398E5"/>
<path d="M206.752 91.2657C207.072 90.1977 207.712 89.2541 208.585 88.5631C208.729 88.4734 208.877 88.3911 209.028 88.3166C209.762 87.9368 210.585 87.764 211.409 87.8167C212.307 87.8987 213.162 88.2363 213.874 88.7896C216.389 90.6008 217.475 93.4563 219.737 96.796C221.477 99.3569 222.677 101.123 224.994 102.51C227.129 103.795 229.214 104.152 230.866 104.443C232.266 104.684 233.686 104.794 235.107 104.772C235.919 104.775 236.638 104.708 237.268 104.641C237.292 104.639 237.316 104.646 237.337 104.66C237.357 104.674 237.372 104.694 237.38 104.718C237.387 104.741 237.386 104.766 237.378 104.789C237.369 104.813 237.353 104.832 237.332 104.845C234.393 106.55 231.071 107.48 227.676 107.548C224.959 107.554 222.266 107.032 219.748 106.01C212.844 103.268 205.346 96.3251 206.752 91.2657Z" fill="#73A9FF"/>
<path d="M208.573 89.4217C208.681 89.0341 208.839 88.6626 209.044 88.317C209.778 87.9372 210.601 87.7644 211.425 87.8171C212.323 87.8991 213.178 88.2367 213.89 88.7901C216.405 90.6012 217.491 93.4567 219.752 96.7964C221.493 99.3573 222.692 101.123 225.01 102.51C227.145 103.795 229.23 104.153 230.881 104.443C232.282 104.685 233.702 104.795 235.123 104.772C233.307 105.347 231.417 105.655 229.513 105.687C226.796 105.698 224.103 105.177 221.585 104.154C214.669 101.407 207.167 94.4812 208.573 89.4217Z" fill="#6398E5"/>
<path d="M217.303 81.6663C217.324 81.406 217.337 81.2596 217.358 81.1214C217.525 79.6901 218.187 76.3609 220.919 74.1009C221.734 73.4489 223.656 71.8572 225.907 72.3819C226.867 72.6301 227.72 73.1843 228.337 73.9609C228.867 74.6067 229.289 75.3351 229.584 76.1173C230.163 77.6407 230.004 78.9663 229.666 81.54C229.457 82.8823 229.182 84.2131 228.84 85.5276C228.245 88.316 227.46 91.9946 228.803 95.7988C229.514 97.7329 230.646 99.4838 232.118 100.924C233.654 102.532 235.499 103.812 237.54 104.69C237.546 104.696 237.551 104.702 237.554 104.709C237.558 104.717 237.559 104.725 237.559 104.733C237.559 104.741 237.558 104.749 237.554 104.756C237.551 104.764 237.546 104.77 237.54 104.776C237.533 104.778 237.527 104.78 237.52 104.78C237.513 104.78 237.506 104.778 237.499 104.775C230.645 105.031 225.463 101.099 225.463 101.099C220.167 97.0816 217.828 91.4066 217.388 88.4599C217.111 86.2054 217.082 83.9271 217.303 81.6663Z" fill="#E3ED62"/>
<path d="M222.318 81.9849C223.16 79.2266 224.791 76.776 227.008 74.936C227.436 74.5849 227.885 74.2592 228.351 73.9605C228.881 74.6063 229.302 75.3347 229.598 76.1169C230.177 77.6403 230.018 78.9659 229.68 81.5396C229.471 82.8819 229.196 84.2128 228.853 85.5272C228.259 88.3156 227.474 91.9942 228.817 95.7985C229.527 97.7325 230.66 99.4834 232.131 100.924C233.668 102.531 235.512 103.812 237.554 104.69C237.56 104.695 237.565 104.702 237.568 104.709C237.571 104.716 237.573 104.724 237.573 104.733C237.573 104.741 237.571 104.749 237.568 104.756C237.565 104.763 237.56 104.77 237.554 104.775C237.104 104.639 236.641 104.483 236.171 104.298C234.691 103.715 233.287 102.954 231.989 102.034C230.657 101.054 229.436 99.9312 228.347 98.6849C226.995 97.3085 225.777 95.8058 224.71 94.1972C223.85 92.8151 220.697 87.7514 222.318 81.9849Z" fill="#C6C620"/>
<path d="M213.161 73.9266C213.519 72.1239 214.214 70.4053 215.209 68.8613C216.099 67.4977 218.01 64.5676 220.64 64.5771C221.108 64.5671 221.574 64.6518 222.008 64.826C222.443 65.0002 222.838 65.2604 223.17 65.591C223.365 65.8112 223.521 66.0619 223.634 66.333C223.808 66.7516 223.901 67.199 223.91 67.652C223.98 70.6828 219.31 72.1711 217.06 75.8892C216.157 77.391 215.3 79.8449 215.931 83.8784C215.984 84.2149 216.047 84.565 216.122 84.9286C216.127 84.9545 216.123 84.9812 216.112 85.005C216.101 85.0289 216.083 85.0486 216.06 85.0616C216.037 85.0745 216.011 85.0799 215.984 85.0771C215.958 85.0743 215.934 85.0634 215.914 85.0459C214.326 83.4098 213.257 81.3394 212.842 79.0957C212.6 77.3687 212.708 75.6105 213.161 73.9266Z" fill="#73A9FF"/>
<path d="M215.183 75.5607C215.541 73.7581 216.236 72.0395 217.231 70.4955C218.121 69.1319 220.032 66.2018 222.663 66.2113C222.989 66.2145 223.315 66.2553 223.632 66.3328C223.806 66.7513 223.899 67.1987 223.908 67.6518C223.978 70.6826 219.308 72.1708 217.058 75.8889C216.155 77.3907 215.298 79.8446 215.929 83.8782C215.412 82.8906 215.053 81.8284 214.864 80.7299C214.622 79.0029 214.731 77.2447 215.183 75.5607Z" fill="#6398E5"/>
<path d="M207.011 67.3994C207.443 65.8267 208.364 62.4497 210.868 61.6492C211.311 61.4958 211.78 61.4335 212.247 61.466C212.714 61.4984 213.17 61.6249 213.588 61.838L213.677 61.8952C214.264 62.3018 214.702 62.891 214.921 63.5716C215.942 66.4228 211.945 69.2803 210.955 73.5073C210.568 75.1737 210.498 77.6874 212.203 81.2001C212.388 81.6075 212.606 81.9907 212.832 82.4227C212.844 82.446 212.849 82.4725 212.845 82.4987C212.842 82.5248 212.83 82.5492 212.812 82.5685C212.794 82.5877 212.771 82.6008 212.745 82.6059C212.719 82.6111 212.693 82.608 212.669 82.597C210.657 81.5288 209.007 79.8862 207.927 77.8775C207.16 76.3123 206.72 74.6068 206.634 72.8653C206.415 71.0358 206.543 69.1814 207.011 67.3994Z" fill="#E3ED62"/>
<path d="M209.041 67.8136C209.473 66.2409 210.394 62.8638 212.898 62.0633C213.152 61.9832 213.414 61.9269 213.678 61.8953C214.266 62.3018 214.703 62.891 214.923 63.5717C215.944 66.4228 211.947 69.2803 210.957 73.5073C210.569 75.1738 210.499 77.6875 212.204 81.2001C211.292 80.3609 210.532 79.37 209.957 78.2713C209.19 76.7061 208.75 75.0006 208.664 73.2591C208.448 71.4363 208.576 69.589 209.041 67.8136Z" fill="#C6C620"/>
<path d="M198.545 68.3864C198.818 68.0058 199.165 67.6843 199.565 67.4411C199.965 67.198 200.41 67.0381 200.873 66.971C201.416 66.9325 201.96 67.0457 202.443 67.298C202.623 67.3903 202.796 67.4957 202.961 67.6131C205.44 69.355 203.819 73.9987 205.445 78.0236C205.98 79.3476 207.058 81.0315 209.375 82.6467C210.237 83.2412 211.148 83.7616 212.097 84.2023C212.123 84.2121 212.145 84.2304 212.159 84.2543C212.173 84.2782 212.179 84.3061 212.175 84.3336C212.171 84.361 212.158 84.3864 212.138 84.4054C212.118 84.4244 212.092 84.4359 212.064 84.4381C209.806 84.7279 207.514 84.3417 205.475 83.3282C203.948 82.4901 202.607 81.3505 201.532 79.9784C200.306 78.6161 199.347 77.0337 198.707 75.3145C198.152 73.7789 196.958 70.4878 198.545 68.3864Z" fill="#73A9FF"/>
<path d="M202.202 67.586C202.259 67.5089 202.341 67.4116 202.443 67.298C202.623 67.3903 202.796 67.4957 202.961 67.6131C205.44 69.355 203.819 73.9987 205.445 78.0236C205.98 79.3476 207.058 81.0315 209.375 82.6467L209.131 82.5279C207.605 81.6897 206.264 80.5501 205.189 79.178C203.962 77.8157 203.004 76.2333 202.364 74.5141C201.809 72.9786 200.615 69.6874 202.202 67.586Z" fill="#6398E5"/>
<path d="M177.52 77.6669C177.6 79.9451 177.833 82.2153 178.216 84.4624C178.349 85.2336 178.511 86.0343 178.682 86.8586C179.152 88.9591 179.743 91.0308 180.451 93.0632C182.566 98.8631 191.916 111.801 207.875 114.336C222 116.579 232.695 109.313 235.332 107.366L235.565 107.192C234.028 108.734 223.047 119.394 206.696 117.882C196.67 116.954 184.789 111.456 180.156 101.632C176.296 93.468 177.502 82.1283 177.52 77.6669Z" fill="#73A9FF"/>
<path d="M177.504 76.8338C177.516 77.0761 177.522 77.3538 177.522 77.667L177.504 77.1293V76.8338Z" fill="#73A9FF"/>
<path d="M181.04 100.766C178.681 95.7429 178.215 89.556 178.215 84.483C178.348 85.2542 178.51 86.0548 178.681 86.8792C179.151 88.9797 179.742 91.0513 180.45 93.0838C182.564 98.8837 191.915 111.822 207.874 114.357C221.999 116.599 232.694 109.334 235.331 107.387C231.872 110.507 221.739 118.319 207.579 117.016C197.553 116.088 185.672 110.59 181.04 100.766Z" fill="#6398E5"/>
<path d="M232.057 112.584C231.733 114.101 231.298 115.591 230.753 117.043C228.494 123.058 224.413 128.214 219.082 131.789C211.56 136.732 208.154 133.757 200.504 138.585C195.772 141.569 193.56 144.928 192.162 146.001C191.741 146.32 191.393 146.435 191.071 146.267C189.352 145.38 190.891 137.698 194.315 131.789C195.55 129.653 198.19 125.212 203.427 122.187C209.071 118.937 212.35 120.414 220.559 117.903C224.612 116.652 228.479 114.863 232.057 112.584Z" fill="#6398E5"/>
<path d="M230.751 117.043C228.492 123.058 224.411 128.214 219.08 131.789C211.557 136.732 208.152 133.757 200.502 138.585C195.77 141.569 193.558 144.928 192.16 146.001C192.381 143.023 193.82 138.36 196.079 134.449C197.315 132.312 199.954 127.872 205.191 124.846C210.835 121.596 214.114 123.073 222.324 120.562C225.24 119.664 228.062 118.486 230.751 117.043Z" fill="#73A9FF"/>
<path d="M173.018 75.0608C173.929 75.3562 174.628 76.5617 175.144 78.0715C176.028 80.6745 175.651 84.22 175.692 85.4018C175.708 85.5028 175.692 85.6063 175.645 85.6973C175.397 86.0577 174.259 84.22 174.259 84.22L172.897 82.1725C172.075 80.9554 171.493 79.5927 171.181 78.1572C170.85 76.6178 170.98 75.6133 171.9 75.1731C172.244 74.9918 172.645 74.9516 173.018 75.0608Z" fill="#73A9FF"/>
<path d="M173.018 75.0608C173.929 75.3563 174.628 76.5617 175.144 78.0715C176.029 80.6745 175.651 84.22 175.693 85.4019C175.709 85.5029 175.692 85.6064 175.645 85.6973C175.351 86.0135 174.513 84.028 174.513 84.028L173.499 81.7884C172.884 80.4544 172.528 79.0157 172.449 77.5486C172.393 76.3638 172.537 75.5277 173.018 75.0608Z" fill="#6398E5"/>
<path d="M168.897 80.4152C171.45 80.6633 172.942 83.9163 173.963 86.1411C175.004 88.4328 175.604 90.9007 175.732 93.4153C175.732 93.4301 175.717 93.436 175.708 93.4153C175.632 93.2853 175.387 92.8894 175.004 92.331C173.942 90.7683 172.702 89.3355 171.309 88.0616C168.655 85.698 165.706 84.8116 166.001 82.4479C166.042 81.9727 166.181 81.5111 166.408 81.0918C167.142 80.6003 168.016 80.3626 168.897 80.4152Z" fill="#6398E5"/>
<path d="M168.311 81.007C170.561 81.4118 171.811 83.5745 172.787 85.2557C174.033 87.4293 174.791 89.8493 175.008 92.3467C173.947 90.7788 172.707 89.341 171.313 88.0625C168.659 85.6989 165.71 84.8125 166.005 82.4488C166.046 81.9736 166.185 81.512 166.412 81.0927C167.031 80.9289 167.679 80.8997 168.311 81.007Z" fill="#73A9FF"/>
<path d="M167.181 86.8791C169.891 87.1066 171.743 89.5382 173.374 91.6596C174.392 93.0333 175.281 94.4992 176.027 96.0383C176.879 97.6654 177.631 99.3428 178.28 101.061C178.287 101.075 178.288 101.092 178.283 101.107C178.278 101.121 178.269 101.134 178.255 101.143C178.242 101.151 178.226 101.154 178.211 101.152C178.195 101.149 178.181 101.141 178.171 101.129C177.581 100.538 176.992 100 176.426 99.5159C175.023 98.3112 173.507 97.2455 171.899 96.3338C167.859 94.0381 164.837 93.6481 163.937 91.0155C163.742 90.4256 163.66 89.8041 163.695 89.1837C163.723 88.6666 163.91 88.1708 164.232 87.7655C165.117 86.7048 166.783 86.8466 167.181 86.8791Z" fill="#C6C620"/>
<path d="M166.591 88.357C169.301 88.5845 171.153 91.0162 172.784 93.1376C173.802 94.5112 174.691 95.9771 175.438 97.5162C175.806 98.2194 176.134 98.8931 176.426 99.5283C175.023 98.3195 173.507 97.2499 171.899 96.3344C167.859 94.0387 164.837 93.6487 163.937 91.0161C163.742 90.4263 163.66 89.8047 163.695 89.1843C164.589 88.1886 166.202 88.3245 166.591 88.357Z" fill="#E3ED62"/>
<path d="M197.554 98.6981C200.904 98.7365 201.178 104.758 205.811 108.744C207.685 110.328 209.909 111.442 212.298 111.994C213.409 112.268 214.538 112.456 215.678 112.558C215.697 112.561 215.715 112.571 215.728 112.585C215.742 112.6 215.75 112.618 215.752 112.638C215.753 112.658 215.749 112.677 215.738 112.694C215.727 112.711 215.711 112.723 215.692 112.729C213.725 113.28 211.686 113.53 209.644 113.471C208.022 113.427 203.21 113.226 199.029 109.926C197.678 108.9 196.571 107.589 195.785 106.085C195.425 105.37 193.644 101.839 195.195 99.8799C195.407 99.6192 195.657 99.393 195.938 99.2092C196.414 98.8809 196.977 98.7029 197.554 98.6981Z" fill="#C6C620"/>
<path d="M196.375 100.175C199.725 100.213 199.999 106.235 204.632 110.221C206.506 111.804 208.73 112.918 211.119 113.471C210.574 113.494 210.084 113.494 209.645 113.471C208.023 113.426 203.21 113.225 199.029 109.925C197.679 108.9 196.571 107.588 195.785 106.084C195.47 105.458 194.069 102.683 194.759 100.686C195.235 100.358 195.797 100.18 196.375 100.175Z" fill="#E3ED62"/>
<path d="M189.962 92.6864C190.215 92.6754 190.467 92.7229 190.699 92.8252C190.89 92.904 191.059 93.0264 191.195 93.1827C192.3 94.4621 190.124 96.5776 190.171 99.6622C190.189 100.962 190.575 102.664 192.032 104.658C192.036 104.662 192.04 104.667 192.042 104.672C192.045 104.678 192.046 104.684 192.046 104.689C192.046 104.695 192.045 104.701 192.042 104.706C192.04 104.712 192.036 104.717 192.032 104.72C192.025 104.726 192.017 104.729 192.008 104.729C192 104.729 191.992 104.726 191.985 104.72C191.12 104.163 190.344 103.479 189.682 102.691C189.157 102.061 187.618 100.176 187.47 97.4905C187.405 96.6378 187.529 95.7812 187.833 94.9821C187.971 94.6069 188.712 92.7543 189.962 92.6864Z" fill="#73A9FF"/>
<path d="M190.697 92.8246C190.888 92.9033 191.058 93.0258 191.193 93.1821C192.298 94.4614 190.122 96.5769 190.169 99.6615C190.187 100.961 190.573 102.663 192.03 104.658C192.034 104.662 192.038 104.666 192.04 104.672C192.043 104.677 192.044 104.683 192.044 104.689C192.044 104.695 192.043 104.7 192.04 104.706C192.038 104.711 192.034 104.716 192.03 104.72C191.276 104.08 190.619 103.335 190.078 102.507C189.633 101.818 188.335 99.7649 188.503 97.0792C188.54 96.2252 188.765 95.3899 189.161 94.6328C189.299 94.3639 189.889 93.2943 190.697 92.8246Z" fill="#6398E5"/>
<path d="M186.643 113.471C190.561 113.994 194.262 115.577 197.348 118.051C197.348 118.051 195.738 117.862 193.541 117.673C189.923 117.377 184.718 117.058 182.518 117.613C178.98 118.5 179.274 119.091 179.274 119.091C179.274 119.091 180.144 119.513 181.321 120.021C179.059 120.722 179.274 121.159 179.274 121.159C179.274 121.159 182.565 122.766 185.172 123.523C186.207 123.818 190.226 124.938 194.788 123.836C196.102 123.489 197.394 123.065 198.657 122.565C195.522 126.152 193.426 127.062 193.426 127.062C190.762 128.221 187.821 128.582 184.957 128.102C182.303 127.647 180.357 126.92 178.287 125.165C175.692 122.973 173.256 120.521 172.118 119.129C171.655 118.568 171.407 118.178 171.445 118.051C171.684 117.262 172.368 116.736 173.781 116.056C176.429 114.78 180.708 112.718 186.643 113.471Z" fill="#6398E5"/>
<path d="M186.647 115.539C189.051 115.848 191.385 116.57 193.544 117.673C189.926 117.377 184.721 117.058 182.522 117.613C178.983 118.5 179.278 119.091 179.278 119.091C179.278 119.091 180.148 119.513 181.324 120.021C179.063 120.722 179.278 121.159 179.278 121.159C179.278 121.159 182.569 122.766 185.176 123.523C186.211 123.818 190.23 124.938 194.792 123.836C196.105 123.489 197.397 123.065 198.66 122.565C195.526 126.152 193.429 127.062 193.429 127.062C190.766 128.221 187.824 128.582 184.96 128.102C182.306 127.647 180.36 126.92 178.29 125.165C175.695 122.973 173.259 120.521 172.121 119.129C172.629 118.723 173.188 118.385 173.784 118.125C176.432 116.848 180.711 114.786 186.647 115.539Z" fill="#73A9FF"/>
<path d="M170.594 100.077C172.393 100.252 175.298 100.532 178.176 102.819C180.068 104.343 181.509 106.354 182.345 108.637C182.295 108.598 181.8 108.214 181.072 107.674C179.302 106.365 176.182 104.128 174.693 103.682C172.552 103.026 172.52 103.422 172.52 103.422C172.52 103.422 172.659 103.635 172.88 103.957C173.484 104.864 174.149 105.728 174.87 106.545C176.222 108.024 177.927 109.136 179.824 109.774C181.505 110.309 183.445 110.439 183.434 110.705C183.434 110.741 183.389 110.776 183.304 110.811C183.032 110.921 182.773 111.021 182.522 111.107C179.122 112.351 177.427 112.117 177.427 112.117C175.658 111.878 173.997 111.13 172.644 109.963C171.391 108.876 170.603 107.875 170.069 106.294C169.288 103.977 168.737 101.543 168.695 100.68C168.695 100.506 168.695 100.385 168.734 100.367C169.111 100.045 169.636 99.9859 170.594 100.077Z" fill="#6398E5"/>
<path d="M170.004 100.669C171.802 100.844 174.707 101.124 177.585 103.411C179.034 104.57 180.222 106.023 181.07 107.675C179.301 106.366 176.181 104.129 174.692 103.683C172.551 103.027 172.519 103.423 172.519 103.423C172.519 103.423 172.657 103.636 172.879 103.958C171.947 103.789 171.929 104.014 171.929 104.014C172.642 105.109 173.43 106.153 174.288 107.137C175.64 108.616 177.345 109.727 179.242 110.366C180.501 110.765 181.911 110.939 182.53 111.117C179.13 112.361 177.435 112.127 177.435 112.127C175.666 111.888 174.005 111.139 172.652 109.973C171.398 108.886 170.611 107.884 170.077 106.304C169.296 103.987 168.744 101.553 168.703 100.69C169.133 100.612 169.572 100.605 170.004 100.669Z" fill="#73A9FF"/>
<path d="M300.578 77.6669C300.497 79.9451 300.265 82.2153 299.882 84.4624C299.749 85.2336 299.587 86.0343 299.416 86.8586C298.945 88.9591 298.355 91.0308 297.646 93.0632C295.532 98.8631 286.181 111.801 270.222 114.336C256.098 116.579 245.402 109.313 242.766 107.366L242.533 107.192C244.069 108.734 255.051 119.394 271.402 117.882C281.428 116.954 293.309 111.456 297.941 101.632C301.801 93.468 300.595 82.1283 300.578 77.6669Z" fill="#73A9FF"/>
<path d="M300.594 76.8338C300.582 77.0761 300.576 77.3538 300.576 77.667L300.594 77.1293V76.8338Z" fill="#73A9FF"/>
<path d="M297.058 100.766C299.417 95.7429 299.883 89.556 299.883 84.483C299.75 85.2542 299.588 86.0548 299.417 86.8792C298.946 88.9797 298.356 91.0513 297.648 93.0838C295.533 98.8837 286.183 111.822 270.224 114.357C256.099 116.599 245.403 109.334 242.767 107.387C246.226 110.507 256.358 118.319 270.518 117.016C280.544 116.088 292.425 110.59 297.058 100.766Z" fill="#6398E5"/>
<path d="M246.041 112.584C246.364 114.101 246.8 115.591 247.344 117.043C249.604 123.058 253.685 128.214 259.016 131.789C266.538 136.732 269.944 133.757 277.593 138.585C282.326 141.569 284.538 144.928 285.935 146.001C286.357 146.32 286.705 146.435 287.026 146.267C288.746 145.38 287.206 137.698 283.783 131.789C282.547 129.653 279.908 125.212 274.671 122.187C269.027 118.937 265.748 120.414 257.538 117.903C253.486 116.652 249.619 114.863 246.041 112.584Z" fill="#6398E5"/>
<path d="M247.346 117.043C249.606 123.058 253.687 128.214 259.018 131.789C266.54 136.732 269.946 133.757 277.595 138.585C282.328 141.569 284.54 144.928 285.938 146.001C285.716 143.023 284.277 138.36 282.019 134.449C280.783 132.312 278.144 127.872 272.907 124.846C267.263 121.596 263.984 123.073 255.774 120.562C252.858 119.664 250.036 118.486 247.346 117.043Z" fill="#73A9FF"/>
<path d="M305.08 75.0608C304.169 75.3562 303.47 76.5617 302.954 78.0715C302.069 80.6745 302.447 84.22 302.405 85.4018C302.389 85.5028 302.406 85.6063 302.453 85.6973C302.7 86.0577 303.839 84.22 303.839 84.22L305.201 82.1725C306.022 80.9554 306.605 79.5927 306.917 78.1572C307.247 76.6178 307.118 75.6133 306.198 75.1731C305.854 74.9918 305.453 74.9516 305.08 75.0608Z" fill="#73A9FF"/>
<path d="M305.08 75.0608C304.168 75.3563 303.47 76.5617 302.954 78.0715C302.069 80.6745 302.446 84.22 302.405 85.4019C302.389 85.5029 302.406 85.6064 302.452 85.6973C302.747 86.0135 303.585 84.028 303.585 84.028L304.599 81.7884C305.213 80.4544 305.57 79.0157 305.649 77.5486C305.705 76.3638 305.56 75.5277 305.08 75.0608Z" fill="#6398E5"/>
<path d="M309.201 80.4152C306.647 80.6633 305.155 83.9163 304.135 86.1411C303.094 88.4328 302.494 90.9007 302.366 93.4153C302.366 93.4301 302.38 93.436 302.389 93.4153C302.466 93.2853 302.711 92.8894 303.094 92.331C304.155 90.7683 305.395 89.3355 306.789 88.0616C309.443 85.698 312.392 84.8116 312.097 82.4479C312.055 81.9727 311.917 81.5111 311.69 81.0918C310.956 80.6003 310.082 80.3626 309.201 80.4152Z" fill="#6398E5"/>
<path d="M309.787 81.007C307.537 81.4118 306.287 83.5745 305.311 85.2557C304.064 87.4293 303.307 89.8493 303.09 92.3467C304.15 90.7788 305.39 89.341 306.785 88.0625C309.439 85.6989 312.388 84.8125 312.093 82.4488C312.051 81.9736 311.913 81.512 311.686 81.0927C311.066 80.9289 310.419 80.8997 309.787 81.007Z" fill="#73A9FF"/>
<path d="M310.917 86.8791C308.207 87.1066 306.355 89.5382 304.724 91.6596C303.705 93.0333 302.817 94.4992 302.07 96.0383C301.219 97.6654 300.466 99.3428 299.817 101.061C299.811 101.075 299.81 101.092 299.815 101.107C299.819 101.121 299.829 101.134 299.842 101.143C299.856 101.151 299.871 101.154 299.887 101.152C299.902 101.149 299.916 101.141 299.926 101.129C300.516 100.538 301.106 100 301.672 99.5159C303.075 98.3112 304.591 97.2455 306.199 96.3338C310.238 94.0381 313.261 93.6481 314.16 91.0155C314.355 90.4256 314.437 89.8041 314.402 89.1837C314.375 88.6666 314.187 88.1708 313.865 87.7655C312.981 86.7048 311.315 86.8466 310.917 86.8791Z" fill="#C6C620"/>
<path d="M311.506 88.357C308.796 88.5845 306.945 91.0162 305.314 93.1376C304.295 94.5112 303.407 95.9771 302.66 97.5162C302.291 98.2194 301.964 98.8931 301.672 99.5283C303.074 98.3195 304.59 97.2499 306.199 96.3344C310.238 94.0387 313.261 93.6487 314.16 91.0161C314.355 90.4263 314.437 89.8047 314.402 89.1843C313.509 88.1886 311.896 88.3245 311.506 88.357Z" fill="#E3ED62"/>
<path d="M280.543 98.6981C277.194 98.7365 276.919 104.758 272.287 108.744C270.412 110.328 268.189 111.442 265.799 111.994C264.689 112.268 263.559 112.456 262.42 112.558C262.401 112.561 262.383 112.571 262.369 112.585C262.356 112.6 262.348 112.618 262.346 112.638C262.344 112.658 262.349 112.677 262.36 112.694C262.371 112.711 262.387 112.723 262.405 112.729C264.373 113.28 266.412 113.53 268.453 113.471C270.075 113.427 274.888 113.226 279.069 109.926C280.42 108.9 281.527 107.589 282.313 106.085C282.673 105.37 284.454 101.839 282.903 99.8799C282.691 99.6192 282.44 99.393 282.159 99.2092C281.684 98.8809 281.121 98.7029 280.543 98.6981Z" fill="#C6C620"/>
<path d="M281.723 100.175C278.373 100.213 278.099 106.235 273.466 110.221C271.592 111.804 269.368 112.918 266.979 113.471C267.524 113.494 268.014 113.494 268.453 113.471C270.075 113.426 274.887 113.225 279.069 109.925C280.419 108.9 281.527 107.588 282.312 106.084C282.628 105.458 284.029 102.683 283.339 100.686C282.863 100.358 282.3 100.18 281.723 100.175Z" fill="#E3ED62"/>
<path d="M288.136 92.6864C287.883 92.6754 287.63 92.7229 287.399 92.8252C287.208 92.904 287.038 93.0264 286.903 93.1827C285.797 94.4621 287.974 96.5776 287.926 99.6622C287.909 100.962 287.522 102.664 286.066 104.658C286.061 104.662 286.058 104.667 286.055 104.672C286.053 104.678 286.052 104.684 286.052 104.689C286.052 104.695 286.053 104.701 286.055 104.706C286.058 104.712 286.061 104.717 286.066 104.72C286.072 104.726 286.081 104.729 286.089 104.729C286.098 104.729 286.106 104.726 286.113 104.72C286.978 104.163 287.754 103.479 288.416 102.691C288.941 102.061 290.48 100.176 290.628 97.4905C290.693 96.6378 290.569 95.7812 290.265 94.9821C290.126 94.6069 289.386 92.7543 288.136 92.6864Z" fill="#73A9FF"/>
<path d="M287.401 92.8246C287.21 92.9033 287.04 93.0258 286.905 93.1821C285.799 94.4614 287.976 96.5769 287.928 99.6615C287.911 100.961 287.524 102.663 286.068 104.658C286.063 104.662 286.06 104.666 286.057 104.672C286.055 104.677 286.054 104.683 286.054 104.689C286.054 104.695 286.055 104.7 286.057 104.706C286.06 104.711 286.063 104.716 286.068 104.72C286.821 104.08 287.479 103.335 288.02 102.507C288.465 101.818 289.763 99.7649 289.594 97.0792C289.557 96.2252 289.333 95.3899 288.937 94.6328C288.798 94.3639 288.209 93.2943 287.401 92.8246Z" fill="#6398E5"/>
<path d="M291.454 113.471C287.537 113.994 283.836 115.577 280.75 118.051C280.75 118.051 282.36 117.862 284.557 117.673C288.175 117.377 293.38 117.058 295.58 117.613C299.118 118.5 298.823 119.091 298.823 119.091C298.823 119.091 297.953 119.513 296.777 120.021C299.039 120.722 298.823 121.159 298.823 121.159C298.823 121.159 295.532 122.766 292.926 123.523C291.891 123.818 287.871 124.938 283.31 123.836C281.996 123.489 280.704 123.065 279.441 122.565C282.575 126.152 284.672 127.062 284.672 127.062C287.335 128.221 290.277 128.582 293.141 128.102C295.795 127.647 297.741 126.92 299.811 125.165C302.406 122.973 304.842 120.521 305.98 119.129C306.443 118.568 306.691 118.178 306.652 118.051C306.414 117.262 305.729 116.736 304.317 116.056C301.669 114.78 297.39 112.718 291.454 113.471Z" fill="#6398E5"/>
<path d="M291.451 115.539C289.046 115.848 286.713 116.57 284.553 117.673C288.172 117.377 293.376 117.058 295.576 117.613C299.115 118.5 298.82 119.091 298.82 119.091C298.82 119.091 297.95 119.513 296.773 120.021C299.035 120.722 298.82 121.159 298.82 121.159C298.82 121.159 295.529 122.766 292.922 123.523C291.887 123.818 287.868 124.938 283.306 123.836C281.992 123.489 280.701 123.065 279.437 122.565C282.572 126.152 284.668 127.062 284.668 127.062C287.332 128.221 290.273 128.582 293.137 128.102C295.791 127.647 297.738 126.92 299.808 125.165C302.403 122.973 304.838 120.521 305.977 119.129C305.468 118.723 304.909 118.385 304.313 118.125C301.665 116.848 297.387 114.786 291.451 115.539Z" fill="#73A9FF"/>
<path d="M307.503 100.077C305.705 100.252 302.8 100.532 299.922 102.819C298.03 104.343 296.588 106.354 295.752 108.637C295.802 108.598 296.298 108.214 297.026 107.674C298.795 106.365 301.915 104.128 303.404 103.682C305.545 103.026 305.578 103.422 305.578 103.422C305.578 103.422 305.439 103.635 305.218 103.957C304.613 104.864 303.948 105.728 303.228 106.545C301.876 108.024 300.171 109.136 298.274 109.774C296.593 110.309 294.652 110.439 294.664 110.705C294.664 110.741 294.708 110.776 294.794 110.811C295.065 110.921 295.325 111.021 295.575 111.107C298.975 112.351 300.671 112.117 300.671 112.117C302.44 111.878 304.101 111.13 305.454 109.963C306.707 108.876 307.494 107.875 308.028 106.294C308.81 103.977 309.361 101.543 309.402 100.68C309.402 100.506 309.402 100.385 309.364 100.367C308.987 100.045 308.462 99.9859 307.503 100.077Z" fill="#6398E5"/>
<path d="M308.094 100.669C306.295 100.844 303.391 101.124 300.513 103.411C299.064 104.57 297.876 106.023 297.027 107.675C298.796 106.366 301.916 104.129 303.405 103.683C305.546 103.027 305.579 103.423 305.579 103.423C305.579 103.423 305.44 103.636 305.219 103.958C306.151 103.789 306.169 104.014 306.169 104.014C305.456 105.109 304.668 106.153 303.809 107.137C302.458 108.616 300.753 109.727 298.855 110.366C297.596 110.765 296.187 110.939 295.568 111.117C298.968 112.361 300.663 112.127 300.663 112.127C302.432 111.888 304.093 111.139 305.446 109.973C306.699 108.886 307.487 107.884 308.02 106.304C308.802 103.987 309.353 101.553 309.395 100.69C308.965 100.612 308.526 100.605 308.094 100.669Z" fill="#73A9FF"/>
</svg>
