<svg width="286" height="105" viewBox="0 0 286 105" fill="none" xmlns="http://www.w3.org/2000/svg">
<path d="M33.0691 3.74313C31.958 6.19602 31.0131 8.72024 30.2406 11.2988V11.2988C29.9768 12.1844 29.7288 13.1167 29.4779 14.0787C28.8755 16.548 28.4163 19.0498 28.1026 21.5716C27.3071 28.8171 30.4667 47.4089 46.1263 58.4557C59.9868 68.2317 75.1903 66.1491 79.0198 65.4704L79.3594 65.4081C76.9135 66.2349 59.6224 71.7599 43.0082 61.5893C32.821 55.3529 23.0599 43.3076 23.288 30.4839C23.4663 19.8223 30.7068 8.45488 33.0691 3.74313Z" fill="#73A9FF"/>
<path d="M24.6861 30.0325C24.8128 23.4811 27.5665 16.69 30.2312 11.3217C29.9675 12.2073 29.7196 13.1396 29.4687 14.1015C28.8662 16.5708 28.407 19.0726 28.0933 21.5945C27.2979 28.84 30.4574 47.4317 46.117 58.4786C59.9776 68.2546 75.181 66.172 79.0105 65.4934C73.6889 66.9821 58.798 69.9382 44.4063 61.1379C34.2192 54.9014 24.4581 42.8562 24.6861 30.0325Z" fill="#6398E5"/>
<path d="M72.795 69.2756C71.654 70.7107 70.4073 72.0593 69.0654 73.3103C63.5 78.4912 56.4466 81.8085 48.8933 82.7976C38.2879 84.0857 36.2245 79.1522 25.5446 80.2519C18.9382 80.9291 14.8189 83.3248 12.7674 83.7272C12.1508 83.8438 11.7199 83.7834 11.4661 83.4367C10.1013 81.5978 15.7753 74.2756 22.5242 69.8169C24.9617 68.204 30.1042 64.8881 37.2692 64.4314C44.9855 63.9503 47.7007 67.2322 57.7604 68.8773C62.7316 69.6781 67.7881 69.812 72.795 69.2756Z" fill="#6398E5"/>
<path d="M69.0637 73.3097C63.4982 78.4905 56.4448 81.8079 48.8915 82.797C38.2861 84.0851 36.2227 79.1516 25.5428 80.2513C18.9364 80.9285 14.8171 83.3242 12.7656 83.7266C14.5655 80.691 18.5465 76.5115 23.0062 73.5559C25.4438 71.943 30.5863 68.6271 37.7513 68.1704C45.4676 67.6893 48.1828 70.9712 58.2424 72.6163C61.8186 73.1944 65.4426 73.4266 69.0637 73.3097Z" fill="#73A9FF"/>
<path d="M22.4483 2.13261C25.0367 3.73364 24.9167 7.95795 24.8343 10.847C24.739 13.8176 24.0817 16.7437 22.8971 19.4717C22.8894 19.4874 22.8706 19.4859 22.872 19.4594C22.8587 19.2816 22.8061 18.7344 22.6912 17.9425C22.3822 15.7328 21.8146 13.5666 21 11.4882C19.4159 7.59607 16.742 5.11261 18.2975 2.76596C18.5911 2.28476 18.9811 1.86888 19.4431 1.54418V1.54418C20.4824 1.40864 21.5378 1.61528 22.4483 2.13261V2.13261Z" fill="#6398E5"/>
<path d="M21.5114 2.44828C23.6943 4.05583 23.8894 6.99973 24.0456 9.29028C24.2306 12.2436 23.7663 15.2015 22.685 17.9577C22.3796 15.7429 21.8146 13.5714 21.0014 11.4877C19.4174 7.59555 16.7434 5.11209 18.2989 2.76543C18.5926 2.28423 18.9826 1.86836 19.4445 1.54366V1.54366C20.1903 1.69519 20.895 2.0036 21.5114 2.44828V2.44828Z" fill="#73A9FF"/>
<path d="M17.2246 8.07387C19.9903 9.73493 20.6847 13.2786 21.3066 16.3781C21.6696 18.3656 21.8455 20.3825 21.8322 22.4026C21.8841 24.5707 21.8041 26.7399 21.5925 28.8984C21.5917 28.9169 21.5842 28.9344 21.5714 28.9478C21.5586 28.9612 21.5414 28.9696 21.523 28.9714C21.5045 28.9732 21.486 28.9683 21.4708 28.9576C21.4557 28.9469 21.445 28.9311 21.4406 28.9131C21.1231 27.9787 20.7776 27.1006 20.4294 26.2911C19.5687 24.2812 18.5145 22.359 17.2816 20.5515C14.1863 16.0049 11.1731 14.008 11.5983 10.7509C11.7005 10.0245 11.9396 9.32379 12.3031 8.68577C12.6039 8.1529 13.064 7.72664 13.6194 7.46632C15.1185 6.80755 16.8178 7.83084 17.2246 8.07387Z" fill="#C6C620"/>
<path d="M15.8189 9.32748C18.5846 10.9885 19.279 14.5323 19.9009 17.6318C20.2639 19.6192 20.4398 21.6361 20.4265 23.6562C20.4495 24.5935 20.4442 25.4779 20.4213 26.3031C19.5634 24.2891 18.5113 22.3627 17.2798 20.551C14.1845 16.0043 11.1713 14.0075 11.5965 10.7504C11.6987 10.0239 11.9378 9.32325 12.3013 8.68523C13.7756 8.09989 15.4215 9.08908 15.8189 9.32748Z" fill="#E3ED62"/>
<path d="M43.3551 36.4985C46.9015 38.2949 44.0306 44.8104 46.8692 51.4561C48.0328 54.1145 49.8153 56.4589 52.0691 58.2954C53.1075 59.1673 54.2112 59.9591 55.3706 60.6637C55.3897 60.6772 55.4037 60.6967 55.4104 60.7191C55.4171 60.7414 55.4161 60.7654 55.4076 60.7871C55.399 60.8088 55.3834 60.8271 55.3633 60.839C55.3431 60.8509 55.3195 60.8557 55.2963 60.8527C52.9125 60.4043 50.6103 59.6002 48.4675 58.4677C46.764 57.5707 41.7458 54.8359 39.0275 49.152C38.1283 47.3593 37.6379 45.3909 37.5915 43.3875C37.5841 42.4423 37.5424 37.7727 40.2227 36.5127C40.5849 36.3478 40.9707 36.2397 41.3662 36.1925C42.045 36.0943 42.7377 36.2009 43.3551 36.4985V36.4985Z" fill="#C6C620"/>
<path d="M41.3247 37.4437C44.871 39.2401 42.0001 45.7556 44.8388 52.4013C46.0024 55.0597 47.7848 57.4041 50.0386 59.2406C49.4454 58.9797 48.9242 58.7231 48.4689 58.4678C46.7654 57.5709 41.7472 54.836 39.0288 49.1522C38.1296 47.3595 37.6393 45.391 37.5929 43.3877C37.5859 42.5595 37.5519 38.8896 39.3357 37.1377C40.0145 37.0395 40.7073 37.1461 41.3247 37.4437Z" fill="#E3ED62"/>
<path d="M38.4261 26.155C38.7013 26.2761 38.945 26.4585 39.138 26.6883C39.2997 26.8717 39.4161 27.0901 39.4777 27.3263C39.983 29.2596 36.5549 30.3576 34.9848 33.6464C34.3208 35.0314 33.8382 37.0347 34.3415 39.9086C34.3442 39.915 34.3454 39.9219 34.3452 39.9288C34.3449 39.9357 34.3432 39.9425 34.3401 39.9487C34.337 39.955 34.3327 39.9604 34.3273 39.9648C34.3219 39.9692 34.3157 39.9724 34.309 39.9742C34.299 39.9763 34.2887 39.9749 34.2796 39.9705C34.2705 39.966 34.2631 39.9586 34.2587 39.9495C33.6305 38.9067 33.1634 37.7757 32.8729 36.5946C32.6446 35.6535 31.9959 32.8521 33.2497 29.9328C33.6279 28.9961 34.2098 28.1545 34.9535 27.4685C35.2981 27.144 37.0592 25.5716 38.4261 26.155Z" fill="#73A9FF"/>
<path d="M39.135 26.6875C39.2967 26.8709 39.4131 27.0893 39.4747 27.3255C39.9801 29.2588 36.5519 30.3568 34.9818 33.6456C34.3178 35.0306 33.8352 37.0339 34.3385 39.9078C34.3412 39.9142 34.3424 39.9211 34.3422 39.928C34.3419 39.9349 34.3402 39.9417 34.3371 39.9479C34.334 39.9542 34.3297 39.9596 34.3243 39.964C34.3189 39.9684 34.3127 39.9716 34.306 39.9734C33.8396 38.9016 33.5311 37.7683 33.39 36.6086C33.2775 35.6467 32.9747 32.7938 34.5644 30.0399C35.0525 29.1557 35.7303 28.3895 36.5495 27.7958C36.8383 27.5839 38.028 26.7612 39.135 26.6875Z" fill="#6398E5"/>
<path d="M23.979 46.4123C27.8753 49.0184 30.9839 52.6336 32.9701 56.8686C32.9701 56.8686 31.3552 55.8246 29.1156 54.4731C25.4185 52.2641 20.0448 49.1987 17.411 48.6335C13.1779 47.7168 13.1815 48.4967 13.1815 48.4967C13.1815 48.4967 13.8857 49.3997 14.8715 50.5541C12.0956 50.1097 12.0951 50.6852 12.0951 50.6852C12.0951 50.6852 14.7546 54.1108 17.1327 56.2775C18.0794 57.1326 21.7705 60.424 27.2062 61.6487C28.7867 61.9707 30.385 62.1989 31.9926 62.3321C26.7712 64.4848 24.061 64.3489 24.061 64.3489C20.6166 64.1789 17.2952 63.0195 14.4979 61.0107C11.9113 59.1383 10.221 57.3491 8.93892 54.407C7.32766 50.7271 6.0225 46.8555 5.5416 44.7864C5.34356 43.9497 5.2847 43.4072 5.39225 43.2928C6.06093 42.5832 7.06556 42.3853 8.92635 42.4065C12.4161 42.4437 18.0549 42.5039 23.979 46.4123Z" fill="#6398E5"/>
<path d="M22.8915 48.6009C25.2891 50.1879 27.3942 52.1744 29.1144 54.4732C25.4174 52.2642 20.0436 49.1987 17.4098 48.6336C13.1767 47.7169 13.1803 48.4968 13.1803 48.4968C13.1803 48.4968 13.8845 49.3998 14.8703 50.5542C12.0944 50.1098 12.0939 50.6853 12.0939 50.6853C12.0939 50.6853 14.7534 54.1109 17.1315 56.2775C18.0782 57.1327 21.7693 60.4241 27.205 61.6488C28.7855 61.9708 30.3838 62.199 31.9915 62.3322C26.77 64.4849 24.0598 64.349 24.0598 64.349C20.6154 64.179 17.294 63.0196 14.4967 61.0108C11.9101 59.1384 10.2198 57.3492 8.93773 54.4071C7.32647 50.7272 6.02131 46.8556 5.54041 44.7865C6.29485 44.623 7.06756 44.5586 7.83879 44.5951C11.3286 44.6323 16.9673 44.6926 22.8915 48.6009Z" fill="#73A9FF"/>
<path d="M13.9255 23.8272C15.7491 24.9544 18.6941 26.7738 20.5571 30.7021C21.7712 33.3056 22.2495 36.1895 21.9406 39.0435C21.9074 38.9766 21.5817 38.3105 21.0903 37.3566C19.8941 35.0443 17.7473 31.0424 16.3961 29.7898C14.4613 27.9737 14.2189 28.3756 14.2189 28.3756C14.2189 28.3756 14.2547 28.6734 14.321 29.1301C14.4883 30.4064 14.7422 31.6699 15.0806 32.9121C15.7428 35.1861 16.974 37.2553 18.6588 38.9258C20.1675 40.3727 22.165 41.5272 22.0128 41.8024C21.9941 41.8399 21.9284 41.8542 21.8188 41.8469C21.4725 41.8204 21.1434 41.7907 20.8316 41.75C16.5583 41.2843 14.8756 40.1487 14.8756 40.1487C13.1184 38.9682 11.7426 37.3058 10.9147 35.3626C10.1515 33.5552 9.83935 32.0827 10.1014 30.1303C10.4861 27.2695 11.1779 24.4043 11.5871 23.4697C11.6786 23.2852 11.7423 23.1571 11.7924 23.1584C12.3634 23.0154 12.9533 23.228 13.9255 23.8272Z" fill="#6398E5"/>
<path d="M12.9864 24.1441C14.8099 25.2713 17.755 27.0906 19.6179 31.0189C20.5521 33.0046 21.0536 35.1648 21.0894 37.3573C19.8932 35.045 17.7464 31.043 16.3953 29.7905C14.4605 27.9743 14.218 28.3763 14.218 28.3763C14.218 28.3763 14.2538 28.674 14.3201 29.1307C13.4165 28.4642 13.2797 28.6925 13.2797 28.6925C13.463 30.2246 13.7541 31.7421 14.1509 33.2336C14.8131 35.5076 16.0443 37.5768 17.7291 39.2473C18.8601 40.3293 20.2693 41.2526 20.8355 41.7647C16.5622 41.299 14.8796 40.1633 14.8796 40.1633C13.1223 38.9829 11.7465 37.3205 10.9186 35.3773C10.1554 33.5699 9.84324 32.0974 10.1053 30.1449C10.49 27.2842 11.1817 24.4189 11.591 23.4844C12.089 23.6272 12.5603 23.8501 12.9864 24.1441Z" fill="#73A9FF"/>
<path d="M62.6936 51.8049C64.9669 53.599 68.2702 53.2182 70.0718 50.9544C71.8733 48.6906 71.491 45.401 69.2177 43.6069C66.9444 41.8128 63.6411 42.1936 61.8395 44.4574C60.038 46.7212 60.4203 50.0108 62.6936 51.8049Z" fill="#73A9FF"/>
<path d="M70.0128 42.607C71.1771 43.5259 72.8691 43.3309 73.7918 42.1714C74.7146 41.0118 74.5187 39.3269 73.3544 38.408C72.19 37.4891 70.4981 37.6841 69.5753 38.8436C68.6525 40.0032 68.8484 41.6881 70.0128 42.607Z" fill="#73A9FF"/>
<path d="M62.9463 51.8101C64.1107 52.729 65.8026 52.534 66.7254 51.3745C67.6482 50.215 67.4523 48.53 66.2879 47.6111C65.1236 46.6922 63.4316 46.8872 62.5089 48.0468C61.5861 49.2063 61.782 50.8912 62.9463 51.8101Z" fill="#6398E5"/>
<path d="M74.3653 36.9291C75.1415 37.5417 76.2695 37.4117 76.8846 36.6387C77.4998 35.8656 77.3692 34.7424 76.593 34.1297C75.8168 33.5171 74.6888 33.6472 74.0736 34.4202C73.4585 35.1932 73.589 36.3165 74.3653 36.9291Z" fill="#73A9FF"/>
<path d="M74.5222 36.8554C75.0212 37.2493 75.7463 37.1657 76.1418 36.6687C76.5373 36.1718 76.4533 35.4497 75.9543 35.0559C75.4553 34.662 74.7302 34.7456 74.3347 35.2426C73.9393 35.7395 74.0232 36.4616 74.5222 36.8554Z" fill="#6398E5"/>
<path d="M70.1661 42.5336C70.9423 43.1462 72.0703 43.0162 72.6854 42.2431C73.3006 41.4701 73.17 40.3469 72.3938 39.7342C71.6175 39.1216 70.4896 39.2517 69.8744 40.0247C69.2592 40.7977 69.3898 41.921 70.1661 42.5336Z" fill="#6398E5"/>
<path d="M50.1591 34.4071C50.7334 34.0048 51.4182 33.7882 52.1204 33.7869V33.7869C52.2265 33.7985 52.3319 33.8154 52.4363 33.8377C52.9481 33.9355 53.4235 34.1701 53.8118 34.5163C54.225 34.9054 54.5177 35.4042 54.6555 35.9537C55.1974 37.8235 54.6241 39.653 54.4453 42.178C54.3094 44.1151 54.2187 45.4531 54.8278 47.0374C55.3863 48.5003 56.2794 49.4852 56.9873 50.2717C57.5879 50.9348 58.2494 51.5407 58.963 52.0816C59.3645 52.3985 59.747 52.645 60.0853 52.8566C60.0981 52.8653 60.1076 52.878 60.1123 52.8928C60.117 52.9075 60.1166 52.9234 60.1111 52.9379C60.1056 52.9524 60.0954 52.9646 60.0821 52.9726C60.0688 52.9805 60.0532 52.9839 60.0378 52.9819C57.9166 52.6801 55.9068 51.8477 54.1962 50.5625C52.8462 49.51 51.7143 48.2065 50.8632 46.7244C48.4987 42.6837 47.4833 36.3482 50.1591 34.4071Z" fill="#73A9FF"/>
<path d="M51.7684 34.1983C51.9724 34.0489 52.1957 33.9273 52.4321 33.8367C52.9439 33.9346 53.4193 34.1691 53.8076 34.5153C54.2208 34.9045 54.5135 35.4032 54.6513 35.9527C55.1932 37.8225 54.6199 39.652 54.4411 42.177C54.3052 44.1141 54.2145 45.4521 54.8236 47.0364C55.3821 48.4993 56.2752 49.4842 56.9831 50.2707C57.5837 50.9338 58.2452 51.5397 58.9588 52.0806C57.8341 51.6585 56.7768 51.0763 55.8199 50.3521C54.4682 49.3018 53.3354 47.9987 52.4853 46.5159C50.1244 42.4749 49.0986 36.1442 51.7684 34.1983Z" fill="#6398E5"/>
<path d="M59.122 33.7676C59.2239 33.6396 59.2972 33.5803 59.3613 33.5203C60.0018 32.8798 61.6263 31.4957 63.8615 31.4433C64.5092 31.4304 66.0923 31.4004 67.0046 32.5338C67.3838 33.029 67.5911 33.6336 67.5951 34.2564C67.6065 34.7808 67.5318 35.3035 67.3737 35.8038C67.0677 36.7798 66.4727 37.3715 65.3028 38.5088C64.6767 39.0895 64.0217 39.6384 63.3402 40.1534C61.9595 41.2969 60.1379 42.8054 59.3224 45.2022C58.9218 46.4318 58.8017 47.7349 58.9706 49.0166C59.1069 50.4061 59.5229 51.754 60.1936 52.98C60.1945 52.9849 60.1944 52.9901 60.1931 52.995C60.1919 52.9999 60.1896 53.0045 60.1864 53.0085C60.1833 53.0124 60.1793 53.0157 60.1748 53.018C60.1703 53.0203 60.1653 53.0217 60.1602 53.022C60.156 53.0208 60.152 53.0187 60.1486 53.016C60.1451 53.0133 60.1423 53.0099 60.1401 53.0061C56.6411 50.4692 55.6018 46.5174 55.6018 46.5174C54.5397 42.4791 55.5897 38.7731 56.5189 37.1496C57.2593 35.9305 58.1322 34.7963 59.122 33.7676V33.7676Z" fill="#E3ED62"/>
<path d="M61.4792 35.8731C62.9711 34.8408 64.734 34.2663 66.5502 34.2207C66.8994 34.2141 67.2487 34.2278 67.5963 34.2617C67.6078 34.7861 67.533 35.3088 67.3749 35.8091C67.0689 36.7851 66.4739 37.3768 65.304 38.5141C64.6779 39.0948 64.0229 39.6437 63.3414 40.1587C61.9607 41.3022 60.1391 42.8107 59.3236 45.2075C58.923 46.4371 58.8029 47.7402 58.9718 49.0219C59.1081 50.4114 59.5241 51.7593 60.1948 52.9853C60.1957 52.9903 60.1955 52.9954 60.1943 53.0003C60.1931 53.0052 60.1908 53.0098 60.1876 53.0138C60.1845 53.0177 60.1805 53.021 60.176 53.0233C60.1715 53.0256 60.1665 53.027 60.1614 53.0273C59.991 52.7854 59.8226 52.5288 59.6613 52.255C59.1542 51.3926 58.7539 50.4722 58.4692 49.5139C58.1889 48.5135 58.0204 47.4853 57.9669 46.4481C57.8321 45.2441 57.8131 44.0301 57.9102 42.8225C58.0219 41.8071 58.4281 38.0845 61.4792 35.8731Z" fill="#C6C620"/>
<path d="M60.077 28.3436C60.9529 27.5923 61.9633 27.0125 63.0552 26.6346C64.0275 26.3082 66.1161 25.6061 67.4172 26.633C67.6532 26.8099 67.851 27.0324 67.9987 27.2871C68.1465 27.5419 68.2411 27.8236 68.2771 28.1156C68.2877 28.2997 68.2679 28.4842 68.2184 28.6618C68.1413 28.9354 68.0134 29.1923 67.8413 29.419C66.7101 30.9514 63.8103 29.8673 61.2524 30.8305C60.2199 31.2201 58.8391 32.0967 57.5815 34.3301C57.4754 34.5155 57.3706 34.7128 57.2673 34.9221C57.2596 34.9367 57.2475 34.9485 57.2328 34.956C57.218 34.9634 57.2012 34.9661 57.1848 34.9636C57.1685 34.961 57.1533 34.9535 57.1414 34.942C57.1296 34.9304 57.1217 34.9155 57.1188 34.8993C56.9684 33.4758 57.2444 32.0399 57.912 30.7725C58.4621 29.826 59.1985 28.9998 60.077 28.3436Z" fill="#73A9FF"/>
<path d="M60.4485 29.9358C61.3244 29.1845 62.3348 28.6047 63.4267 28.2268C64.399 27.9004 66.4876 27.1984 67.7887 28.2252C67.9496 28.3538 68.0951 28.5003 68.2224 28.6619C68.1454 28.9356 68.0175 29.1924 67.8454 29.4191C66.7142 30.9515 63.8143 29.8674 61.2565 30.8306C60.224 31.2203 58.8432 32.0968 57.5856 34.3303C57.7141 33.6429 57.9495 32.9797 58.2835 32.3647C58.8336 31.4182 59.57 30.5921 60.4485 29.9358V29.9358Z" fill="#6398E5"/>
<path d="M59.5678 22.7359C60.3844 22.1206 62.1665 20.8219 63.72 21.4001C63.9992 21.4965 64.2561 21.648 64.4752 21.8455C64.6943 22.0431 64.8712 22.2826 64.9952 22.5498L65.0171 22.6126C65.1502 23.0413 65.1377 23.5016 64.9816 23.9225C64.3777 25.7246 61.2825 25.5802 59.1458 27.2794C58.3046 27.9503 57.2911 29.1622 56.7688 31.5561C56.702 31.8289 56.6609 32.1024 56.6046 32.4031C56.6018 32.4194 56.5938 32.4344 56.5819 32.446C56.5701 32.4575 56.5548 32.4651 56.5384 32.4676C56.522 32.47 56.5052 32.4674 56.4904 32.4599C56.4756 32.4524 56.4636 32.4404 56.4559 32.4257C55.8741 31.1175 55.6953 29.6666 55.9422 28.2571C56.1712 27.1876 56.6171 26.1758 57.2524 25.2839C57.8564 24.2971 58.6419 23.4326 59.5678 22.7359V22.7359Z" fill="#E3ED62"/>
<path d="M60.4126 23.728C61.2292 23.1126 63.0113 21.8139 64.5648 22.3921C64.7221 22.4514 64.8735 22.5251 65.0171 22.6124C65.1502 23.041 65.1377 23.5014 64.9816 23.9222C64.3777 25.7244 61.2826 25.58 59.1458 27.2792C58.3046 27.95 57.2911 29.1619 56.7688 31.5558C56.6433 30.7879 56.6522 30.0041 56.7949 29.2391C57.024 28.1696 57.4699 27.1578 58.1052 26.2659C58.7078 25.2834 59.4905 24.4224 60.4126 23.728V23.728Z" fill="#C6C620"/>
<path d="M54.9873 19.9333C55.2709 19.8518 55.5681 19.8281 55.8612 19.8636C56.1542 19.899 56.437 19.993 56.6927 20.1399C56.9773 20.332 57.2027 20.599 57.3441 20.9111C57.3975 21.0266 57.4425 21.1458 57.4786 21.2679C58.0295 23.0894 55.4176 24.749 54.6566 27.3647C54.4065 28.2253 54.2855 29.4742 54.8054 31.1704C55.0015 31.7985 55.2506 32.4089 55.55 32.9951C55.5591 33.01 55.5627 33.0275 55.5604 33.0447C55.5581 33.062 55.55 33.0779 55.5374 33.0899C55.5248 33.102 55.5084 33.1094 55.491 33.1109C55.4736 33.1124 55.4562 33.108 55.4417 33.0984C54.2091 32.3641 53.2224 31.2829 52.6058 29.9911C52.175 28.9848 51.9536 27.902 51.9549 26.8081C51.8769 25.6599 52.0177 24.5074 52.3698 23.4114C52.6926 22.4389 53.382 20.3526 54.9873 19.9333Z" fill="#73A9FF"/>
<path d="M57.1141 20.9593C57.1725 20.9435 57.2508 20.9272 57.3456 20.9108C57.399 21.0264 57.444 21.1456 57.48 21.2676C58.031 23.0892 55.4191 24.7488 54.6581 27.3645C54.408 28.2251 54.287 29.474 54.8069 31.1702L54.7326 31.0171C54.3018 30.0108 54.0804 28.928 54.0817 27.8341C54.0037 26.6859 54.1445 25.5335 54.4966 24.4374C54.8194 23.4649 55.5088 21.3786 57.1141 20.9593Z" fill="#6398E5"/>
<path d="M82.7793 60.4756C83.0414 59.8269 83.0966 59.1135 82.9375 58.4324V58.4324C82.902 58.3322 82.8613 58.2338 82.8157 58.1377C82.6031 57.6639 82.2652 57.2565 81.838 56.9592C81.3632 56.6475 80.8087 56.4776 80.2401 56.4696C78.2883 56.3714 76.6307 57.3452 74.2031 58.0954C72.3384 58.6681 71.0531 59.0633 69.3651 58.8347C67.8073 58.6275 66.6385 57.9849 65.7099 57.48C64.9244 57.0491 64.1809 56.5463 63.4891 55.978C63.0875 55.6611 62.7592 55.3466 62.475 55.067C62.4636 55.0565 62.449 55.0502 62.4335 55.049C62.418 55.0478 62.4026 55.0519 62.3897 55.0605C62.3768 55.0691 62.3672 55.0818 62.3624 55.0965C62.3576 55.1112 62.358 55.1271 62.3633 55.1416C63.1423 57.1296 64.4154 58.8881 66.0631 60.2524C67.4005 61.3207 68.9334 62.1204 70.5769 62.6069C75.0592 63.9698 81.4849 63.507 82.7793 60.4756Z" fill="#73A9FF"/>
<path d="M82.6007 58.8577C82.7002 58.6257 82.7681 58.3815 82.8026 58.1316C82.59 57.6578 82.2521 57.2504 81.8249 56.9531C81.3501 56.6414 80.7957 56.4715 80.227 56.4635C78.2752 56.3652 76.6176 57.3391 74.19 58.0893C72.3253 58.662 71.04 59.0572 69.3521 58.8286C67.7943 58.6213 66.6254 57.9788 65.6968 57.4738C64.9113 57.043 64.1678 56.5401 63.476 55.9719C64.1456 56.9658 64.9563 57.8578 65.8829 58.6201C67.2186 59.6906 68.7513 60.491 70.395 60.9767C74.885 62.3423 81.3063 61.8891 82.6007 58.8577Z" fill="#6398E5"/>
<path d="M81.348 51.6345C81.4398 51.4987 81.4911 51.4219 81.5352 51.346C82.015 50.5788 82.9969 48.6876 82.5376 46.5086C82.3922 45.8698 82.0698 44.336 80.7534 43.7105C80.1826 43.4559 79.5442 43.3931 78.9344 43.5315C78.4192 43.6402 77.9253 43.8321 77.4723 44.0996C76.588 44.6193 76.1456 45.3313 75.3009 46.7254C74.8763 47.465 74.4893 48.2255 74.1415 49.0038C73.3391 50.6037 72.2805 52.7144 70.1236 54.0526C69.013 54.7219 67.7666 55.136 66.475 55.2651C65.0854 55.4504 63.6727 55.355 62.3209 54.9848C62.3158 54.9851 62.3109 54.9864 62.3064 54.9887C62.3018 54.9911 62.2979 54.9943 62.2947 54.9983C62.2915 55.0023 62.2893 55.0069 62.288 55.0118C62.2868 55.0167 62.2866 55.0218 62.2875 55.0268C62.2896 55.0306 62.2925 55.034 62.296 55.0367C62.2994 55.0394 62.3034 55.0415 62.3076 55.0426C65.5871 57.8555 69.6879 57.9602 69.6879 57.9602C73.8784 58.0674 77.2615 56.2027 78.6365 54.931C79.6591 53.9346 80.5685 52.8292 81.348 51.6345V51.6345Z" fill="#E3ED62"/>
<path d="M78.7463 49.8252C79.4147 48.1429 79.5736 46.3024 79.2033 44.5312C79.13 44.1912 79.0368 43.8557 78.9242 43.5264C78.4089 43.6351 77.915 43.827 77.462 44.0945C76.5777 44.6142 76.1353 45.3262 75.2906 46.7203C74.866 47.4599 74.4791 48.2204 74.1312 48.9987C73.3288 50.5986 72.2702 52.7092 70.1133 54.0475C69.0027 54.7168 67.7563 55.1309 66.4647 55.26C65.0752 55.4452 63.6624 55.3499 62.3106 54.9797C62.3056 54.98 62.3006 54.9813 62.2961 54.9836C62.2915 54.986 62.2876 54.9892 62.2844 54.9932C62.2812 54.9972 62.279 55.0018 62.2777 55.0067C62.2765 55.0116 62.2763 55.0167 62.2772 55.0217C62.5526 55.1316 62.842 55.2363 63.1465 55.3301C64.1056 55.6242 65.0967 55.802 66.0986 55.8597C67.1406 55.902 68.1841 55.8305 69.2104 55.6463C70.4183 55.5019 71.6095 55.243 72.7679 54.8729C73.735 54.5326 77.2795 53.2868 78.7463 49.8252Z" fill="#C6C620"/>
<path d="M86.4261 49.4654C86.958 48.4415 87.2906 47.3266 87.4065 46.1796C87.5034 45.1624 87.7126 42.9771 86.4115 41.9503C86.1846 41.7619 85.9219 41.6209 85.6391 41.5359C85.3564 41.4509 85.0592 41.4235 84.7656 41.4553C84.5832 41.4871 84.4074 41.5485 84.2451 41.637C83.9951 41.7742 83.7733 41.9569 83.591 42.1755C82.3653 43.6335 84.0836 46.194 83.7324 48.8987C83.5873 49.9888 83.0459 51.5277 81.1497 53.2572C80.9914 53.4014 80.8224 53.548 80.6428 53.697C80.6303 53.7078 80.6214 53.7223 80.6175 53.7383C80.6137 53.7543 80.6149 53.7712 80.6211 53.7865C80.6273 53.8018 80.6381 53.8148 80.6521 53.8236C80.6661 53.8325 80.6825 53.8367 80.6991 53.8358C82.125 53.6565 83.4657 53.0608 84.5522 52.124C85.3502 51.3725 85.9876 50.4682 86.4261 49.4654V49.4654Z" fill="#73A9FF"/>
<path d="M84.7859 49.4723C85.3177 48.4484 85.6504 47.3336 85.7662 46.1866C85.8632 45.1693 86.0724 42.9841 84.7713 41.9572C84.6088 41.8307 84.4323 41.723 84.2453 41.6365C83.9953 41.7737 83.7735 41.9563 83.5912 42.175C82.3655 43.6329 84.0838 46.1935 83.7326 48.8982C83.5875 49.9882 83.0461 51.5271 81.1499 53.2567C81.7925 52.9751 82.3871 52.5953 82.912 52.131C83.71 51.3794 84.3474 50.4751 84.7859 49.4723V49.4723Z" fill="#6398E5"/>
<path d="M92.0286 48.6781C92.4336 47.7379 93.3062 45.7214 92.386 44.3473C92.2279 44.0986 92.0211 43.8842 91.7779 43.7169C91.5348 43.5496 91.2602 43.4328 90.9707 43.3736L90.9042 43.3668C90.4548 43.3357 90.0076 43.453 89.6318 43.7005C88.0079 44.6977 88.8563 47.6654 87.6833 50.1252C87.2196 51.094 86.2663 52.3535 84.0453 53.4068C83.7939 53.5338 83.5359 53.6362 83.2547 53.7594C83.2395 53.7659 83.2267 53.7771 83.2181 53.7912C83.2095 53.8054 83.2056 53.8219 83.2069 53.8384C83.2082 53.8548 83.2147 53.8705 83.2254 53.8831C83.2361 53.8958 83.2505 53.9047 83.2666 53.9088C84.6785 54.174 86.1377 54.0159 87.4593 53.4545C88.4526 52.9881 89.3398 52.3247 90.0667 51.5049C90.8934 50.694 91.559 49.7349 92.0286 48.6781V48.6781Z" fill="#E3ED62"/>
<path d="M90.8664 48.0855C91.2714 47.1453 92.144 45.1288 91.2238 43.7547C91.1299 43.6158 91.0232 43.4858 90.9051 43.3665C90.4557 43.3355 90.0085 43.4528 89.6327 43.7002C88.0088 44.6974 88.8571 47.6652 87.6841 50.125C87.2205 51.0938 86.2672 52.3532 84.0462 53.4065C84.8256 53.3527 85.5899 53.1651 86.3051 52.8519C87.2984 52.3855 88.1856 51.7221 88.9125 50.9023C89.7353 50.0937 90.3981 49.1381 90.8664 48.0855Z" fill="#C6C620"/>
<path d="M95.8149 52.48C95.8298 52.1864 95.7851 51.8928 95.6834 51.6169C95.5818 51.3409 95.4253 51.0881 95.2233 50.8738C94.9704 50.6418 94.658 50.4842 94.3206 50.4185C94.1954 50.393 94.0686 50.3767 93.941 50.3696C92.0344 50.2516 91.0087 53.163 88.6254 54.4983C87.8412 54.9374 86.6479 55.3401 84.8708 55.2235C84.2121 55.1769 83.5584 55.0748 82.9169 54.9185C82.9003 54.9131 82.8823 54.9136 82.866 54.9197C82.8497 54.9259 82.8359 54.9374 82.827 54.9524C82.8182 54.9674 82.8147 54.9849 82.8172 55.0021C82.8196 55.0194 82.8279 55.0352 82.8407 55.0471C83.8401 56.0743 85.1225 56.784 86.5263 57.0867C87.6085 57.2744 88.7176 57.2417 89.7868 56.9905C90.927 56.8038 92.0216 56.4041 93.0127 55.8123C93.8896 55.2771 95.7717 54.1322 95.8149 52.48Z" fill="#73A9FF"/>
<path d="M94.3243 50.654C94.3264 50.5938 94.3245 50.5142 94.3188 50.4186C94.1937 50.3931 94.0668 50.3768 93.9393 50.3697C92.0326 50.2517 91.0069 53.1631 88.6236 54.4984C87.8394 54.9375 86.6461 55.3402 84.8691 55.2236L85.0357 55.2607C86.1179 55.4484 87.2271 55.4157 88.2962 55.1645C89.4365 54.9778 90.531 54.5781 91.5221 53.9863C92.3991 53.4512 94.2811 52.3062 94.3243 50.654Z" fill="#6398E5"/>
<path d="M252.931 3.14743C254.042 5.60032 254.987 8.12454 255.759 10.7031V10.7031C256.023 11.5887 256.271 12.521 256.522 13.483C257.125 15.9523 257.584 18.4541 257.897 20.9759C258.693 28.2214 255.533 46.8132 239.874 57.86C226.013 67.636 210.81 65.5534 206.98 64.8747L206.641 64.8124C209.086 65.6392 226.378 71.1642 242.992 60.9936C253.179 54.7572 262.94 42.7119 262.712 29.8882C262.534 19.2266 255.293 7.85918 252.931 3.14743Z" fill="#73A9FF"/>
<path d="M261.314 29.4358C261.187 22.8844 258.433 16.0933 255.769 10.7251C256.033 11.6106 256.28 12.5429 256.531 13.5048C257.134 15.9742 257.593 18.4759 257.907 20.9978C258.702 28.2433 255.543 46.8351 239.883 57.8819C226.022 67.6579 210.819 65.5754 206.99 64.8967C212.311 66.3854 227.202 69.3415 241.594 60.5412C251.781 54.3047 261.542 42.2595 261.314 29.4358Z" fill="#6398E5"/>
<path d="M213.205 68.6789C214.346 70.114 215.593 71.4626 216.935 72.7137C222.5 77.8945 229.553 81.2118 237.107 82.2009C247.712 83.489 249.776 78.5556 260.455 79.6552C267.062 80.3325 271.181 82.7282 273.233 83.1305C273.849 83.2472 274.28 83.1867 274.534 82.8401C275.899 81.0011 270.225 73.6789 263.476 69.2202C261.038 67.6073 255.896 64.2914 248.731 63.8347C241.014 63.3536 238.299 66.6355 228.24 68.2807C223.268 69.0814 218.212 69.2153 213.205 68.6789Z" fill="#6398E5"/>
<path d="M216.936 72.713C222.502 77.8939 229.555 81.2112 237.108 82.2003C247.714 83.4884 249.777 78.5549 260.457 79.6546C267.064 80.3318 271.183 82.7275 273.234 83.1299C271.435 80.0943 267.453 75.9149 262.994 72.9592C260.556 71.3463 255.414 68.0304 248.249 67.5737C240.532 67.0926 237.817 70.3745 227.758 72.0196C224.181 72.5977 220.557 72.8299 216.936 72.713Z" fill="#73A9FF"/>
<path d="M263.552 1.53593C260.963 3.13696 261.083 7.36127 261.166 10.2503C261.261 13.2209 261.918 16.147 263.103 18.875C263.111 18.8907 263.129 18.8892 263.128 18.8627C263.141 18.6849 263.194 18.1377 263.309 17.3459C263.618 15.1361 264.185 12.9699 265 10.8916C266.584 6.99939 269.258 4.51593 267.703 2.16928C267.409 1.68808 267.019 1.2722 266.557 0.947502V0.947502C265.518 0.811961 264.462 1.0186 263.552 1.53593V1.53593Z" fill="#6398E5"/>
<path d="M264.489 1.8516C262.306 3.45916 262.111 6.40305 261.954 8.6936C261.769 11.6469 262.234 14.6048 263.315 17.361C263.62 15.1462 264.185 12.9747 264.999 10.891C266.583 6.99887 269.257 4.51541 267.701 2.16875C267.407 1.68755 267.017 1.27168 266.555 0.946976V0.946976C265.81 1.09851 265.105 1.40692 264.489 1.8516V1.8516Z" fill="#73A9FF"/>
<path d="M268.775 7.47719C266.01 9.13825 265.315 12.682 264.693 15.7815C264.33 17.769 264.154 19.7858 264.168 21.8059C264.116 23.974 264.196 26.1433 264.408 28.3017C264.408 28.3202 264.416 28.3377 264.429 28.3511C264.441 28.3646 264.459 28.3729 264.477 28.3747C264.496 28.3765 264.514 28.3716 264.529 28.3609C264.544 28.3502 264.555 28.3344 264.559 28.3164C264.877 27.382 265.222 26.5039 265.571 25.6944C266.431 23.6845 267.485 21.7623 268.718 19.9548C271.814 15.4082 274.827 13.4113 274.402 10.1542C274.3 9.42778 274.06 8.72711 273.697 8.08909C273.396 7.55622 272.936 7.12996 272.381 6.86964C270.882 6.21087 269.182 7.23416 268.775 7.47719Z" fill="#C6C620"/>
<path d="M270.181 8.73178C267.415 10.3928 266.721 13.9366 266.099 17.0361C265.736 19.0235 265.56 21.0404 265.574 23.0605C265.55 23.9978 265.556 24.8822 265.579 25.7074C266.437 23.6934 267.489 21.767 268.72 19.9553C271.816 15.4086 274.829 13.4118 274.403 10.1547C274.301 9.42822 274.062 8.72754 273.699 8.08953C272.224 7.50418 270.578 8.49338 270.181 8.73178Z" fill="#E3ED62"/>
<path d="M242.645 35.9019C239.099 37.6982 241.969 44.2138 239.131 50.8594C237.967 53.5179 236.185 55.8623 233.931 57.6987C232.893 58.5706 231.789 59.3624 230.629 60.067C230.61 60.0805 230.596 60.1 230.59 60.1224C230.583 60.1447 230.584 60.1687 230.592 60.1904C230.601 60.2121 230.617 60.2304 230.637 60.2423C230.657 60.2542 230.68 60.259 230.704 60.2561C233.087 59.8076 235.39 59.0036 237.532 57.871C239.236 56.974 244.254 54.2392 246.973 48.5553C247.872 46.7626 248.362 44.7942 248.408 42.7908C248.416 41.8457 248.458 37.176 245.777 35.9161C245.415 35.7511 245.029 35.643 244.634 35.5958C243.955 35.4976 243.262 35.6042 242.645 35.9019V35.9019Z" fill="#C6C620"/>
<path d="M244.679 36.8471C241.133 38.6434 244.004 45.159 241.165 51.8046C240.002 54.4631 238.219 56.8075 235.965 58.6439C236.559 58.383 237.08 58.1264 237.535 57.8711C239.239 56.9742 244.257 54.2393 246.975 48.5555C247.874 46.7628 248.365 44.7944 248.411 42.791C248.418 41.9628 248.452 38.2929 246.668 36.541C245.989 36.4428 245.297 36.5494 244.679 36.8471Z" fill="#E3ED62"/>
<path d="M247.574 25.5583C247.299 25.6794 247.055 25.8619 246.862 26.0917C246.7 26.275 246.584 26.4935 246.522 26.7296C246.017 28.6629 249.445 29.761 251.015 33.0498C251.679 34.4347 252.162 36.438 251.658 39.3119C251.656 39.3183 251.655 39.3252 251.655 39.3321C251.655 39.3391 251.657 39.3459 251.66 39.3521C251.663 39.3583 251.667 39.3638 251.673 39.3682C251.678 39.3726 251.684 39.3758 251.691 39.3776C251.701 39.3796 251.711 39.3783 251.72 39.3738C251.73 39.3693 251.737 39.3619 251.741 39.3528C252.369 38.31 252.837 37.1791 253.127 35.9979C253.355 35.0568 254.004 32.2554 252.75 29.3361C252.372 28.3995 251.79 27.5579 251.047 26.8718C250.702 26.5474 248.941 24.975 247.574 25.5583Z" fill="#73A9FF"/>
<path d="M246.865 26.0909C246.703 26.2742 246.587 26.4927 246.525 26.7288C246.02 28.6621 249.448 29.7602 251.018 33.049C251.682 34.4339 252.165 36.4372 251.661 39.3111C251.659 39.3175 251.658 39.3244 251.658 39.3313C251.658 39.3383 251.66 39.3451 251.663 39.3513C251.666 39.3575 251.67 39.363 251.676 39.3674C251.681 39.3718 251.687 39.375 251.694 39.3768C252.16 38.3049 252.469 37.1716 252.61 36.0119C252.722 35.05 253.025 32.1971 251.436 29.4432C250.947 28.559 250.27 27.7928 249.45 27.1991C249.162 26.9872 247.972 26.1645 246.865 26.0909Z" fill="#6398E5"/>
<path d="M262.021 45.8156C258.125 48.4217 255.016 52.0369 253.03 56.2719C253.03 56.2719 254.645 55.2279 256.884 53.8764C260.581 51.6674 265.955 48.602 268.589 48.0368C272.822 47.1202 272.819 47.9 272.819 47.9C272.819 47.9 272.114 48.803 271.129 49.9574C273.904 49.513 273.905 50.0886 273.905 50.0886C273.905 50.0886 271.245 53.5142 268.867 55.6808C267.921 56.5359 264.23 59.8274 258.794 61.0521C257.213 61.374 255.615 61.6022 254.007 61.7354C259.229 63.8881 261.939 63.7522 261.939 63.7522C265.383 63.5822 268.705 62.4228 271.502 60.414C274.089 58.5416 275.779 56.7524 277.061 53.8103C278.672 50.1304 279.978 46.2589 280.458 44.1897C280.656 43.353 280.715 42.8105 280.608 42.6961C279.939 41.9866 278.934 41.7886 277.074 41.8098C273.584 41.847 267.945 41.9072 262.021 45.8156Z" fill="#6398E5"/>
<path d="M263.109 48.0042C260.711 49.5912 258.606 51.5777 256.886 53.8765C260.583 51.6675 265.956 48.6021 268.59 48.0369C272.823 47.1202 272.82 47.9001 272.82 47.9001C272.82 47.9001 272.115 48.8031 271.13 49.9575C273.906 49.5131 273.906 50.0886 273.906 50.0886C273.906 50.0886 271.247 53.5143 268.869 55.6809C267.922 56.536 264.231 59.8274 258.795 61.0522C257.214 61.3741 255.616 61.6023 254.009 61.7355C259.23 63.8882 261.94 63.7523 261.94 63.7523C265.385 63.5823 268.706 62.4229 271.503 60.4141C274.09 58.5417 275.78 56.7525 277.062 53.8104C278.674 50.1305 279.979 46.2589 280.46 44.1898C279.705 44.0263 278.932 43.9619 278.161 43.9984C274.671 44.0357 269.033 44.0959 263.109 48.0042Z" fill="#73A9FF"/>
<path d="M272.074 23.2315C270.251 24.3587 267.306 26.178 265.443 30.1064C264.229 32.7099 263.751 35.5938 264.059 38.4478C264.093 38.3809 264.418 37.7148 264.91 36.7609C266.106 34.4486 268.253 30.4467 269.604 29.1941C271.539 27.378 271.781 27.7799 271.781 27.7799C271.781 27.7799 271.745 28.0777 271.679 28.5344C271.512 29.8107 271.258 31.0742 270.919 32.3164C270.257 34.5904 269.026 36.6596 267.341 38.3301C265.833 39.777 263.835 40.9315 263.987 41.2067C264.006 41.2442 264.072 41.2585 264.181 41.2512C264.528 41.2247 264.857 41.195 265.168 41.1543C269.442 40.6886 271.124 39.553 271.124 39.553C272.882 38.3725 274.257 36.7101 275.085 34.7669C275.849 32.9595 276.161 31.487 275.899 29.5346C275.514 26.6738 274.822 23.8086 274.413 22.874C274.321 22.6895 274.258 22.5614 274.208 22.5627C273.637 22.4197 273.047 22.6323 272.074 23.2315Z" fill="#6398E5"/>
<path d="M273.014 23.5474C271.19 24.6746 268.245 26.4939 266.382 30.4223C265.448 32.408 264.946 34.5681 264.911 36.7606C266.107 34.4483 268.254 30.4464 269.605 29.1938C271.54 27.3776 271.782 27.7796 271.782 27.7796C271.782 27.7796 271.746 28.0774 271.68 28.5341C272.584 27.8675 272.72 28.0958 272.72 28.0958C272.537 29.628 272.246 31.1454 271.849 32.6369C271.187 34.9109 269.956 36.9801 268.271 38.6506C267.14 39.7327 265.731 40.6559 265.165 41.168C269.438 40.7023 271.12 39.5666 271.12 39.5666C272.878 38.3862 274.254 36.7238 275.081 34.7806C275.845 32.9732 276.157 31.5007 275.895 29.5483C275.51 26.6875 274.818 23.8223 274.409 22.8877C273.911 23.0306 273.44 23.2534 273.014 23.5474Z" fill="#73A9FF"/>
<path d="M223.306 51.2083C221.033 53.0023 217.73 52.6215 215.928 50.3577C214.127 48.0939 214.509 44.8043 216.782 43.0102C219.056 41.2161 222.359 41.5969 224.16 43.8607C225.962 46.1246 225.58 49.4142 223.306 51.2083Z" fill="#73A9FF"/>
<path d="M215.987 42.0103C214.823 42.9292 213.131 42.7342 212.208 41.5747C211.285 40.4152 211.481 38.7302 212.646 37.8113C213.81 36.8924 215.502 37.0874 216.425 38.247C217.347 39.4065 217.152 41.0914 215.987 42.0103Z" fill="#73A9FF"/>
<path d="M223.05 51.2134C221.885 52.1324 220.193 51.9373 219.271 50.7778C218.348 49.6183 218.544 47.9334 219.708 47.0144C220.873 46.0955 222.564 46.2906 223.487 47.4501C224.41 48.6096 224.214 50.2945 223.05 51.2134Z" fill="#6398E5"/>
<path d="M211.631 36.3324C210.855 36.945 209.727 36.815 209.111 36.042C208.496 35.269 208.627 34.1457 209.403 33.5331C210.179 32.9205 211.307 33.0505 211.922 33.8235C212.538 34.5965 212.407 35.7198 211.631 36.3324Z" fill="#73A9FF"/>
<path d="M211.474 36.2587C210.975 36.6526 210.25 36.569 209.854 36.072C209.459 35.5751 209.543 34.853 210.042 34.4592C210.541 34.0654 211.266 34.1489 211.661 34.6459C212.057 35.1428 211.973 35.8649 211.474 36.2587Z" fill="#6398E5"/>
<path d="M215.834 41.9369C215.058 42.5495 213.93 42.4195 213.315 41.6465C212.699 40.8734 212.83 39.7502 213.606 39.1376C214.382 38.5249 215.51 38.655 216.126 39.428C216.741 40.201 216.61 41.3243 215.834 41.9369Z" fill="#6398E5"/>
<path d="M235.845 33.8104C235.271 33.4081 234.586 33.1916 233.884 33.1902V33.1902C233.777 33.2018 233.672 33.2187 233.568 33.241C233.056 33.3388 232.58 33.5734 232.192 33.9196C231.779 34.3088 231.486 34.8075 231.348 35.357C230.806 37.2268 231.38 39.0563 231.559 41.5813C231.695 43.5184 231.785 44.8564 231.176 46.4407C230.618 47.9036 229.724 48.8885 229.017 49.675C228.416 50.3381 227.755 50.944 227.041 51.4849C226.639 51.8018 226.257 52.0483 225.919 52.2599C225.906 52.2686 225.896 52.2814 225.892 52.2961C225.887 52.3108 225.887 52.3267 225.893 52.3412C225.898 52.3557 225.908 52.3679 225.922 52.3759C225.935 52.3839 225.951 52.3872 225.966 52.3853C228.087 52.0834 230.097 51.251 231.808 49.9659C233.158 48.9134 234.29 47.6098 235.141 46.1277C237.505 42.087 238.521 35.7515 235.845 33.8104Z" fill="#73A9FF"/>
<path d="M234.228 33.6026C234.024 33.4532 233.8 33.3316 233.564 33.241C233.052 33.3389 232.577 33.5734 232.188 33.9196C231.775 34.3088 231.483 34.8075 231.345 35.357C230.803 37.2268 231.376 39.0563 231.555 41.5813C231.691 43.5184 231.782 44.8564 231.173 46.4407C230.614 47.9036 229.721 48.8885 229.013 49.675C228.412 50.3381 227.751 50.944 227.037 51.4849C228.162 51.0628 229.219 50.4806 230.176 49.7564C231.528 48.7061 232.661 47.403 233.511 45.9202C235.872 41.8792 236.898 35.5485 234.228 33.6026Z" fill="#6398E5"/>
<path d="M226.878 33.1709C226.776 33.0429 226.703 32.9836 226.639 32.9236C225.998 32.2831 224.374 30.8991 222.139 30.8466C221.491 30.8337 219.908 30.8037 218.995 31.9371C218.616 32.4323 218.409 33.037 218.405 33.6597C218.393 34.1841 218.468 34.7068 218.626 35.2071C218.932 36.1832 219.527 36.7748 220.697 37.9121C221.323 38.4928 221.978 39.0417 222.66 39.5567C224.04 40.7002 225.862 42.2087 226.678 44.6055C227.078 45.8351 227.198 47.1382 227.029 48.4199C226.893 49.8094 226.477 51.1573 225.806 52.3833C225.805 52.3883 225.806 52.3934 225.807 52.3983C225.808 52.4032 225.81 52.4078 225.814 52.4118C225.817 52.4158 225.821 52.419 225.825 52.4213C225.83 52.4237 225.835 52.425 225.84 52.4253C225.844 52.4241 225.848 52.4221 225.851 52.4193C225.855 52.4166 225.858 52.4133 225.86 52.4094C229.359 49.8725 230.398 45.9207 230.398 45.9207C231.46 41.8825 230.41 38.1765 229.481 36.5529C228.741 35.3338 227.868 34.1996 226.878 33.1709V33.1709Z" fill="#E3ED62"/>
<path d="M224.517 35.2764C223.025 34.2441 221.262 33.6696 219.446 33.624C219.097 33.6174 218.747 33.6311 218.4 33.665C218.388 34.1894 218.463 34.7121 218.621 35.2124C218.927 36.1885 219.522 36.7801 220.692 37.9174C221.318 38.4981 221.973 39.047 222.655 39.562C224.035 40.7055 225.857 42.214 226.673 44.6108C227.073 45.8404 227.193 47.1435 227.024 48.4252C226.888 49.8147 226.472 51.1626 225.801 52.3886C225.8 52.3936 225.801 52.3987 225.802 52.4036C225.803 52.4085 225.805 52.4131 225.808 52.4171C225.812 52.4211 225.816 52.4243 225.82 52.4266C225.825 52.429 225.83 52.4303 225.835 52.4306C226.005 52.1887 226.173 51.9321 226.335 51.6583C226.842 50.7959 227.242 49.8755 227.527 48.9172C227.807 47.9168 227.976 46.8887 228.029 45.8514C228.164 44.6474 228.183 43.4334 228.086 42.2258C227.974 41.2104 227.568 37.4878 224.517 35.2764Z" fill="#C6C620"/>
<path d="M225.919 27.7459C225.043 26.9946 224.033 26.4148 222.941 26.0369C221.969 25.7105 219.88 25.0085 218.579 26.0353C218.343 26.2122 218.145 26.4347 217.997 26.6895C217.85 26.9442 217.755 27.226 217.719 27.518C217.708 27.702 217.728 27.8865 217.778 28.0641C217.855 28.3378 217.983 28.5946 218.155 28.8213C219.286 30.3538 222.186 29.2697 224.744 30.2329C225.776 30.6225 227.157 31.499 228.415 33.7325C228.521 33.9179 228.625 34.1152 228.729 34.3244C228.736 34.339 228.749 34.3509 228.763 34.3583C228.778 34.3658 228.795 34.3684 228.811 34.3659C228.828 34.3634 228.843 34.3558 228.855 34.3443C228.866 34.3328 228.874 34.3178 228.877 34.3016C229.028 32.8782 228.752 31.4423 228.084 30.1748C227.534 29.2283 226.798 28.4022 225.919 27.7459Z" fill="#73A9FF"/>
<path d="M225.551 29.3391C224.676 28.5879 223.665 28.008 222.573 27.6301C221.601 27.3037 219.512 26.6017 218.211 27.6285C218.05 27.7571 217.905 27.9036 217.778 28.0652C217.855 28.3389 217.982 28.5957 218.155 28.8224C219.286 30.3549 222.186 29.2708 224.744 30.234C225.776 30.6236 227.157 31.5001 228.414 33.7336C228.286 33.0462 228.05 32.3831 227.717 31.768C227.166 30.8215 226.43 29.9954 225.551 29.3391V29.3391Z" fill="#6398E5"/>
<path d="M226.432 22.1393C225.616 21.5239 223.834 20.2252 222.28 20.8034C222.001 20.8998 221.744 21.0513 221.525 21.2489C221.306 21.4464 221.129 21.6859 221.005 21.9531L220.983 22.0159C220.85 22.4446 220.862 22.9049 221.018 23.3258C221.622 25.128 224.717 24.9835 226.854 26.6827C227.695 27.3536 228.709 28.5655 229.231 30.9594C229.298 31.2322 229.339 31.5058 229.395 31.8065C229.398 31.8227 229.406 31.8377 229.418 31.8493C229.43 31.8608 229.445 31.8684 229.462 31.8709C229.478 31.8734 229.495 31.8707 229.51 31.8632C229.524 31.8557 229.536 31.8437 229.544 31.8291C230.126 30.5208 230.305 29.07 230.058 27.6604C229.829 26.5909 229.383 25.5792 228.748 24.6872C228.144 23.7004 227.358 22.8359 226.432 22.1393V22.1393Z" fill="#E3ED62"/>
<path d="M225.584 23.1313C224.767 22.5159 222.985 21.2172 221.431 21.7954C221.274 21.8547 221.123 21.9284 220.979 22.0157C220.846 22.4443 220.858 22.9047 221.015 23.3256C221.618 25.1277 224.714 24.9833 226.85 26.6825C227.691 27.3533 228.705 28.5653 229.227 30.9591C229.353 30.1912 229.344 29.4074 229.201 28.6424C228.972 27.5729 228.526 26.5612 227.891 25.6692C227.288 24.6867 226.506 23.8258 225.584 23.1313V23.1313Z" fill="#C6C620"/>
<path d="M231.013 19.3366C230.729 19.2551 230.432 19.2314 230.139 19.2669C229.846 19.3024 229.563 19.3963 229.307 19.5432C229.023 19.7354 228.797 20.0023 228.656 20.3144C228.602 20.4299 228.558 20.5492 228.521 20.6712C227.971 22.4928 230.582 24.1523 231.343 26.768C231.593 27.6286 231.715 28.8775 231.195 30.5737C230.998 31.2018 230.749 31.8122 230.45 32.3984C230.441 32.4133 230.437 32.4308 230.44 32.4481C230.442 32.4653 230.45 32.4812 230.463 32.4933C230.475 32.5053 230.492 32.5127 230.509 32.5142C230.526 32.5158 230.544 32.5113 230.558 32.5017C231.791 31.7674 232.778 30.6862 233.394 29.3944C233.825 28.3881 234.046 27.3053 234.045 26.2114C234.123 25.0632 233.982 23.9107 233.63 22.8147C233.307 21.8422 232.618 19.7559 231.013 19.3366Z" fill="#73A9FF"/>
<path d="M228.89 20.3626C228.831 20.3468 228.753 20.3305 228.658 20.3142C228.605 20.4297 228.56 20.5489 228.524 20.671C227.973 22.4925 230.585 24.1521 231.346 26.7678C231.596 27.6284 231.717 28.8773 231.197 30.5735L231.271 30.4204C231.702 29.4141 231.923 28.3313 231.922 27.2374C232 26.0893 231.859 24.9368 231.507 23.8407C231.184 22.8682 230.495 20.782 228.89 20.3626Z" fill="#6398E5"/>
<path d="M203.221 59.8789C202.959 59.2302 202.903 58.5168 203.062 57.8357V57.8357C203.098 57.7355 203.139 57.6372 203.184 57.541C203.397 57.0672 203.735 56.6598 204.162 56.3625C204.637 56.0508 205.191 55.8809 205.76 55.8729C207.712 55.7747 209.369 56.7485 211.797 57.4987C213.662 58.0714 214.947 58.4666 216.635 58.238C218.193 58.0308 219.362 57.3883 220.29 56.8833C221.076 56.4524 221.819 55.9496 222.511 55.3813C222.912 55.0644 223.241 54.7499 223.525 54.4703C223.536 54.4598 223.551 54.4535 223.567 54.4523C223.582 54.4511 223.597 54.4552 223.61 54.4638C223.623 54.4724 223.633 54.4851 223.638 54.4998C223.642 54.5145 223.642 54.5304 223.637 54.5449C222.858 56.5329 221.585 58.2914 219.937 59.6557C218.599 60.724 217.067 61.5237 215.423 62.0102C210.941 63.3731 204.515 62.9103 203.221 59.8789Z" fill="#73A9FF"/>
<path d="M203.399 58.261C203.3 58.029 203.232 57.7848 203.197 57.5349C203.41 57.0611 203.748 56.6537 204.175 56.3564C204.65 56.0447 205.204 55.8748 205.773 55.8668C207.725 55.7686 209.382 56.7424 211.81 57.4926C213.675 58.0653 214.96 58.4605 216.648 58.2319C218.206 58.0247 219.375 57.3821 220.303 56.8772C221.089 56.4463 221.832 55.9435 222.524 55.3752C221.854 56.3691 221.044 57.2612 220.117 58.0234C218.781 59.0939 217.249 59.8944 215.605 60.38C211.115 61.7457 204.694 61.2924 203.399 58.261Z" fill="#6398E5"/>
<path d="M204.652 51.0379C204.56 50.902 204.509 50.8252 204.465 50.7493C203.985 49.9821 203.003 48.091 203.462 45.9119C203.608 45.2731 203.93 43.7393 205.247 43.1138C205.817 42.8592 206.456 42.7964 207.066 42.9349C207.581 43.0435 208.075 43.2354 208.528 43.503C209.412 44.0226 209.854 44.7347 210.699 46.1287C211.124 46.8683 211.511 47.6288 211.858 48.4072C212.661 50.007 213.72 52.1177 215.876 53.456C216.987 54.1252 218.233 54.5394 219.525 54.6684C220.915 54.8537 222.327 54.7584 223.679 54.3881C223.684 54.3884 223.689 54.3897 223.694 54.3921C223.698 54.3944 223.702 54.3976 223.705 54.4016C223.708 54.4056 223.711 54.4102 223.712 54.4151C223.713 54.42 223.713 54.4251 223.712 54.4301C223.71 54.4339 223.707 54.4373 223.704 54.44C223.701 54.4428 223.697 54.4448 223.692 54.446C220.413 57.2588 216.312 57.3636 216.312 57.3636C212.122 57.4707 208.738 55.6061 207.364 54.3343C206.341 53.338 205.432 52.2325 204.652 51.0379V51.0379Z" fill="#E3ED62"/>
<path d="M207.25 49.2285C206.581 47.5462 206.422 45.7058 206.793 43.9346C206.866 43.5945 206.959 43.259 207.072 42.9298C207.587 43.0384 208.081 43.2303 208.534 43.4979C209.418 44.0175 209.861 44.7295 210.705 46.1236C211.13 46.8632 211.517 47.6237 211.865 48.4021C212.667 50.0019 213.726 52.1126 215.883 53.4509C216.993 54.1201 218.24 54.5343 219.531 54.6633C220.921 54.8486 222.334 54.7533 223.685 54.383C223.691 54.3833 223.696 54.3846 223.7 54.387C223.705 54.3893 223.709 54.3925 223.712 54.3965C223.715 54.4005 223.717 54.4051 223.718 54.41C223.72 54.4149 223.72 54.42 223.719 54.425C223.443 54.5349 223.154 54.6396 222.85 54.7334C221.891 55.0275 220.899 55.2053 219.898 55.263C218.856 55.3054 217.812 55.2338 216.786 55.0496C215.578 54.9052 214.387 54.6463 213.228 54.2763C212.261 53.936 208.717 52.6901 207.25 49.2285Z" fill="#C6C620"/>
<path d="M199.57 48.8677C199.038 47.8438 198.705 46.729 198.59 45.582C198.493 44.5647 198.283 42.3794 199.585 41.3526C199.811 41.1642 200.074 41.0233 200.357 40.9382C200.64 40.8532 200.937 40.8258 201.231 40.8577C201.413 40.8894 201.589 40.9508 201.751 41.0394C202.001 41.1766 202.223 41.3592 202.405 41.5779C203.631 43.0358 201.912 45.5964 202.264 48.3011C202.409 49.3911 202.95 50.93 204.846 52.6596C205.005 52.8037 205.174 52.9503 205.353 53.0994C205.366 53.1102 205.375 53.1246 205.379 53.1406C205.382 53.1567 205.381 53.1735 205.375 53.1888C205.369 53.2041 205.358 53.2171 205.344 53.226C205.33 53.2348 205.314 53.2391 205.297 53.2382C203.871 53.0588 202.53 52.4632 201.444 51.5264C200.646 50.7748 200.008 49.8705 199.57 48.8677V48.8677Z" fill="#73A9FF"/>
<path d="M201.214 48.8756C200.682 47.8517 200.35 46.7369 200.234 45.5899C200.137 44.5726 199.928 42.3874 201.229 41.3605C201.391 41.234 201.568 41.1264 201.755 41.0398C202.005 41.177 202.227 41.3597 202.409 41.5783C203.634 43.0363 201.916 45.5968 202.267 48.3015C202.412 49.3915 202.954 50.9304 204.85 52.66C204.207 52.3784 203.613 51.9986 203.088 51.5343C202.29 50.7828 201.653 49.8785 201.214 48.8756V48.8756Z" fill="#6398E5"/>
<path d="M193.971 48.0815C193.566 47.1413 192.694 45.1247 193.614 43.7507C193.772 43.5019 193.979 43.2875 194.222 43.1202C194.465 42.9529 194.74 42.8361 195.029 42.7769L195.096 42.7701C195.545 42.739 195.992 42.8563 196.368 43.1038C197.992 44.101 197.144 47.0687 198.317 49.5286C198.78 50.4973 199.734 51.7568 201.955 52.8101C202.206 52.9371 202.464 53.0395 202.745 53.1627C202.761 53.1693 202.773 53.1804 202.782 53.1946C202.791 53.2087 202.794 53.2252 202.793 53.2417C202.792 53.2582 202.785 53.2738 202.775 53.2865C202.764 53.2991 202.749 53.3081 202.733 53.3121C201.321 53.5773 199.862 53.4192 198.541 52.8578C197.547 52.3914 196.66 51.728 195.933 50.9083C195.107 50.0973 194.441 49.1383 193.971 48.0815V48.0815Z" fill="#E3ED62"/>
<path d="M195.134 47.4889C194.729 46.5487 193.856 44.5321 194.776 43.1581C194.87 43.0191 194.977 42.8891 195.095 42.7698C195.544 42.7388 195.992 42.8561 196.367 43.1036C197.991 44.1007 197.143 47.0685 198.316 49.5283C198.78 50.4971 199.733 51.7565 201.954 52.8098C201.174 52.756 200.41 52.5684 199.695 52.2552C198.702 51.7888 197.814 51.1254 197.088 50.3057C196.265 49.497 195.602 48.5414 195.134 47.4889Z" fill="#C6C620"/>
<path d="M190.181 51.8833C190.166 51.5897 190.211 51.2962 190.313 51.0202C190.414 50.7442 190.571 50.4915 190.773 50.2771C191.026 50.0451 191.338 49.8875 191.676 49.8218C191.801 49.7964 191.928 49.78 192.055 49.7729C193.962 49.6549 194.987 52.5663 197.371 53.9016C198.155 54.3407 199.348 54.7434 201.125 54.6268C201.784 54.5802 202.438 54.4782 203.079 54.3218C203.096 54.3164 203.114 54.3169 203.13 54.3231C203.146 54.3292 203.16 54.3407 203.169 54.3557C203.178 54.3707 203.181 54.3882 203.179 54.4055C203.176 54.4227 203.168 54.4385 203.155 54.4504C202.156 55.4777 200.874 56.1873 199.47 56.49C198.388 56.6777 197.278 56.645 196.209 56.3938C195.069 56.2071 193.975 55.8074 192.983 55.2156C192.106 54.6805 190.224 53.5355 190.181 51.8833Z" fill="#73A9FF"/>
<path d="M191.676 50.0583C191.674 49.9981 191.676 49.9185 191.681 49.8228C191.806 49.7974 191.933 49.7811 192.061 49.774C193.967 49.656 194.993 52.5674 197.376 53.9027C198.161 54.3418 199.354 54.7445 201.131 54.6279L200.964 54.665C199.882 54.8527 198.773 54.82 197.704 54.5688C196.564 54.3821 195.469 53.9824 194.478 53.3906C193.601 52.8555 191.719 51.7105 191.676 50.0583Z" fill="#6398E5"/>
<path d="M143.734 59.8715C140.984 59.8616 138.763 57.6262 138.773 54.8786C138.783 52.131 141.02 49.9116 143.77 49.9215C146.521 49.9314 148.742 52.1668 148.732 54.9144C148.722 57.662 146.485 59.8814 143.734 59.8715Z" fill="#73A9FF"/>
<path d="M143.779 48.7082C142.37 48.7032 141.232 47.5582 141.237 46.1509C141.242 44.7436 142.388 43.6069 143.797 43.6119C145.206 43.617 146.344 44.7619 146.338 46.1692C146.333 47.5766 145.187 48.7133 143.779 48.7082Z" fill="#73A9FF"/>
<path d="M143.544 59.7248C142.136 59.7198 140.998 58.5748 141.003 57.1675C141.008 55.7602 142.154 54.6235 143.563 54.6285C144.971 54.6336 146.109 55.7785 146.104 57.1858C146.099 58.5932 144.953 59.7299 143.544 59.7248Z" fill="#6398E5"/>
<path d="M143.924 41.9139C142.985 41.9105 142.226 41.1472 142.23 40.209C142.233 39.2708 142.997 38.513 143.936 38.5163C144.875 38.5197 145.634 39.283 145.631 40.2212C145.627 41.1594 144.863 41.9173 143.924 41.9139Z" fill="#73A9FF"/>
<path d="M143.856 41.7671C143.252 41.7649 142.765 41.2742 142.767 40.6711C142.769 40.068 143.26 39.5808 143.864 39.583C144.468 39.5852 144.955 40.0758 144.953 40.679C144.951 41.2821 144.46 41.7693 143.856 41.7671Z" fill="#6398E5"/>
<path d="M143.705 48.5623C142.766 48.5589 142.008 47.7956 142.011 46.8574C142.014 45.9192 142.778 45.1614 143.718 45.1648C144.657 45.1682 145.415 45.9315 145.412 46.8697C145.408 47.8079 144.644 48.5657 143.705 48.5623Z" fill="#6398E5"/>
<path d="M163.363 54.3486C163.176 53.7101 162.798 53.1444 162.278 52.7284V52.7284C162.193 52.6743 162.104 52.6245 162.014 52.5794C161.577 52.3497 161.085 52.243 160.592 52.2709C160.054 52.316 159.541 52.5137 159.113 52.8408C157.6 53.9104 156.938 55.6093 155.571 57.5919C154.521 59.1122 153.793 60.1604 152.401 60.9781C151.118 61.7355 149.871 61.9397 148.879 62.1061C148.04 62.244 147.19 62.3035 146.34 62.2838C145.854 62.282 145.424 62.2392 145.048 62.1966C145.033 62.1955 145.019 62.1993 145.006 62.2075C144.994 62.2157 144.985 62.2278 144.981 62.2418C144.976 62.2558 144.976 62.2709 144.981 62.2847C144.987 62.2985 144.996 62.3102 145.009 62.3178C146.76 63.3472 148.744 63.9162 150.774 63.9718C152.4 63.9873 154.013 63.6873 155.524 63.0886C159.677 61.4824 164.193 57.373 163.363 54.3486Z" fill="#73A9FF"/>
<path d="M162.291 53.2405C162.228 53.0088 162.135 52.7864 162.014 52.5794C161.576 52.3496 161.085 52.243 160.591 52.2709C160.054 52.3159 159.541 52.5137 159.112 52.8407C157.6 53.9104 156.938 55.6092 155.57 57.5919C154.52 59.1122 153.793 60.1604 152.4 60.9781C151.117 61.7355 149.871 61.9397 148.879 62.106C148.04 62.2439 147.19 62.3034 146.34 62.2838C147.424 62.6347 148.553 62.8268 149.692 62.854C151.318 62.8722 152.931 62.5729 154.442 61.9732C158.592 60.3645 163.113 56.2648 162.291 53.2405Z" fill="#6398E5"/>
<path d="M157.102 48.5764C157.102 48.4211 157.083 48.3337 157.071 48.2511C156.977 47.3965 156.596 45.4076 154.97 44.0475C154.498 43.6551 153.343 42.6972 151.994 43.0006C151.418 43.1445 150.906 43.4715 150.533 43.9321C150.213 44.3151 149.958 44.7478 149.778 45.2132C149.425 46.1195 149.514 46.911 149.705 48.4479C149.824 49.2495 149.983 50.0447 150.182 50.8303C150.526 52.4964 150.98 54.6943 150.16 56.958C149.727 58.1088 149.042 59.1485 148.155 60.0014C147.229 60.9537 146.12 61.7099 144.894 62.2248C144.891 62.2279 144.888 62.2319 144.886 62.2362C144.884 62.2406 144.883 62.2454 144.883 62.2502C144.883 62.255 144.884 62.2598 144.886 62.2642C144.888 62.2686 144.891 62.2725 144.894 62.2757C144.898 62.2773 144.902 62.2782 144.906 62.2782C144.911 62.2782 144.915 62.2774 144.919 62.2758C149.018 62.458 152.136 60.1346 152.136 60.1346C155.322 57.7605 156.745 54.385 157.021 52.629C157.197 51.2851 157.224 49.9261 157.102 48.5764V48.5764Z" fill="#E3ED62"/>
<path d="M154.099 48.7456C153.607 47.0964 152.642 45.6274 151.323 44.5202C151.068 44.3088 150.801 44.1126 150.524 43.9324C150.203 44.3154 149.948 44.7482 149.768 45.2135C149.415 46.1199 149.505 46.9113 149.696 48.4482C149.815 49.2499 149.974 50.045 150.173 50.8307C150.517 52.4967 150.971 54.6946 150.151 56.9584C149.717 58.1091 149.032 59.1488 148.146 60.0017C147.219 60.954 146.11 61.7102 144.885 62.2251C144.881 62.2283 144.879 62.2322 144.877 62.2366C144.875 62.241 144.874 62.2457 144.873 62.2505C144.873 62.2554 144.874 62.2601 144.876 62.2645C144.878 62.2689 144.881 62.2729 144.885 62.2761C145.155 62.197 145.432 62.1057 145.714 61.9975C146.602 61.6562 147.446 61.2086 148.226 60.6645C149.028 60.0865 149.763 59.4218 150.419 58.6824C151.234 57.8671 151.97 56.9758 152.615 56.0208C153.136 55.1999 155.046 52.1927 154.099 48.7456Z" fill="#C6C620"/>
<path d="M159.612 43.9773C159.41 42.9012 159.005 41.873 158.421 40.9468C157.894 40.1294 156.764 38.3732 155.19 38.3675C154.91 38.3596 154.631 38.4081 154.37 38.5101C154.109 38.6122 153.872 38.7657 153.672 38.9615C153.555 39.092 153.46 39.2409 153.391 39.4022C153.285 39.6511 153.228 39.9176 153.22 40.1879C153.148 41.9956 155.941 42.9036 157.264 45.1313C157.798 46.0312 158.3 47.4988 157.905 49.9024C157.874 50.1029 157.834 50.3115 157.786 50.5281C157.783 50.5435 157.785 50.5595 157.792 50.5737C157.798 50.588 157.809 50.5999 157.823 50.6077C157.836 50.6155 157.852 50.6188 157.868 50.6173C157.883 50.6157 157.898 50.6093 157.91 50.5989C158.867 49.6297 159.516 48.3992 159.774 47.0624C159.928 46.0337 159.874 44.9844 159.612 43.9773Z" fill="#73A9FF"/>
<path d="M158.394 44.9435C158.191 43.8674 157.787 42.8392 157.202 41.9129C156.676 41.0956 155.545 39.3394 153.971 39.3337C153.775 39.3342 153.58 39.3571 153.39 39.402C153.285 39.6509 153.227 39.9174 153.22 40.1877C153.148 41.9954 155.94 42.9034 157.263 45.1311C157.797 46.031 158.299 47.4986 157.905 49.9022C158.218 49.3153 158.437 48.6831 158.555 48.0286C158.71 46.9998 158.655 45.9505 158.394 44.9435V44.9435Z" fill="#6398E5"/>
<path d="M163.321 40.1102C163.081 39.1701 162.532 37.1515 161.038 36.6631C160.774 36.5698 160.493 36.5306 160.213 36.5479C159.934 36.5653 159.66 36.6388 159.41 36.7641L159.356 36.7979C159.003 37.0379 158.739 37.3875 158.604 37.7926C157.981 39.4891 160.361 41.211 160.934 43.737C161.159 44.7328 161.19 46.2327 160.155 48.321C160.043 48.5632 159.911 48.7909 159.774 49.0476C159.766 49.0615 159.763 49.0773 159.765 49.0929C159.767 49.1085 159.774 49.1231 159.784 49.1347C159.795 49.1462 159.809 49.1542 159.825 49.1573C159.84 49.1605 159.856 49.1588 159.87 49.1523C161.079 48.5237 162.073 47.5509 162.728 46.3572C163.193 45.4268 163.464 44.4112 163.523 43.3726C163.662 42.2821 163.593 41.1753 163.321 40.1102V40.1102Z" fill="#E3ED62"/>
<path d="M162.107 40.3473C161.868 39.4073 161.319 37.3886 159.824 36.9003C159.672 36.8514 159.516 36.8167 159.358 36.7967C159.005 37.0367 158.74 37.3863 158.606 37.7914C157.983 39.488 160.362 41.2099 160.936 43.7359C161.161 44.7317 161.192 46.2316 160.157 48.3198C160.706 47.8231 161.165 47.2352 161.514 46.5822C161.979 45.6518 162.25 44.6362 162.309 43.5976C162.446 42.5111 162.378 41.4085 162.107 40.3473V40.3473Z" fill="#C6C620"/>
<path d="M168.384 40.7344C168.222 40.5062 168.016 40.3129 167.778 40.1661C167.54 40.0193 167.274 39.922 166.997 39.88C166.672 39.8547 166.347 39.9199 166.057 40.0683C165.948 40.1226 165.844 40.1847 165.745 40.2541C164.255 41.2826 165.204 44.0598 164.214 46.454C163.888 47.2416 163.236 48.2415 161.843 49.1951C161.325 49.5461 160.778 49.8526 160.208 50.1114C160.192 50.1171 160.179 50.128 160.17 50.1422C160.162 50.1563 160.158 50.173 160.161 50.1894C160.163 50.2058 160.171 50.221 160.182 50.2324C160.194 50.2438 160.21 50.2508 160.226 50.2522C161.576 50.4348 162.949 50.2143 164.174 49.6185C165.091 49.125 165.898 48.4509 166.547 47.637C167.287 46.8296 167.867 45.8897 168.257 44.8668C168.596 43.9531 169.324 41.9949 168.384 40.7344Z" fill="#73A9FF"/>
<path d="M166.199 40.2409C166.165 40.1947 166.117 40.1363 166.056 40.0681C165.948 40.1224 165.844 40.1845 165.745 40.2539C164.254 41.2823 165.204 44.0596 164.214 46.4538C163.888 47.2413 163.236 48.2413 161.843 49.1949L161.989 49.125C162.906 48.6316 163.713 47.9575 164.362 47.1436C165.102 46.3362 165.682 45.3963 166.072 44.3734C166.411 43.4597 167.139 41.5014 166.199 40.2409Z" fill="#6398E5"/>
<path d="M123.706 54.4479C123.897 53.8108 124.28 53.2479 124.802 52.8356V52.8356C124.888 52.7821 124.977 52.733 125.068 52.6885C125.507 52.4619 125.999 52.3589 126.492 52.3903C127.029 52.4392 127.541 52.6406 127.967 52.9708C129.472 54.0513 130.122 55.7548 131.475 57.7473C132.516 59.2751 133.234 60.3285 134.62 61.1562C135.898 61.9228 137.146 62.136 138.134 62.3094C138.972 62.4534 139.821 62.519 140.671 62.5054C141.157 62.5072 141.587 62.4675 141.964 62.4276C141.979 62.4265 141.993 62.4305 142.005 62.4388C142.018 62.447 142.027 62.4592 142.031 62.4732C142.035 62.4872 142.035 62.5023 142.03 62.5161C142.025 62.5298 142.015 62.5414 142.002 62.549C140.244 63.5664 138.256 64.1212 136.225 64.1615C134.599 64.1653 132.988 63.8537 131.482 63.2441C127.351 61.6081 122.864 57.4663 123.706 54.4479Z" fill="#73A9FF"/>
<path d="M124.797 53.3476C124.861 53.1164 124.956 52.8947 125.079 52.6885C125.518 52.462 126.01 52.3589 126.503 52.3903C127.04 52.4392 127.552 52.6406 127.978 52.9708C129.483 54.0513 130.133 55.7548 131.486 57.7473C132.527 59.2751 133.245 60.3285 134.631 61.1562C135.909 61.9228 137.157 62.136 138.145 62.3094C138.983 62.4534 139.832 62.519 140.682 62.5054C139.596 62.8486 138.465 63.0325 137.326 63.0515C135.7 63.0578 134.089 62.747 132.583 62.1366C128.444 60.4981 123.956 56.366 124.797 53.3476Z" fill="#6398E5"/>
<path d="M130.021 48.7214C130.034 48.5661 130.042 48.4788 130.054 48.3963C130.154 47.5424 130.55 45.5563 132.185 44.208C132.672 43.819 133.822 42.8694 135.169 43.1825C135.743 43.3305 136.254 43.6612 136.623 44.1244C136.941 44.5097 137.193 44.9443 137.369 45.4109C137.716 46.3198 137.621 47.1106 137.418 48.6461C137.294 49.4469 137.129 50.2408 136.924 51.025C136.568 52.6886 136.099 54.8832 136.902 57.1528C137.327 58.3066 138.005 59.3512 138.885 60.2104C139.805 61.1694 140.908 61.9335 142.13 62.4572C142.133 62.4604 142.136 62.4644 142.138 62.4688C142.14 62.4732 142.141 62.4779 142.141 62.4827C142.141 62.4876 142.14 62.4923 142.138 62.4967C142.136 62.5011 142.133 62.505 142.13 62.5082C142.126 62.5098 142.122 62.5106 142.118 62.5106C142.113 62.5106 142.109 62.5097 142.105 62.5081C138.004 62.6608 134.904 60.315 134.904 60.315C131.735 57.918 130.336 54.5324 130.072 52.7744C129.906 51.4294 129.889 50.0702 130.021 48.7214V48.7214Z" fill="#E3ED62"/>
<path d="M133.017 48.9118C133.521 47.2662 134.497 45.8042 135.823 44.7064C136.08 44.497 136.348 44.3026 136.627 44.1244C136.944 44.5097 137.196 44.9443 137.373 45.4109C137.72 46.3198 137.624 47.1106 137.422 48.6461C137.297 49.4469 137.132 50.2409 136.928 51.025C136.572 52.6886 136.102 54.8832 136.906 57.1528C137.331 58.3066 138.008 59.3512 138.889 60.2104C139.808 61.1694 140.912 61.9335 142.133 62.4572C142.137 62.4604 142.14 62.4644 142.142 62.4688C142.144 62.4732 142.145 62.4779 142.145 62.4827C142.145 62.4876 142.144 62.4923 142.142 62.4967C142.14 62.5011 142.137 62.505 142.133 62.5082C141.864 62.4271 141.587 62.3339 141.306 62.2237C140.421 61.8755 139.581 61.4218 138.804 60.8727C138.007 60.2883 137.276 59.6183 136.625 58.8748C135.816 58.0537 135.087 57.1571 134.448 56.1974C133.934 55.3729 132.048 52.352 133.017 48.9118Z" fill="#C6C620"/>
<path d="M127.542 44.1036C127.756 43.0281 128.172 42.0028 128.767 41.0817C129.3 40.2682 130.443 38.5201 132.017 38.5258C132.297 38.5198 132.575 38.5703 132.836 38.6743C133.096 38.7782 133.332 38.9334 133.531 39.1307C133.647 39.262 133.741 39.4116 133.808 39.5734C133.912 39.8231 133.968 40.09 133.973 40.3603C134.015 42.1684 131.221 43.0563 129.875 45.2744C129.334 46.1704 128.822 47.6344 129.199 50.0408C129.231 50.2415 129.269 50.4503 129.313 50.6673C129.316 50.6827 129.314 50.6987 129.308 50.7129C129.301 50.7271 129.29 50.7389 129.276 50.7466C129.263 50.7543 129.247 50.7576 129.231 50.7559C129.216 50.7542 129.201 50.7477 129.189 50.7372C128.239 49.7611 127.6 48.526 127.351 47.1874C127.206 46.1571 127.271 45.1082 127.542 44.1036V44.1036Z" fill="#73A9FF"/>
<path d="M128.753 45.079C128.967 44.0035 129.383 42.9782 129.978 42.0571C130.511 41.2436 131.654 39.4956 133.228 39.5012C133.423 39.5031 133.618 39.5275 133.808 39.5737C133.912 39.8234 133.968 40.0903 133.973 40.3606C134.015 42.1687 131.221 43.0566 129.874 45.2747C129.334 46.1707 128.821 47.6347 129.199 50.0411C128.89 49.4519 128.675 48.8182 128.562 48.1628C128.417 47.1325 128.482 46.0836 128.753 45.079V45.079Z" fill="#6398E5"/>
<path d="M123.861 40.2101C124.119 39.2718 124.671 37.2571 126.169 36.7795C126.433 36.688 126.714 36.6509 126.994 36.6702C127.273 36.6896 127.546 36.765 127.796 36.8921L127.849 36.9263C128.201 37.1689 128.462 37.5204 128.594 37.9264C129.204 39.6274 126.813 41.3322 126.221 43.854C125.989 44.8481 125.947 46.3478 126.967 48.4434C127.078 48.6865 127.208 48.9151 127.343 49.1728C127.351 49.1867 127.354 49.2025 127.352 49.2181C127.35 49.2337 127.343 49.2483 127.332 49.2597C127.321 49.2712 127.307 49.279 127.292 49.2821C127.276 49.2852 127.26 49.2833 127.246 49.2768C126.042 48.6395 125.055 47.6595 124.409 46.4612C123.95 45.5274 123.687 44.5099 123.635 43.4709C123.504 42.3795 123.581 41.2732 123.861 40.2101V40.2101Z" fill="#E3ED62"/>
<path d="M125.071 40.4574C125.33 39.5192 125.881 37.5044 127.379 37.0269C127.531 36.9791 127.688 36.9455 127.846 36.9266C128.198 37.1692 128.459 37.5207 128.591 37.9267C129.202 39.6277 126.81 41.3325 126.218 43.8543C125.986 44.8484 125.944 46.3481 126.964 48.4437C126.418 47.943 125.964 47.3519 125.62 46.6964C125.161 45.7626 124.898 44.7451 124.846 43.7062C124.717 42.6187 124.793 41.5166 125.071 40.4574Z" fill="#C6C620"/>
<path d="M118.795 40.7984C118.959 40.5714 119.166 40.3796 119.406 40.2345C119.645 40.0894 119.911 39.994 120.188 39.954C120.513 39.9311 120.838 39.9986 121.127 40.1491C121.235 40.2042 121.339 40.267 121.438 40.3371C122.92 41.3763 121.951 44.1467 122.924 46.5479C123.244 47.3378 123.889 48.3424 125.275 49.306C125.791 49.6606 126.336 49.9711 126.904 50.234C126.919 50.2399 126.932 50.2508 126.941 50.265C126.949 50.2793 126.953 50.296 126.95 50.3123C126.948 50.3287 126.94 50.3438 126.928 50.3552C126.916 50.3665 126.9 50.3734 126.884 50.3747C125.533 50.5476 124.161 50.3172 122.941 49.7126C122.028 49.2125 121.226 48.5326 120.583 47.7141C119.849 46.9014 119.275 45.9573 118.892 44.9317C118.56 44.0155 117.846 42.0521 118.795 40.7984Z" fill="#73A9FF"/>
<path d="M120.984 40.3208C121.018 40.2748 121.067 40.2168 121.128 40.149C121.236 40.2041 121.34 40.2669 121.438 40.337C122.921 41.3762 121.952 44.1466 122.924 46.5478C123.245 47.3377 123.89 48.3423 125.276 49.3059L125.13 49.235C124.217 48.7349 123.414 48.0551 122.771 47.2365C122.037 46.4238 121.464 45.4797 121.081 44.4541C120.749 43.538 120.035 41.5745 120.984 40.3208Z" fill="#6398E5"/>
<path d="M106.216 46.3358C106.265 47.695 106.404 49.0494 106.633 50.39V50.39C106.712 50.85 106.809 51.3277 106.912 51.8195C107.193 53.0727 107.547 54.3086 107.97 55.5211C109.235 58.9813 114.83 66.7 124.379 68.2124C132.83 69.5503 139.229 65.2158 140.807 64.0542L140.946 63.9502C140.027 64.8703 133.456 71.2301 123.673 70.3276C117.674 69.7741 110.566 66.4938 107.794 60.6329C105.484 55.7626 106.206 48.9975 106.216 46.3358Z" fill="#73A9FF"/>
<path d="M106.203 45.8389C106.21 45.9834 106.214 46.1491 106.214 46.3359L106.203 46.0151V45.8389Z" fill="#73A9FF"/>
<path d="M108.323 60.1161C106.912 57.1196 106.633 53.4286 106.633 50.402C106.712 50.8621 106.809 51.3398 106.912 51.8316C107.193 53.0847 107.547 54.3206 107.97 55.5332C109.235 58.9933 114.83 66.7121 124.379 68.2244C132.83 69.5623 139.229 65.2279 140.807 64.0663C138.737 65.9277 132.675 70.5882 124.202 69.8108C118.203 69.2574 111.095 65.977 108.323 60.1161Z" fill="#6398E5"/>
<path d="M138.845 67.1671C138.651 68.0718 138.39 68.9608 138.065 69.8269C136.713 73.4155 134.271 76.4916 131.082 78.6244C126.581 81.5734 124.543 79.7984 119.966 82.6786C117.134 84.4589 115.811 86.4631 114.975 87.1029C114.722 87.2933 114.514 87.362 114.322 87.2615C113.293 86.7327 114.214 82.1498 116.263 78.6244C117.002 77.35 118.581 74.7007 121.715 72.8958C125.092 70.9568 127.054 71.8382 131.966 70.3399C134.39 69.5939 136.704 68.5268 138.845 67.1671Z" fill="#6398E5"/>
<path d="M138.063 69.8275C136.711 73.4161 134.269 76.4923 131.079 78.6251C126.579 81.574 124.541 79.799 119.964 82.6792C117.132 84.4595 115.809 86.4637 114.973 87.1035C115.105 85.3267 115.966 82.5452 117.317 80.2115C118.057 78.9371 119.636 76.2878 122.769 74.4828C126.146 72.5438 128.108 73.4252 133.02 71.9269C134.765 71.3912 136.454 70.6881 138.063 69.8275Z" fill="#73A9FF"/>
<path d="M103.518 44.7807C104.063 44.957 104.482 45.6761 104.79 46.5769C105.32 48.1298 105.094 50.245 105.118 50.9501C105.128 51.0103 105.118 51.0721 105.09 51.1263C104.942 51.3414 104.261 50.245 104.261 50.245L103.446 49.0235C102.954 48.2974 102.606 47.4844 102.419 46.628C102.221 45.7096 102.299 45.1103 102.849 44.8477C103.055 44.7396 103.295 44.7156 103.518 44.7807Z" fill="#73A9FF"/>
<path d="M103.519 44.7815C104.064 44.9578 104.483 45.6769 104.791 46.5776C105.321 48.1306 105.095 50.2458 105.119 50.9508C105.129 51.0111 105.119 51.0728 105.091 51.1271C104.915 51.3157 104.414 50.1312 104.414 50.1312L103.807 48.7951C103.439 47.9992 103.226 47.1409 103.179 46.2657C103.145 45.5588 103.232 45.06 103.519 44.7815Z" fill="#6398E5"/>
<path d="M101.057 47.9755C102.585 48.1236 103.478 50.0643 104.088 51.3916C104.711 52.7588 105.071 54.2311 105.147 55.7313C105.147 55.7401 105.138 55.7436 105.133 55.7313C105.087 55.6537 104.941 55.4175 104.711 55.0844C104.076 54.1521 103.334 53.2973 102.501 52.5373C100.913 51.1272 99.1483 50.5984 99.3247 49.1882C99.3495 48.9047 99.4324 48.6293 99.5682 48.3792V48.3792C100.007 48.0859 100.53 47.9442 101.057 47.9755V47.9755Z" fill="#6398E5"/>
<path d="M100.704 48.3286C102.051 48.5701 102.799 49.8604 103.383 50.8633C104.128 52.1601 104.582 53.6038 104.711 55.0938C104.077 54.1584 103.335 53.3006 102.501 52.5379C100.913 51.1277 99.1483 50.5989 99.3247 49.1888C99.3495 48.9053 99.4324 48.6299 99.5682 48.3797V48.3797C99.939 48.2821 100.326 48.2646 100.704 48.3286V48.3286Z" fill="#73A9FF"/>
<path d="M100.028 51.8324C101.649 51.9681 102.757 53.4188 103.733 54.6844C104.342 55.5039 104.874 56.3785 105.321 57.2967C105.83 58.2674 106.28 59.2681 106.669 60.2932C106.673 60.3018 106.673 60.3114 106.67 60.3203C106.668 60.3292 106.662 60.3369 106.654 60.3418C106.646 60.3467 106.636 60.3486 106.627 60.3472C106.618 60.3457 106.609 60.3409 106.603 60.3338C106.251 59.9812 105.898 59.6604 105.559 59.3713C104.72 58.6527 103.813 58.0169 102.851 57.4729C100.434 56.1033 98.6251 55.8707 98.087 54.3001C97.9702 53.9482 97.9211 53.5774 97.9423 53.2073C97.9587 52.8988 98.0709 52.603 98.2634 52.3612C98.7927 51.7284 99.7896 51.813 100.028 51.8324Z" fill="#C6C620"/>
<path d="M99.6749 52.7133C101.296 52.849 102.404 54.2997 103.38 55.5653C103.99 56.3848 104.521 57.2593 104.968 58.1775C105.188 58.5971 105.384 58.999 105.559 59.3779C104.72 58.6568 103.813 58.0186 102.851 57.4725C100.434 56.1029 98.6251 55.8702 98.087 54.2997C97.9702 53.9477 97.9211 53.5769 97.9423 53.2068C98.4769 52.6128 99.442 52.6939 99.6749 52.7133Z" fill="#E3ED62"/>
<path d="M118.203 58.8837C120.208 58.9066 120.372 62.499 123.143 64.8768C124.265 65.8218 125.595 66.4864 127.025 66.8158C127.689 66.9792 128.365 67.0918 129.047 67.1524C129.059 67.1543 129.069 67.16 129.077 67.1686C129.085 67.1773 129.09 67.1883 129.091 67.2001C129.092 67.2119 129.089 67.2236 129.083 67.2335C129.077 67.2434 129.067 67.2508 129.056 67.2547C127.879 67.5832 126.659 67.7323 125.437 67.6971C124.467 67.6707 121.587 67.5508 119.085 65.5819C118.277 64.9702 117.615 64.1877 117.145 63.2904C116.929 62.8638 115.864 60.7575 116.792 59.5888C116.918 59.4333 117.068 59.2983 117.236 59.1887C117.521 58.9928 117.858 58.8866 118.203 58.8837V58.8837Z" fill="#C6C620"/>
<path d="M117.498 59.7634C119.502 59.7864 119.666 63.3787 122.438 65.7565C123.559 66.7015 124.89 67.3661 126.32 67.6955C125.993 67.7096 125.7 67.7096 125.437 67.6955C124.467 67.669 121.588 67.5492 119.086 65.5803C118.278 64.9686 117.615 64.1861 117.145 63.2888C116.956 62.9151 116.118 61.26 116.531 60.0684C116.815 59.8725 117.152 59.7663 117.498 59.7634Z" fill="#E3ED62"/>
<path d="M113.657 55.2972C113.809 55.2907 113.96 55.319 114.098 55.3801C114.213 55.4271 114.314 55.5001 114.395 55.5934C115.056 56.3566 113.754 57.6187 113.783 59.4589C113.793 60.2345 114.024 61.2498 114.896 62.4396C114.899 62.4419 114.901 62.4448 114.902 62.4479C114.904 62.4511 114.904 62.4546 114.904 62.4581C114.904 62.4616 114.904 62.4651 114.902 62.4683C114.901 62.4714 114.899 62.4743 114.896 62.4766C114.892 62.4797 114.887 62.4814 114.882 62.4814C114.877 62.4814 114.872 62.4797 114.868 62.4766C114.35 62.1442 113.886 61.736 113.49 61.2656C113.176 60.8902 112.255 59.7656 112.166 58.1633C112.127 57.6546 112.201 57.1435 112.383 56.6668C112.466 56.443 112.909 55.3378 113.657 55.2972Z" fill="#73A9FF"/>
<path d="M114.099 55.3791C114.213 55.4261 114.315 55.4991 114.395 55.5923C115.057 56.3556 113.755 57.6177 113.783 59.4579C113.794 60.2335 114.025 61.2488 114.896 62.4386C114.899 62.4409 114.901 62.4437 114.903 62.4469C114.904 62.4501 114.905 62.4536 114.905 62.4571C114.905 62.4606 114.904 62.464 114.903 62.4672C114.901 62.4704 114.899 62.4733 114.896 62.4756C114.446 62.094 114.052 61.6493 113.728 61.1553C113.462 60.7446 112.686 59.5196 112.786 57.9173C112.809 57.4078 112.943 56.9095 113.18 56.4578C113.263 56.2974 113.616 55.6593 114.099 55.3791Z" fill="#6398E5"/>
<path d="M111.674 67.696C114.018 68.0078 116.232 68.9524 118.079 70.4281C118.079 70.4281 117.115 70.3153 115.801 70.2025C113.636 70.0262 110.522 69.8359 109.206 70.1673C107.088 70.6961 107.265 71.0486 107.265 71.0486C107.265 71.0486 107.785 71.3007 108.489 71.6039C107.136 72.0216 107.265 72.2825 107.265 72.2825C107.265 72.2825 109.234 73.2414 110.794 73.6926C111.413 73.8689 113.818 74.5369 116.547 73.8794C117.333 73.6728 118.106 73.4197 118.862 73.1215C116.986 75.2614 115.732 75.8043 115.732 75.8043C114.138 76.4955 112.378 76.711 110.665 76.4248C109.077 76.1533 107.912 75.7197 106.674 74.6727C105.121 73.3647 103.664 71.9017 102.983 71.0715C102.706 70.7366 102.558 70.5039 102.58 70.4281C102.723 69.9575 103.133 69.6438 103.978 69.2383C105.562 68.4769 108.122 67.2465 111.674 67.696Z" fill="#6398E5"/>
<path d="M111.676 68.9299C113.114 69.1141 114.51 69.5446 115.802 70.2025C113.638 70.0262 110.523 69.8359 109.207 70.1673C107.09 70.6961 107.266 71.0486 107.266 71.0486C107.266 71.0486 107.787 71.3007 108.491 71.6039C107.138 72.0216 107.266 72.2825 107.266 72.2825C107.266 72.2825 109.235 73.2414 110.795 73.6926C111.414 73.8689 113.819 74.5369 116.549 73.8794C117.335 73.6728 118.108 73.4197 118.864 73.1215C116.988 75.2614 115.734 75.8043 115.734 75.8043C114.14 76.4955 112.38 76.711 110.666 76.4248C109.078 76.1533 107.914 75.7197 106.675 74.6727C105.123 73.3647 103.665 71.9017 102.984 71.0715C103.288 70.8292 103.623 70.6277 103.979 70.4722C105.564 69.7107 108.124 68.4804 111.676 68.9299Z" fill="#73A9FF"/>
<path d="M102.07 59.7062C103.146 59.8101 104.884 59.9776 106.606 61.3419C107.738 62.2507 108.6 63.4506 109.101 64.8126C109.071 64.7897 108.774 64.5605 108.339 64.238C107.28 63.4571 105.413 62.1228 104.522 61.8566C103.241 61.4653 103.222 61.7015 103.222 61.7015C103.222 61.7015 103.305 61.8284 103.437 62.0205C103.799 62.5615 104.197 63.0773 104.628 63.5646C105.437 64.4472 106.457 65.1101 107.592 65.4912C108.598 65.8103 109.759 65.8878 109.752 66.0465C109.752 66.0676 109.725 66.0888 109.674 66.1099C109.512 66.1752 109.357 66.2351 109.207 66.2862C107.172 67.0283 106.158 66.889 106.158 66.889C105.1 66.7461 104.106 66.2998 103.296 65.6041C102.546 64.9554 102.075 64.3578 101.756 63.4148C101.288 62.0329 100.958 60.5804 100.934 60.0657C100.934 59.9617 100.934 59.8895 100.957 59.8789C101.182 59.6868 101.496 59.6515 102.07 59.7062Z" fill="#6398E5"/>
<path d="M101.719 60.0593C102.796 60.1633 104.534 60.3307 106.256 61.695C107.123 62.3863 107.833 63.2532 108.341 64.2386C107.282 63.4577 105.416 62.1234 104.525 61.8572C103.244 61.4659 103.224 61.7021 103.224 61.7021C103.224 61.7021 103.307 61.829 103.44 62.0211C102.882 61.9207 102.872 62.0546 102.872 62.0546C103.298 62.7079 103.77 63.3305 104.283 63.9178C105.092 64.8003 106.112 65.4632 107.247 65.8444C108.001 66.0823 108.844 66.1863 109.214 66.2921C107.18 67.0342 106.166 66.8949 106.166 66.8949C105.107 66.752 104.113 66.3057 103.304 65.6099C102.554 64.9613 102.083 64.3637 101.764 63.4207C101.296 62.0387 100.966 60.5863 100.941 60.0716C101.198 60.0252 101.461 60.0211 101.719 60.0593Z" fill="#73A9FF"/>
<path d="M179.838 46.3358C179.79 47.695 179.651 49.0494 179.422 50.39V50.39C179.342 50.85 179.245 51.3277 179.143 51.8195C178.862 53.0727 178.508 54.3086 178.084 55.5211C176.819 58.9813 171.225 66.7 161.676 68.2124C153.225 69.5503 146.825 65.2158 145.248 64.0542L145.109 63.9502C146.028 64.8703 152.598 71.2301 162.382 70.3276C168.381 69.7741 175.489 66.4938 178.261 60.6329C180.57 55.7626 179.849 48.9975 179.838 46.3358Z" fill="#73A9FF"/>
<path d="M179.852 45.8389C179.844 45.9834 179.841 46.1491 179.841 46.3359L179.852 46.0151V45.8389Z" fill="#73A9FF"/>
<path d="M177.732 60.1161C179.143 57.1196 179.422 53.4286 179.422 50.402C179.342 50.8621 179.245 51.3398 179.143 51.8316C178.862 53.0847 178.508 54.3206 178.084 55.5332C176.819 58.9933 171.225 66.7121 161.676 68.2244C153.225 69.5623 146.825 65.2279 145.248 64.0663C147.318 65.9277 153.38 70.5882 161.852 69.8108C167.851 69.2574 174.96 65.977 177.732 60.1161Z" fill="#6398E5"/>
<path d="M147.21 67.1671C147.404 68.0718 147.664 68.9608 147.99 69.8269C149.342 73.4155 151.784 76.4916 154.973 78.6244C159.474 81.5734 161.512 79.7984 166.089 82.6786C168.92 84.4589 170.244 86.4631 171.08 87.1029C171.332 87.2933 171.54 87.362 171.733 87.2615C172.761 86.7327 171.84 82.1498 169.792 78.6244C169.053 77.35 167.474 74.7007 164.34 72.8958C160.963 70.9568 159.001 71.8382 154.089 70.3399C151.665 69.5939 149.351 68.5268 147.21 67.1671Z" fill="#6398E5"/>
<path d="M147.988 69.8275C149.34 73.4161 151.782 76.4923 154.971 78.6251C159.472 81.574 161.51 79.799 166.087 82.6792C168.919 84.4595 170.242 86.4637 171.078 87.1035C170.946 85.3267 170.085 82.5452 168.733 80.2115C167.994 78.9371 166.415 76.2878 163.281 74.4828C159.904 72.5438 157.943 73.4252 153.031 71.9269C151.286 71.3912 149.597 70.6881 147.988 69.8275Z" fill="#73A9FF"/>
<path d="M182.537 44.7807C181.991 44.957 181.573 45.6761 181.264 46.5769C180.735 48.1298 180.961 50.245 180.936 50.9501C180.927 51.0103 180.937 51.0721 180.964 51.1263C181.113 51.3414 181.794 50.245 181.794 50.245L182.609 49.0235C183.1 48.2974 183.449 47.4844 183.636 46.628C183.833 45.7096 183.756 45.1103 183.205 44.8477C182.999 44.7396 182.76 44.7156 182.537 44.7807Z" fill="#73A9FF"/>
<path d="M182.535 44.7815C181.99 44.9578 181.572 45.6769 181.263 46.5776C180.734 48.1306 180.96 50.2458 180.935 50.9508C180.926 51.0111 180.936 51.0728 180.963 51.1271C181.14 51.3157 181.641 50.1312 181.641 50.1312L182.248 48.7951C182.615 47.9992 182.829 47.1409 182.876 46.2657C182.91 45.5588 182.823 45.06 182.535 44.7815Z" fill="#6398E5"/>
<path d="M184.997 47.9755C183.469 48.1236 182.577 50.0643 181.966 51.3916C181.343 52.7588 180.984 54.2311 180.908 55.7313C180.908 55.7401 180.916 55.7436 180.922 55.7313C180.968 55.6537 181.114 55.4175 181.343 55.0844C181.978 54.1521 182.72 53.2973 183.554 52.5373C185.142 51.1272 186.906 50.5984 186.73 49.1882C186.705 48.9047 186.622 48.6293 186.486 48.3792V48.3792C186.047 48.0859 185.525 47.9442 184.997 47.9755V47.9755Z" fill="#6398E5"/>
<path d="M185.35 48.3286C184.004 48.5701 183.256 49.8604 182.672 50.8633C181.926 52.1601 181.473 53.6038 181.343 55.0938C181.978 54.1584 182.72 53.3006 183.554 52.5379C185.142 51.1277 186.906 50.5989 186.73 49.1888C186.705 48.9053 186.622 48.6299 186.486 48.3797V48.3797C186.116 48.2821 185.728 48.2646 185.35 48.3286V48.3286Z" fill="#73A9FF"/>
<path d="M186.027 51.8314C184.405 51.9671 183.297 53.4178 182.322 54.6834C181.712 55.5029 181.181 56.3775 180.734 57.2957C180.224 58.2664 179.774 59.2671 179.386 60.2922C179.382 60.3008 179.382 60.3104 179.384 60.3193C179.387 60.3283 179.393 60.3359 179.401 60.3408C179.409 60.3458 179.418 60.3477 179.428 60.3462C179.437 60.3447 179.445 60.34 179.451 60.3328C179.804 59.9803 180.157 59.6595 180.496 59.3704C181.335 58.6517 182.242 58.0159 183.204 57.472C185.621 56.1024 187.43 55.8697 187.968 54.2992C188.084 53.9472 188.134 53.5764 188.112 53.2063C188.096 52.8978 187.984 52.602 187.791 52.3602C187.262 51.7274 186.265 51.812 186.027 51.8314Z" fill="#C6C620"/>
<path d="M186.38 52.7133C184.758 52.849 183.65 54.2997 182.675 55.5653C182.065 56.3848 181.534 57.2593 181.087 58.1775C180.866 58.5971 180.67 58.999 180.496 59.3779C181.335 58.6568 182.242 58.0186 183.204 57.4725C185.621 56.1029 187.43 55.8702 187.968 54.2997C188.084 53.9477 188.134 53.5769 188.112 53.2068C187.578 52.6128 186.613 52.6939 186.38 52.7133Z" fill="#E3ED62"/>
<path d="M167.851 58.8828C165.847 58.9057 165.683 62.498 162.911 64.8758C161.79 65.8208 160.459 66.4854 159.03 66.8148C158.365 66.9783 157.689 67.0908 157.008 67.1515C156.996 67.1533 156.985 67.159 156.977 67.1677C156.969 67.1763 156.964 67.1874 156.963 67.1991C156.962 67.2109 156.965 67.2226 156.972 67.2325C156.978 67.2424 156.988 67.2499 156.999 67.2537C158.176 67.5822 159.396 67.7313 160.618 67.6961C161.588 67.6697 164.467 67.5498 166.969 65.5809C167.777 64.9692 168.44 64.1868 168.91 63.2894C169.125 62.8629 170.191 60.7565 169.263 59.5878C169.136 59.4323 168.986 59.2973 168.818 59.1877C168.534 58.9918 168.197 58.8856 167.851 58.8828V58.8828Z" fill="#C6C620"/>
<path d="M168.561 59.7634C166.557 59.7864 166.392 63.3787 163.621 65.7565C162.499 66.7015 161.169 67.3661 159.739 67.6955C160.065 67.7096 160.358 67.7096 160.621 67.6955C161.592 67.669 164.471 67.5492 166.973 65.5803C167.781 64.9686 168.444 64.1861 168.914 63.2888C169.102 62.9151 169.941 61.26 169.528 60.0684C169.243 59.8725 168.906 59.7663 168.561 59.7634Z" fill="#E3ED62"/>
<path d="M172.397 55.2963C172.246 55.2897 172.095 55.318 171.956 55.3791C171.842 55.4261 171.741 55.4991 171.66 55.5924C170.998 56.3556 172.3 57.6177 172.272 59.4579C172.262 60.2335 172.03 61.2488 171.159 62.4386C171.156 62.4409 171.154 62.4438 171.153 62.447C171.151 62.4502 171.15 62.4536 171.15 62.4571C171.15 62.4606 171.151 62.4641 171.153 62.4673C171.154 62.4705 171.156 62.4733 171.159 62.4756C171.163 62.4788 171.168 62.4805 171.173 62.4805C171.178 62.4805 171.183 62.4788 171.187 62.4756C171.705 62.1433 172.169 61.735 172.565 61.2647C172.879 60.8892 173.8 59.7646 173.888 58.1624C173.927 57.6536 173.853 57.1426 173.671 56.6659C173.588 56.442 173.145 55.3368 172.397 55.2963Z" fill="#73A9FF"/>
<path d="M171.956 55.3791C171.842 55.4261 171.74 55.4991 171.659 55.5923C170.998 56.3556 172.3 57.6177 172.272 59.4579C172.261 60.2335 172.03 61.2488 171.158 62.4386C171.156 62.4409 171.154 62.4437 171.152 62.4469C171.151 62.4501 171.15 62.4536 171.15 62.4571C171.15 62.4606 171.151 62.464 171.152 62.4672C171.154 62.4704 171.156 62.4733 171.158 62.4756C171.609 62.094 172.003 61.6493 172.326 61.1553C172.593 60.7446 173.369 59.5196 173.268 57.9173C173.246 57.4078 173.112 56.9095 172.875 56.4578C172.792 56.2974 172.439 55.6593 171.956 55.3791Z" fill="#6398E5"/>
<path d="M174.381 67.696C172.037 68.0078 169.823 68.9524 167.976 70.4281C167.976 70.4281 168.939 70.3153 170.254 70.2025C172.419 70.0262 175.533 69.8359 176.849 70.1673C178.966 70.6961 178.79 71.0486 178.79 71.0486C178.79 71.0486 178.269 71.3007 177.565 71.6039C178.919 72.0216 178.79 72.2825 178.79 72.2825C178.79 72.2825 176.821 73.2414 175.261 73.6926C174.642 73.8689 172.237 74.5369 169.508 73.8794C168.722 73.6728 167.949 73.4197 167.193 73.1215C169.068 75.2614 170.323 75.8043 170.323 75.8043C171.916 76.4955 173.676 76.711 175.39 76.4248C176.978 76.1533 178.142 75.7197 179.381 74.6727C180.934 73.3647 182.391 71.9017 183.072 71.0715C183.349 70.7366 183.497 70.5039 183.474 70.4281C183.331 69.9575 182.922 69.6438 182.077 69.2383C180.492 68.4769 177.932 67.2465 174.381 67.696Z" fill="#6398E5"/>
<path d="M174.379 68.9299C172.941 69.1141 171.545 69.5446 170.252 70.2025C172.417 70.0262 175.531 69.8359 176.847 70.1673C178.965 70.6961 178.788 71.0486 178.788 71.0486C178.788 71.0486 178.268 71.3007 177.564 71.6039C178.917 72.0216 178.788 72.2825 178.788 72.2825C178.788 72.2825 176.819 73.2414 175.26 73.6926C174.64 73.8689 172.235 74.5369 169.506 73.8794C168.72 73.6728 167.947 73.4197 167.191 73.1215C169.067 75.2614 170.321 75.8043 170.321 75.8043C171.915 76.4955 173.675 76.711 175.388 76.4248C176.976 76.1533 178.141 75.7197 179.379 74.6727C180.932 73.3647 182.389 71.9017 183.07 71.0715C182.766 70.8292 182.432 70.6277 182.075 70.4722C180.491 69.7107 177.931 68.4804 174.379 68.9299Z" fill="#73A9FF"/>
<path d="M183.985 59.7062C182.909 59.8101 181.171 59.9776 179.449 61.3419C178.317 62.2507 177.454 63.4506 176.954 64.8126C176.984 64.7897 177.28 64.5605 177.716 64.238C178.775 63.4571 180.641 62.1228 181.532 61.8566C182.813 61.4653 182.833 61.7015 182.833 61.7015C182.833 61.7015 182.75 61.8284 182.617 62.0205C182.256 62.5615 181.858 63.0773 181.427 63.5646C180.618 64.4472 179.598 65.1101 178.462 65.4912C177.457 65.8103 176.296 65.8878 176.303 66.0465C176.303 66.0676 176.329 66.0888 176.38 66.1099C176.543 66.1752 176.698 66.2351 176.848 66.2862C178.882 67.0283 179.897 66.889 179.897 66.889C180.955 66.7461 181.949 66.2998 182.759 65.6041C183.508 64.9554 183.98 64.3578 184.299 63.4148C184.766 62.0329 185.096 60.5804 185.121 60.0657C185.121 59.9617 185.121 59.8895 185.098 59.8789C184.872 59.6868 184.558 59.6515 183.985 59.7062Z" fill="#6398E5"/>
<path d="M184.335 60.0593C183.259 60.1633 181.521 60.3307 179.799 61.695C178.932 62.3863 178.221 63.2532 177.714 64.2386C178.772 63.4577 180.639 62.1234 181.53 61.8572C182.811 61.4659 182.83 61.7021 182.83 61.7021C182.83 61.7021 182.747 61.829 182.615 62.0211C183.172 61.9207 183.183 62.0546 183.183 62.0546C182.757 62.7079 182.285 63.3305 181.772 63.9178C180.963 64.8003 179.943 65.4632 178.807 65.8444C178.054 66.0823 177.211 66.1863 176.84 66.2921C178.875 67.0342 179.889 66.8949 179.889 66.8949C180.947 66.752 181.941 66.3057 182.751 65.6099C183.501 64.9613 183.972 64.3637 184.291 63.4207C184.759 62.0387 185.089 60.5863 185.113 60.0716C184.856 60.0252 184.594 60.0211 184.335 60.0593Z" fill="#73A9FF"/>
</svg>
