<?xml version="1.0" standalone="no"?>
<!DOCTYPE svg PUBLIC "-//W3C//DTD SVG 20010904//EN"
 "http://www.w3.org/TR/2001/REC-SVG-20010904/DTD/svg10.dtd">
<svg version="1.0" xmlns="http://www.w3.org/2000/svg"
 width="1024.000000pt" height="1024.000000pt" viewBox="0 0 1024.000000 1024.000000"
 preserveAspectRatio="xMidYMid meet">
<metadata>
Created by potrace 1.14, written by Peter Selinger 2001-2017
</metadata>
<g transform="translate(0.000000,1024.000000) scale(0.100000,-0.100000)"
fill="#000000" stroke="none">
<path d="M8074 8381 c-3 -3 -9 -6 -12 -6 -6 -1 -66 -13 -97 -21 -59 -13 -245
-109 -245 -126 0 -4 -6 -8 -13 -8 -16 0 -157 -135 -157 -150 0 -5 -4 -10 -8
-10 -10 0 -69 -86 -104 -150 -126 -234 -146 -539 -52 -800 24 -67 94 -202 115
-220 3 -3 13 -16 22 -30 29 -43 140 -149 195 -187 l52 -37 -52 -21 c-29 -12
-73 -31 -98 -42 -25 -11 -66 -29 -92 -39 -27 -10 -48 -22 -48 -26 0 -5 -6 -8
-12 -8 -7 0 -65 -27 -128 -60 -63 -33 -131 -68 -150 -78 -19 -9 -37 -19 -40
-22 -3 -3 -50 -32 -105 -63 -130 -75 -319 -196 -323 -208 -2 -5 -8 -9 -13 -9
-9 0 -279 -189 -304 -213 -7 -7 -25 -21 -41 -32 -15 -11 -32 -24 -38 -30 -6
-5 -36 -29 -66 -52 -30 -23 -69 -54 -87 -70 -18 -15 -45 -38 -61 -50 -16 -12
-40 -33 -53 -45 -14 -13 -56 -50 -93 -83 -179 -157 -406 -380 -586 -575 -139
-150 -161 -173 -230 -250 l-60 -65 -192 97 c-289 145 -439 215 -703 330 -270
118 -369 158 -670 268 -88 33 -157 60 -152 61 17 4 27 7 30 9 1 1 9 3 18 5 36
7 171 76 226 116 73 52 179 161 221 225 17 27 35 54 39 59 5 6 20 35 34 65 72
151 98 274 94 447 -2 112 -7 152 -28 238 -80 324 -364 601 -681 667 -113 23
-372 11 -420 -20 -6 -4 -13 -7 -16 -7 -16 -1 -111 -42 -142 -62 -21 -12 -40
-23 -44 -23 -8 0 -77 -54 -128 -100 -54 -49 -58 -53 -86 -90 -14 -18 -33 -42
-43 -54 -17 -19 -101 -164 -102 -176 -1 -3 -13 -41 -27 -85 -28 -84 -34 -111
-43 -185 -7 -57 -7 -204 0 -250 4 -19 8 -48 10 -65 2 -16 13 -56 24 -87 11
-32 18 -58 16 -58 -8 0 103 -206 126 -234 13 -15 39 -45 57 -66 17 -20 32 -40
32 -43 0 -3 -15 -2 -32 3 -18 5 -55 12 -83 15 -27 4 -61 9 -75 11 -14 2 -45 6
-70 9 -25 3 -61 7 -80 10 -139 20 -527 20 -660 0 -14 -2 -43 -6 -65 -10 -44
-6 -44 -6 -150 -29 -85 -18 -266 -82 -353 -125 -34 -17 -64 -31 -66 -31 -2 0
-43 -24 -92 -53 -116 -70 -245 -163 -237 -171 3 -3 2 -6 -4 -6 -24 0 -178
-154 -238 -236 -11 -15 -29 -39 -41 -53 -31 -39 -105 -166 -143 -246 -36 -75
-103 -265 -94 -265 3 0 0 -7 -7 -15 -7 -8 -10 -15 -6 -15 3 0 1 -12 -4 -26 -6
-14 -12 -44 -15 -67 -2 -23 -9 -67 -14 -97 -5 -30 -8 -138 -6 -240 3 -178 14
-266 47 -375 6 -22 13 -43 14 -47 1 -5 3 -10 4 -13 3 -6 5 -12 15 -43 29 -88
134 -268 216 -367 60 -73 253 -259 332 -320 124 -95 123 -95 72 -16 -64 99
-156 287 -170 351 -2 8 -13 45 -23 81 -11 37 -22 84 -26 105 -3 22 -8 50 -11
64 -7 32 -8 245 -1 285 3 17 8 44 11 60 8 44 57 199 65 205 4 3 11 16 15 30 9
30 74 134 86 138 5 2 9 9 9 17 0 37 303 295 347 295 7 0 13 4 13 8 0 8 66 41
210 105 48 21 137 52 192 66 4 1 22 7 40 12 18 5 49 12 68 15 19 3 41 7 48 9
63 22 434 22 562 1 14 -3 45 -7 70 -10 25 -3 56 -8 70 -11 14 -3 52 -10 85
-16 33 -6 69 -13 80 -15 20 -4 243 -51 280 -59 11 -3 31 -7 45 -11 14 -3 34
-7 45 -9 19 -3 271 -68 388 -99 31 -9 83 -23 115 -31 31 -9 95 -27 142 -41 46
-14 91 -28 100 -29 46 -11 534 -176 575 -195 11 -6 51 -21 90 -36 38 -14 87
-33 110 -43 22 -10 66 -28 98 -41 57 -22 57 -23 40 -43 -87 -101 -342 -358
-448 -452 -43 -38 -90 -81 -104 -94 -48 -43 -225 -177 -301 -227 -41 -27 -76
-52 -78 -56 -2 -5 -7 -8 -11 -8 -4 0 -58 -29 -121 -65 -63 -36 -118 -65 -124
-65 -5 0 -17 -7 -27 -16 -9 -8 -23 -17 -31 -18 -7 -1 -44 -17 -83 -35 -185
-86 -460 -181 -620 -215 -206 -45 -263 -51 -460 -51 -183 0 -243 7 -372 41
-126 33 -194 63 -353 155 -13 8 -29 19 -35 25 -5 5 -28 23 -50 39 -116 85
-193 166 -348 365 -7 8 -18 28 -26 43 -8 15 -18 27 -23 27 -4 0 -8 7 -8 15 0
8 -5 15 -10 15 -6 0 -9 3 -8 8 3 8 -63 125 -68 120 -6 -7 55 -234 76 -283 5
-11 21 -51 36 -90 30 -78 115 -254 144 -300 11 -16 23 -37 27 -45 11 -25 66
-105 75 -108 4 -2 8 -8 8 -13 0 -40 292 -352 415 -444 22 -17 42 -32 45 -35
22 -24 132 -92 224 -139 95 -49 256 -110 306 -117 8 -1 25 -5 37 -8 114 -30
216 -38 443 -33 124 2 245 7 270 11 25 4 56 9 70 11 14 2 25 4 25 5 0 2 36 9
65 13 14 2 31 7 38 11 7 4 12 5 12 2 0 -2 15 0 33 5 17 5 44 11 58 14 23 4
135 36 179 51 8 3 17 6 20 6 42 7 362 129 381 145 8 7 21 13 27 13 29 0 286
148 405 232 37 26 71 48 76 48 5 0 11 4 13 8 2 5 32 30 68 56 36 27 67 51 70
55 3 4 21 18 40 31 19 13 44 33 55 44 11 12 40 37 65 56 24 19 59 49 76 65 17
17 58 53 90 82 105 91 358 330 505 476 43 42 85 77 93 77 13 0 168 -82 194
-102 6 -6 12 -7 12 -4 0 4 12 -1 28 -12 15 -10 47 -29 72 -41 412 -211 513
-261 525 -261 8 0 15 -4 15 -10 0 -5 8 -10 18 -10 10 0 22 -4 28 -8 17 -15
279 -109 354 -128 8 -2 50 -13 93 -24 145 -38 349 -77 497 -95 19 -2 55 -7 80
-10 211 -26 666 -26 822 0 13 2 41 7 63 10 22 4 51 8 65 10 14 3 52 11 85 20
33 8 71 18 84 21 40 8 211 74 248 95 18 10 40 19 47 19 8 0 16 3 18 8 2 4 28
19 58 35 74 37 114 60 118 70 2 4 8 7 13 7 6 0 54 32 107 72 91 67 241 209
306 288 137 169 261 420 315 635 20 78 24 100 36 179 4 21 9 48 11 60 10 43
12 383 3 456 -6 41 -10 85 -11 98 -1 36 -16 25 -29 -20 -7 -24 -16 -47 -19
-53 -4 -5 -24 -59 -45 -120 -50 -147 -182 -418 -227 -469 -10 -11 -18 -23 -18
-28 0 -5 -23 -41 -52 -81 -65 -90 -177 -203 -243 -244 -50 -32 -174 -93 -197
-97 -7 -2 -24 -8 -38 -14 -26 -11 -172 -48 -225 -56 -16 -2 -30 -5 -30 -6 0
-1 -13 -3 -30 -4 -16 -2 -57 -6 -90 -10 -130 -14 -187 -17 -375 -17 -353 1
-539 14 -745 55 -89 18 -413 121 -429 137 -6 5 -16 9 -24 9 -16 0 -180 70
-312 133 -47 22 -87 41 -90 41 -8 2 -289 150 -333 176 l-38 22 33 33 c18 17
103 106 188 195 261 276 454 465 585 575 39 32 72 62 73 67 2 4 10 8 17 8 7 0
15 4 17 8 13 32 553 392 587 392 5 0 11 3 13 8 2 4 57 34 123 67 66 33 123 64
126 68 3 5 8 8 10 7 5 -2 41 12 99 38 105 46 172 72 189 72 10 0 21 3 25 7 3
4 12 8 19 9 7 1 32 9 57 17 42 14 119 34 165 43 11 2 31 6 45 9 97 20 367 27
455 12 42 -8 52 -9 145 -28 30 -6 69 -13 85 -16 17 -3 36 -10 43 -15 6 -6 12
-8 12 -5 0 7 120 -34 185 -64 28 -12 52 -23 55 -23 24 -5 147 -84 218 -141 49
-40 162 -161 162 -174 0 -4 9 -16 20 -26 11 -10 20 -22 20 -27 0 -5 11 -25 23
-46 35 -55 84 -183 104 -270 27 -118 24 -395 -5 -522 -29 -127 -30 -129 -37
-140 -3 -6 -3 -10 0 -10 8 0 26 20 42 45 7 11 31 51 55 90 24 38 42 73 41 77
-2 5 2 8 7 8 6 0 10 4 10 9 0 5 15 42 34 83 41 91 50 110 51 123 1 6 11 39 23
75 12 36 23 76 26 90 2 14 9 48 16 75 20 90 25 148 25 330 0 160 -5 243 -20
309 -3 12 -7 32 -9 46 -81 429 -337 761 -741 959 -100 49 -286 121 -353 136
-72 17 -263 55 -269 54 -41 -7 -42 11 -3 51 48 50 108 135 148 212 72 139 103
264 107 425 2 122 -6 186 -37 298 -6 22 -12 45 -14 51 -5 29 -77 170 -114 223
-22 33 -68 89 -103 124 -65 67 -182 157 -204 157 -7 0 -13 5 -13 10 0 6 -3 9
-7 8 -5 -1 -28 8 -53 19 -59 27 -132 50 -200 62 -58 10 -266 12 -276 2z"/>
</g>
</svg>
