<svg width="75" height="78" viewBox="0 0 75 78" fill="none" xmlns="http://www.w3.org/2000/svg">
<path d="M64.7547 74.8472C64.7547 74.2205 64.7547 73.4911 64.7903 72.6719C64.9324 69.7286 65.5212 66.8262 66.5361 64.0661C69.3356 56.5426 73.5068 55.3009 74.68 48.4268C74.9168 46.9651 75.0224 45.4843 74.9956 44.0026C74.96 40.5506 74.3415 37.6 73.9191 37.578C73.802 37.5776 73.7078 37.7905 73.6646 37.8905C73.3007 38.6957 72.1376 39.7936 69.8471 41.9869C67.7348 44.001 66.2486 44.7331 63.9937 46.59C61.1943 48.8921 58.6951 50.9511 57.2216 54.2875C55.407 58.3907 56.0585 62.3739 56.3588 63.7721C57.8782 70.8891 63.7876 74.3071 64.7547 74.8472Z" fill="#73A9FF"/>
<path d="M64.7898 72.6639C64.932 69.7206 65.5207 66.8182 66.5357 64.0581C69.3351 56.5346 73.5063 55.2929 74.6796 48.4188C74.9163 46.9571 75.0219 45.4763 74.9951 43.9946L74.9341 44.0534C72.8217 46.0676 71.3355 46.7996 69.0806 48.6566C66.2812 50.9586 63.782 53.0176 62.3085 56.3541C60.4939 60.4573 61.1455 64.4404 61.4458 65.8387C61.9929 68.3531 63.1409 70.6964 64.7898 72.6639Z" fill="#6398E5"/>
<path d="M54.066 61.1975C53.9625 59.6899 54.0402 58.1757 54.2976 56.6882C54.5362 55.3107 54.9726 53.9763 55.593 52.7271C57.12 49.6682 59.838 47.0783 61.7009 45.2996C63.5638 43.5209 66.376 41.1368 66.5363 38.8951C66.5549 38.667 66.5549 38.4376 66.5363 38.2094C66.5118 37.7107 66.3339 37.2316 66.0273 36.8387C65.6896 36.4575 65.2461 36.1875 64.7549 36.0639C62.8512 35.4744 60.9374 36.6236 60.1739 37.0756C59.6282 37.407 59.1167 37.7924 58.647 38.2262C57.12 39.5591 54.9746 42.2178 53.557 48.0971C51.5211 56.5658 54.066 61.1975 54.066 61.1975Z" fill="#E3ED62"/>
<path d="M54.2971 56.6889C54.5357 55.3113 54.972 53.9769 55.5925 52.7277C57.1195 49.6689 59.8375 47.0789 61.7004 45.3002C63.5633 43.5216 66.3755 41.1374 66.5358 38.8958C66.5543 38.6676 66.5543 38.4383 66.5358 38.21C66.4417 38.1763 66.3551 38.1478 66.2813 38.1244C64.3777 37.5349 62.4639 38.6842 61.7004 39.1362C61.1547 39.4675 60.6432 39.853 60.1734 40.2867C58.6464 41.6197 56.501 44.2783 55.0835 50.1576C54.5524 52.2922 54.2882 54.4863 54.2971 56.6889Z" fill="#C6C620"/>
<path d="M48.6117 46.1063C50.0979 41.6553 50.2481 41.1524 50.2481 41.1524C51.3246 37.5398 51.8616 35.736 51.7751 33.2727C51.7547 32.7076 51.7318 32.1527 51.6733 31.6029C51.5749 30.3418 51.1711 29.1233 50.4975 28.0546C48.9069 25.581 46.1914 24.5701 45.1531 24.1839C44.2359 23.868 43.3011 23.6075 42.3536 23.4038C41.7683 23.2632 40.9437 23.1422 39.2996 22.908C39.2767 22.908 39.2539 22.9079 39.2309 22.9078C38.6863 22.8315 38.6125 22.8235 38.526 22.8874C37.6582 23.5163 39.7323 28.0282 41.3254 30.8589C42.2009 32.4157 42.2315 32.2206 42.8524 33.4324C43.8781 35.4715 44.6476 37.6311 45.1429 39.8611C45.7079 42.3364 45.6213 43.3737 45.8351 43.3795C46.2194 43.3808 46.904 39.9775 46.5986 36.1291C46.5553 35.5819 46.4943 35.0269 46.4077 34.4718C45.9624 31.5938 45.1174 30.2143 44.8807 29.8436C44.1351 28.6802 43.2545 27.8887 43.3538 27.7837C43.453 27.6788 44.5092 28.3938 45.3897 29.3573C45.7921 29.8052 46.143 30.2975 46.4357 30.8249L46.4052 30.6193C45.9598 27.7412 45.1149 26.3617 44.8782 25.9911C44.1325 24.8276 43.252 24.0361 43.3512 23.9312C43.4505 23.8262 44.5067 24.5412 45.3872 25.5048C46.2041 26.3962 46.5655 27.2758 46.9142 27.7958C47.8813 29.2451 48.034 30.8431 48.1867 32.4232C48.1867 32.5593 48.2045 33.0705 48.2401 33.8154C48.2655 34.378 48.2579 37.1004 48.2401 37.668C48.2172 38.4384 48.1001 39.0262 48.0187 39.8735C47.9754 40.2997 47.9423 40.7927 47.9322 41.4142C47.9087 42.9879 48.0495 44.5603 48.3521 46.1054C48.3521 46.1402 48.3658 46.1735 48.3901 46.1982C48.4144 46.2228 48.4475 46.2367 48.4819 46.2369C48.5163 46.237 48.5493 46.2233 48.5737 46.1988C48.598 46.1743 48.6117 46.141 48.6117 46.1063Z" fill="#6398E5"/>
<path d="M48.6126 42.2539C50.0988 37.8029 50.249 37.3 50.249 37.3C50.9896 34.8112 51.4757 33.1819 51.6793 31.6031C51.5809 30.3419 51.1772 29.1235 50.5035 28.0547C48.9129 25.5811 46.1974 24.5702 45.1591 24.184C44.2419 23.8681 43.3071 23.6077 42.3596 23.404C41.7743 23.2633 40.9497 23.1424 39.3057 22.9082C39.9125 24.306 40.5921 25.6705 41.3416 26.9963C42.2171 28.5531 42.2476 28.358 42.8686 29.5698C43.8943 31.6089 44.6637 33.7685 45.1591 35.9985C45.7241 38.4737 45.6375 39.5111 45.8513 39.5169C46.0651 39.5228 46.4646 38.1321 46.6148 36.119C46.5715 35.5718 46.5104 35.0168 46.4239 34.4618C45.9785 31.5837 45.1336 30.2042 44.8969 29.8335C44.1513 28.6701 43.2707 27.8786 43.37 27.7737C43.4692 27.6687 44.5254 28.3837 45.4059 29.3473C45.8083 29.7952 46.1592 30.2875 46.4519 30.8148L46.4214 30.6092C45.976 27.7311 45.1311 26.3516 44.8944 25.981C44.1487 24.8175 43.2682 24.0261 43.3674 23.9211C43.4667 23.8161 44.5228 24.5312 45.4034 25.4947C46.2203 26.3862 46.5817 27.2658 46.9304 27.7858C47.8975 29.235 48.0502 30.8331 48.2029 32.4131C48.3301 33.7465 48.1596 38.5771 48.0349 39.8608C48.1037 40.6567 48.215 41.4484 48.3683 42.2325C48.3656 42.2652 48.3758 42.2977 48.3968 42.3228C48.4178 42.3479 48.4478 42.3636 48.4802 42.3665C48.5126 42.3693 48.5448 42.359 48.5696 42.3379C48.5944 42.3168 48.6099 42.2866 48.6126 42.2539Z" fill="#73A9FF"/>
<path d="M61.7749 76.9409C61.7953 76.9717 61.7596 77.0127 61.7291 76.9869C59.3181 74.9123 57.1714 72.5437 55.3387 69.9356C53.9537 67.9845 52.7604 65.9022 51.7757 63.7183C49.8359 59.279 48.8804 54.4684 48.9763 49.6239C49.0068 48.6943 49.386 40.1224 54.5752 32.4349C55.5932 30.941 56.6341 29.6912 58.6471 26.5415C61.383 22.2642 62.4391 19.8921 62.9736 18.5943C63.1085 18.2686 64.3835 15.1318 64.7551 12.4363C64.8885 11.4851 64.9658 10.5265 64.9866 9.56568C64.9866 9.05201 64.9866 8.02466 64.9866 8.02466C64.9866 8.02466 67.0455 10.6463 65.5185 16.8051C63.9916 22.964 56.2549 32.6333 54.6516 35.8691C54.0967 36.9896 49.9612 45.9108 51.0123 55.2812C51.2758 58.0269 51.9627 60.7157 53.0482 63.2501C53.5241 64.3458 54.1069 65.4702 56.8657 69.684C58.0618 71.5116 59.7211 73.9982 61.7749 76.9409Z" fill="#73A9FF"/>
<path d="M66.6184 11.5433C66.6127 11.5536 66.6038 11.5618 66.5931 11.5668C66.5824 11.5717 66.5705 11.5732 66.5589 11.5708C66.5473 11.5685 66.5368 11.5626 66.5287 11.5539C66.5207 11.5452 66.5156 11.5342 66.5141 11.5224C66.4046 10.7515 66.1552 8.5624 66.7915 7.31634C66.8596 7.14216 66.9625 6.98409 67.0938 6.85198C67.2252 6.71987 67.3821 6.61655 67.555 6.54843C67.7321 6.49861 67.9192 6.49642 68.0978 6.54208C68.2764 6.58774 68.4402 6.67966 68.573 6.80873C69.0514 7.32402 68.6951 8.27824 68.573 8.60658C68.3643 9.1632 68.1123 9.37552 67.555 10.1441C67.2114 10.6001 66.9009 11.0691 66.6184 11.5433Z" fill="#6398E5"/>
<path d="M52.8141 46.0176C53.6463 42.6508 54.8144 40.4793 56.0233 39.0529C56.6892 38.2544 57.4916 37.5831 58.3927 37.0704C59.6193 36.3837 60.6831 36.2127 62.9736 34.7745C62.9736 34.7745 67.2059 32.1229 67.3 29.9093C67.3063 29.7556 67.2978 29.6016 67.2746 29.4495C67.2402 29.1783 67.1538 28.9162 67.0201 28.6781C66.7834 28.3495 66.4621 28.0926 66.0912 27.9353C65.3277 27.6116 63.2917 27.597 60.6908 29.3706C57.2678 31.6962 55.7612 35.1326 54.8374 37.3126C53.6758 40.0739 52.9874 43.0155 52.8014 46.0124C52.7785 46.0329 52.809 46.0381 52.8141 46.0176Z" fill="#73A9FF"/>
<path d="M56.0234 39.0535C56.6894 38.2551 57.4918 37.5837 58.3928 37.0711C59.6195 36.3844 60.6833 36.2134 62.9737 34.7752C62.9737 34.7752 67.206 32.1236 67.3002 29.91C67.3065 29.7563 67.2979 29.6023 67.2747 29.4502C66.4654 29.1623 64.4753 29.2069 61.9557 30.9192C58.5328 33.2447 57.0262 36.6812 56.1023 38.8612L56.0234 39.0535Z" fill="#6398E5"/>
<path d="M60.7289 28.5639C61.8405 27.6487 63.1228 26.9676 64.5006 26.5605C65.3888 26.3067 65.8748 26.3084 67.1575 25.9249C67.7937 25.7344 69.1935 25.318 70.0995 24.7817C72.7411 23.224 73.6904 19.2257 73.4079 16.3174C73.2094 14.2748 72.3747 12.4485 72.2042 12.4864C72.1609 12.4863 72.1609 12.5839 72.1685 12.7431C72.2034 13.1644 72.1923 13.5881 72.1354 14.0067C71.8428 15.8985 70.354 17.2059 69.336 18.1065C68.7557 18.6182 68.7379 18.5334 67.753 19.3648C67.753 19.3648 66.735 20.3193 65.773 21.1764C64.8899 21.9722 63.7091 23.3397 62.2101 25.8644C61.7418 26.6333 61.2456 27.5357 60.7187 28.5536L60.7289 28.5639Z" fill="#6398E5"/>
<path d="M62.2031 25.8597C62.6939 25.6196 63.2049 25.4236 63.7301 25.2742C64.6183 25.0204 65.1044 25.022 66.387 24.6386C67.0233 24.4481 68.423 24.0317 69.329 23.4954C71.9707 21.9377 72.92 17.9394 72.6375 15.031C72.5581 14.2525 72.3986 13.4842 72.1616 12.7384C72.1965 13.1597 72.1854 13.5834 72.1285 14.002C71.8358 15.8939 70.347 17.2012 69.329 18.1018C68.7488 18.6135 68.731 18.5287 67.7461 19.3601C67.7461 19.3601 66.7281 20.3146 65.7661 21.1717C64.883 21.9675 63.7097 23.3479 62.2031 25.8597Z" fill="#73A9FF"/>
<path d="M65.424 19.8038C65.4128 19.8084 65.4003 19.8095 65.3884 19.8069C65.3765 19.8043 65.3655 19.7982 65.3571 19.7894C65.3486 19.7805 65.3429 19.7693 65.3408 19.7571C65.3387 19.745 65.3402 19.7325 65.3452 19.7213C66.1762 18.0549 66.8313 16.3044 67.2997 14.4988C67.8087 12.4869 68.0097 10.7283 69.0812 10.3954C69.2981 10.3324 69.527 10.3232 69.7486 10.3686C69.9702 10.4141 70.1777 10.5129 70.3536 10.6566C71.5065 11.6545 70.2264 14.7193 70.0991 15.022C69.0379 17.561 66.9001 19.028 65.424 19.8038Z" fill="#73A9FF"/>
<path d="M51.6888 20.9651C51.6729 21.0217 51.6421 21.0884 51.6124 21.1656C51.3952 21.7032 50.9072 22.7037 49.935 22.9095C48.882 23.1308 47.9779 22.2681 47.7404 22.016L47.685 21.9551C46.9773 21.1388 46.9518 20.1741 46.9082 18.261C46.8872 17.0903 46.9792 15.9203 47.1829 14.7678C47.3322 13.8955 47.54 13.0346 47.8048 12.1911C48.1595 12.3976 48.4979 12.6316 48.8171 12.8909C51.2137 14.845 51.7157 17.6372 51.8183 18.3486C51.9392 19.1673 52.059 20.0041 51.6888 20.9651Z" fill="#73A9FF"/>
<path d="M49.7572 9.18015C50.0373 5.97629 51.1773 4.11633 51.8249 3.24342C52.9063 1.79325 53.6461 1.72668 53.9098 1.74142C54.2144 1.75726 54.5106 1.84775 54.7731 2.00514C55.0355 2.16253 55.2564 2.38211 55.4168 2.64504C55.9062 3.44948 55.5772 4.3713 55.3932 4.88376C55.2797 5.20219 54.9224 6.08116 53.5335 7.20594C52.4136 8.10704 51.1308 8.77768 49.7572 9.18015Z" fill="#73A9FF"/>
<path d="M58.3251 12.5171C58.2309 12.5852 58.1312 12.6453 58.0271 12.6966C57.8833 12.7676 57.7326 12.8234 57.5775 12.8631C55.7931 13.3513 53.3992 12.6801 53.3992 12.6801C52.0014 12.27 50.6854 11.6145 49.5112 10.7435C50.729 10.07 52.0244 9.5518 53.3678 9.20071C54.6259 8.87314 56.0077 8.51384 57.1461 8.65602C57.6775 8.70408 58.1806 8.92041 58.584 9.27438C58.7009 9.38157 59.3791 10.0301 59.3313 10.9186C59.2836 11.8072 58.507 12.3857 58.3251 12.5171Z" fill="#73A9FF"/>
<path d="M46.9122 11.4231C47.5297 11.601 48.1727 11.2378 48.3482 10.612C48.5237 9.98608 48.1654 9.33448 47.5478 9.15658C46.9303 8.97869 46.2874 9.34185 46.1119 9.96774C45.9363 10.5936 46.2947 11.2452 46.9122 11.4231Z" fill="#E3ED62"/>
<path d="M48.2386 8.13068C48.775 7.4319 49.7319 5.99485 49.963 4.13642C50.0558 3.28539 49.9526 2.42413 49.6616 1.62034C49.5513 1.3006 49.3488 1.0218 49.0803 0.820084C48.806 0.632006 48.4795 0.537934 48.1485 0.551658C47.7708 0.577047 47.4132 0.733561 47.136 0.994861C46.7687 1.34238 46.5265 1.80426 46.4477 2.30721C46.2425 3.26878 46.5449 4.11528 46.8773 5.08473C46.9911 5.39718 47.1133 5.67941 47.3579 6.24386C47.706 7.04229 48.0185 7.68757 48.2386 8.13068Z" fill="#73A9FF"/>
<path d="M45.923 8.4845C46.0831 7.03402 45.8702 5.56623 45.3051 4.22377C44.9352 3.38842 44.3353 1.9867 43.1728 1.77227C42.732 1.69349 42.2779 1.78044 41.8958 2.0168C41.2098 2.4663 41.1154 3.28422 41.0993 3.42045C41.0165 4.13964 41.348 4.68833 41.6886 5.2478C42.278 6.20556 43.0015 6.74265 43.6592 7.21996C44.3626 7.72949 45.1223 8.15389 45.923 8.4845Z" fill="#73A9FF"/>
<path d="M45.7484 12.1047C45.5541 12.3162 45.2349 12.657 44.8398 13.0678C42.3914 15.6287 41.8364 15.8771 41.0929 17.0918C40.693 17.7565 39.6622 19.4641 40.3258 20.5453C40.563 20.9007 40.925 21.1511 41.338 21.2452C42.7981 21.5331 44.2304 19.3777 44.6611 18.7322C45.2992 17.7704 45.7264 16.6812 45.9139 15.538C46.1015 14.3947 46.045 13.224 45.7484 12.1047Z" fill="#73A9FF"/>
<path d="M43.9557 9.75481C43.361 8.65338 42.6168 7.64192 41.7449 6.74996C40.8671 5.85813 40.311 5.55708 39.7185 5.47213C39.4649 5.43581 38.7502 5.33404 38.2348 5.80002C38.0187 6.00083 37.8684 6.2638 37.8039 6.55368C37.723 7.00051 37.809 7.46187 38.0452 7.848C38.7849 9.19612 40.8728 9.47912 42.1725 9.6494C42.7636 9.72824 43.3596 9.76346 43.9557 9.75481Z" fill="#73A9FF"/>
<path d="M43.9218 11.2765C43.193 10.9379 40.833 9.95184 38.4885 10.9361C37.9073 11.1769 36.8096 11.6364 36.362 12.7731C36.3344 12.8713 35.8297 14.1753 36.5247 15.0655C37.2653 16.0158 38.7986 15.7553 39.3172 15.6658C41.0311 15.3716 42.0812 14.1124 42.5903 13.5467C43.1749 12.8985 43.9218 11.2765 43.9218 11.2765Z" fill="#73A9FF"/>
<path d="M50.3112 12.4026C51.243 12.671 55.865 14.0229 57.0578 16.1834C57.2717 16.5696 57.7178 17.3778 57.3918 17.9943C57.1327 18.4872 56.5112 18.6062 56.4075 18.6314C55.7105 18.7899 54.9552 18.4376 54.1877 17.8062C53.0421 16.8638 51.5493 15.0048 50.9628 14.2234C50.5203 13.5953 50.1238 12.9352 49.7764 12.2485L50.3112 12.4026Z" fill="#73A9FF"/>
<path d="M37.1891 60.4757C36.922 60.0412 36.6111 59.5355 36.2373 58.9831C34.8846 57.0045 33.2412 55.2493 31.3644 53.7787C26.2259 49.7846 22.8189 50.7443 19.0792 46.4905C18.2928 45.5805 17.5887 44.6 16.9756 43.561C15.5286 41.1521 14.6975 38.8366 14.9796 38.637C15.0602 38.5856 15.2159 38.6921 15.2884 38.7425C15.8827 39.1419 17.1531 39.3955 19.6682 39.9164C21.9841 40.3908 23.3215 40.2496 25.6687 40.5529C28.5813 40.927 31.1832 41.2637 33.6221 42.9337C36.623 44.9865 37.8715 48.0324 38.2603 49.1328C40.246 54.7302 37.6261 59.6791 37.1891 60.4757Z" fill="#73A9FF"/>
<path d="M36.234 58.9778C34.8813 56.9992 33.2379 55.244 31.3611 53.7734C26.2227 49.7792 22.8157 50.7389 19.076 46.4852C18.2895 45.5751 17.5855 44.5946 16.9723 43.5556L17.0395 43.5698C19.3554 44.0442 20.6928 43.903 23.04 44.2063C25.9527 44.5804 28.5545 44.9171 30.9934 46.5871C33.9944 48.6399 35.2428 51.6858 35.6317 52.7862C36.3261 54.7683 36.5329 56.894 36.234 58.9778Z" fill="#6398E5"/>
<path d="M38.7449 46.3479C38.1736 45.2575 37.4746 44.2417 36.6629 43.3227C35.9111 42.4718 35.0412 41.7371 34.0806 41.1419C31.7233 39.6876 28.7441 39.0783 26.7006 38.6583C24.6572 38.2382 21.7008 37.8127 20.6346 36.3286C20.5246 36.1785 20.4268 36.0195 20.3423 35.8531C20.1466 35.4967 20.0651 35.0869 20.1091 34.6807C20.1797 34.269 20.3705 33.8882 20.6567 33.5881C21.7188 32.3486 23.529 32.31 24.2484 32.2901C24.7661 32.2817 25.2833 32.3257 25.7923 32.4214C27.414 32.679 30.0274 33.5859 33.5116 37.0433C38.5262 42.026 38.7449 46.3479 38.7449 46.3479Z" fill="#E3ED62"/>
<path d="M36.6625 43.3226C35.9107 42.4717 35.0408 41.737 34.0802 41.1417C31.7229 39.6875 28.7437 39.0782 26.7002 38.6581C24.6568 38.2381 21.7004 37.8126 20.6342 36.3284C20.5242 36.1784 20.4264 36.0194 20.3419 35.853C20.3925 35.7885 20.44 35.731 20.481 35.6826C21.543 34.443 23.3532 34.4045 24.0726 34.3846C24.5904 34.3762 25.1075 34.4201 25.6165 34.5158C27.2382 34.7735 29.8516 35.6803 33.3358 39.1377C34.6121 40.3858 35.7297 41.7917 36.6625 43.3226Z" fill="#C6C620"/>
<path d="M36.075 33.503C33.1523 31.0658 32.8343 30.7827 32.8343 30.7827C30.5517 28.7479 29.4123 27.7318 28.4219 25.9862C28.1951 25.5855 27.9744 25.1908 27.7804 24.7841C27.3106 23.8668 27.0698 22.8458 27.0789 21.8108C27.1219 19.4016 28.5643 17.5156 29.1161 16.7946C29.6141 16.1753 30.148 15.5867 30.7149 15.0319C31.0587 14.6789 31.5761 14.2352 32.6105 13.3552C32.6262 13.3452 32.642 13.3351 32.6578 13.3251C33.0009 13.0344 33.0485 12.9967 33.1354 13.0033C34.0022 13.0605 34.4946 17.0939 34.6021 19.7517C34.6618 21.2132 34.5576 21.0913 34.6457 22.2024C34.8073 24.0638 35.1971 25.8969 35.8059 27.6592C36.4713 29.6219 36.9732 30.3033 36.8282 30.4006C36.5636 30.5693 34.6406 28.5086 33.2108 25.7071C33.0074 25.3089 32.8129 24.8975 32.636 24.4749C31.7164 22.2851 31.7113 20.9599 31.7165 20.5996C31.735 19.4676 32.0051 18.5345 31.8919 18.505C31.7787 18.4756 31.3549 19.4323 31.1581 20.4847C31.0714 20.9708 31.0392 21.4653 31.0621 21.9586L30.9955 21.8028C30.0759 19.613 30.0707 18.2878 30.076 17.9276C30.0945 16.7955 30.3646 15.8624 30.2514 15.833C30.1382 15.8035 29.7143 16.7602 29.5176 17.8126C29.334 18.7872 29.4596 19.5547 29.4408 20.0674C29.3914 21.4943 29.9672 22.6689 30.5354 23.831C30.5934 23.9254 30.7991 24.2875 31.092 24.8195C31.3143 25.2207 32.4801 27.1048 32.7343 27.4905C33.0785 28.0147 33.4098 28.3711 33.8272 28.9229C34.0387 29.1995 34.2717 29.5269 34.5437 29.9533C35.2307 31.0342 35.8039 32.1858 36.2537 33.3891C36.2685 33.4132 36.2733 33.4423 36.267 33.47C36.2608 33.4977 36.2439 33.5217 36.2202 33.5368C36.1965 33.5519 36.1679 33.5569 36.1407 33.5505C36.1134 33.5442 36.0898 33.5271 36.075 33.503Z" fill="#6398E5"/>
<path d="M34.4332 30.8325C31.5105 28.3953 31.1925 28.1121 31.1925 28.1121C29.6207 26.7099 28.5908 25.7925 27.7773 24.7867C27.3076 23.8695 27.0667 22.8485 27.0759 21.8135C27.1188 19.4043 28.5613 17.5182 29.113 16.7973C29.6111 16.178 30.145 15.5894 30.7119 15.0346C31.0557 14.6816 31.573 14.2378 32.6074 13.3579C32.7846 14.5918 32.8974 15.8345 32.9455 17.0808C33.0051 18.5423 32.9009 18.4203 32.989 19.5315C33.1507 21.3929 33.5404 23.226 34.1493 24.9882C34.8146 26.9509 35.3165 27.6323 35.1715 27.7297C35.0266 27.8271 34.1581 27.0373 33.1964 25.7072C32.9929 25.3089 32.7985 24.8975 32.6216 24.4749C31.702 22.2851 31.6968 20.9599 31.7021 20.5997C31.7206 19.4676 31.9907 18.5345 31.8775 18.5051C31.7643 18.4756 31.3404 19.4323 31.1437 20.4847C31.057 20.9708 31.0248 21.4653 31.0476 21.9587L30.9811 21.8028C30.0615 19.613 30.0563 18.2878 30.0616 17.9276C30.0801 16.7955 30.3502 15.8624 30.237 15.833C30.1238 15.8035 29.6999 16.7602 29.5032 17.8126C29.3196 18.7872 29.4452 19.5548 29.4263 20.0675C29.3769 21.4943 29.9528 22.6689 30.521 23.831C31.0016 24.811 33.1784 28.0856 33.8117 28.9212C34.1035 29.503 34.3642 30.1005 34.5927 30.711C34.6085 30.7325 34.6152 30.7595 34.6115 30.7861C34.6077 30.8126 34.5937 30.8366 34.5725 30.8527C34.5514 30.8688 34.5248 30.8758 34.4987 30.872C34.4726 30.8682 34.449 30.8539 34.4332 30.8325Z" fill="#73A9FF"/>
<path d="M40.1397 60.6261C40.1388 60.6564 40.1808 60.6693 40.1909 60.638C40.9699 58.1474 41.4412 55.5683 41.5938 52.9602C41.7176 51.003 41.6532 49.0385 41.4016 47.0946C40.8475 43.1701 39.456 39.4179 37.3248 36.1011C36.9074 35.4699 32.9918 29.6925 26.1348 26.6277C24.7957 26.0363 23.5448 25.6241 20.8134 24.3191C17.1026 22.5478 15.3628 21.3641 14.4408 20.6977C14.2089 20.5307 11.9922 18.9125 10.5868 17.2059C10.0893 16.6046 9.62729 15.9738 9.20331 15.3167C8.98434 14.9606 8.54641 14.2483 8.54641 14.2483C8.54641 14.2483 8.24352 16.9645 11.9224 20.568C15.6012 24.1715 25.0606 27.4983 27.546 29.0419C28.4064 29.5766 35.0625 33.9567 38.3318 40.9119C39.3204 42.9305 39.9926 45.0945 40.3241 47.3254C40.4629 48.2928 40.5401 49.3267 40.4331 53.4522C40.3869 55.2413 40.3022 57.6896 40.1397 60.6261Z" fill="#73A9FF"/>
<path d="M8.92009 17.3999C8.92847 17.4045 8.9381 17.4064 8.94758 17.4051C8.95706 17.4039 8.96592 17.3996 8.9729 17.393C8.97989 17.3864 8.98464 17.3776 8.98648 17.3681C8.98832 17.3585 8.98717 17.3487 8.98317 17.3398C8.73006 16.7576 7.96896 15.1311 6.99885 14.5449C6.87763 14.4538 6.73925 14.3892 6.59232 14.3549C6.44539 14.3206 6.29304 14.3175 6.14477 14.3457C6.00132 14.3885 5.87129 14.4687 5.76756 14.5782C5.66384 14.6878 5.59002 14.8231 5.55343 14.9705C5.443 15.5366 6.09557 16.0426 6.31981 16.2169C6.70106 16.5118 6.96539 16.549 7.67754 16.8386C8.10896 17.0048 8.52306 17.1944 8.92009 17.3999Z" fill="#6398E5"/>
<path d="M33.1384 35.276C31.129 33.305 29.3975 32.3094 27.9554 31.8481C27.1557 31.5852 26.3159 31.47 25.4758 31.5078C24.3367 31.5671 23.5299 31.9129 21.3367 31.9155C21.3367 31.9155 17.2865 31.9244 16.2779 30.4308C16.2081 30.327 16.1483 30.2165 16.0995 30.1009C16.0076 29.8979 15.9555 29.6785 15.9462 29.455C15.9694 29.1239 16.0816 28.8055 16.2704 28.5346C16.6592 27.9769 18.0576 27.0782 20.608 27.1726C23.9609 27.2909 26.4652 29.0158 28.0318 30.124C30.0102 31.5313 31.7391 33.2703 33.1449 35.2669C33.1695 35.2711 33.1506 35.2881 33.1384 35.276Z" fill="#73A9FF"/>
<path d="M27.955 31.8482C27.1552 31.5853 26.3154 31.4701 25.4753 31.5079C24.3363 31.5672 23.5295 31.913 21.3362 31.9156C21.3362 31.9156 17.2861 31.9245 16.2775 30.4309C16.2076 30.3271 16.1479 30.2166 16.099 30.101C16.5347 29.5482 17.9267 28.7105 20.3948 28.7979C23.7476 28.9162 26.2519 30.6411 27.8186 31.7493L27.955 31.8482Z" fill="#6398E5"/>
<path d="M20.2384 26.6301C19.0814 26.4807 17.9064 26.5682 16.7823 26.8874C16.0614 27.0991 15.7267 27.3124 14.6784 27.6064C14.1582 27.752 13.015 28.0742 12.1614 28.0979C9.67486 28.1709 7.31558 25.8132 6.27071 23.6736C5.53697 22.1708 5.33432 20.5403 5.46813 20.4922C5.49791 20.4732 5.53952 20.5408 5.60214 20.6546C5.75765 20.9619 5.94593 21.2508 6.16358 21.5161C7.17196 22.7 8.75639 22.9566 9.8426 23.1367C10.461 23.2382 10.4372 23.1716 11.4711 23.3181C11.4711 23.3181 12.5803 23.5356 13.6093 23.71C14.5578 23.8762 15.9554 24.3089 18.0658 25.405C18.7166 25.7337 19.4436 26.1428 20.241 26.6185L20.2384 26.6301Z" fill="#6398E5"/>
<path d="M18.0687 25.3988C17.6277 25.4465 17.1917 25.5337 16.7656 25.6593C16.0447 25.871 15.71 26.0843 14.6617 26.3783C14.1415 26.5239 12.9983 26.8462 12.1447 26.8698C9.65817 26.9428 7.29889 24.5852 6.25401 22.4455C5.97689 21.8711 5.75939 21.2688 5.60506 20.6483C5.76057 20.9556 5.94885 21.2446 6.1665 21.5099C7.17488 22.6938 8.75931 22.9504 9.84552 23.1304C10.464 23.2319 10.4401 23.1654 11.474 23.3119C11.474 23.3119 12.5832 23.5293 13.6122 23.7037C14.5607 23.87 15.9585 24.3149 18.0687 25.3988Z" fill="#73A9FF"/>
<path d="M13.2642 22.6066C13.274 22.6049 13.283 22.6002 13.2902 22.5932C13.2973 22.5862 13.3022 22.5772 13.3043 22.5674C13.3064 22.5575 13.3055 22.5473 13.3018 22.5379C13.2981 22.5286 13.2917 22.5206 13.2835 22.515C11.9998 21.7224 10.8017 20.7947 9.70882 19.7473C8.50005 18.5746 7.61168 17.4431 6.73063 17.68C6.55409 17.731 6.3922 17.8245 6.25873 17.9527C6.12527 18.081 6.02418 18.2401 5.96407 18.4165C5.59408 19.6115 7.78371 21.1776 8.0005 21.3319C9.81501 22.629 11.9152 22.713 13.2642 22.6066Z" fill="#73A9FF"/>
</svg>
