<svg width="212" height="613" viewBox="0 0 212 613" fill="none" xmlns="http://www.w3.org/2000/svg">
<path d="M61.8473 151.674C61.6252 151.674 61.3512 151.631 61.0403 151.602C58.8637 151.364 54.7254 150.619 52.9634 147.338C51.0608 143.783 53.2447 139.671 53.911 138.565L54.0739 138.305C56.2948 134.945 59.767 133.883 66.6594 131.801C70.8831 130.548 75.2223 129.701 79.615 129.272C82.9342 128.93 86.2734 128.809 89.6094 128.911C89.2309 130.391 88.7359 131.841 88.1287 133.247C83.5461 143.812 73.9441 148.422 71.4715 149.506C68.6286 150.764 65.7192 152.036 61.8473 151.674Z" fill="#73A9FF"/>
<path d="M102.568 132.886C114.48 130.667 122.416 132.886 126.258 134.331C132.647 136.752 133.662 139.339 133.884 140.3C134.145 141.409 134.126 142.563 133.829 143.663C133.533 144.763 132.967 145.776 132.181 146.616C129.775 149.182 126.088 148.929 124.037 148.784C122.764 148.698 119.203 148.3 113.673 144.448C109.235 141.337 105.463 137.409 102.568 132.886Z" fill="#73A9FF"/>
<path d="M99.4217 166.986C99.0759 166.717 98.754 166.42 98.4592 166.098C98.0514 165.653 97.6917 165.169 97.3858 164.652C93.7508 158.741 93.6842 149.477 93.6842 149.477C93.7109 144.049 94.7132 138.668 96.6454 133.578C100.36 137.27 103.593 141.396 106.27 145.863C108.772 150.047 111.519 154.644 112.192 158.871C112.573 160.826 112.314 162.849 111.452 164.652C111.185 165.18 109.542 168.266 106.27 168.988C102.997 169.711 100.088 167.507 99.4217 166.986Z" fill="#73A9FF"/>
<path d="M91.4599 124.936C91.4599 127.33 93.4486 129.271 95.9018 129.271C98.355 129.271 100.344 127.33 100.344 124.936C100.344 122.541 98.355 120.6 95.9018 120.6C93.4486 120.6 91.4599 122.541 91.4599 124.936Z" fill="#E3ED62"/>
<path d="M134.216 69.6078C137.31 70.8291 143.522 72.8164 150.503 71.7758C153.686 71.2524 156.702 70.0156 159.313 68.1625C160.357 67.4451 161.157 66.4381 161.608 65.2719C162.003 64.0984 162.003 62.8321 161.608 61.6586C161.121 60.3289 160.18 59.2034 158.943 58.4717C157.299 57.5036 155.37 57.0993 153.464 57.3227C149.763 57.5539 147.009 59.4907 143.84 61.6586C142.826 62.3813 141.93 63.1039 140.138 64.5492C137.606 66.6016 135.593 68.3721 134.216 69.6078Z" fill="#73A9FF"/>
<path d="M101.087 118.431C106.514 117.546 111.615 115.306 115.893 111.927C118.536 109.759 122.993 106.197 122.556 101.81C122.381 100.149 121.592 98.6074 120.335 97.4742C117.988 95.4652 114.923 95.9494 114.413 96.0289C111.718 96.4553 110.074 98.1969 108.401 99.9818C105.543 103.06 104.352 106.197 103.308 109.037C102.195 112.073 101.449 115.226 101.087 118.431Z" fill="#73A9FF"/>
<path d="M87.7754 121.446C86.8056 120.962 85.2361 120.16 83.3335 119.155C71.4883 112.948 70.0076 111.206 64.8254 109.761C61.9973 108.995 54.7274 107.015 51.4996 110.483C50.4584 111.692 49.9288 113.243 50.0189 114.819C50.5001 120.348 59.8134 123.318 62.6044 124.214C66.7589 125.536 71.1553 125.972 75.4974 125.495C79.8394 125.017 84.0262 123.637 87.7754 121.446Z" fill="#73A9FF"/>
<path d="M94.422 112.651C97.7951 109.409 100.686 105.721 103.01 101.696C105.327 97.6489 105.838 95.3509 105.527 93.1395C105.394 92.1929 105.016 89.5262 102.788 88.146C101.834 87.5727 100.723 87.2979 99.6043 87.3583C97.8993 87.5177 96.316 88.2905 95.1624 89.5263C91.0462 93.537 92.2011 101.313 92.9414 106.147C93.273 108.347 93.7678 110.521 94.422 112.651Z" fill="#73A9FF"/>
<path d="M84.9521 25.6439C85.4185 22.6882 86.529 13.2287 80.5102 5.80701C79.0295 3.96424 76.2163 0.488272 71.6263 0.0257728C71.2413 0.0257728 65.985 -0.472859 63.4828 2.91639C60.8102 6.52967 63.3569 11.7689 64.2231 13.5394C67.0807 19.3929 72.7442 21.8933 75.3279 23.1507C78.2892 24.596 84.9521 25.6439 84.9521 25.6439Z" fill="#73A9FF"/>
<path d="M91.459 138.119C91.459 141.733 91.385 159.676 84.7961 166.13C83.619 167.286 81.1537 169.7 78.5773 169.15C76.5193 168.717 75.4384 166.607 75.2385 166.26C73.9356 163.918 74.4242 160.854 75.9122 157.465C78.1332 152.406 83.3154 145.18 85.5364 142.289C87.3521 140.07 89.3316 137.983 91.459 136.045V138.119Z" fill="#73A9FF"/>
<path d="M105.958 321.384C105.421 314.063 106.563 304.4 113.033 296.932C119.866 289.009 130.518 286.006 137.2 286.313C139.653 286.454 142.083 286.85 144.45 287.493C145.181 287.705 145.834 287.9 146.42 288.083C141.547 287.879 136.677 288.569 132.065 290.118C127.163 291.801 122.647 294.407 118.773 297.787C109.028 306.335 106.617 317.425 105.958 321.384Z" fill="#73A9FF"/>
<path d="M105.273 322.209C102.252 315.49 100.047 305.998 103.563 296.843C107.291 287.168 116.299 280.85 122.703 278.956C125.068 278.287 127.498 277.866 129.953 277.7C130.715 277.664 131.397 277.635 132.014 277.623C127.35 279.025 122.998 281.272 119.187 284.248C115.147 287.437 111.785 291.367 109.291 295.816C103.019 307.054 104.548 318.292 105.273 322.209Z" fill="#6398E5"/>
<path d="M108.18 316.445C111.406 309.82 117.297 301.969 126.68 298.577C136.619 294.966 147.403 297.479 153.064 300.966C155.128 302.268 157.044 303.78 158.78 305.479C159.305 306.015 159.776 306.499 160.193 306.947C156.05 304.429 151.459 302.692 146.66 301.827C141.545 300.937 136.301 301.031 131.223 302.104C118.427 304.865 110.736 313.342 108.18 316.445Z" fill="#73A9FF"/>
<path d="M63.5263 384.85V384.815C63.6048 384.685 75.2593 394.077 96.1516 400.153C107.546 403.468 115.34 405.733 124.85 404.577C145.93 402.017 169.559 383.381 169.559 361.513C169.559 360.841 169.329 346.4 159.016 336.931C157.568 335.412 155.946 334.06 154.183 332.902C147.96 328.844 137.513 325.511 129.411 329.363C124.578 331.652 121.666 335.97 119.992 338.212C120.689 336.337 121.62 334.554 122.765 332.902C123.037 332.513 126.705 327.363 132.807 324.809C144.093 320.089 158.182 326.543 166.23 333.752L166.749 334.23C171.299 338.536 174.735 343.838 176.773 349.697C182.687 366.952 174.96 386.207 163.161 397.752C152.007 408.671 138.595 411.32 135.369 411.91C99.2812 418.304 64.644 386.272 63.5263 384.85Z" fill="#6398E5"/>
<path d="M63.5276 384.85V384.815C63.6061 384.685 75.2606 394.077 96.153 400.153C107.548 403.468 115.342 405.733 124.851 404.577C145.931 402.017 169.56 383.381 169.56 361.513C169.56 360.841 169.33 346.4 159.017 336.931C157.57 335.412 155.948 334.06 154.184 332.902C147.961 328.844 137.515 325.511 129.413 329.363C124.579 331.652 121.667 335.97 119.994 338.212C120.69 336.337 121.622 334.554 122.767 332.902C123.039 332.513 126.706 327.363 132.808 324.809C144.094 320.089 158.183 326.543 166.231 333.752L166.751 334.23C170.708 338.317 173.714 343.191 175.566 348.517C181.48 365.772 173.753 385.027 161.953 396.572C150.8 407.491 137.388 410.14 134.162 410.73C101.464 416.523 69.9499 390.744 63.5276 384.85Z" fill="#73A9FF"/>
<path d="M140.22 398.367C139.858 397.918 146.117 394.727 150.407 387.837C151.137 386.679 151.772 385.465 152.304 384.209C153.337 381.766 154.213 378.256 155.929 371.23C156.853 367.443 157.917 362.612 161.366 360.022C162.031 359.521 163.469 358.471 164.992 358.842C165.282 358.912 165.558 359.03 165.807 359.19C166.443 359.616 166.956 360.192 167.299 360.866C168.852 363.644 167.535 367.113 166.2 370.64C165.622 372.136 164.931 373.587 164.134 374.982C163.482 376.133 162.759 377.244 161.971 378.309C157.578 384.238 155.234 387.406 151.7 390.698C146.347 395.712 140.571 398.803 140.22 398.367Z" fill="#73A9FF"/>
<path d="M150.405 387.837C151.135 386.679 151.77 385.465 152.302 384.209C153.335 381.766 154.211 378.256 155.927 371.23C156.851 367.443 157.915 362.612 161.365 360.022C162.029 359.521 163.467 358.471 164.99 358.842C165.28 358.912 165.556 359.03 165.805 359.19C166.826 361.845 165.612 365.036 164.386 368.281C163.808 369.776 163.117 371.227 162.319 372.623C161.667 373.773 160.945 374.884 160.156 375.95C155.981 381.583 153.661 384.722 150.405 387.837Z" fill="#6398E5"/>
<path d="M129.948 401.325C129.61 400.912 136.044 397.691 139.542 390.594C139.73 390.228 139.899 389.857 140.062 389.473C140.932 387.426 141.663 384.488 143.083 378.601C143.856 375.433 144.744 371.386 147.632 369.221C148.132 368.821 148.698 368.508 149.306 368.295C149.746 368.152 150.219 368.13 150.671 368.23C151.094 368.372 151.482 368.596 151.815 368.888C152.147 369.18 152.415 369.534 152.605 369.929C153.904 372.253 152.798 375.156 151.68 378.111C150.798 380.384 149.613 382.534 148.158 384.506C144.485 389.473 142.515 392.122 139.555 394.883C135.084 399.077 130.25 401.69 129.948 401.325Z" fill="#C6C620"/>
<path d="M139.542 390.592C139.729 390.227 139.898 389.855 140.061 389.471C140.931 387.424 141.662 384.487 143.082 378.599C143.856 375.431 144.744 371.385 147.632 369.22C148.131 368.82 148.697 368.506 149.305 368.293C149.407 368.439 149.5 368.591 149.583 368.748C150.882 371.072 149.777 373.974 148.659 376.93C147.776 379.203 146.592 381.353 145.136 383.325C142.816 386.481 141.179 388.693 139.542 390.592Z" fill="#E3ED62"/>
<path d="M119.784 401.117C119.561 400.781 124.92 398.705 127.856 393.266L128.019 392.959C129.071 390.585 129.991 388.157 130.774 385.685C131.548 383.455 132.466 380.612 134.683 379.243C135.004 379.032 135.354 378.865 135.722 378.748C136.114 378.618 136.539 378.618 136.931 378.748C137.224 378.878 137.489 379.064 137.707 379.295C137.926 379.526 138.096 379.797 138.206 380.093C138.979 381.863 137.988 383.856 136.997 385.904C136.562 386.771 136.063 387.607 135.505 388.405C135.046 389.059 134.55 389.687 134.019 390.287C131.04 393.608 129.445 395.389 127.137 397.171C123.603 399.843 119.978 401.401 119.784 401.117Z" fill="#73A9FF"/>
<path d="M128.022 392.957C129.074 390.583 129.994 388.155 130.777 385.684C131.55 383.454 132.469 380.61 134.686 379.242C135.007 379.03 135.357 378.863 135.725 378.746L135.792 378.894C136.565 380.663 135.574 382.657 134.583 384.704C134.148 385.572 133.649 386.408 133.091 387.205C132.632 387.859 132.136 388.488 131.605 389.087C130.161 390.657 129.043 391.907 128.022 392.957Z" fill="#6398E5"/>
<path d="M109.502 401.1C109.611 401.318 112.39 400.51 115.157 398.817C116.97 397.714 118.287 396.558 120.734 394.393C121.163 394.004 121.566 393.591 121.942 393.154C122.417 392.625 122.85 392.061 123.235 391.467C124.142 390.069 125.048 388.694 124.619 387.337C124.565 387.114 124.465 386.903 124.326 386.717C124.187 386.532 124.011 386.376 123.809 386.258C123.534 386.168 123.242 386.138 122.954 386.171C122.666 386.203 122.388 386.297 122.142 386.446C120.414 387.255 119.508 389.237 118.758 390.788C117.958 392.603 117.033 394.363 115.991 396.056C113.424 399.779 109.369 400.84 109.502 401.1Z" fill="#E3ED62"/>
<path d="M114.844 363.56C113.53 363.56 112.245 363.179 111.152 362.466C110.059 361.753 109.207 360.74 108.704 359.554C108.201 358.368 108.07 357.063 108.326 355.805C108.583 354.546 109.215 353.39 110.145 352.482C111.074 351.575 112.259 350.957 113.548 350.706C114.837 350.456 116.173 350.584 117.388 351.075C118.602 351.567 119.64 352.398 120.37 353.465C121.1 354.533 121.49 355.787 121.49 357.071C121.49 358.792 120.79 360.442 119.544 361.659C118.297 362.876 116.607 363.56 114.844 363.56Z" fill="#C6C620"/>
<path d="M112.729 362.088C111.414 362.088 110.13 361.707 109.037 360.994C107.944 360.281 107.092 359.268 106.589 358.082C106.086 356.896 105.954 355.592 106.211 354.333C106.467 353.074 107.1 351.918 108.03 351.01C108.959 350.103 110.143 349.485 111.432 349.235C112.722 348.984 114.058 349.113 115.272 349.604C116.487 350.095 117.525 350.927 118.255 351.994C118.985 353.061 119.375 354.316 119.375 355.599C119.381 356.453 119.214 357.299 118.882 358.09C118.55 358.88 118.061 359.598 117.443 360.201C116.824 360.805 116.089 361.283 115.28 361.607C114.471 361.931 113.603 362.094 112.729 362.088Z" fill="#E3ED62"/>
<path d="M62.281 345.272C62.281 343.833 62.281 342.157 62.1964 340.276C61.859 333.514 60.4612 326.843 58.0518 320.496C51.4059 303.193 41.5035 300.309 38.7182 284.511C38.1562 281.152 37.9054 277.75 37.9691 274.347C38.0536 266.418 39.5218 259.646 40.5247 259.599C40.8026 259.599 41.0262 260.088 41.1289 260.318C41.9928 262.171 44.7539 264.701 50.1915 269.757C55.2061 274.4 58.7345 276.093 64.0875 280.375C70.7334 285.685 76.6664 290.434 80.1645 298.108C84.4723 307.547 82.9256 316.691 82.2127 319.9C78.6058 336.235 64.5769 344.039 62.281 345.272Z" fill="#73A9FF"/>
<path d="M62.1957 340.259C61.8583 333.498 60.4605 326.827 58.0511 320.479C51.4052 303.177 41.5028 300.292 38.7175 284.494C38.1555 281.135 37.9048 277.733 37.9684 274.33L38.1134 274.466C43.128 279.108 46.6564 280.801 52.0094 285.084C58.6553 290.394 64.5882 295.142 68.0864 302.817C72.3942 312.256 70.8475 321.399 70.1346 324.609C68.8358 330.38 66.1102 335.753 62.1957 340.259Z" fill="#6398E5"/>
<path d="M87.6577 314.009C87.9036 310.547 87.719 307.068 87.1079 303.65C86.5416 300.484 85.5056 297.416 84.0327 294.542C80.4076 287.504 73.9551 281.534 69.5325 277.434C65.11 273.334 58.4338 267.836 58.0532 262.686C58.0093 262.162 58.0093 261.635 58.0532 261.111C58.1115 259.966 58.5338 258.867 59.2616 257.967C60.0635 257.094 61.1162 256.477 62.2824 256.197C66.8016 254.858 71.345 257.513 73.1575 258.557C74.453 259.322 75.6673 260.211 76.7826 261.211C80.4076 264.285 85.5008 270.408 88.8661 283.923C93.6995 303.39 87.6577 314.009 87.6577 314.009Z" fill="#E3ED62"/>
<path d="M87.1069 303.65C86.5405 300.484 85.5046 297.416 84.0317 294.542C80.4066 287.504 73.954 281.534 69.5315 277.434C65.1089 273.334 58.4328 267.836 58.0522 262.686C58.0082 262.162 58.0082 261.636 58.0522 261.111C58.2757 261.035 58.4811 260.97 58.6564 260.917C63.1756 259.578 67.719 262.232 69.5315 263.276C70.8269 264.042 72.0413 264.931 73.1565 265.931C76.7816 269.004 81.8748 275.128 85.24 288.643C86.5007 293.55 87.1279 298.591 87.1069 303.65Z" fill="#C6C620"/>
<path d="M100.604 279.387C97.0755 269.152 96.719 267.995 96.719 267.995C94.1633 259.689 92.8885 255.542 93.094 249.885C93.1423 248.587 93.1967 247.313 93.3356 246.051C93.5691 243.155 94.5276 240.359 96.1269 237.91C99.903 232.241 106.35 229.94 108.815 229.061C110.992 228.343 113.211 227.752 115.46 227.291C116.85 226.973 118.808 226.701 122.711 226.176C122.765 226.176 122.819 226.176 122.874 226.176C124.167 226.005 124.342 225.988 124.547 226.135C126.607 227.586 121.683 237.933 117.901 244.422C115.823 247.991 115.75 247.543 114.276 250.322C111.841 254.997 110.015 259.951 108.839 265.069C107.497 270.75 107.703 273.134 107.195 273.145C106.283 273.145 104.658 265.323 105.383 256.486C105.486 255.23 105.631 253.955 105.836 252.681C106.893 246.074 108.899 242.912 109.461 242.063C111.231 239.396 113.322 237.585 113.086 237.343C112.85 237.102 110.343 238.736 108.253 240.942C107.297 241.967 106.464 243.096 105.77 244.304L105.842 243.832C106.899 237.225 108.905 234.063 109.467 233.214C111.237 230.548 113.328 228.737 113.092 228.495C112.856 228.253 110.349 229.887 108.259 232.093C106.319 234.134 105.461 236.152 104.634 237.343C102.338 240.665 101.975 244.334 101.613 247.962C101.613 248.275 101.571 249.448 101.486 251.159C101.426 252.451 101.444 258.704 101.486 260.008C101.54 261.778 101.818 263.129 102.012 265.075C102.114 266.055 102.193 267.187 102.217 268.615C102.273 272.23 101.939 275.84 101.22 279.387C101.22 279.467 101.188 279.543 101.13 279.599C101.072 279.656 100.994 279.688 100.912 279.688C100.83 279.688 100.752 279.656 100.694 279.599C100.636 279.543 100.604 279.467 100.604 279.387Z" fill="#6398E5"/>
<path d="M100.605 270.539C97.0762 260.304 96.7198 259.148 96.7198 259.148C94.9616 253.425 93.8076 249.68 93.3243 246.052C93.5578 243.156 94.5163 240.36 96.1156 237.911C99.8917 232.242 106.338 229.941 108.803 229.062C110.981 228.344 113.2 227.753 115.449 227.292C116.839 226.974 118.796 226.702 122.699 226.177C121.259 229.383 119.645 232.512 117.866 235.551C115.787 239.12 115.715 238.672 114.241 241.45C111.806 246.126 109.979 251.08 108.803 256.198C107.462 261.879 107.667 264.262 107.16 264.274C106.652 264.286 105.704 261.088 105.347 256.464C105.45 255.207 105.595 253.933 105.8 252.659C106.858 246.052 108.864 242.89 109.426 242.04C111.196 239.374 113.286 237.563 113.051 237.321C112.815 237.079 110.308 238.713 108.217 240.919C107.262 241.945 106.429 243.073 105.734 244.282L105.807 243.81C106.864 237.203 108.87 234.041 109.432 233.191C111.202 230.525 113.292 228.714 113.057 228.472C112.821 228.23 110.314 229.864 108.223 232.071C106.284 234.112 105.426 236.129 104.598 237.321C102.302 240.642 101.94 244.311 101.577 247.939C101.275 251.001 101.68 262.097 101.976 265.047C101.813 266.874 101.548 268.692 101.185 270.492C101.191 270.567 101.167 270.641 101.117 270.699C101.067 270.756 100.996 270.792 100.919 270.799C100.842 270.805 100.766 270.781 100.707 270.732C100.648 270.684 100.611 270.614 100.605 270.539Z" fill="#73A9FF"/>
<path d="M69.3564 350.106C69.3081 350.177 69.3926 350.271 69.4651 350.212C75.1889 345.466 80.2851 340.042 84.6359 334.066C87.9239 329.595 90.7568 324.822 93.0944 319.814C97.6996 309.632 99.9679 298.591 99.7403 287.463C99.6678 285.327 98.7676 265.636 86.4485 247.938C84.0318 244.499 81.5607 241.62 76.7817 234.37C70.2868 224.524 67.7795 219.068 66.5107 216.083C66.1905 215.334 63.1636 208.119 62.2815 201.925C61.9648 199.739 61.7812 197.537 61.7317 195.33C61.7317 194.15 61.7317 191.79 61.7317 191.79C61.7317 191.79 56.8439 197.795 60.469 211.953C64.094 226.111 82.4609 248.381 86.2672 255.825C87.5843 258.403 97.4021 278.927 94.9069 300.441C94.2813 306.745 92.6505 312.916 90.0735 318.728C88.9437 321.241 87.5601 323.819 81.0109 333.476C78.1713 337.665 74.2321 343.363 69.3564 350.106Z" fill="#73A9FF"/>
<path d="M57.8589 199.86C57.8726 199.884 57.8936 199.903 57.919 199.914C57.9444 199.925 57.9728 199.929 58.0002 199.924C58.0276 199.918 58.0527 199.905 58.0718 199.885C58.0909 199.865 58.1031 199.84 58.1066 199.813C58.3664 198.043 58.9585 193.017 57.4481 190.15C57.2864 189.749 57.0421 189.385 56.7303 189.081C56.4185 188.776 56.0458 188.538 55.6355 188.38C55.215 188.264 54.7707 188.258 54.3468 188.361C53.9229 188.465 53.5341 188.675 53.2188 188.97C52.083 190.15 52.9288 192.344 53.2188 193.099C53.7143 194.379 54.3124 194.869 55.6355 196.639C56.4512 197.689 57.1883 198.768 57.8589 199.86Z" fill="#6398E5"/>
<path d="M90.6295 279.152C88.6539 271.412 85.8807 266.415 83.0109 263.13C81.4299 261.291 79.525 259.742 77.386 258.558C74.4739 256.971 71.9485 256.57 66.5109 253.249C66.5109 253.249 56.4635 247.125 56.2399 242.04C56.225 241.687 56.2452 241.333 56.3003 240.984C56.3819 240.361 56.5872 239.76 56.9045 239.214C57.4664 238.462 58.2292 237.874 59.1098 237.515C60.9223 236.778 65.7557 236.76 71.9303 240.854C80.0565 246.223 83.6332 254.127 85.8263 259.142C88.5839 265.493 90.2182 272.255 90.6597 279.14C90.7141 279.187 90.6416 279.199 90.6295 279.152Z" fill="#73A9FF"/>
<path d="M83.0117 263.129C81.4308 261.29 79.5259 259.742 77.3869 258.557C74.4747 256.971 71.9493 256.569 66.5117 253.248C66.5117 253.248 56.4643 247.125 56.2408 242.04C56.2258 241.687 56.246 241.333 56.3012 240.984C58.2225 240.329 62.9471 240.447 68.9284 244.399C77.0546 249.768 80.6313 257.673 82.8244 262.687L83.0117 263.129Z" fill="#6398E5"/>
<path d="M71.8411 239C69.2023 236.889 66.158 235.314 62.8872 234.369C60.7787 233.779 59.6247 233.779 56.5796 232.888C55.0692 232.446 51.7463 231.478 49.5954 230.239C43.3241 226.641 41.0705 217.45 41.7411 210.772C42.2124 206.082 44.1941 201.894 44.5989 201.982C44.7016 201.982 44.7016 202.207 44.6835 202.572C44.6006 203.54 44.627 204.513 44.762 205.475C45.4568 209.822 48.9912 212.837 51.4079 214.913C52.7854 216.093 52.8277 215.898 55.1659 217.816C55.1659 217.816 57.5826 220.016 59.8664 221.992C61.9628 223.827 64.7662 226.977 68.3248 232.788C69.4365 234.558 70.6146 236.634 71.8652 238.976L71.8411 239Z" fill="#6398E5"/>
<path d="M68.3418 232.774C67.1767 232.219 65.9636 231.765 64.7168 231.417C62.6082 230.827 61.4542 230.827 58.4092 229.937C56.8987 229.494 53.5758 228.527 51.4249 227.288C45.1536 223.689 42.9 214.498 43.5707 207.821C43.7591 206.033 44.1377 204.27 44.7005 202.559C44.6176 203.526 44.644 204.499 44.779 205.461C45.4738 209.809 49.0082 212.823 51.4249 214.9C52.8025 216.079 52.8447 215.885 55.1829 217.802C55.1829 217.802 57.5996 220.002 59.8834 221.979C61.9798 223.813 64.7651 226.993 68.3418 232.774Z" fill="#73A9FF"/>
<path d="M60.6927 218.844C60.7195 218.854 60.749 218.857 60.7773 218.851C60.8057 218.845 60.8316 218.831 60.8517 218.811C60.8719 218.791 60.8853 218.765 60.8904 218.737C60.8954 218.709 60.8918 218.681 60.88 218.655C58.9072 214.821 57.352 210.795 56.2399 206.644C55.0316 202.019 54.5543 197.978 52.0107 197.206C51.4958 197.059 50.9522 197.036 50.4262 197.139C49.9002 197.242 49.4074 197.467 48.9898 197.795C46.2529 200.078 49.2919 207.128 49.594 207.824C52.1134 213.664 57.1885 217.05 60.6927 218.844Z" fill="#73A9FF"/>
<path d="M59.9134 369.164C60.5056 369.146 61.0954 369.082 61.6776 368.975C63.1575 368.621 64.5031 367.862 65.5564 366.787C66.0337 366.344 66.4687 365.872 66.8916 365.424C72.1902 359.725 73.0119 359.047 74.0632 358.369C77.2169 356.31 78.8965 356.528 79.6397 356.711C79.9161 356.78 80.1852 356.875 80.4432 356.994C81.0327 357.275 81.5633 357.661 82.0081 358.133C82.4801 358.633 82.8438 359.221 83.0774 359.861C83.311 360.502 83.4097 361.182 83.3675 361.861C83.2725 362.681 82.9624 363.463 82.4672 364.132C80.4795 366.958 75.7488 367.966 74.0088 368.309C66.4868 369.754 59.9195 369.27 59.9134 369.164Z" fill="#73A9FF"/>
<path d="M65.558 366.769C66.0353 366.326 66.4703 365.855 66.8932 365.406C72.1918 359.725 73.0135 359.047 74.0648 358.369C77.2185 356.31 78.8981 356.528 79.6413 356.711C79.9177 356.78 80.1868 356.875 80.4448 356.994C80.8503 357.767 81.0261 358.636 80.9523 359.501C80.8574 360.321 80.5473 361.103 80.0521 361.772C78.0644 364.598 73.3337 365.607 71.5937 365.949C69.5988 366.331 67.5839 366.605 65.558 366.769Z" fill="#6398E5"/>
<path d="M67.6103 379.41C68.081 379.763 68.5801 380.078 69.1026 380.354C70.4799 380.989 72.0138 381.228 73.5252 381.044C74.1777 380.991 74.8242 380.896 75.4404 380.808C83.2161 379.663 84.2976 379.628 85.5482 379.758C89.3243 380.1 90.4904 381.309 90.9435 381.905C91.1137 382.129 91.2614 382.368 91.3845 382.619C91.6616 383.2 91.8255 383.826 91.8679 384.465C91.9089 385.144 91.8104 385.825 91.5779 386.466C91.3455 387.107 90.9839 387.697 90.5145 388.199C89.9065 388.767 89.1598 389.173 88.3456 389.379C84.9803 390.353 80.6544 388.199 79.0775 387.409C72.3168 383.911 67.5318 379.51 67.6103 379.41Z" fill="#73A9FF"/>
<path d="M73.5254 381.048C74.1779 380.995 74.8244 380.901 75.4406 380.812C83.2164 379.668 84.2978 379.633 85.5485 379.762C89.3245 380.104 90.4906 381.314 90.9437 381.91C91.1139 382.133 91.2616 382.372 91.3848 382.623C91.2048 383.472 90.7864 384.254 90.1764 384.883C89.5739 385.461 88.829 385.877 88.0135 386.092C84.6483 387.06 80.3224 384.912 78.7455 384.122C76.9493 383.191 75.2067 382.165 73.5254 381.048Z" fill="#6398E5"/>
<path d="M63.6756 373.395C63.664 373.39 63.6542 373.381 63.6473 373.371C63.6405 373.36 63.6368 373.348 63.6368 373.336C63.6368 373.323 63.6405 373.311 63.6473 373.301C63.6542 373.29 63.664 373.282 63.6756 373.277C64.2798 373.23 66.0923 373.082 67.784 372.852C68.5392 372.74 69.2702 372.616 69.8503 372.475C72.0132 371.955 73.6445 371.59 73.9949 371.489C75.973 370.93 77.8802 370.154 79.6801 369.177C81.0067 368.411 82.4744 367.905 84 367.69C85.5648 367.437 87.8184 367.071 89.7396 367.985C90.2348 368.207 90.6898 368.506 91.0869 368.87C91.3565 369.127 91.5883 369.419 91.7757 369.737C92.2772 370.639 92.4131 371.692 92.1563 372.687C92.0203 373.109 91.8164 373.507 91.5522 373.867C89.3046 376.846 84 377.701 84 377.701C74.6655 379.229 65.3733 374.315 63.6756 373.395Z" fill="#73A9FF"/>
<path d="M67.8162 372.852C68.5714 372.74 69.3025 372.616 69.8825 372.475C72.0454 371.955 73.6767 371.59 74.0271 371.489C76.0052 370.93 77.9124 370.154 79.7123 369.177C81.039 368.411 82.5066 367.905 84.0322 367.69C85.597 367.437 87.8506 367.071 89.7718 367.985C90.267 368.207 90.722 368.506 91.1191 368.87C91.1121 369.17 91.0654 369.467 90.9802 369.755C90.8442 370.177 90.6402 370.575 90.376 370.935C88.1285 373.914 82.8238 374.769 82.8238 374.769C77.2836 375.654 71.7554 374.303 67.8162 372.852Z" fill="#6398E5"/>
<path d="M83.3987 418.311C81.8076 423.336 80.5543 428.463 79.6471 433.656C79.3385 435.439 79.0713 437.309 78.805 439.238C78.2019 444.179 77.8836 449.151 77.8514 454.129C77.9637 468.406 88.3166 503.853 121.141 521.769C150.193 537.624 179.141 530.102 186.398 527.907L187.041 527.708C182.496 529.875 150.292 544.571 115.821 528.577C94.6839 518.77 73.0476 497.566 70.5655 472.566C68.4802 451.784 79.9012 428.016 83.3987 418.311Z" fill="#73A9FF"/>
<path d="M84.0054 416.48C83.8434 417.017 83.6409 417.626 83.3981 418.309L83.7763 417.123L84.0054 416.48Z" fill="#73A9FF"/>
<path d="M73.1667 471.365C71.9183 458.591 75.6995 444.751 79.6326 433.699C79.324 435.482 79.0568 437.352 78.7905 439.281C78.1875 444.222 77.8691 449.194 77.8369 454.172C77.9493 468.449 88.3021 503.897 121.126 521.813C150.179 537.667 179.127 530.145 186.383 527.95C176.424 532.061 148.28 541.212 118.422 527.377C97.2851 517.57 75.6488 496.365 73.1667 471.365Z" fill="#6398E5"/>
<path d="M175.21 536.728C173.329 539.78 171.224 542.689 168.912 545.429C159.322 556.778 146.428 564.842 132.036 568.491C111.805 573.417 106.687 564.291 86.2693 568.868C73.6383 571.694 66.2126 577.295 62.3341 578.546C61.1675 578.914 60.3196 578.894 59.7495 578.278C56.689 575.012 66.0005 559.472 78.0451 549.257C82.3947 545.563 91.591 537.938 105.353 535.414C120.177 532.717 126.179 538.481 146.023 539.385C155.826 539.808 165.642 538.914 175.21 536.728Z" fill="#6398E5"/>
<path d="M168.914 545.43C159.324 556.779 146.43 564.843 132.038 568.492C111.807 573.419 106.689 564.292 86.2711 568.87C73.6402 571.695 66.2145 577.296 62.3359 578.547C65.1271 572.231 71.8789 563.191 79.8358 556.423C84.1854 552.729 93.3817 545.104 107.144 542.58C121.967 539.883 127.97 545.647 147.813 546.551C154.866 546.86 161.932 546.484 168.914 545.43Z" fill="#73A9FF"/>
<path d="M75.6023 409.136C77.3596 410.487 77.9485 413.656 77.9029 417.346C77.8132 423.703 74.2415 431.134 73.4152 433.741C73.3717 433.973 73.2555 434.186 73.0833 434.348C72.2638 434.941 71.2074 430.053 71.2074 430.053L69.825 424.535C68.9781 421.245 68.7649 417.824 69.1969 414.455C69.6704 410.845 70.7321 408.757 73.079 408.512C73.9692 408.384 74.874 408.608 75.6023 409.136Z" fill="#73A9FF"/>
<path d="M75.605 409.136C77.3622 410.487 77.9511 413.656 77.9055 417.346C77.8158 423.703 74.2441 431.134 73.4178 433.741C73.3743 433.973 73.2581 434.186 73.0859 434.348C72.198 434.808 71.9117 429.832 71.9117 429.832L71.4368 424.165C71.1318 420.782 71.4707 417.371 72.4355 414.113C73.232 411.489 74.1952 409.779 75.605 409.136Z" fill="#6398E5"/>
<path d="M62.4721 417.599C67.8465 420.123 68.5771 428.368 69.0763 434.008C69.569 439.809 68.9642 445.651 67.2935 451.229C67.2821 451.261 67.2454 451.262 67.2421 451.21C67.1758 450.868 66.9492 449.815 66.5465 448.301C65.4447 444.072 63.8523 439.988 61.802 436.13C57.8491 428.92 52.1081 424.699 54.5835 419.779C55.0422 418.776 55.702 417.878 56.5221 417.14C58.5026 416.639 60.5922 416.801 62.4721 417.599Z" fill="#6398E5"/>
<path d="M60.7305 418.43C65.3214 421.059 66.3701 426.741 67.1944 431.162C68.2259 436.865 68.0015 442.726 66.5372 448.334C65.4414 444.095 63.8529 440 61.8041 436.132C57.8513 428.921 52.1103 424.7 54.5857 419.78C55.0444 418.777 55.7042 417.879 56.5242 417.142C58.0021 417.266 59.4362 417.705 60.7305 418.43Z" fill="#73A9FF"/>
<path d="M53.7189 430.349C59.4501 432.949 61.6017 439.685 63.5118 445.573C64.6674 449.356 65.4677 453.24 65.9024 457.173C66.4971 461.379 66.8368 465.617 66.9193 469.865C66.922 469.901 66.9115 469.936 66.8898 469.965C66.8682 469.995 66.8368 470.015 66.8014 470.022C66.7661 470.03 66.7291 470.025 66.6974 470.007C66.6657 469.99 66.6413 469.962 66.6288 469.928C65.8013 468.182 64.9325 466.553 64.074 465.058C61.9502 461.344 59.4719 457.845 56.6738 454.61C49.647 446.472 43.3604 443.275 43.4409 436.841C43.4729 435.405 43.776 433.987 44.334 432.663C44.7946 431.558 45.5879 430.623 46.6035 429.99C49.3543 428.366 52.8763 429.969 53.7189 430.349Z" fill="#C6C620"/>
<path d="M51.29 433.111C57.0212 435.711 59.1728 442.446 61.0829 448.334C62.2385 452.118 63.0388 456.001 63.4735 459.934C63.7318 461.752 63.923 463.474 64.0669 465.085C61.9474 461.363 59.4722 457.855 56.6759 454.612C49.6491 446.473 43.3625 443.276 43.443 436.843C43.475 435.406 43.7781 433.988 44.3361 432.664C47.0558 431.189 50.4667 432.738 51.29 433.111Z" fill="#E3ED62"/>
<path d="M110.768 479.685C118.04 482.37 113.97 495.701 120.978 507.981C123.836 512.887 127.82 517.041 132.6 520.099C134.809 521.559 137.125 522.847 139.53 523.953C139.57 523.975 139.601 524.01 139.619 524.052C139.637 524.094 139.641 524.141 139.629 524.185C139.618 524.229 139.592 524.268 139.555 524.296C139.519 524.324 139.475 524.338 139.429 524.338C134.713 524.01 130.075 522.971 125.67 521.257C122.168 519.901 111.833 515.726 105.277 505.289C103.128 502.007 101.73 498.289 101.184 494.402C100.954 492.565 99.8087 483.49 104.709 480.427C105.372 480.024 106.094 479.725 106.849 479.543C108.14 479.197 109.505 479.246 110.768 479.685Z" fill="#C6C620"/>
<path d="M107.051 481.987C114.324 484.672 110.253 498.003 117.262 510.283C120.12 515.189 124.103 519.343 128.884 522.401C127.676 522.029 126.609 521.649 125.67 521.257C122.169 519.9 111.834 515.726 105.277 505.289C103.128 502.006 101.73 498.289 101.184 494.402C100.982 492.792 100.079 485.661 103.132 481.845C104.423 481.499 105.788 481.548 107.051 481.987Z" fill="#E3ED62"/>
<path d="M98.8698 460.69C99.4301 460.862 99.9431 461.162 100.369 461.565C100.724 461.884 100.999 462.283 101.172 462.728C102.591 466.374 96.2065 469.293 93.9178 476.049C92.9485 478.895 92.4711 482.903 94.1004 488.379C94.107 488.39 94.111 488.404 94.1121 488.417C94.1132 488.431 94.1114 488.444 94.1068 488.457C94.1023 488.47 94.0951 488.481 94.0857 488.491C94.0763 488.501 94.0649 488.509 94.0523 488.514C94.0335 488.52 94.0132 488.52 93.9946 488.513C93.976 488.506 93.9601 488.494 93.9495 488.477C92.496 486.592 91.3341 484.498 90.5027 482.267C89.8464 480.488 87.9524 475.186 89.7132 469.221C90.2317 467.312 91.1659 465.542 92.4487 464.037C93.0418 463.328 96.0916 459.867 98.8698 460.69Z" fill="#73A9FF"/>
<path d="M100.37 461.561C100.724 461.881 100.999 462.28 101.172 462.725C102.591 466.371 96.2069 469.29 93.9183 476.046C92.9489 478.892 92.4715 482.899 94.1008 488.375C94.1074 488.387 94.1114 488.4 94.1125 488.414C94.1136 488.428 94.1118 488.441 94.1073 488.454C94.1027 488.467 94.0955 488.478 94.0861 488.488C94.0767 488.498 94.0653 488.506 94.0528 488.511C92.9058 486.532 92.0504 484.398 91.513 482.174C91.0761 480.328 89.8397 474.847 92.2884 469.127C93.0315 467.295 94.1685 465.65 95.6186 464.308C96.1292 463.83 98.2441 461.957 100.37 461.561Z" fill="#6398E5"/>
<path d="M75.5299 503.394C83.6644 507.574 90.5046 513.898 95.3138 521.683C95.3138 521.683 91.9506 520.021 87.3082 517.903C79.6498 514.449 68.5514 509.712 63.3252 509.214C54.9241 508.397 55.1088 509.914 55.1088 509.914C55.1088 509.914 56.6776 511.51 58.8484 513.53C53.3751 513.299 53.5053 514.419 53.5053 514.419C53.5053 514.419 59.4331 520.476 64.5292 524.149C66.5564 525.596 74.4499 531.157 85.2488 532.298C88.3809 532.564 91.5261 532.643 94.6677 532.535C85.0535 537.915 79.7775 538.269 79.7775 538.269C73.0728 538.725 66.3807 537.228 60.5093 533.958C55.0767 530.906 51.3976 527.811 48.2456 522.38C44.2885 515.589 40.8801 508.355 39.4777 504.44C38.9037 502.857 38.6661 501.815 38.8482 501.568C39.9805 500.035 41.8796 499.42 45.4856 499.037C52.2477 498.313 63.174 497.143 75.5299 503.394Z" fill="#6398E5"/>
<path d="M73.925 507.9C78.9268 510.44 83.4536 513.824 87.3067 517.903C79.6484 514.45 68.5499 509.713 63.3238 509.214C54.9227 508.398 55.1074 509.914 55.1074 509.914C55.1074 509.914 56.6761 511.51 58.847 513.531C53.3736 513.3 53.5039 514.42 53.5039 514.42C53.5039 514.42 59.4316 520.477 64.5278 524.149C66.555 525.596 74.4485 531.157 85.2474 532.299C88.3795 532.564 91.5246 532.643 94.6663 532.535C85.0521 537.915 79.7761 538.27 79.7761 538.27C73.0713 538.725 66.3792 537.228 60.5079 533.958C55.0752 530.906 51.3961 527.811 48.2442 522.381C44.2871 515.589 40.8786 508.355 39.4763 504.44C40.8991 503.949 42.3798 503.648 43.8807 503.543C50.6428 502.819 61.5691 501.649 73.925 507.9Z" fill="#73A9FF"/>
<path d="M50.9235 461.751C54.7096 463.528 60.8238 466.395 65.3247 473.612C68.2678 478.4 69.8509 483.901 69.9038 489.524C69.8243 489.401 69.0421 488.18 67.8736 486.436C65.0314 482.211 59.9644 474.915 57.0641 472.787C52.9057 469.696 52.5281 470.533 52.5281 470.533C52.5281 470.533 52.6652 471.104 52.8977 471.977C53.5126 474.422 54.2918 476.822 55.2301 479.162C57.03 483.434 59.8844 487.179 63.5257 490.044C66.7752 492.514 70.9042 494.304 70.6723 494.875C70.6448 494.952 70.5209 494.995 70.307 495.005C69.6308 495.033 68.9873 495.05 68.3744 495.042C59.9983 495.112 56.483 493.287 56.483 493.287C52.8132 491.391 49.7716 488.471 47.7264 484.88C45.8374 481.538 44.8976 478.745 44.9596 474.886C45.0521 469.233 45.7375 463.501 46.3164 461.59C46.4516 461.21 46.5455 460.946 46.6428 460.937C47.7153 460.529 48.9054 460.808 50.9235 461.751Z" fill="#6398E5"/>
<path d="M49.181 462.583C52.967 464.359 59.0812 467.227 63.5822 474.444C65.8427 478.093 67.3056 482.181 67.8748 486.438C65.0327 482.213 59.9657 474.918 57.0653 472.789C52.907 469.698 52.5293 470.535 52.5293 470.535C52.5293 470.535 52.6665 471.106 52.8989 471.98C50.9982 470.889 50.7855 471.364 50.7855 471.364C51.4895 474.303 52.3988 477.189 53.5068 480C55.3067 484.273 58.1611 488.017 61.8025 490.882C64.2381 492.729 67.1756 494.204 68.3881 495.071C60.0119 495.14 56.4967 493.315 56.4967 493.315C52.8269 491.42 49.7852 488.5 47.74 484.908C45.851 481.566 44.9112 478.773 44.9733 474.915C45.0657 469.262 45.7512 463.53 46.3301 461.618C47.3265 461.782 48.2895 462.108 49.181 462.583Z" fill="#73A9FF"/>
</svg>
